<?xml version="1.0" encoding="utf-8"?>
<!-- Generator: Adobe Illustrator 21.1.0, SVG Export Plug-In . SVG Version: 6.00 Build 0)  -->
<svg version="1.1" id="servers_xA0_Image_1_" xmlns="http://www.w3.org/2000/svg" xmlns:xlink="http://www.w3.org/1999/xlink"
	 x="0px" y="0px" viewBox="0 0 942.2 1032.2" style="enable-background:new 0 0 942.2 1032.2;" xml:space="preserve">
<style type="text/css">
	.st0{fill:#211550;}
	.st1{fill:#05CC7A;}
</style>
<g>
	<path class="st0" d="M471.1,267.1c155.2,0,310.3,0,465.5-0.1c4.4,0,5.7,0.9,5.7,5.6c-0.2,73.5-0.2,147,0,220.5
		c0,4.1-0.9,5.2-5.1,5.2c-310.6-0.1-621.3-0.1-931.9,0c-4.1,0-5.2-0.8-5.2-5.1c0.2-73.7,0.1-147.3,0-221c0-4.1,0.9-5.2,5.1-5.2
		C160.5,267.1,315.8,267.1,471.1,267.1z"/>
	<path class="st0" d="M470.6,765.1c-154.8,0-309.6,0-464.5,0.1c-5,0-6.2-1.1-6.2-6.2c0.2-73.2,0.2-146.3,0-219.5
		c0-4.6,1.2-5.6,5.7-5.6c310.3,0.1,620.6,0.1,930.9,0c4.5,0,5.6,1.1,5.6,5.6c-0.2,73.3-0.2,146.7,0,220c0,4.6-1.2,5.6-5.7,5.6
		C781.3,765.1,625.9,765.1,470.6,765.1z"/>
	<path class="st0" d="M471.2,1032.1c-155.2,0-310.3,0-465.5,0.1c-4.4,0-5.7-0.9-5.7-5.6c0.2-73.5,0.2-147,0-220.5
		c0-4.1,0.9-5.2,5.1-5.2c310.6,0.1,621.3,0.1,931.9,0c4.1,0,5.2,0.8,5.2,5.1c-0.2,73.7-0.1,147.3,0,221c0,4.1-0.9,5.2-5.1,5.2
		C781.8,1032.1,626.5,1032.1,471.2,1032.1z"/>
	<path class="st0" d="M471.1,0.1c155.2,0,310.3,0,465.5-0.1c4.5,0,5.7,1,5.7,5.6c-0.2,73.3-0.2,146.7,0,220c0,4.6-1.2,5.6-5.7,5.6
		c-310.3-0.1-620.6-0.1-930.9,0c-4.5,0-5.7-1-5.7-5.6c0.2-73.3,0.2-146.7,0-220C0,1.1,1.2,0,5.7,0C160.8,0.1,316,0.1,471.1,0.1z
		 M855.2,107.1c19,0.2,33.7-13.6,33.9-31.8c0.3-18.2-14.2-33.3-32.2-33.1c-20.1,0.2-32.3,15.1-32.8,31.8
		C823.6,89.6,835.7,106.2,855.2,107.1z"/>
	<path class="st1" d="M855.2,107.1c-19.5-0.9-31.5-17.5-31-33.1c0.5-16.7,12.8-31.6,32.8-31.8c18-0.2,32.4,14.9,32.2,33.1
		C888.9,93.5,874.2,107.3,855.2,107.1z"/>
</g>
</svg>
