<?xml version="1.0" encoding="utf-8"?>
<!-- Generator: Adobe Illustrator 21.1.0, SVG Export Plug-In . SVG Version: 6.00 Build 0)  -->
<svg version="1.1" id="analysis_xA0_Image_1_" xmlns="http://www.w3.org/2000/svg" xmlns:xlink="http://www.w3.org/1999/xlink"
	 x="0px" y="0px" viewBox="0 0 787.5 771.3" style="enable-background:new 0 0 787.5 771.3;" xml:space="preserve">
<style type="text/css">
	.st0{fill:#221651;}
</style>
<g>
	<path class="st0" d="M240.1,0c121.2,0,223.5,88.9,239.6,208c8.4,62.3-5.8,119.5-41.4,171.2c-2.1,3-2.3,4.6,0.5,7.3
		c10.7,10.3,21.1,20.8,31.5,31.4c2.2,2.2,3.4,2.2,5.5,0c5-5.3,10.6-10.2,15.4-15.7c3-3.5,4.6-2.4,7.2,0.2
		c36.1,36.2,72.3,72.4,108.4,108.5c59.5,59.5,119,119.1,178.6,178.5c2.9,2.9,2.8,4.5-0.1,7.3c-24.3,24-48.4,48.2-72.5,72.5
		c-2.6,2.6-3.8,2.6-6.4,0c-95.6-95.8-191.3-191.4-287.1-287c-3.1-3.1-3.7-5-0.1-8.1c4.4-3.8,8.1-8.4,12.5-12.2
		c3.1-2.7,2.3-4.1-0.2-6.6c-9.9-9.6-19.7-19.4-29.3-29.4c-2.6-2.7-4.1-2.5-6.8-0.2c-25.8,21.6-54.8,37.1-87.1,46.5
		c-139.7,40.7-283.8-51.2-305.6-195C-17.4,144.4,74.3,21.3,207.7,2.3C218.8,0.7,229.9-0.2,240.1,0z M58,240.6
		c0,100.6,81.7,182.3,182.2,182.4c100.9,0.1,182.8-81.6,182.8-182.3C423,139.8,341.3,58,240.5,58C139.7,58,57.9,139.8,58,240.6z"/>
	<path class="st0" d="M207.5,301.4c0.7,2.8,2,5.1,4.2,7c3.4,3.1,2.9,5-1.7,7.5c-0.1-0.5-0.4-0.9-0.9-0.5c-0.1,0.1,0.2,0.7,0.3,1.1
		c2.1,3.6,7.5,4.5,8.1,9.6c0.4,3.5-0.2,5.4-4.1,5.6c-5.7,0.3-11.3-0.5-16.9-1.1c-3.7-0.4-4.7-3.4-5.1-5.9c-1.7-8.9-5.6-16-13.9-20.2
		c-0.9-0.5-2.5-1-1.9-2.4c0.9-2.1,2.2-0.3,3.3,0c1.7,0.5,3.5,3,4.7,1.5c1.5-1.9,2.6-5,1.4-7.5c-2.3-4.8-2.6-9.9-3.4-15
		c-0.3-1.9-0.9-3.7-2.7-4.5c-2.8-1.3-3-3.6-2.9-6.3c3.8,1.1,5.8,4.3,8.6,6.9c2.8-5,5.5-9.8,8.1-14.6c0.5-1,1.3-1.9,0.5-3.2
		c-4.5-7.7,0.4-13,5.2-17.9c1.3-1.4,2.2-2.6,1.9-4.1c-0.4-2.6-2.4-0.7-3.6-0.8c-4.5-0.6-5.5-2-3.9-5.8c0.4-0.9,0.6-1.7-0.3-2.2
		c-0.7-0.4-1.5-0.7-2.3-0.7c-1.2,0-1.1,1-1.1,1.8c-0.1,5.6-1.5,10.4-7.7,12.7c6.4,3.2,6.6,3.8,3.1,9.5c-5.5,9-13.3,15.9-21.8,21.7
		c-5.5,3.7-7.2,9-8.7,14.5c-0.8,2.8-0.2,5.8-3.1,7.9c-1.6,1.1,0.2,3,0.8,3.2c3.4,1.5,3.5,4.8,4.6,7.6c0.6,1.7,0.9,3.6,2.6,4.7
		c2.7,1.7,3.1,4.6,2.6,7.1c-0.5,2.8-3.7,1.6-6.1,2.3c2.5,3.5,5.4,6.1,6.9,9.9c1.9,5,0.3,8.3-4.8,8.5c-5.4,0.2-10.9,1.4-16.3-0.5
		c-2-0.7-3.1-1.4-3.4-3.5c-0.6-3.8-1.2-7.5-2.3-11.2c-1.8-6.6-4-13.1-10.6-16.7c-1.2-0.7-3.9-1.5-2.6-3.5c1.5-2.4,3.1,0.3,4.6,0.9
		c1.5,0.6,2.9,1.6,4.7,2.6c3.1-12-1.3-23.1-3.6-34.7c3.7,1.1,5.6,3.5,8.1,7.3c0.6-7.3,7.3-9.5,8.8-15.3c-6.7-1.8-14,0.1-20.4-3
		c4.7-2.3,9.6-2.6,14.4-3.3c2.8-0.4,4.6-1.4,5.2-4.3c0.5-2.1,1.3-4.1,2.8-5.8c2-2.3,3-4.7,1.5-7.7c-0.9-1.8-0.5-3.8,1.1-4.9
		c1.7-1.2,1.9,1.8,3.7,1.8c2.5-4.7,1.8-9.4,0-14.2c-2.2-5.5-5-10.9-6.2-16.7c-0.6-3-4.3-4.5-3-7.9c0.2-0.1,0.3-0.3,0.5-0.4
		c0.7-0.3,2.2,1.5,2.1-0.4c-0.1-2.5,3.7-5.7-0.4-7.4c-4.9-2-4.7-6.4-5.9-10.1c-0.6-1.8-0.3-3.1,2-2.4c4.7,1.3,10.8-0.6,13.1,6
		c0.5,1.4,1.7,1.2,2.9,0.7c2.2-1.1,4.4-2.1,7.5-3.6c-11.7-4-22.6-7.7-33.4-11.4c-1.1-0.4-2.2-0.7-3.3-1.1c-1.8-0.7-1.1-2.2-0.9-3.4
		c0.3-2,1.5-1.1,2.6-0.8c1,0.3,2.1,1.2,3.4,0.1c-1.6-2.7-8.7-1.8-5.3-7.8c1.6-0.3,2.8,0.7,4.2,1.2c2.5,0.8,3.9,1.8,6.9-0.9
		c3.1-2.8,8.8-3.3,13.7-1.5c9.5,3.5,19.1,6.9,28.6,10.4c2.1,0.8,4.2,1.5,6.3,0.6c4.8-2,9.2-1.1,13.8,0.9c7,3.1,14.4,5.2,21,9.2
		c3.6,2.2,7.1,0.2,10.5-0.2c-0.9-3.4-1.9-6.6-2.4-9.8c-0.3-2-1.4-2.9-2.9-3.7c-2.9-1.7-6-3.1-8.6-5.1c-2.3-1.8-7.3-1.4-6.2-6.6
		c0.1-0.3-1.9-1.1-3-1.6c-7-3.3-14.1-6.6-21.8-10.2c4-1.3,7.1-1,10.4,0.3c11.9,4.8,23.9,9.2,35.8,14c3.5,1.4,6.6,1.8,9.8-0.2
		c3.3-2,6.4-2.2,9.7,0.1c5.2,3.6,10.4,3.6,15.8,0.3c6.6-4,13.3-4.3,20.8-1.6c6,2.1,12.5-0.4,18.8-0.7c1.6-0.1,1.8-1.8,2.3-3
		c1.9-4.6,3.8-9.2,6-14.6c2.5,5.8,4.8,10.9,7.3,16.7c1.6-3.9,3-7.3,4.8-11.5c0.6,2.5,1.1,3.9,1.2,5.3c0.2,7.3,3.7,12.5,9.5,16.6
		c1.1,0.8,2.4,1.7,2.7,2.9c3,10.2,11.4,16.7,17.5,24.6c1.7,2.3,2,3.2-0.9,4.5c-6.7,2.9-13.3,6.1-19.8,9.4c-2.4,1.2-4.3,1.1-6.5-0.2
		c-2-1.1-4-2.8-6.4-2.7c-2.9,0.1-6-0.4-8.8,1.1c2.5,4.5-5.2,8.4-0.1,13.5c4.3,4.3,2.7,11.1,3.8,16.7c1,5.4,1.5,10.8,2.3,17
		c-5.1-2.3-9.8-4.3-14.4-6.5c-2.9-1.5-4.6-0.5-6.9,1.6c-4.5,4.1-5.5,9.5-6.5,15c-0.5,2.6,0.3,3.4,2.8,2.7c2.6-0.7,5.1-1.3,8.3-2.1
		c-2.2,3.9-5,6.6-7.7,9.3c-2.4,2.4-3,4.4-0.7,7.2c1.4,1.8,2.4,4,3.5,6c-0.6,0.2-0.9,0.4-1.1,0.4c-8.4-2.3-8.5-2.3-8,6.4
		c0.6,10.2,5,18.6,12.2,25.8c2.7,2.7,7.6,5.4,5.3,9.9c-2.1,4.2-6.1-0.9-10.3,0.4c3.2,2,3.5,5.9,8.3,6c3.3,0,4.3,3.7,4.1,6.5
		c-0.2,2.5-0.8,5.3-4.9,5.6c-5.5,0.4-11-0.6-16.4-0.5c-1.3,0-2.4-0.3-2.8-1.6c-2.3-7-8.4-11.7-10.7-18.9
		c-1.9-5.8-4.3-12.1-11.5-14.1c-0.9-0.3-2.6-0.7-2-2.3c0.6-1.6,1.8-0.6,2.9-0.4c2,0.4,4,4.2,6,0c1.8-3.7,0.6-6.6-2.5-8.5
		c-2.3-1.4-3-3.2-3-6.1c3,1.1,5.5,2.5,8.1,4.6c-0.6-6.6-1.2-12.7-1.7-18.8c-0.1-1.6-0.8-2.8-1.9-3.9c-1.4-1.4-2.9-2.8-4-4.4
		c-1.9-2.7-1.4-16.8,0.6-19.6c1.3-1.9,1.5-4.3,3.2-6c0.8-0.8,1.6-1.9,0.7-3.1c-0.2-0.3-0.9-0.3-1.3-0.3c-1.3,0.3-2.6,0.6-2.7,2.4
		c-0.1,1.1-0.5,2.2-0.8,3.9c-2-1.2-3.9-1.9-5.3-3.2c-3.4-3.3-7.4-2-10,0c-3,2.3-7.4,4-6.7,9.9c0.4,3.4,2,2.6,3.7,2.9
		c5.6,0.9,5.8,1.4,2.8,6.3c-2.2,3.6-5.1,6.6-8.8,8.6c-2.4,1.3-3.3,3.1-3.3,5.6c0,0.5-0.1,1-0.1,1.5c-1.3,20.7-1.3,20.7,7.4,44.1
		c2,5.5,0.8,6.9-5.2,6.1c-0.8-0.1-1.5-0.4-3.7-1.1c3.3,4.7,5.8,8.4,8.5,11.8c2.3,2.9,2.8,5.6,1.4,9.1c-1.4,3.6-4.3,2.3-6.7,2.8
		c-5.9,1.2-11.5-1.4-17.3-1.5c-2.6,0-6.1-7.4-5.4-11.4c0.8-4.8-0.3-9.2-2.3-13.5c-1.5-3.1-2.5-6.1-2.2-9.9c0.4-5-4-8-7.4-11.1
		c-0.6-3.4,0.6-4.1,3-1.7c1.7,1.7,2.9,3.8,4.9,6.5c2.3-5.7,4.7-9.2,1.9-13.6c-1.2-1.9-0.1-3.2,2.3-3.8c1.3-0.3,0.7-1.2,0.9-1.9
		c2.5-9.3-1.9-16.3-7.6-23.2c-1.3,1.8-2.5,3.2-3.4,4.8c-1.1,1.8,0,4.4-1.8,6.1c-5.8,5.4-6.1,12.7-6.8,19.9c-0.1,0.8,0.8,2.5,1,2.5
		C207,295.3,205.6,300.1,207.5,301.4z M195.7,257.5c0.5-4.3,2.8-7.1,2-11.6C195,249.5,192.7,252.3,195.7,257.5z M274,253.2
		c0.1-2-0.3-3.9-2.2-4c-1.4-0.1-1.7,1.8-1.6,3.1c0.1,1.5-0.1,3.7,1.8,3.9C273.8,256.5,274,254.5,274,253.2z"/>
	<path class="st0" d="M143.9,198.1c-0.2-0.2-0.4-0.3-0.6-0.5c0.4-0.4,0.7-0.4,1,0.1C144.2,197.8,144.1,197.9,143.9,198.1z"/>
</g>
</svg>
