<?xml version="1.0" encoding="utf-8"?>
<!-- Generator: Adobe Illustrator 21.1.0, SVG Export Plug-In . SVG Version: 6.00 Build 0)  -->
<svg version="1.1" id="web-apps_xA0_Image_1_" xmlns="http://www.w3.org/2000/svg" xmlns:xlink="http://www.w3.org/1999/xlink"
	 x="0px" y="0px" viewBox="0 0 1773 1330" style="enable-background:new 0 0 1773 1330;" xml:space="preserve">
<style type="text/css">
	.st0{fill:#211551;}
	.st1{fill:#05CD7B;}
</style>
<g>
	<path class="st0" d="M886.2,1330c-290.2,0-580.3,0-870.5,0c-7.5,0-15.7-8.1-15.7-15.5c0-433,0-866,0-1299C0,7.4,7.5,0,15.6,0
		c219.7,0,439.3,0,659,0c7.8,0,16.4,8.5,16.4,16.3c0,21.5,0.2,43-0.1,64.5c-0.1,4.5,1.1,5.3,5.4,5.3C858.6,86,1021,86,1183.3,86
		c191.3,0,382.7,0,574,0c7.5,0,15.7,8.1,15.7,15.5c0,404.2,0,808.3,0,1212.5c0,7.9-8,16-15.8,16C1466.9,1330,1176.6,1330,886.2,1330
		z M886.2,1290c279.8,0,559.7,0,839.5,0c7.3,0,7.3,0,7.3-7c0-383.3,0-766.7,0-1150c0-8.1,1.1-7-6.7-7c-559.8,0-1119.7,0-1679.5,0
		c-7.8,0-6.7-1.1-6.7,7c0,383.3,0,766.7,0,1150c0,7,0,7,7.3,7C326.9,1290,606.6,1290,886.2,1290z M38,65.4
		C38,79.5,49.2,90.9,63.3,91C77.4,91.1,88.9,79.9,89,65.9C89.1,51.5,77.8,40,63.5,40C49.4,40,38,51.3,38,65.4z M139.5,40
		c-14.1,0-25.5,11.3-25.5,25.4c-0.1,14.1,11.2,25.5,25.2,25.6c14.3,0.1,25.8-11.3,25.8-25.6C165,51.3,153.6,40,139.5,40z M241,65.5
		c0-14.1-11.3-25.4-25.4-25.5c-14.1,0-25.5,11.2-25.6,25.3C189.9,79.6,201.3,91,215.6,91C229.7,90.9,241,79.6,241,65.5z"/>
	<path class="st1" d="M886.2,1290c-279.7,0-559.3,0-839,0c-7.3,0-7.3,0-7.3-7c0-383.3,0-766.7,0-1150c0-8.1-1.1-7,6.7-7
		c559.8,0,1119.7,0,1679.5,0c7.8,0,6.7-1.1,6.7,7c0,383.3,0,766.7,0,1150c0,7,0,7-7.3,7C1445.9,1290,1166.1,1290,886.2,1290z
		 M849.3,931.7c5.6,0.8,11.1,5.5,16.8,0.3c0.2-0.2,1,0,1.4,0.1c1.6,0.5,3.3,2.6,4.8,0.4c1.1-1.7,0.5-3.8-0.4-5.7
		c-4.3-9.6-7.2-19.7-10.2-29.7c-2.8-9.7-5.5-19.4-8.3-29.2c-2.7,0.6-2.9,3.6-5.3,4.3c0-1.8-0.1-3.4,0-5c1.2-19.9,2.6-39.9,3.6-59.8
		c0.2-4.1,1.4-6.5,5.1-8.7c12.7-7.1,22.3-17.3,27.9-30.9c1.3-3.1,0.9-4.5-2.8-4.8c-5-0.4-9.9-1.8-14.9-1.2c-3.2,0.4-3.3-0.9-2.3-3.4
		c1.3-3.2,1.5-6.5-0.4-9.6c-1-1.6-0.6-2.7,0.7-3.9c5.4-5,10.8-9.9,16.2-14.9c1-1,2.2-1.8,3.6-1c2.6,1.6,4.5,0.3,6-1.5
		c2.1-2.5,3.9-2,6.4-0.4c6.6,4.2,13.3,8.1,20.5,12.4c0.5-4.3,1.1-7.7,1.4-11.1c0.3-3.9,3.5-3.4,5.9-4.1c1.3-0.4,3.2-1.3,4.1,0.2
		c1.4,2.3,0,4.3-1.1,6.4c-2.3,4.3-7.7,7.2-6.3,13.3c0.1,0.4-1,1.2-1.7,1.7c-5.5,4-6.9,9.6-5.9,16c0.9,5.6,3.8,10.6,1.9,17.1
		c-2.2,7.7,0.5,15.4,7.7,20.6c2.1,1.5,3.5,4,5.4,5.8c1.9,1.8,2.8,3.8,3,6.5c0.7,9,1.9,17.9,2.4,26.8c0.4,6.4,1.8,12.8,1.1,20.1
		c-5-7.6-13.1-8.7-20.1-13.7c1.3,7.7,2,14.1,9.5,16.7c1.5,0.5,3,1.4,3.8,3.1c3,6.3,5.1,12.4,0.2,19c-1.7,2.3-2.6,3.4-5.3,1.8
		c-3-1.8-6.3-3.1-9.4-4.7c-2.2-1.1-4-2.3-5.6,1c-1.6,3.1,0.6,3.8,2.4,4.8c7,4.1,14.1,8.2,21.2,12.3c1.5,0.9,2.8,1.3,1.4,3.7
		c-2.5,4.3-0.2,8.5,2.8,11.1c2.5,2.1,3.8,4.4,4.8,7.2c1.5,3.9,2.7,7.9,4.3,11.7c2,4.6,3.6,9.9,7.6,12.7c4,2.8,6,6.4,7.9,10.5
		c1.6,3.6,3.5,7.2,5.2,10.8c0.9,2,2,3.1,4.4,3.3c13,0.8,25.9,2.1,38.9,1.9c7.5-0.1,11.6-2.4,13.9-9.9c3.2-10.3-2.9-19.7-13.7-19.4
		c-1.5,0-4,1.1-4.4-0.9c-1-5-5-7.3-8-10.5c-0.9-1-2.2-1.8-1.4-3.4c0.9-1.8,2.3-0.6,3.5-0.3c4.7,1.3,9.3,2.8,13.9,3.9
		c4.1,1,6.6-1.4,5.8-5.5c-0.2-1.1,0.3-2.1,1.1-2.6c1.8-1.3,1.7-2.5,0.3-4.1c-4-4.5-7.1-10.2-11.9-13.4
		c-11.9-7.9-16.9-20.1-22.7-32.1c-1.2-2.5-2.4-5.1-3.7-7.6c-2-4-4.1-7.9-4.3-12.6c-0.3-9-0.7-18-1.3-26.9c-0.3-4,0.4-5.4,4.8-3.9
		c5.8,2.1,11.9,3.5,19,5.6c-4.8-8.3-8.9-15.3-13.1-22.3c-1.5-2.4-1.5-3.9,0.6-6c3.7-3.6,7-7.6,10.4-11.5c4.5-5,8.9-10.1,13.3-15.2
		c-7.7,0.9-14.7,2.7-21.8,4.4c-5.8,1.4-7.2,0.3-6-5.4c1.7-8.2,3.5-16.3,5.3-24.4c0.3-1.2,0.1-3.2,1.5-3.5c5.8-1.5,7.2-7,10.5-10.8
		c3.3-3.9,7.7-5.3,12.2-3.2c10.6,4.9,21.2,9.7,31.8,14.5c1.4,0.6,3,2.5,4.4,1.1c0.7-0.7,0.3-2.8,0.1-4.3c-2.2-16.3-4.6-32.6-6.6-49
		c-1.4-11.4-2.2-22.9-10.4-32.1c-0.7-0.7-1.1-1.7-1.8-2.4c-1.7-1.6-1.3-2.9,0.3-4.1c3.9-3.1,2.4-9,6.5-12.3c1.3-1,0.6-4.5-2.1-5.8
		c-0.8-0.4-1.5-1.2-2.4-2c17.6-4,24.3-3.3,39.6,4.3c0.9,0.4,1.9,0.8,2.7,1.4c3.2,2.4,6.3,1.8,9.7,0.1c17.9-8.6,35.8-17.1,53.8-25.4
		c3.4-1.6,3.1-2.8,1-5.3c-11.3-13.4-22.4-26.9-33.7-40.2c-2.5-3-4.5-6.1-5.7-9.8c-2.5-7.8-5.4-15.3-12.6-20.4
		c-4.1-2.9-7.2-7-11.2-9.9c-4.4-3.2-6.3-7.3-7.1-12.5c-1.6-9.4-3.6-18.7-5.7-29.4c-4,10.2-7.4,19-11.3,29
		c-6.1-14.1-11.7-26.9-17.7-40.7c-4.6,11.3-9.2,21.3-12.6,31.7c-2.5,7.8-6.2,11.3-14.8,11.6c-17,0.5-34.1,4.5-50.6-2.9
		c-2.3-1-4.8-1.3-7.2-2.1c-2.5-1-4.8-0.6-7.2,0.4c-10.1,4.3-20.5,8-30.4,12.7c-7.1,3.3-13.2,3.7-20.1-0.4
		c-6.1-3.6-12.8-7.9-19.5-8.4c-6.7-0.5-13.3,4.6-19.8,7.4c-2.9,1.2-5.2,1.2-8,0.1c-31.2-12.2-62.5-24-93.5-36.6
		c-8.5-3.5-16.3-2.5-24.8-1.5c0.9,2.1,2.8,2.2,4.2,2.9c17.8,8.4,35.6,16.7,53.4,25.1c1.4,0.7,4.3,1,2.2,3.6c-2.9,3.6-0.8,5,2.2,6.7
		c11.8,6.8,23.6,13.8,35.4,20.6c2.1,1.2,3,2.6,3.5,5c1,5.2,1.3,10.6,3.3,15.6c4,10.5,4,10.6-7,11.9c-4,0.5-8,2.4-12.2-0.1
		c-16.5-9.9-34.9-15.6-52.4-23.3c-12-5.3-23.2-6.9-35.3-1.9c-3.3,1.4-6.3,0.7-9.6-0.5c-24.2-8.9-48.5-17.7-72.7-26.7
		c-4-1.5-7.9-2.2-12.1-1.4c-4.7,0.9-9.5,1.9-14.3,2.3c-4.6,0.3-7.4,2.2-8.6,6.6c-0.9,3.2-2.7,3-5.3,1.8c-5.2-2.3-10.4-4.4-15.7-6.5
		c-0.9-0.4-2-1.5-3.1-0.2c-2.4,3.1,0.1,11.9,3.8,13.4c2.5,1,5,1.9,7.5,2.9c1.8,0.7,2.9,2.3,2.2,3.9c-0.7,1.7-2.3,0.4-3.5,0
		c-2.5-0.8-5.1-1.7-7.6-2.5c-0.8-0.2-2-0.9-2.2-0.2c-0.9,2.8-1.7,5.7-2,8.7c-0.2,2.6,2.4,2.3,4,2.8c26.7,9.3,53.5,18.5,80.3,27.7
		c1.7,0.6,3.8,0.8,5.2,2.9c-4.2,1.9-8.1,3.8-12.1,5.5c-9.3,4.1-9.5,4.2-14.5-4.8c-2.2-4-4.9-5.8-9.2-6.3c-6.8-0.7-13.5-1.7-20.3-2.9
		c-4.1-0.7-4.6,0.9-3.6,4.3c1.1,3.8,2.3,7.7,2.9,11.6c1,6.7,4.1,11,10.6,13.5c5.4,2.1,6.6,6.2,3.8,11.3c-1.7,3.2-2.9,6.3-1.4,9.8
		c-0.1,0.1-0.3,0.3-0.4,0.4c-2.4-1.3-4.9-2.6-7.8-4.2c1.2,5.8,1.1,11.5,6.6,14.8c1.1,0.6,1.7,1.7,1.4,2.9c-1.2,5,1.4,9.1,3.5,13.2
		c3,6,5.2,12.2,6.6,18.8c0.7,3,0.6,6.6,2.9,8.9c4.1,4.2,5.2,9.3,5.6,14.9c0.6,8.1,0.9,16.1-4,23.7c-1.9-2.3-3.6-4.4-5.3-6.4
		c-0.6-0.8-1.5-1.9-2.3-0.6c-2.1,3.2-5.7,5.9-4.1,10.6c0.9,2.5,1.2,5.2,2.2,7.7c1.2,3,0.4,5.3-1.3,7.9c-3.2,4.6-7.7,8.7-8.7,14.4
		c-1.9,10.9-8.1,15.2-19,15.7c-10,0.5-20,3-30.5,4.7c2.6,3.3,3.9,6.8,8.5,6.9c11,0.2,22,0.8,33,1.3c3.1,0.1,6.1,0.5,10.4,0.9
		c-6.6,7-7.8,16.8-17.1,20.1c-1.2,0.4-1.5,1.7-1.8,2.8c-0.8,2.7-1.7,5.4-2.5,8.1c-0.5,1.6-0.4,3.6-2.6,3.7c-2,0.1-2.1-1.8-2.8-3.1
		c-3-6.1-9.1-8.6-14-12.5c-0.4,3.6,0.1,6.7-0.1,9.9c-0.3,4,0.6,7.2,4.5,9.1c2.5,1.3,2.3,3.3,1.5,5.5c-1.4,3.9-2.1,8.7-0.4,11.7
		c4,7.2,2.5,14.9,4.1,22.1c1.2,5.2,1.5,10-0.4,15c-1.3,3.2-2,6.6-1,10.8c-6.4-3.7-12.2-6.9-17.9-10.4c-2.3-1.4-3.7-1.3-5.4,1
		c-1.9,2.5-0.6,3.8,1.3,5.3c6.2,4.5,12.3,9.2,18.5,13.6c2.6,1.8,3.9,3.5,2.9,6.9c-1,3.3-0.2,7.4,3.1,8.8c4.6,2,5.2,5,4.9,9.1
		c-0.1,1.4,0.6,2.9,0.8,4.4c0.7,5.3,3.8,10,3.6,15.5c-0.2,5.6,1.9,10.8,2.9,16.2c0.2,1.2,0.6,2.3,2,2.6c7,1.5,13.7,4.4,20.9,4.3
		c8.6-0.2,17.3-1.2,25.9-1.7c8-0.5,13.5-10,10-17.5c-4-8.5-8-16.8-15.7-22.8c-1.4-1.1-2.4-2.6-1.4-4.3c1.2-2.3,2.5-0.2,3.7,0.2
		c2.4,0.7,9.5-1.2,10.5-3c1-1.8-0.9-13.9-2.8-15.2c-6.6-4.4-9.1-11.2-11-18.3c-1-3.5-2.3-6.9-3.5-10.4c-0.4-1.2-0.4-2.7-2.6-2.1
		c-5.7,1.5-4.1-4.7-6.8-6.8c-2.2-1.6,1.3-3.2,2.5-4.3c3.2-2.9,6.7-5.5,5.6-10.7c-0.9-4.2,0.5-8.2,2.2-12.1c1.9-4.6,3.9-9.2,5.3-14
		c1.3-4.2,3.8-7.1,7.4-9.6c14.7-10.4,28.7-21.8,41.1-34.8c9.3-9.8,18-20.1,22.7-33.1c1.3-3.7,1.3-6.1-3.3-7.3
		c-3.3-0.9-6.5-1.8-11.2-1.8c5.8-4.3,10.4-7.7,15.1-11.1c1.2-0.9,2.9-1.5,2.7-3.3c-0.8-7.1,4.3-13.3,2.8-20.4c-0.2-1-0.4-3,1.1-2.7
		c3,0.5,6.5,0.5,8.3,3.6c1.7,3-0.9,4-2.8,5.3c-2.7,1.9-2.5,8,0.5,9c5.2,1.8,10.3,5,16.3,2.6c1-0.4,2.1-1.3,3.2-0.1
		c0.8,0.8-0.7,10.5-1.8,10.8c-5.5,1.4-7.1,6.6-10.3,10.1c-9.4,10.4-13.2,22-4.8,35c1.4,2.2,0.1,3.9-0.8,5.5
		c-5.9,11-12.1,21.9-17.9,32.9c-2.1,3.9-3.7,3.5-5.8,0.3c-4.3-6.6-10.9-10.4-17.5-14.5c-0.7,2.4,0.4,4.1,0.6,5.9
		c0.6,4.7,1.7,8.7,7.1,10.7c3.2,1.2,5.1,4.7,5.9,8.7c2.3,13,1.9,26.7,9.1,38.6c0.7,1.1,0.5,2.2,0.2,3.4c-1.1,4.4-2.2,8.7-3.1,13.1
		c-0.5,2.5-1.4,3-3.7,1.7c-3.9-2.2-7.9-4.2-11.9-6.4c-1.9-1-3.3-1.9-4.8,0.9c-1.4,2.5-0.4,3.5,1.6,4.7c6.5,4.1,12.8,8.4,19.3,12.4
		c2.4,1.5,4.1,3,4,6.2c-0.1,3.5,1.6,6.5,4.2,8.8c5.7,5,7.2,12.4,8,18.8c0.8,5.9,3.7,10.1,5.7,15c0.7,1.8,2.3,2.2,4.1,2.4
		c14.4,1.7,28.7,3.8,43.3,3c8.7-0.5,12.4-5.6,9.5-13.8c-0.9-2.5-2.1-4.9-2.7-7.5c-0.8-3.5-2.7-5.1-6.2-5.1c-2.6,0-4.6-0.5-4.7-3.7
		c-0.1-1.9-1.7-2.7-3-3.8c-1.2-0.9-2.4-1.8-3.5-2.8c-0.8-0.7-1.1-1.8-0.3-2.6c0.7-0.8,1.5,0,2.2,0.3c1.2,0.5,2.1,1.8,3.6,1.2
		c6.1-2.2,8.5-11.6,3.4-15.6c-6.5-5.1-10.3-11.6-12.9-19.1c-1.3-3.6-3-7-4.4-10.6c-1-2.7-2.2-3.5-4.5-1.1c-1.9,2.1-3,2-3.8-1.1
		c-1.8-6.6-1.5-13.3,0.1-19.8c1.9-7.6,4.8-14.9,6.8-22.5c1.2-4.3,3.1-7.6,7.3-9.4c2.1-0.9,3.9-2.3,3.6-4.9
		c-0.9-7.5,3.1-12.8,7.2-18.4c2.7-3.6,4-2.7,6,0.3c5.4,7.8,9.9,16.2,14.7,24.4c0.6,1,1.1,2.1,1.1,3.3c0.6,10-0.6,19.8-1.8,30.4
		c-2.7-2.5-5-4.6-7.8-7.3c0.4,7.6-1.8,14.7,4,20.2c0.9,0.9,0.8,2.1,0.6,3.3c-1.3,6-3.2,11.9-5.8,17.5c-1.2,2.6-2.2,2.4-3.8,0.6
		c-3.9-4.1-8-8-11.7-12.3c-2.5-2.9-3.9-0.6-5.7,0.6c-2.3,1.6-1.3,2.8,0.1,4.4c3.5,3.8,7,7.6,10.3,11.5c5.1,5.8,9.4,11.9,6.9,20.4
		c-0.8,2.7-0.2,5.6,1,8.3c2.8,6.2,5.6,12.5,8.1,18.8c2.9,7.2,3.8,14.9,2.5,22.5c-1.3,7.6,1.9,13.7,4.4,20.4
		c3.3,8.8,9.6,9.8,17.3,9.2c1-0.1,2,0.1,3,0.3c10.2,2.9,20.4,3.1,31,2.8c8.4-0.2,13.1-2.7,15.6-10.8c1.9-6.2,0-11.8-3-15.9
		c-2.5-3.4-4.9-6.9-7.4-10.4c-1.7-2.4-2.5-5.6-5.2-7.2c-4.6-2.8-6.7-7.2-8.3-12L849.3,931.7z"/>
	<path class="st1" d="M38,65.4C38,51.3,49.4,40,63.5,40C77.8,40,89.1,51.5,89,65.9c-0.1,14-11.6,25.2-25.7,25.1
		C49.2,90.9,38,79.5,38,65.4z"/>
	<path class="st1" d="M139.5,40c14.1,0,25.4,11.3,25.5,25.4c0,14.3-11.4,25.7-25.8,25.6c-14-0.1-25.3-11.5-25.2-25.6
		C114.1,51.3,125.4,40,139.5,40z"/>
	<path class="st1" d="M241,65.5c0,14.1-11.3,25.5-25.4,25.5C201.3,91,189.9,79.6,190,65.3c0.1-14,11.5-25.3,25.6-25.3
		C229.7,40.1,241,51.4,241,65.5z"/>
	<path class="st0" d="M626.3,630.7c-1.5-3.6-0.4-6.6,1.4-9.8c2.7-5.1,1.6-9.2-3.8-11.3c-6.5-2.5-9.7-6.8-10.6-13.5
		c-0.6-3.9-1.8-7.8-2.9-11.6c-1-3.4-0.5-5,3.6-4.3c6.7,1.2,13.5,2.1,20.3,2.9c4.3,0.5,7,2.3,9.2,6.3c5,9.1,5.2,9,14.5,4.8
		c3.9-1.8,7.9-3.6,12.1-5.5c-1.4-2.1-3.4-2.3-5.2-2.9c-26.8-9.3-53.5-18.5-80.3-27.7c-1.6-0.5-4.2-0.3-4-2.8c0.3-2.9,1.1-5.9,2-8.7
		c0.2-0.8,1.5-0.1,2.2,0.2c2.5,0.8,5,1.7,7.6,2.5c1.2,0.4,2.8,1.7,3.5,0c0.7-1.7-0.4-3.2-2.2-3.9c-2.5-1-5-1.9-7.5-2.9
		c-3.7-1.5-6.3-10.3-3.8-13.4c1.1-1.4,2.1-0.2,3.1,0.2c5.3,2.1,10.5,4.1,15.7,6.5c2.6,1.2,4.4,1.4,5.3-1.8c1.2-4.4,4-6.3,8.6-6.6
		c4.8-0.3,9.6-1.3,14.3-2.3c4.2-0.8,8-0.2,12.1,1.4c24.2,9,48.5,17.7,72.7,26.7c3.3,1.2,6.3,1.8,9.6,0.5c12.1-5,23.3-3.4,35.3,1.9
		c17.5,7.7,35.9,13.4,52.4,23.3c4.1,2.5,8.1,0.5,12.2,0.1c11-1.3,11.1-1.4,7-11.9c-1.9-5-2.3-10.4-3.3-15.6c-0.4-2.4-1.4-3.8-3.5-5
		c-11.8-6.8-23.6-13.8-35.4-20.6c-3-1.7-5.1-3.1-2.2-6.7c2.1-2.6-0.8-2.9-2.2-3.6c-17.8-8.4-35.6-16.7-53.4-25.1
		c-1.4-0.7-3.2-0.8-4.2-2.9c8.5-1.1,16.3-2,24.8,1.5c31,12.7,62.3,24.4,93.5,36.6c2.8,1.1,5.2,1.1,8-0.1c6.6-2.7,13.1-7.9,19.8-7.4
		c6.7,0.5,13.4,4.8,19.5,8.4c6.9,4.1,13.1,3.8,20.1,0.4c9.9-4.7,20.3-8.4,30.4-12.7c2.4-1,4.7-1.3,7.2-0.4c2.3,0.9,4.9,1.1,7.2,2.1
		c16.6,7.4,33.6,3.4,50.6,2.9c8.6-0.2,12.3-3.8,14.8-11.6c3.4-10.4,8-20.4,12.6-31.7c6,13.8,11.6,26.6,17.7,40.7
		c3.9-10,7.3-18.8,11.3-29c2.1,10.7,4.2,20,5.7,29.4c0.9,5.2,2.7,9.3,7.1,12.5c4,2.9,7.2,7,11.2,9.9c7.2,5.1,10,12.6,12.6,20.4
		c1.2,3.7,3.2,6.8,5.7,9.8c11.3,13.4,22.4,26.9,33.7,40.2c2.1,2.5,2.5,3.7-1,5.3c-18,8.3-35.9,16.8-53.8,25.4
		c-3.4,1.7-6.5,2.2-9.7-0.1c-0.8-0.6-1.8-0.9-2.7-1.4c-15.3-7.6-22-8.4-39.6-4.3c0.9,0.8,1.5,1.5,2.4,2c2.7,1.3,3.4,4.8,2.1,5.8
		c-4.1,3.3-2.7,9.2-6.5,12.3c-1.6,1.3-2,2.6-0.3,4.1c0.7,0.7,1.1,1.7,1.8,2.4c8.3,9.1,9.1,20.6,10.4,32.1c1.9,16.4,4.4,32.7,6.6,49
		c0.2,1.4,0.6,3.6-0.1,4.3c-1.4,1.3-3-0.5-4.4-1.1c-10.6-4.8-21.2-9.7-31.8-14.5c-4.5-2.1-8.9-0.7-12.2,3.2
		c-3.2,3.8-4.7,9.3-10.5,10.8c-1.4,0.4-1.2,2.3-1.5,3.5c-1.8,8.1-3.7,16.2-5.3,24.4c-1.2,5.7,0.2,6.8,6,5.4
		c7.1-1.7,14.2-3.5,21.8-4.4c-4.4,5.1-8.9,10.1-13.3,15.2c-3.4,3.9-6.8,7.8-10.4,11.5c-2.1,2.1-2,3.7-0.6,6
		c4.3,6.9,8.3,14,13.1,22.3c-7.1-2.1-13.2-3.5-19-5.6c-4.4-1.6-5-0.1-4.8,3.9c0.6,9,1,18,1.3,26.9c0.2,4.7,2.3,8.6,4.3,12.6
		c1.3,2.5,2.5,5.1,3.7,7.6c5.8,11.9,10.8,24.2,22.7,32.1c4.8,3.2,7.9,8.9,11.9,13.4c1.4,1.6,1.5,2.7-0.3,4.1
		c-0.8,0.6-1.3,1.5-1.1,2.6c0.8,4.1-1.7,6.5-5.8,5.5c-4.7-1.1-9.3-2.6-13.9-3.9c-1.2-0.3-2.6-1.5-3.5,0.3c-0.8,1.5,0.5,2.4,1.4,3.4
		c3,3.2,7,5.5,8,10.5c0.4,2,2.9,0.9,4.4,0.9c10.7-0.3,16.8,9.1,13.7,19.4c-2.3,7.5-6.4,9.8-13.9,9.9c-13,0.2-25.9-1.1-38.9-1.9
		c-2.4-0.2-3.5-1.3-4.4-3.3c-1.7-3.6-3.5-7.2-5.2-10.8c-1.8-4.1-3.9-7.6-7.9-10.5c-4-2.8-5.6-8.1-7.6-12.7
		c-1.7-3.8-2.9-7.8-4.3-11.7c-1-2.8-2.3-5-4.8-7.2c-2.9-2.5-5.2-6.8-2.8-11.1c1.4-2.4,0.1-2.8-1.4-3.7c-7.1-4.1-14.1-8.2-21.2-12.3
		c-1.8-1.1-4-1.7-2.4-4.8c1.6-3.3,3.5-2.1,5.6-1c3.1,1.6,6.4,3,9.4,4.7c2.7,1.6,3.6,0.5,5.3-1.8c4.9-6.6,2.8-12.7-0.2-19
		c-0.8-1.7-2.3-2.5-3.8-3.1c-7.5-2.6-8.2-9.1-9.5-16.7c7,4.9,15,6.1,20.1,13.7c0.6-7.3-0.8-13.7-1.1-20.1c-0.5-9-1.8-17.9-2.4-26.8
		c-0.2-2.7-1.1-4.7-3-6.5c-1.9-1.9-3.3-4.3-5.4-5.8c-7.2-5.2-9.8-12.9-7.7-20.6c1.8-6.6-1-11.5-1.9-17.1c-1-6.3,0.4-11.9,5.9-16
		c0.7-0.5,1.8-1.3,1.7-1.7c-1.4-6.1,4.1-9,6.3-13.3c1.1-2.1,2.5-4.2,1.1-6.4c-1-1.6-2.8-0.6-4.1-0.2c-2.4,0.7-5.6,0.2-5.9,4.1
		c-0.3,3.5-0.8,6.9-1.4,11.1c-7.2-4.3-14-8.2-20.5-12.4c-2.5-1.6-4.3-2-6.4,0.4c-1.6,1.9-3.4,3.1-6,1.5c-1.3-0.8-2.5,0-3.6,1
		c-5.4,5-10.8,10-16.2,14.9c-1.3,1.2-1.7,2.3-0.7,3.9c2,3.1,1.8,6.4,0.4,9.6c-1,2.4-0.9,3.7,2.3,3.4c5-0.6,9.9,0.8,14.9,1.2
		c3.6,0.3,4,1.7,2.8,4.8c-5.6,13.7-15.2,23.8-27.9,30.9c-3.8,2.1-4.9,4.6-5.1,8.7c-1,19.9-2.4,39.9-3.6,59.8c-0.1,1.6,0,3.2,0,5
		c2.4-0.7,2.6-3.7,5.3-4.3c2.8,9.8,5.5,19.5,8.3,29.2c2.9,10.1,5.9,20.1,10.2,29.7c0.9,1.9,1.5,4.1,0.4,5.7
		c-1.5,2.2-3.2,0.1-4.8-0.4c-0.5-0.1-1.2-0.3-1.4-0.1c-5.7,5.2-11.2,0.5-16.8-0.3c-0.2-0.4-0.5-0.7-0.9-0.2c0,0,0.3,0.3,0.5,0.5
		c1.6,4.8,3.7,9.2,8.3,12c2.7,1.6,3.5,4.8,5.2,7.2c2.5,3.5,4.9,7,7.4,10.4c3.1,4.1,5,9.7,3,15.9c-2.5,8.1-7.2,10.6-15.6,10.8
		c-10.6,0.3-20.8,0.1-31-2.8c-0.9-0.3-2-0.4-3-0.3c-7.7,0.6-14-0.3-17.3-9.2c-2.5-6.7-5.7-12.7-4.4-20.4c1.3-7.6,0.4-15.3-2.5-22.5
		c-2.6-6.3-5.4-12.5-8.1-18.8c-1.2-2.7-1.8-5.6-1-8.3c2.6-8.6-1.8-14.6-6.9-20.4c-3.4-3.9-6.8-7.7-10.3-11.5
		c-1.4-1.5-2.4-2.8-0.1-4.4c1.8-1.3,3.2-3.5,5.7-0.6c3.7,4.3,7.8,8.2,11.7,12.3c1.7,1.8,2.7,2,3.8-0.6c2.5-5.6,4.5-11.5,5.8-17.5
		c0.3-1.2,0.4-2.4-0.6-3.3c-5.9-5.5-3.6-12.6-4-20.2c2.9,2.7,5.1,4.7,7.8,7.3c1.2-10.6,2.4-20.5,1.8-30.4c-0.1-1.1-0.6-2.3-1.1-3.3
		c-4.8-8.2-9.3-16.6-14.7-24.4c-2-3-3.4-3.9-6-0.3c-4.1,5.6-8.2,10.9-7.2,18.4c0.3,2.6-1.5,4-3.6,4.9c-4.2,1.8-6.1,5-7.3,9.4
		c-2,7.6-4.9,14.9-6.8,22.5c-1.6,6.5-1.9,13.1-0.1,19.8c0.8,3.1,2,3.2,3.8,1.1c2.2-2.5,3.4-1.6,4.5,1.1c1.4,3.6,3.1,7,4.4,10.6
		c2.7,7.5,6.4,14,12.9,19.1c5.1,4,2.7,13.5-3.4,15.6c-1.5,0.5-2.5-0.7-3.6-1.2c-0.7-0.3-1.4-1.2-2.2-0.3c-0.8,0.9-0.5,1.9,0.3,2.6
		c1.1,1,2.4,1.8,3.5,2.8c1.3,1,2.9,1.8,3,3.8c0.1,3.2,2.2,3.7,4.7,3.7c3.4,0,5.4,1.6,6.2,5.1c0.6,2.6,1.8,5,2.7,7.5
		c2.8,8.2-0.8,13.3-9.5,13.8c-14.6,0.8-28.9-1.2-43.3-3c-1.7-0.2-3.3-0.6-4.1-2.4c-1.9-5-4.9-9.2-5.7-15c-0.8-6.5-2.3-13.8-8-18.8
		c-2.6-2.3-4.3-5.3-4.2-8.8c0.1-3.2-1.6-4.7-4-6.2c-6.5-4.1-12.9-8.3-19.3-12.4c-1.9-1.2-2.9-2.2-1.6-4.7c1.5-2.7,2.9-1.9,4.8-0.9
		c3.9,2.2,8,4.1,11.9,6.4c2.3,1.3,3.2,0.8,3.7-1.7c0.9-4.4,2-8.8,3.1-13.1c0.3-1.2,0.4-2.3-0.2-3.4c-7.2-11.9-6.8-25.6-9.1-38.6
		c-0.7-4-2.6-7.5-5.9-8.7c-5.5-2-6.5-6-7.1-10.7c-0.2-1.8-1.3-3.5-0.6-5.9c6.6,4.1,13.1,7.9,17.5,14.5c2.1,3.2,3.7,3.6,5.8-0.3
		c5.8-11.1,12-21.9,17.9-32.9c0.9-1.6,2.2-3.3,0.8-5.5c-8.4-13-4.6-24.6,4.8-35c3.2-3.5,4.8-8.8,10.3-10.1c1.1-0.3,2.6-10,1.8-10.8
		c-1.1-1.2-2.2-0.3-3.2,0.1c-6,2.5-11.1-0.7-16.3-2.6c-3.1-1.1-3.2-7.1-0.5-9c1.9-1.3,4.6-2.3,2.8-5.3c-1.8-3.1-5.3-3.1-8.3-3.6
		c-1.5-0.3-1.3,1.8-1.1,2.7c1.5,7.2-3.6,13.4-2.8,20.4c0.2,1.8-1.5,2.4-2.7,3.3c-4.7,3.4-9.3,6.8-15.1,11.1c4.7,0,7.9,1,11.2,1.8
		c4.6,1.2,4.6,3.6,3.3,7.3c-4.7,13.1-13.4,23.4-22.7,33.1c-12.5,13.1-26.4,24.4-41.1,34.8c-3.6,2.5-6.1,5.4-7.4,9.6
		c-1.5,4.8-3.4,9.4-5.3,14c-1.6,3.9-3,7.9-2.2,12.1c1.1,5.3-2.4,7.8-5.6,10.7c-1.2,1.1-4.7,2.7-2.5,4.3c2.7,2,1.1,8.3,6.8,6.8
		c2.1-0.6,2.2,0.9,2.6,2.1c1.2,3.4,2.6,6.9,3.5,10.4c2,7.2,4.5,13.9,11,18.3c1.9,1.3,3.8,13.4,2.8,15.2c-1,1.8-8.1,3.7-10.5,3
		c-1.2-0.4-2.5-2.5-3.7-0.2c-0.9,1.8,0,3.3,1.4,4.3c7.7,5.9,11.7,14.3,15.7,22.8c3.5,7.5-2,17-10,17.5c-8.6,0.5-17.3,1.5-25.9,1.7
		c-7.2,0.2-14-2.8-20.9-4.3c-1.3-0.3-1.7-1.4-2-2.6c-1-5.4-3.1-10.6-2.9-16.2c0.2-5.5-2.9-10.2-3.6-15.5c-0.2-1.5-0.9-3-0.8-4.4
		c0.3-4.1-0.4-7.2-4.9-9.1c-3.2-1.4-4-5.5-3.1-8.8c1-3.5-0.3-5.1-2.9-6.9c-6.3-4.4-12.4-9.1-18.5-13.6c-2-1.4-3.2-2.7-1.3-5.3
		c1.7-2.3,3.1-2.4,5.4-1c5.7,3.4,11.5,6.7,17.9,10.4c-0.9-4.2-0.2-7.6,1-10.8c2-5,1.6-9.8,0.4-15c-1.6-7.3-0.1-15-4.1-22.1
		c-1.7-3.1-1-7.8,0.4-11.7c0.8-2.3,1-4.3-1.5-5.5c-3.8-1.9-4.7-5.1-4.5-9.1c0.2-3.1-0.2-6.3,0.1-9.9c5,3.9,11,6.4,14,12.5
		c0.6,1.3,0.8,3.2,2.8,3.1c2.2-0.1,2.1-2.2,2.6-3.7c0.8-2.7,1.7-5.4,2.5-8.1c0.3-1.1,0.6-2.4,1.8-2.8c9.3-3.3,10.5-13.1,17.1-20.1
		c-4.3-0.4-7.3-0.7-10.4-0.9c-11-0.5-22-1.1-33-1.3c-4.6-0.1-5.9-3.6-8.5-6.9c10.5-1.7,20.5-4.2,30.5-4.7c10.9-0.5,17.1-4.8,19-15.7
		c1-5.7,5.6-9.8,8.7-14.4c1.7-2.6,2.5-4.8,1.3-7.9c-1-2.5-1.3-5.2-2.2-7.7c-1.7-4.7,2-7.4,4.1-10.6c0.8-1.3,1.7-0.1,2.3,0.6
		c1.7,2,3.4,4.1,5.3,6.4c4.9-7.5,4.5-15.5,4-23.7c-0.4-5.6-1.5-10.7-5.6-14.9c-2.3-2.3-2.3-5.9-2.9-8.9c-1.4-6.6-3.6-12.8-6.6-18.8
		c-2.1-4.1-4.7-8.1-3.5-13.2c0.3-1.3-0.4-2.3-1.4-2.9c-5.5-3.3-5.4-9-6.6-14.8c2.9,1.6,5.3,2.9,7.8,4.2c0.2,0.2,0.5,0.6,0.6,0.5
		C627,631.3,626.7,631,626.3,630.7z M929.9,760.6c0.9-3-1.4-5.5-3.2-8.3c-1.6-2.6-2.8-1.5-4.1,0.2c-3,4.2-2.6,8.8-1,13.3
		c0.6,1.5,0.3,4.4,2.8,3.9c2.1-0.5,4.5-1.6,5-4.3C929.7,764,929.7,762.7,929.9,760.6z M748.5,744.6c-9.6,7.6-12.3,19.8-5.8,25.8
		C744.6,761.9,749.5,754.2,748.5,744.6z"/>
	<path class="st1" d="M929.9,760.6c-0.2,2.1-0.2,3.4-0.4,4.7c-0.5,2.7-2.9,3.9-5,4.3c-2.5,0.5-2.3-2.4-2.8-3.9
		c-1.7-4.5-2.1-9.1,1-13.3c1.2-1.7,2.4-2.7,4.1-0.2C928.5,755.1,930.8,757.6,929.9,760.6z"/>
	<path class="st1" d="M748.5,744.6c1,9.7-3.9,17.3-5.8,25.8C736.2,764.4,738.9,752.1,748.5,744.6z"/>
	<path class="st1" d="M626.3,630.7c0.4,0.3,0.7,0.6,0.1,0.9c0,0-0.4-0.3-0.6-0.5C626,631,626.1,630.9,626.3,630.7z"/>
	<path class="st1" d="M848.9,932.1c-0.2-0.2-0.5-0.5-0.5-0.5c0.4-0.5,0.6-0.2,0.9,0.2C849.3,931.7,848.9,932.1,848.9,932.1z"/>
</g>
</svg>
