<?xml version="1.0" encoding="utf-8"?>
<!-- Generator: Adobe Illustrator 21.1.0, SVG Export Plug-In . SVG Version: 6.00 Build 0)  -->
<svg version="1.1" id="owasp-1_xA0_Image_1_" xmlns="http://www.w3.org/2000/svg" xmlns:xlink="http://www.w3.org/1999/xlink"
	 x="0px" y="0px" viewBox="0 0 1075 1492.5" style="enable-background:new 0 0 1075 1492.5;" xml:space="preserve">
<style type="text/css">
	.st0{fill:#221651;}
	.st1{fill:#05CB7A;}
</style>
<g>
	<path class="st0" d="M442.4,616.1c-1-7.5-3.2-14.7-8.5-20c-34.2-34.8-68.7-69.4-103.2-104c-10.9-10.9-21.4-22.4-33-32.5
		c-5.4-4.6-5.5-10-5.7-15.3c-0.7-17-3.9-33.7-5.7-50.6c-1.3-12.2-4-24.2-5.2-36.3c-1.8-18.7-4.3-37.4-6.7-56
		c-1.7-13.3-2.9-26.6-5.2-39.9c-1.7-10.2-2.4-20.8-3.6-31.2c-2.6-21.9-4.8-43.9-8.5-65.7c-2.1-12.6-2.6-25.3-4.4-37.8
		c-3.5-24-5.9-48.2-9.5-72.1c-0.8-5.2,0.6-7.5,4.2-10.5c17.1-14.1,34-28.5,50.9-42.9c2.6-2.3,3.5-1.6,4.9,1.1
		c40,78.5,80,157,120.1,235.4c44.3,86.7,88.6,173.5,132.9,260.2c58,113.6,116,227.2,173.9,340.8c2.8,5.4,6.6,9.1,12.7,10
		c1.1,0.2,2.3,0.6,3.4,0.8c17.4,1.8,31.4,9.7,43.5,22.5c9.5,10,20.6,18.4,30.6,28c5.5,5.3,12.5,4.9,18.9,6.6c2.4,0.7,1.8-1.9,2-3
		c0.7-6.5,1.3-12.9,1.7-19.4c0.2-3.3,1.3-5.2,4.8-5.7c3.1-0.5,6.3-1.1,9.2-2.3c10.9-4.6,21.4-3.5,32.3,0.7
		c10.5,4.1,21.5,6.9,32.4,10.1c2.8,0.8,5,2.3,7,4.4c9.4,10.3,19,20.5,28.4,30.9c2.1,2.4,3.4,2.6,5.9,0.4c8-7.1,16.2-13.8,24.2-20.9
		c2.1-1.9,3-1.6,4.4,0.7c4.3,7.3,8.8,14.5,13.4,21.7c1.1,1.7,1.1,3.3,0.8,5.2c-1.4,9.7-2.5,19.5-3.9,29.2c-0.5,3,0.1,4.1,3.3,4.2
		c7.6,0.4,15.3,1.2,22.9,1.7c3.3,0.2,5.2,1.4,6.5,4.8c8.1,22.3,16.7,44.5,24.8,66.9c3.1,8.5,3,17.7,4.2,26.6
		c1.9,14.6,3.8,29.1,5.6,43.7c1.5,11.8,2.1,23.7,4.5,35.3c3.9,19.2-4.3,36.5-7.4,54.7c-1.2,7-3.2,13.8-4.6,20.7
		c-0.3,1.3-0.9,2.3-1.6,3.4c-2.2-3.2-1.5-7-2.1-10.4c-1.9-10.5-3.6-21-4.6-31.6c-0.8-8.9-3.3-17.5-3.4-26.5c0-4.2-1.4-8.4-2.4-12.4
		c-2.1-8.6-3.7-17.2-5.5-25.8c-4.2-20.6-7.5-41.4-11.4-62.1c-4-21.3-8.3-42.5-12.4-63.7c-0.5-2.8-1.7-4-4.5-4
		c-1.1,0-2.3-0.4-3.4-0.5c-3.3-0.4-6.8-1.7-9.9-1c-3.8,0.8-1.6,5.4-3.1,8c-7.1,12.4-14,24.9-22.2,37.3c0-5-0.1-10,0-15
		c0.3-10.3-1.7-20.6,1.6-30.7c0.6-1.8,0.6-3.2-1.9-3.5c-2.6-0.4-3.1,0.8-3.2,3c-0.3,10.2-0.9,20.3-1.1,30.5c-0.1,2.6-0.8,4.2-3,5.7
		c-31.9,20.3-63.7,40.7-95.5,61.1c-0.5,0.3-1.1,0.5-2.3,1c-0.5-11-1.6-21.6-1.3-32.1c0.4-14.1-6.2-26-10.2-38.8
		c-1.9-6.2-4.5-12.2-6.5-18.3c-1-2.9-2-4.5-5.1-2.5c-0.4,0.3-0.9,0.4-1.4,0.5c-8.2,3.3-17.6,5-24.2,10.3
		c-6.5,5.1-10.1,13.8-15.2,20.8c-4.8,6.5-11.4,11.2-17.1,16.8c-1.9,1.9-3.6,3.9-4.8,6.3c-12.1,26.2-24.2,52.3-36.2,78.5
		c-0.2,0.4-0.2,0.9-0.5,2.1c7.4-0.7,14.6-1.4,21.7-2.1c20.9-2.2,41.7-4.3,62.6-6.7c2.9-0.3,4.5,0.6,6.5,2.5
		c24.4,24.4,44.9,51.8,65.1,79.6c3.6,5,4.1,11.2,5.7,16.8c2.3,7.9,5.5,15.5,6.9,23.6c0.7,3.9,3.3,5.8,6.7,7.1
		c5.4,2.1,10.7,4.6,16.3,6.5c11.8,4,20,13.1,29.5,20.2c12.4,9.2,23.5,20,36.9,27.8c5.2,3.1,9.8,7.3,15.2,9.7
		c6.8,3.1,14.2,4.8,21.4,7.1c5,1.6,10,3.1,14.9,4.7c1,0.3,2.2,1,2.8,1.8c5.1,6.4,10,13,15.4,20c-6.4,0.7-11.7-1.8-17-2.8
		c-13-2.6-25.8-6.5-38.8-9.2c-19.5-4-34.1-16.1-49.3-27.8c-23.1-17.8-45.9-35.9-66.2-56.9c-5.1-5.2-10.4-10.2-15.7-15.1
		c-3.8-3.5-6.5-7.4-7.2-12.9c-1.3-10.8-9.7-16.9-17.1-23.5c-13.2-11.7-26.4-23.3-39.2-35.3c-4.6-4.3-9.8-5.1-15.4-5.3
		c-26.6-0.7-53.3-1.3-79.9-1.7c-3.8-0.1-5.1-1-5.2-5c-0.6-18.6-1.6-37.3-2.3-55.9c-0.1-3.4-0.4-4.7-4.4-3.5
		c-5.3,1.6-10.2,5.1-16.2,4.2c-4.3-0.7-8.6-1-12.9-1.8c-5.5-1.2-11.2-0.8-16.8-3.1c0,17.5-0.6,34.7,0.2,51.8
		c0.6,12.3-2.9,23.5-6.3,34.8c-7.8,25.3-15.1,50.7-22.9,76c-5.8,18.9-11.6,37.8-19.5,56c-3.2,7.3-3,15.3-3.9,23
		c-1,9.4-2.2,18.8-2.6,28.2c-0.6,15.9-8.4,29.8-12,44.8c-5.2,21.6-19.8,38-30.5,56.6c-3.9,6.9-8.3,13.5-13.3,21.7
		c-0.6-9.4-1.2-17.3-1.6-25.1c-0.7-12.6-0.9-25.3-2-37.9c-0.6-6.8,1.2-12.8,3.3-19c6.3-18.3,15.5-35,26.7-50.7
		c3.9-5.5,4.3-12.2,5.8-18.2c3.4-13.6,6.7-27.3,10-40.9c6.1-25.4,9.3-51.2,10.2-77.3c0.8-23.4,2.5-46.8,5.3-70.1
		c1.2-10.2,5.4-19.9,8.7-29.7c2.8-8.4,4.8-17.2,8.1-25.4c0.8-2-0.4-4.2-2.7-4.3c-7.1-0.5-14-1.9-20.9-3.2
		c-9.2-1.7-18.6-1.8-27.6-4.7c-3-1-5.5-0.3-7.3,3.5c-3.8,7.9-5.8,16.2-5.9,24.8c0,7.7-5,10.6-10.6,13.4c-4.7,2.3-9.6,4.3-13.9,7.1
		c-6.4,4.1-12.7,4.4-20.1,3.4c-8.8-1.2-17.5-2.9-26.5-3.5c-11.7-0.8-23.6-2.3-35.2-4.7c-3.3-0.7-6.8-0.1-10.1-1
		c-3.9-1.1-5,1.1-5.6,4.6c-1.9,11.6-3.5,23.2-6.2,34.6c-1.7,7.1-4.9,14-7.8,20.8c-8.5,20.6-12.9,42.4-19,63.7
		c-3.1,11-6.1,22.1-8.9,33.2c-0.5,2-1.8,3.1-3.1,4.4c-13.5,13.7-27.4,27.1-40.6,41c-9.8,10.3-20.3,20.1-29.9,30.6
		c-7.3,8.1-13.7,17.1-20.5,25.7c-7.1,9-13.7,18.4-21.5,26.7c-5.3,5.7-12.1,9.9-18.3,14.7c-7.8,6.1-15.7,12.3-23.5,18.4
		c-9.5,7.5-18.8,15.2-28.6,22.3c-11.3,8.1-23,15.9-35.2,22.7c-7.3,4.1-14.5,8.4-21.7,12.7c-0.9,0.6-1.8,1.1-2.7,0.4
		c-1.2-1,0.2-1.8,0.6-2.5c7.2-15.4,14.5-30.7,21.7-46c1.1-2.2,2.3-3.4,5-4c8.3-1.8,16.9-2.4,24.9-5.8c8.5-3.6,16-8.5,22.1-15.5
		c43.1-49.4,89.6-95.6,136.1-141.8c4.6-4.6,4.1-10.4,4.5-15.5c1.3-16.3,3.2-32.5,2.7-48.9c-0.4-12.4,3.4-23.5,9.4-34.2
		c6.5-11.5,12.4-23.2,18.6-34.8c8.9-16.6,17.9-33.2,26.7-49.9c1.3-2.4,2.7-3.2,5.4-3.1c33.3,1.2,66.6,2.1,99.9,3.4
		c4.6,0.2,6.1-1.1,6.1-5.6c0.1-5.8,0.7-11.7,1.6-17.4c0.5-3.5-1.1-4.6-3.8-4.9c-17.8-2.1-35.6-4.1-53.4-6.1
		c-6.4-0.7-12.9-1.3-19.3-2.2c-2.2-0.3-3.7,0.2-5.3,1.7c-17.9,16.2-35.8,32.5-53.9,48.5c-5.9,5.2-10.9,11.8-18.5,14.7
		c-8.6,3.2-17.4,5.8-26,9.1c-8.9,3.4-18.1,5.9-27,9.5c-5.6,2.3-11.7,3.8-17.5,5.7c-12.1,4.1-23.9,8.9-36,12.8
		c-9,2.9-17.9,5.8-26.8,9c-9.5,3.4-19.1,6.8-28.7,10.1c-8.7,3-17.5,6-26.3,9c-10,3.4-19.9,7.2-30.3,9.2c-4.6,0.9-9.1,2.2-13.7,3.1
		c-5.9,1.2-12,2.1-17.8,4c-5.7,1.9-11.9,2.8-17.9,3.6c-2.9,0.4-4.9,1.8-6.8,3.7c-7.1,7-14.2,14.1-21.3,21.1
		c-0.9,0.9-1.5,2.3-3.6,2.1c1.2-4.8,3-9.3,4.4-13.9c3.5-11.5,7.8-22.7,11.5-34.2c3.9-12.2,8.6-24,13.3-35.9
		c7.2-18.3,14.1-36.7,21.3-55c6.8-17.4,13.7-34.8,20.5-52.3c2.4-6.2,4.8-12.5,7.3-18.7c2.2-5.6,7.8-7.7,12.1-11
		c18.3-13.9,36.9-27.3,55.4-40.9c19.6-14.3,39.5-28.2,58.8-42.8c14.2-10.8,28.7-21.2,42.9-32c1.9-1.4,3.3-1.9,5.7-1.2
		c25.7,7.8,51.4,15.7,77.2,23.1c14.2,4.1,28.4,8.1,42.5,12.5c25.7,7.9,51.5,15.3,77.1,23.4c5.7,1.8,6.9,0.8,6.9-5.5
		c0.1-4.6,1.6-9.1,3.6-13c5-9.8,10.6-19.4,16-29.1c2.9-5.2,5-10.9,8.5-15.8c-17.9-5.3-35.4-10.6-53-15.8
		c-28.9-8.6-57.8-17.2-86.7-25.8c-3.6-1.1-7.2-2.3-10.9-3.1c-7.6-1.7-10.5-8.4-14.6-13.7c-16.9-21.5-33.8-43.2-50.3-65.1
		c-4.7-6.3-11.9-7.2-18.2-9.6c-11.2-4.4-22.6-8.5-33.9-12.7c-13.2-5-26.6-9.7-39.9-14.6c-11-4.1-21.9-8.3-32.9-12.4
		c-4.2-1.6-8.4-3.4-12.7-4.5c-5.4-1.4-8.5-4.2-11.4-8.9c-21.7-34.9-43.7-69.6-65.5-104.5c-23-36.7-46-73.3-68.9-110
		c-19.6-31.4-39.1-62.8-58.7-94.2C13.9,387,7.4,376.9,1,366.9c-1.2-1.8-1.3-3.3-0.3-5.4C7.5,348.1,13,334.1,20,320.7
		c3.7-7.2,6.9-14.7,9.8-22.2c1.7-4.3,4.1-3.7,6.4-1.5c8.3,7.5,17.4,14,26.1,20.9c17.8,14.1,35.8,27.9,53.7,41.8
		c11.2,8.8,22.3,17.7,33.4,26.5c20.4,16,40.7,32.1,61.2,48c9.6,7.4,19.2,14.9,28.9,22.2c10.3,7.8,20.4,16.1,30.5,24.2
		c9.3,7.4,18.6,14.8,28,22.1c16.9,13.3,33.9,26.5,50.8,39.8c31.2,24.4,62.4,48.9,93.6,73.3c0.3,0,0.6,0,0.8,0
		c-0.1-0.1-0.2-0.2-0.3-0.4C442.8,615.8,442.6,615.9,442.4,616.1z M910.5,983.6c18.8,0.1,34.1-15.1,34.1-33.9
		c0.1-18.8-15.1-34.1-33.9-34.1c-18.8-0.1-34.1,15.1-34.1,33.9C876.6,968.3,891.8,983.6,910.5,983.6z M989.7,928
		c-0.3-0.2-0.5-0.4-0.8-0.6c-4.8,4.6-9.5,9.2-14.3,13.7c-1,0.9-1,2-1.1,3.2c-0.2,4.3-0.3,8.6-0.6,13c-0.1,2.1,0,3.8,2.7,3.4
		c2.4-0.4,5.9,2.6,7-2.1C984.9,948.4,987.3,938.2,989.7,928z"/>
	<path class="st1" d="M910.5,983.6c-18.8-0.1-33.9-15.3-33.9-34.1c0.1-18.8,15.3-33.9,34.1-33.9c18.8,0.1,33.9,15.3,33.9,34.1
		C944.6,968.5,929.4,983.7,910.5,983.6z"/>
</g>
</svg>
