<?xml version="1.0" encoding="utf-8"?>
<!-- Generator: Adobe Illustrator 21.1.0, SVG Export Plug-In . SVG Version: 6.00 Build 0)  -->
<svg version="1.1" id="analysis_xA0_Image_1_" xmlns="http://www.w3.org/2000/svg" xmlns:xlink="http://www.w3.org/1999/xlink"
	 x="0px" y="0px" viewBox="0 0 787.2 771.4" style="enable-background:new 0 0 787.2 771.4;" xml:space="preserve">
<style type="text/css">
	.st0{fill:#221652;}
	.st1{fill:#05CD7B;}
</style>
<g>
	<path class="st0" d="M434.5,458.7c-10.8-10.7-21.6-21.3-32.2-32.1c-2.6-2.7-4.1-2.9-7.1-0.4c-46.6,38.4-100.3,57-160.6,56
		C121.9,480.2,23,395.5,3.7,284.5C-19,153.3,64.1,31.3,194.3,4.7c130.7-26.7,260.7,62,283.6,193.6c11.4,65.9-2.2,126.4-40,181.5
		c-1.8,2.7-2.1,4.1,0.4,6.5c11.6,11.2,23,22.7,34.4,34.1C460.4,433.7,447.6,446.3,434.5,458.7z M240.7,58.2
		C140,58.1,58,139.6,57.8,240C57.6,341,139.1,423,239.7,423.2c101,0.2,183-81.3,183.1-182C422.9,140.2,341.4,58.3,240.7,58.2z"/>
	<path class="st1" d="M434.5,458.7c13.1-12.4,25.8-25,38.1-38.2c6.1-5.9,12.4-11.6,18.1-17.8c2.8-3,4.3-3.1,7.2-0.2
		c34.7,34.9,69.4,69.6,104.2,104.4c60.8,60.8,121.6,121.7,182.5,182.4c3.2,3.2,3.3,4.9,0,8.1c-24.2,23.9-48.2,47.9-72.1,72.1
		c-2.6,2.6-3.8,2.7-6.4,0C610.6,673.7,514.9,578,419.1,482.4c-3.3-3.3-3.3-5,0.1-8.1C424.6,469.4,429.4,463.9,434.5,458.7z"/>
	<path class="st0" d="M207.4,301.6c0.7,2.8,2,5.1,4.2,7c3.4,3.1,2.9,5-1.7,7.5c-0.1-0.5-0.3-0.9-0.8-0.5c-0.1,0.1,0.2,0.7,0.3,1.1
		c2.1,3.7,7.5,4.5,8.1,9.6c0.4,3.5-0.2,5.4-4.1,5.6c-5.7,0.3-11.3-0.5-16.9-1.1c-3.7-0.4-4.7-3.4-5.2-5.9c-1.7-8.9-5.6-16-13.8-20.2
		c-0.9-0.5-3-0.9-1.6-2.8c1-1.4,2,0.2,3,0.4c1.7,0.4,3.6,3,4.7,1.6c1.5-1.9,2.6-5,1.4-7.5c-2.3-4.8-2.6-9.9-3.4-15
		c-0.3-1.9-0.9-3.8-2.7-4.5c-3-1.3-2.7-3.8-3.2-6.4c4.1,1.2,6.1,4.4,8.9,6.9c2.8-5,5.5-9.8,8.1-14.6c0.5-1,1.3-1.9,0.6-3.2
		c-4.5-7.7,0.4-13,5.2-17.9c1.3-1.4,2.2-2.6,1.9-4.1c-0.4-2.6-2.4-0.7-3.6-0.8c-4.5-0.6-5.5-2-3.9-5.8c0.4-0.9,0.6-1.7-0.2-2.2
		c-0.7-0.4-1.5-0.7-2.3-0.7c-1.2,0-1.1,1-1.1,1.8c0.1,5.7-1.6,10.4-7.6,12.7c6.3,3.1,6.5,3.7,3,9.4c-5.5,9-13.3,15.9-21.8,21.7
		c-5.5,3.7-7.2,9-8.7,14.5c-0.8,2.8-0.3,5.7-3.1,7.9c-1.6,1.3,0.5,3.5,1.1,3.6c3,0.7,3,3.3,3.7,5.3c1,2.8,1.7,5.6,4.3,7.7
		c2,1.6,2.2,4.3,1.4,6.4c-0.8,2.1-3.3,1.6-6.3,1.3c2.6,3.9,5.7,6.6,7.2,10.4c1.9,5,0.3,8.3-4.9,8.5c-5.4,0.2-10.9,1.4-16.3-0.5
		c-2-0.7-3.1-1.4-3.4-3.5c-0.6-3.8-1.3-7.5-2.3-11.2c-1.8-6.6-4-13.1-10.6-16.7c-1.2-0.7-3.8-1.5-2.6-3.5c1.5-2.4,3.1,0.3,4.6,0.9
		c1.5,0.6,2.9,1.6,4.7,2.6c3-12-1.2-23.1-3.7-34.8c3.8,1.1,5.7,3.5,8.2,7.3c0.7-7.3,7.3-9.4,8.8-15.2c-6.6-2.2-14,0.4-21.7-3.4
		c6-2,10.9-2.3,15.7-3c2.8-0.4,4.6-1.4,5.2-4.3c0.5-2.1,1.3-4.1,2.8-5.8c2-2.3,3-4.7,1.5-7.7c-0.9-1.8-0.5-3.8,1.1-4.9
		c1.7-1.2,1.9,1.8,3.9,1.7c2.1-5.1,1.8-9.9-0.6-15c-2.5-5.2-4.6-10.7-5.8-16.3c-0.6-2.8-4.2-4.2-2.9-7.5c0.2-0.1,0.3-0.3,0.5-0.4
		c0.7-0.2,2.1,1.6,2.1-0.4c-0.1-2.5,3.7-5.7-0.4-7.4c-4.9-2-4.6-6.4-5.9-10.1c-0.6-1.8-0.3-3.1,2-2.4c4.7,1.3,10.8-0.6,13.1,6
		c0.5,1.4,1.7,1.3,2.9,0.7c2.2-1.1,4.4-2.1,7.4-3.6c-11.7-4-22.6-7.7-33.4-11.4c-1.1-0.4-2.2-0.7-3.3-1.1c-1.8-0.7-1.1-2.1-0.9-3.4
		c0.3-2,1.5-1.1,2.6-0.8c1,0.3,2.1,1.2,3.4,0.2c-1.6-2.8-8.7-1.8-5.3-7.8c1.2-0.3,2.2,0.4,3.3,0.8c2.8,1,4.8,2.7,8.3-0.8
		c2.6-2.6,8.5-3,13.3-1.2c9.5,3.6,19.1,6.9,28.6,10.5c2.1,0.8,4.2,1.5,6.3,0.6c5-2.2,9.6-1,14.3,1.1c6.9,3,14.1,5.1,20.5,9
		c3.7,2.2,7.1,0.3,10.5-0.1c-0.9-3.6-1.9-6.9-2.5-10.3c-0.3-1.8-1.5-2.5-2.8-3.2c-3.9-2.3-7.8-4.5-11.6-6.9c-1.5-1-4.4-1.1-3.1-4.4
		c0.4-1.1-1.6-1.4-2.6-1.8c-7.2-3.4-14.4-6.8-22.5-10.5c4-1.1,6.9-1.1,10,0.2c11.9,4.8,23.9,9.2,35.8,14c3.8,1.5,7.2,2.2,10.8-0.1
		c3.1-2,6.1-1.9,9.3,0.1c5.1,3.4,10.3,3.8,15.8,0.5c6.6-4,13.3-4.5,20.8-1.7c6,2.2,12.5-0.4,18.8-0.6c1.6-0.1,1.9-1.7,2.4-2.9
		c1.9-4.6,3.8-9.2,6-14.7c2.6,5.9,4.8,11,7.4,16.7c1.6-3.9,3-7.2,4.7-11.5c0.5,2.2,1,3.4,1,4.6c0.4,7.5,3.6,13.3,9.9,17.4
		c0.9,0.6,2.1,1.5,2.4,2.5c3.2,10.7,12.1,17.3,18.3,25.9c0.4,0.5,0.7,1.1,1.3,1.9c-8.3,3.9-16.4,7.7-24.5,11.6
		c-2.3,1.1-4-0.3-5.5-1.4c-3.9-2.7-8.2-2.3-12.5-1.8c-1.4,0.2-1.2,1.2-1.7,2.1c-5.4,10.3,4.3,18.5,3.4,28.2
		c-0.5,5.5,1.3,11.2,2.2,17.7c-5.1-2.3-9.7-4.2-14.2-6.4c-3.1-1.6-4.9-0.6-7.3,1.6c-4.5,4.2-5.3,9.6-6.4,15
		c-0.5,2.3,0.3,3.1,2.6,2.5c2.7-0.7,5.5-1.3,9.5-2.3c-3.3,3.7-5.7,6.7-8.4,9.3c-2.6,2.4-3.2,4.6-0.8,7.6c1.4,1.7,2.3,3.9,3.8,6.5
		c-3.7-0.9-6.5-1.7-9.5-2.4c-1,13.8,2.7,25.5,12.9,34.8c1.7,1.6,3,3.5,4.6,5.2c1.6,1.7,0.5,3.5,0,5c-0.4,1.2-2.2,0.8-3.6,0.5
		c-1.9-0.4-3.7-1.7-6.2-1c2.5,2.5,3.4,6,8,6.1c3.2,0.1,4.2,3.8,3.8,6.6c-0.3,2.3-0.7,5.1-4.6,5.4c-5.7,0.5-11.3-0.5-16.9-0.5
		c-1,0-2.1-0.2-2.5-1.3c-2.1-6.6-7.8-10.9-10.2-17.5c-2.3-6.4-4.5-13.5-12.3-15.9c-0.9-0.3-2.6-0.8-1.8-2.4c0.8-1.5,1.9-0.4,3-0.2
		c2,0.4,4,4.1,6-0.2c1.6-3.5,0.4-6.3-2.3-8.2c-2.3-1.6-3.5-3.2-3.2-6.2c3,0.9,5.4,2.5,8,4.3c-0.6-6.3-1.3-12.2-1.6-18.2
		c-0.1-2.5-1.7-3.9-3.1-5.4c-1-1.1-2.8-2.2-2.9-3.3c-0.4-6.5-3.8-13.2,0.6-19.6c1.3-1.9,1.5-4.3,3.2-6.1c0.9-0.9,1.9-2.5,0.2-3.3
		c-1-0.4-3.1-0.1-3.4,2c-0.2,1.3-0.6,2.6-1,4.2c-2-1.2-4-1.9-5.3-3.2c-3.3-3.3-7.2-2-9.6-0.2c-3.2,2.3-8.1,4.2-6.9,10.2
		c0.4,2.1,0.6,2.5,2.7,2.8c7.3,0.8,6.9,0.8,3.1,7.2c-1.9,3.2-4.6,5.8-7.9,7.5c-2.8,1.5-3.7,3.6-3.7,6.4c0,0.3,0,0.7,0,1
		c-1.3,20.7-1.3,20.7,7.4,44.1c2,5.5,0.8,6.9-5.2,6c-0.8-0.1-1.5-0.4-3.6-1c3.3,4.6,5.8,8.4,8.5,11.8c2.3,2.9,2.7,5.6,1.3,9.1
		c-1.4,3.6-4.3,2.3-6.7,2.8c-5.9,1.2-11.5-1.4-17.3-1.5c-2.5,0-6-7.5-5.4-11.4c0.8-4.8-0.3-9.2-2.3-13.5c-1.5-3.1-2.5-6.1-2.2-9.9
		c0.3-4.9-4-8-7.4-11.1c-0.6-3.4,0.5-4.1,3-1.7c1.7,1.7,2.9,3.8,4.9,6.4c2.3-5.7,4.6-9.2,1.9-13.6c-1.2-1.9-0.1-3.3,2.3-3.8
		c1.3-0.2,0.7-1.2,0.9-1.8c2.5-9.3-1.9-16.3-7.6-23.2c-1.3,1.8-2.5,3.2-3.4,4.8c-1.1,1.8,0,4.4-1.8,6.1c-5.8,5.4-6.1,12.7-6.8,19.9
		c-0.1,0.8,0.8,2.5,1,2.5C206.9,295.5,205.5,300.2,207.4,301.6z M197.6,246.2c-3.1,3.5-4.6,6.5-2.5,10.1
		C196,253.3,198.3,250.6,197.6,246.2z M273.9,253c0-1.5-0.4-3.4-1.9-3.6c-1.9-0.2-2.1,1.8-2,3.2c0.1,1.5-0.2,3.7,1.9,3.8
		C273.8,256.5,273.9,254.5,273.9,253z"/>
	<path class="st0" d="M143.8,198.3c-0.2-0.2-0.4-0.3-0.6-0.5c0.4-0.4,0.7-0.4,1.1,0.1C144.1,198,143.9,198.1,143.8,198.3z"/>
</g>
</svg>
