<?xml version="1.0" encoding="utf-8"?>
<!-- Generator: Adobe Illustrator 21.1.0, SVG Export Plug-In . SVG Version: 6.00 Build 0)  -->
<svg version="1.1" id="mobile-apps_xA0_Image_1_" xmlns="http://www.w3.org/2000/svg" xmlns:xlink="http://www.w3.org/1999/xlink"
	 x="0px" y="0px" viewBox="0 0 832 1333" style="enable-background:new 0 0 832 1333;" xml:space="preserve">
<style type="text/css">
	.st0{fill:#211550;}
	.st1{fill:#05CD7A;}
</style>
<g>
	<path class="st0" d="M832,666.7c0,216.8,0,433.6,0,650.4c0,7.9-8,15.9-15.8,15.9c-266.8,0-533.6,0-800.4,0C8,1333,0,1324.9,0,1317
		C0,883.4,0,449.8,0,16.2C0,8,7.9,0,16.1,0C282.7,0,549.4,0,816,0c8.1,0,16,8,16,16.2C832,233,832,449.8,832,666.7z M792,611.5
		c0-168.5,0-337,0.1-505.5c0-4.6-0.8-6.1-5.8-6.1c-246.8,0.1-493.7,0.1-740.5,0c-5,0-5.9,1.5-5.9,6.1c0.1,336.7,0.1,673.3,0,1010
		c0,5.3,1.6,6.1,6.4,6.1c246.5-0.1,493-0.1,739.5-0.1c7.2,0,6.2,0.9,6.2-6.5C792,947.5,792,779.5,792,611.5z M418.5,1276
		c25.1,0,45.5-20.3,45.5-45.3c0.1-25.1-20.2-45.6-45.2-45.7c-25.4-0.1-45.8,20.3-45.8,45.6C373,1255.7,393.4,1276,418.5,1276z
		 M416.5,66.1c29.7,0,59.3,0,89,0c8.9,0,13.3-3.2,13.4-9.8c0.1-6.4-4.5-9.6-13.5-9.6c-59.3,0-118.6,0-177.9,0c-1.5,0-3-0.1-4.5,0.1
		c-4.5,0.4-7.5,2.9-8.6,7.2c-1.1,4.3,0.6,7.9,4,10.6c2.3,1.8,5,1.6,7.7,1.6C356.2,66.1,386.4,66.1,416.5,66.1z"/>
	<path class="st1" d="M792,611.5c0,168,0,336,0,504c0,7.4,0.9,6.5-6.2,6.5c-246.5,0-493,0-739.5,0.1c-4.8,0-6.4-0.8-6.4-6.1
		c0.2-336.7,0.1-673.3,0-1010c0-4.6,0.8-6.1,5.9-6.1c246.8,0.1,493.7,0.1,740.5,0c5,0,5.9,1.5,5.8,6.1C792,274.5,792,443,792,611.5z
		 M197.9,563.1c-2.4-1.3-4.9-2.6-7.8-4.2c1.2,5.8,1.1,11.5,6.6,14.8c1.1,0.6,1.7,1.7,1.4,2.9c-1.2,5,1.4,9.1,3.5,13.2
		c3,6,5.2,12.2,6.6,18.8c0.7,3,0.6,6.6,2.9,8.9c4.1,4.2,5.2,9.3,5.6,14.9c0.6,8.1,0.9,16.1-4,23.7c-1.9-2.3-3.6-4.4-5.3-6.4
		c-0.6-0.8-1.5-1.9-2.3-0.6c-2.1,3.2-5.7,5.9-4.1,10.6c0.9,2.5,1.2,5.2,2.2,7.7c1.2,3,0.4,5.3-1.3,7.9c-3.2,4.6-7.7,8.7-8.7,14.4
		c-1.9,10.9-8.1,15.2-19,15.7c-10,0.5-20,3-30.5,4.7c2.6,3.3,3.9,6.8,8.5,6.9c11,0.2,22,0.8,32.9,1.3c3.1,0.1,6.1,0.5,10.4,0.9
		c-6.6,7-7.8,16.8-17.1,20.1c-1.2,0.4-1.5,1.6-1.9,2.8c-0.8,2.7-1.7,5.4-2.5,8.1c-0.5,1.6-0.4,3.6-2.6,3.7c-2,0.1-2.2-1.8-2.8-3.1
		c-3-6.1-9.1-8.6-14.1-12.5c-0.4,2.9,0,5.4-0.1,7.8c-0.2,4.9,0.1,9.3,5.2,11.7c1.9,0.9,1.3,2.8,0.9,4.4c-1.6,6.1-2,12.1,1.9,17.7
		c1,1.5,1.2,3.1,1,4.8c-0.6,4.4-0.2,8.8,0.9,12.9c1.4,5,1,9.4-0.7,14.1c-1.2,3.3-1.9,6.6-1,10.8c-6.4-3.7-12.2-6.9-17.9-10.4
		c-2.3-1.4-3.7-1.3-5.4,1c-1.9,2.5-0.7,3.8,1.3,5.3c6.2,4.5,12.3,9.2,18.5,13.6c2.6,1.8,4,3.5,3,6.9c-1,3.3-0.1,7.2,3,8.9
		c3.9,2,5.2,4.2,5,8.6c-0.1,3.8,1.3,7.9,2.6,11.6c1.1,3.4,1.7,6.7,1.8,10.2c0.1,5,1.9,9.8,2.9,14.7c0.2,1.2,0.6,2.3,2,2.6
		c7,1.5,13.7,4.4,20.9,4.3c8.8-0.2,17.6-1.2,26.4-1.7c7-0.4,13-10.1,9.9-16.6c-4.1-8.6-7.8-17.4-15.7-23.3c-0.7-0.5-1.2-1.2-1.7-1.9
		c-0.7-1.1-0.6-2.3,0.1-3.3c0.9-1.2,1.8-0.1,2.6,0.2c7.4,2.6,11.7-1.3,11.2-9c-0.4-5.5-2.4-9.5-6.7-12.5c-2.4-1.7-3.6-4.2-4.5-7
		c-1.8-5.9-3.8-11.7-5.9-17.5c-0.4-1.2-0.2-3.2-2.8-2.5c-5.6,1.4-4-4.9-6.8-6.8c-2.1-1.4,1-3.2,2.2-4c5-3.3,6.9-7.7,5.9-13.6
		c-0.4-2.3,0.3-4.6,1.2-6.8c2.3-5.6,4.6-11.1,6.4-16.8c1.4-4.2,3.9-7,7.4-9.6c17.2-12.4,33.6-25.7,47.5-41.9
		c6.9-8,13-16.4,16.4-26.6c1.1-3.3,1-5.4-3-6.6c-3.4-1-6.8-2-11.6-2.1c5.7-4.2,10.4-7.6,15.1-11c1.2-0.9,2.9-1.5,2.7-3.3
		c-0.8-7.1,4.3-13.3,2.8-20.4c-0.2-1-0.4-3,1.1-2.7c3,0.6,6.5,0.5,8.3,3.6c1.7,3-1,3.9-2.8,5.3c-3,2.2-2.5,8.1,1,9.3
		c5.2,1.8,10.4,4.9,16.3,2.2c0.8-0.4,1.9-1,2.7,0.1c0.7,0.9-0.7,10.5-1.8,10.8c-5.5,1.4-7.1,6.6-10.3,10.1c-9.4,10.4-13.1,22-4.8,35
		c1.4,2.2,0.1,3.9-0.8,5.5c-5.9,11-12.1,21.9-17.9,32.9c-2.1,4-3.7,3.4-5.8,0.3c-4.3-6.6-10.9-10.4-18-14.8c0.5,2.7,0.8,4.4,1.1,6.2
		c0.7,4.7,1.7,8.7,7.2,10.7c3.2,1.2,5.1,4.7,5.8,8.7c2.3,13,1.9,26.7,9.1,38.6c0.5,0.9,0.6,1.8,0.4,2.9c-1.1,4.5-2.3,9-3.2,13.6
		c-0.5,2.5-1.4,3-3.7,1.7c-3.9-2.2-7.9-4.2-11.9-6.4c-1.9-1.1-3.3-1.8-4.8,0.9c-1.4,2.5-0.3,3.5,1.6,4.7c6.5,4.1,12.8,8.4,19.3,12.4
		c2.4,1.5,4.1,3,4,6.2c-0.1,3.5,1.6,6.5,4.2,8.8c5.7,5,7.2,12.4,8,18.8c0.8,5.9,3.7,10.1,5.7,15c0.7,1.8,2.4,2.2,4.1,2.4
		c14.4,1.7,28.7,3.8,43.3,3c8.8-0.5,12.4-5.5,9.5-13.8c-0.9-2.5-2.1-4.9-2.7-7.5c-0.8-3.5-2.8-5.1-6.2-5.1c-2.6,0-4.6-0.6-4.7-3.7
		c-0.1-1.9-1.7-2.7-3-3.8c-1.2-0.9-2.4-1.8-3.5-2.8c-0.8-0.7-1.1-1.8-0.3-2.6c0.7-0.8,1.5,0,2.2,0.4c1.2,0.5,2.1,1.8,3.6,1.2
		c6.1-2.2,8.5-11.6,3.4-15.6c-6.5-5.1-10.2-11.6-12.9-19.1c-1.3-3.6-3-7-4.4-10.6c-1-2.8-2.3-3.5-4.5-1c-1.9,2.1-3,1.9-3.8-1.1
		c-1.8-6.6-1.5-13.3,0.1-19.8c1.9-7.6,4.8-14.9,6.8-22.5c1.2-4.3,3.1-7.6,7.3-9.4c2.1-0.9,3.9-2.3,3.6-4.9
		c-0.9-7.5,3.2-12.8,7.2-18.4c2.7-3.7,4-2.6,6,0.3c5.4,7.8,9.9,16.2,14.7,24.4c0.6,1,1.1,2.1,1.1,3.3c0.6,10-0.6,19.8-1.8,30.4
		c-2.7-2.5-5-4.6-7.8-7.3c0.4,7.6-1.8,14.7,4,20.2c0.9,0.9,0.8,2.1,0.6,3.3c-1.3,6-3.2,11.9-5.8,17.5c-1.2,2.6-2.2,2.4-3.8,0.6
		c-3.9-4.1-8-8-11.7-12.3c-2.5-2.9-3.9-0.6-5.7,0.7c-2.3,1.6-1.3,2.8,0.1,4.4c3.5,3.8,7,7.6,10.3,11.5c5.1,5.8,9.4,11.9,6.9,20.4
		c-0.8,2.7-0.2,5.6,1,8.3c2.8,6.2,5.6,12.5,8.1,18.8c2.9,7.2,3.8,14.9,2.5,22.5c-1.3,7.6,1.9,13.7,4.4,20.4
		c3.3,8.8,9.6,9.8,17.3,9.2c1-0.1,2,0.1,3,0.3c10.2,2.9,20.4,3.1,31,2.8c8.4-0.2,13.1-2.7,15.6-10.8c1.9-6.2,0-11.8-3-15.9
		c-2.5-3.4-4.9-6.9-7.4-10.4c-1.7-2.4-2.5-5.6-5.2-7.2c-4.6-2.8-6.7-7.2-8.3-12c0.1-0.1,0.2-0.2,0.4-0.4c5.6,0.9,11.1,5.5,16.8,0.3
		c0.2-0.2,1,0,1.4,0.1c1.6,0.5,3.4,2.6,4.8,0.4c1.1-1.7,0.5-3.8-0.4-5.7c-4.3-9.6-7.2-19.7-10.2-29.8c-2.8-9.7-5.5-19.4-8.3-29.2
		c-2.7,0.6-2.9,3.6-5.3,4.3c0-1.8-0.1-3.4,0-5c1.2-19.9,2.6-39.9,3.6-59.8c0.2-4.1,1.4-6.5,5.1-8.6c12.7-7.2,22.3-17.3,27.9-30.9
		c1.3-3.1,0.8-4.5-2.8-4.8c-5-0.4-9.9-1.8-14.9-1.2c-3.2,0.4-3.2-1-2.2-3.4c1.3-3.2,1.5-6.5-0.5-9.6c-1-1.6-0.6-2.7,0.7-3.9
		c5.4-5,10.8-9.9,16.2-14.9c1-1,2.2-1.8,3.6-1c2.6,1.6,4.5,0.3,6-1.6c2.1-2.5,3.9-2,6.4-0.4c6.6,4.2,13.3,8.1,20.5,12.4
		c0.5-3.6,1.1-6.4,1.2-9.2c0.2-3.2,1-5.5,4.7-5.8c1.9-0.1,4.3-1.9,5.5,0c1.9,2.8-0.4,5.3-2,7.6c-1.1,1.5-2.2,2.9-3.2,4.5
		c-1.3,2-3.5,3.7-2.2,6.7c0.6,1.3-0.8,2-1.7,2.7c-5.5,4-6.9,9.6-5.9,15.9c0.9,5.6,3.8,10.6,1.9,17.1c-2.2,7.7,0.5,15.4,7.7,20.6
		c2.1,1.5,3.5,4,5.4,5.8c1.9,1.8,2.8,3.8,3,6.5c0.7,9,1.9,17.9,2.4,26.8c0.4,6.4,1.8,12.8,1.1,20.1c-5-7.6-13.1-8.8-19.6-13.4
		c0.6,10.3,1.7,12.1,9.1,16.4c1.4,0.8,2.9,1.4,3.7,3.1c3.3,6.5,5,12.8-0.1,19.4c-1.5,1.9-2.3,2.9-4.6,1.6c-3.3-1.9-6.9-3.4-10.3-5.2
		c-2.2-1.2-3.8-1.5-5.2,1.3c-1.4,2.7,0.3,3.6,2,4.6c7.1,4.1,14.1,8.2,21.2,12.2c1.9,1.1,3,1.6,1.6,4.4c-2,3.9,0,8.2,3,10.6
		c2.4,2,3.7,4.1,4.6,6.7c1.5,4.1,2.8,8.2,4.5,12.2c2,4.6,3.6,9.9,7.6,12.7c4.1,2.8,6,6.4,7.9,10.5c1.7,3.8,3.6,7.5,5.4,11.3
		c0.8,1.6,1.7,2.6,3.7,2.7c13.3,0.9,26.5,2.4,39.9,1.9c7-0.2,11-2.1,13.2-9.4c3.3-10.8-2.6-20.1-13.6-19.8c-1.5,0-4,1.2-4.4-0.9
		c-0.9-5-5-7.3-8-10.5c-0.9-1-2.2-1.9-1.4-3.4c0.9-1.7,2.3-0.5,3.5-0.2c4.7,1.3,9.3,2.7,13.9,3.9c3,0.8,8.1-2.5,6.9-4
		c-1.9-2.3-1-3.5,0.7-4.9c1.3-1.1,0.6-2-0.2-3c-4-4.7-7.3-10.5-12.2-13.8c-11.3-7.5-16.4-18.9-21.8-30.3c-2.1-4.4-4.1-8.8-6.4-13
		c-1.5-2.9-2.3-5.9-2.4-9.1c-0.5-9-0.7-18-1.3-26.9c-0.3-4.2,0.6-5.3,4.8-3.8c5.8,2.1,11.8,3.5,19,5.6c-4.9-8.3-8.9-15.4-13.1-22.3
		c-1.5-2.4-1.4-4,0.7-6c3.8-3.8,7.3-7.8,10.7-11.9c4.2-5,9.1-9.4,13.3-15.8c-8.1,2-15.2,3.8-22.2,5.5c-5.7,1.4-7.1,0.2-5.9-5.5
		c1.7-8.2,3.5-16.3,5.3-24.4c0.2-1.1,0.5-2.9,1.2-3.1c6.2-2,7.7-8.4,11.8-12.3c2.9-2.8,6.4-4.4,10.8-2.3
		c10.7,5.1,21.5,9.9,32.2,14.8c1.3,0.6,2.8,2.1,4.1,1.3c1.6-1,0.6-3.1,0.4-4.6c-2.1-16-4.4-32-6.4-48c-1.4-11.9-2.3-23.9-10.9-33.4
		c-2.5-2.7-3.5-5.1,0.4-7.5c0.9-0.5,1.4-1.6,1.1-2.6c-0.8-2.7,0.2-4.5,2.6-5.7c1.3-0.7,1.3-2.1,1.6-3.4c0.9-3.9-2.9-4.7-4.6-7
		c14-2.5,27.7-4.4,40,4.7c0.7,0.5,1.5,0.7,2.2,1.2c3,2.2,5.9,1.9,9.3,0.3c18-8.7,36.1-17.2,54.2-25.7c2.9-1.3,3.4-2.3,1.2-5
		c-8.2-9.6-16.4-19.3-24.3-29.2c-5-6.2-11.8-11.3-14.3-19c-3.4-10.6-8.5-19.8-17.8-26.2c-1.1-0.7-1.9-2-3-2.7
		c-8-5.2-11.3-12.7-12.3-22c-0.8-7.4-2.8-14.7-4.6-23.3c-3.9,10.1-7.4,19-11.2,29c-6.1-14.2-11.7-26.9-17.7-40.7
		c-4.5,11-9,21-12.5,31.3c-2.6,7.6-5.9,11.9-15.1,12c-17,0.3-34.1,4.4-50.6-3c-2.4-1.1-5.1-1.4-7.6-2.3c-2.2-0.8-4.2-0.5-6.3,0.4
		c-10.3,4.3-20.8,8.1-30.9,12.9c-7,3.3-13.1,3.7-20-0.5c-5.9-3.6-12.4-7.5-19.1-8.4c-6.9-0.9-13.3,4.4-19.8,7.1
		c-3.4,1.4-6.2,1.2-9.4-0.1c-30.7-12-61.6-23.6-92.1-36.1c-8.6-3.5-16.6-2.9-26.3-1.5c2.3,1.2,3.7,2,5.1,2.7
		c17.8,8.4,35.6,16.7,53.4,25c1.7,0.8,4.3,1.3,2,4.1c-2.5,3.1-0.8,4.5,1.9,6.1c12,6.9,23.8,14,35.8,20.9c2.1,1.2,3.1,2.6,3.5,5
		c0.9,5.1,1.3,10.2,3.1,15.1c4.1,11,4.1,11-7.8,12.5c-3.7,0.5-7.4,2.1-11.2-0.2c-16.7-10-35.3-15.7-52.9-23.5
		c-11.8-5.2-22.9-6.7-34.8-1.7c-3.3,1.4-6.3,0.8-9.6-0.4c-24.2-9-48.5-17.7-72.7-26.7c-4-1.5-7.9-2.2-12.1-1.4
		c-4.7,0.9-9.5,1.9-14.3,2.3c-4.6,0.3-7.4,2.1-8.6,6.6c-0.8,3.2-2.6,3-5.3,1.8c-5.2-2.3-10.4-4.4-15.7-6.5c-0.9-0.4-2-1.5-3.1-0.2
		c-2.3,2.8,0,11.8,3.4,13.2c2.6,1.1,5.3,2,7.9,3.1c1.8,0.7,2.9,2.3,2.2,3.9c-0.7,1.7-2.3,0.4-3.5,0c-2.5-0.8-5.1-1.7-7.6-2.5
		c-0.8-0.2-2-0.9-2.2-0.2c-0.9,2.8-1.7,5.7-2,8.7c-0.3,2.6,2.4,2.3,4,2.8c26.7,9.3,53.5,18.5,80.3,27.7c1.7,0.6,3.8,0.8,5.2,2.9
		c-4.2,1.9-8.1,3.8-12,5.5c-9.3,4.1-9.6,4.3-14.5-4.8c-2.3-4.2-5.2-5.9-9.7-6.3c-6.6-0.7-13.2-1.7-19.8-2.8
		c-4.1-0.7-4.6,0.8-3.6,4.3c1.1,3.8,2.3,7.7,2.9,11.6c1,6.7,4.1,11,10.6,13.5c5.4,2.1,6.6,6.2,3.8,11.3c-1.7,3.2-2.9,6.3-1.4,9.8
		C198.1,562.9,198,563,197.9,563.1z"/>
	<path class="st1" d="M418.5,1276c-25.1,0-45.4-20.3-45.5-45.4c0-25.3,20.4-45.7,45.8-45.6c25,0.1,45.3,20.5,45.2,45.7
		C463.9,1255.7,443.6,1276,418.5,1276z"/>
	<path class="st1" d="M416.5,66.1c-30.2,0-60.3,0-90.5,0c-2.7,0-5.4,0.1-7.7-1.6c-3.4-2.7-5.1-6.3-4-10.6c1.1-4.2,4.1-6.8,8.6-7.2
		c1.5-0.1,3-0.1,4.5-0.1c59.3,0,118.6,0,177.9,0c9,0,13.6,3.3,13.5,9.6c-0.1,6.6-4.4,9.8-13.4,9.8C475.9,66.2,446.2,66.1,416.5,66.1
		z"/>
	<path class="st0" d="M420.9,864.1c1.6,4.8,3.7,9.2,8.3,12c2.7,1.6,3.5,4.8,5.2,7.2c2.5,3.5,4.9,7,7.4,10.4c3.1,4.1,5,9.7,3,15.9
		c-2.5,8.1-7.2,10.6-15.6,10.8c-10.6,0.3-20.8,0.1-31-2.8c-0.9-0.3-2-0.4-3-0.3c-7.7,0.6-14-0.3-17.3-9.2
		c-2.5-6.7-5.7-12.7-4.4-20.4c1.3-7.6,0.4-15.3-2.5-22.5c-2.6-6.3-5.4-12.5-8.1-18.8c-1.2-2.7-1.8-5.6-1-8.3
		c2.6-8.6-1.8-14.6-6.9-20.4c-3.4-3.9-6.8-7.7-10.3-11.5c-1.4-1.5-2.5-2.7-0.1-4.4c1.8-1.2,3.2-3.5,5.7-0.7
		c3.7,4.3,7.8,8.2,11.7,12.3c1.7,1.8,2.7,2,3.8-0.6c2.5-5.6,4.5-11.5,5.8-17.5c0.3-1.2,0.4-2.4-0.6-3.3c-5.9-5.5-3.6-12.6-4-20.2
		c2.9,2.7,5.1,4.7,7.8,7.3c1.2-10.6,2.4-20.5,1.8-30.4c-0.1-1.1-0.6-2.3-1.1-3.3c-4.8-8.2-9.3-16.6-14.7-24.4c-2-2.9-3.4-4-6-0.3
		c-4.1,5.6-8.2,10.9-7.2,18.4c0.3,2.6-1.4,4-3.6,4.9c-4.2,1.8-6.1,5-7.3,9.4c-2,7.6-4.9,14.9-6.8,22.5c-1.6,6.5-1.9,13.1-0.1,19.8
		c0.8,3,1.9,3.2,3.8,1.1c2.2-2.4,3.4-1.7,4.5,1c1.4,3.6,3.1,7,4.4,10.6c2.7,7.5,6.4,14,12.9,19.1c5.1,4,2.8,13.4-3.4,15.6
		c-1.5,0.6-2.5-0.7-3.6-1.2c-0.7-0.3-1.4-1.2-2.2-0.4c-0.8,0.9-0.5,1.9,0.3,2.6c1.1,1,2.4,1.8,3.5,2.8c1.3,1,2.9,1.8,3,3.8
		c0.1,3.2,2.1,3.7,4.7,3.7c3.4,0,5.4,1.6,6.2,5.1c0.6,2.6,1.8,5,2.7,7.5c2.9,8.3-0.7,13.3-9.5,13.8c-14.6,0.8-28.9-1.2-43.3-3
		c-1.7-0.2-3.4-0.6-4.1-2.4c-1.9-5-4.9-9.2-5.7-15c-0.8-6.5-2.3-13.8-8-18.8c-2.6-2.3-4.3-5.3-4.2-8.8c0.1-3.2-1.6-4.7-4-6.2
		c-6.5-4.1-12.9-8.3-19.3-12.4c-1.9-1.2-3-2.2-1.6-4.7c1.5-2.7,2.9-1.9,4.8-0.9c3.9,2.2,8,4.2,11.9,6.4c2.2,1.3,3.2,0.8,3.7-1.7
		c0.9-4.6,2.1-9.1,3.2-13.6c0.3-1,0.2-2-0.4-2.9c-7.2-11.9-6.8-25.5-9.1-38.6c-0.7-4-2.6-7.5-5.8-8.7c-5.5-2-6.5-6-7.2-10.7
		c-0.3-1.8-0.6-3.5-1.1-6.2c7.1,4.4,13.7,8.2,18,14.8c2.1,3.2,3.7,3.7,5.8-0.3c5.8-11.1,12-21.9,17.9-32.9c0.9-1.6,2.2-3.3,0.8-5.5
		c-8.4-13-4.6-24.6,4.8-35c3.2-3.5,4.8-8.8,10.3-10.1c1.1-0.3,2.6-9.9,1.8-10.8c-0.8-1-1.9-0.5-2.7-0.1c-5.9,2.8-11-0.4-16.3-2.2
		c-3.5-1.2-4-7.1-1-9.3c1.9-1.3,4.6-2.3,2.8-5.3c-1.8-3.1-5.3-3.1-8.3-3.6c-1.5-0.3-1.3,1.8-1.1,2.7c1.5,7.2-3.6,13.4-2.8,20.4
		c0.2,1.8-1.5,2.4-2.7,3.3c-4.7,3.4-9.3,6.8-15.1,11c4.8,0.1,8.2,1,11.6,2.1c4,1.2,4.2,3.3,3,6.6c-3.4,10.2-9.6,18.6-16.4,26.6
		c-13.9,16.1-30.3,29.5-47.5,41.9c-3.5,2.5-6,5.4-7.4,9.6c-1.8,5.7-4.1,11.2-6.4,16.8c-0.9,2.2-1.6,4.5-1.2,6.8
		c1,5.9-0.9,10.3-5.9,13.6c-1.2,0.8-4.3,2.5-2.2,4c2.8,1.9,1.2,8.2,6.8,6.8c2.5-0.6,2.3,1.3,2.8,2.5c2.1,5.8,4,11.6,5.9,17.5
		c0.9,2.8,2.1,5.3,4.5,7c4.4,3,6.4,7,6.7,12.5c0.5,7.7-3.9,11.6-11.2,9c-0.8-0.3-1.7-1.4-2.6-0.2c-0.7,1-0.8,2.2-0.1,3.3
		c0.4,0.7,1,1.4,1.7,1.9c8,6,11.7,14.8,15.7,23.3c3,6.4-2.9,16.1-9.9,16.6c-8.8,0.5-17.6,1.5-26.4,1.7c-7.2,0.2-14-2.8-20.9-4.3
		c-1.3-0.3-1.7-1.4-2-2.6c-1-4.9-2.8-9.6-2.9-14.7c-0.1-3.5-0.7-6.9-1.8-10.2c-1.3-3.8-2.7-7.8-2.6-11.6c0.2-4.4-1.1-6.6-5-8.6
		c-3.2-1.6-4-5.5-3-8.9c1-3.5-0.4-5.1-3-6.9c-6.3-4.4-12.3-9.1-18.5-13.6c-2-1.4-3.2-2.7-1.3-5.3c1.7-2.3,3.1-2.3,5.4-1
		c5.7,3.4,11.5,6.7,17.9,10.4c-0.9-4.2-0.2-7.6,1-10.8c1.6-4.6,2-9.1,0.7-14.1c-1.1-4.1-1.5-8.5-0.9-12.9c0.2-1.7,0.1-3.3-1-4.8
		c-3.9-5.5-3.5-11.6-1.9-17.7c0.4-1.7,1-3.5-0.9-4.4c-5.2-2.5-5.5-6.9-5.2-11.7c0.1-2.5-0.3-4.9,0.1-7.8c5,3.9,11,6.4,14.1,12.5
		c0.6,1.3,0.8,3.2,2.8,3.1c2.2-0.2,2.1-2.2,2.6-3.7c0.8-2.7,1.7-5.4,2.5-8.1c0.3-1.1,0.6-2.4,1.9-2.8c9.3-3.3,10.5-13.1,17.1-20.1
		c-4.3-0.4-7.3-0.7-10.4-0.9c-11-0.5-22-1.1-32.9-1.3c-4.6-0.1-5.9-3.6-8.5-6.9c10.5-1.7,20.5-4.2,30.5-4.7
		c10.9-0.5,17.1-4.8,19-15.7c1-5.7,5.6-9.8,8.7-14.4c1.7-2.6,2.5-4.8,1.3-7.9c-1-2.5-1.3-5.2-2.2-7.7c-1.7-4.7,2-7.4,4.1-10.6
		c0.8-1.3,1.7-0.1,2.3,0.6c1.7,2,3.4,4.1,5.3,6.4c4.9-7.5,4.5-15.5,4-23.7c-0.4-5.6-1.5-10.7-5.6-14.9c-2.3-2.3-2.3-5.9-2.9-8.9
		c-1.4-6.6-3.6-12.8-6.6-18.8c-2.1-4.1-4.7-8.1-3.5-13.2c0.3-1.3-0.4-2.3-1.4-2.9c-5.5-3.3-5.4-9-6.6-14.8c2.9,1.6,5.4,2.9,7.8,4.2
		c0.2,0.2,0.5,0.6,0.6,0.5c0.5-0.4,0.2-0.7-0.1-0.9c-1.5-3.6-0.4-6.6,1.4-9.8c2.7-5.1,1.6-9.2-3.8-11.3c-6.5-2.5-9.7-6.8-10.6-13.5
		c-0.6-3.9-1.8-7.8-2.9-11.6c-1-3.5-0.4-5,3.6-4.3c6.6,1.1,13.1,2.1,19.8,2.8c4.5,0.5,7.4,2.1,9.7,6.3c4.9,9.1,5.2,9,14.5,4.8
		c3.9-1.8,7.8-3.6,12-5.5c-1.4-2.1-3.5-2.3-5.2-2.9c-26.8-9.3-53.5-18.5-80.3-27.7c-1.6-0.5-4.2-0.3-4-2.8c0.3-2.9,1.1-5.9,2-8.7
		c0.2-0.7,1.5-0.1,2.2,0.2c2.5,0.8,5,1.7,7.6,2.5c1.1,0.4,2.7,1.7,3.5,0c0.7-1.7-0.4-3.2-2.2-3.9c-2.6-1.1-5.3-2-7.9-3.1
		c-3.3-1.3-5.6-10.3-3.4-13.2c1.1-1.3,2.1-0.2,3.1,0.2c5.3,2.1,10.6,4.1,15.7,6.5c2.6,1.2,4.4,1.3,5.3-1.8c1.2-4.4,4-6.3,8.6-6.6
		c4.8-0.3,9.6-1.3,14.3-2.3c4.2-0.8,8-0.1,12.1,1.4c24.2,9,48.5,17.7,72.7,26.7c3.3,1.2,6.3,1.8,9.6,0.4c11.9-4.9,23-3.5,34.8,1.7
		c17.6,7.8,36.2,13.5,52.9,23.5c3.8,2.3,7.5,0.6,11.2,0.2c11.8-1.5,11.9-1.6,7.8-12.5c-1.8-4.9-2.2-10.1-3.1-15.1
		c-0.4-2.4-1.4-3.8-3.5-5c-12-6.9-23.8-14-35.8-20.9c-2.7-1.6-4.5-3-1.9-6.1c2.3-2.8-0.3-3.2-2-4.1c-17.8-8.3-35.6-16.7-53.4-25
		c-1.4-0.7-2.8-1.5-5.1-2.7c9.7-1.4,17.7-2.1,26.3,1.5c30.5,12.5,61.4,24.1,92.1,36.1c3.3,1.3,6,1.5,9.4,0.1
		c6.5-2.7,12.9-8,19.8-7.1c6.6,0.9,13.1,4.8,19.1,8.4c6.9,4.2,13,3.8,20,0.5c10.1-4.8,20.6-8.6,30.9-12.9c2.1-0.9,4-1.2,6.3-0.4
		c2.5,0.9,5.2,1.2,7.6,2.3c16.6,7.4,33.6,3.2,50.6,3c9.2-0.2,12.5-4.4,15.1-12c3.5-10.3,8-20.3,12.5-31.3
		c6,13.8,11.5,26.6,17.7,40.7c3.9-10,7.3-18.8,11.2-29c1.7,8.6,3.8,15.9,4.6,23.3c1,9.3,4.3,16.9,12.3,22c1.1,0.7,1.9,1.9,3,2.7
		c9.4,6.4,14.4,15.6,17.8,26.2c2.5,7.8,9.4,12.8,14.3,19c7.9,9.9,16.1,19.6,24.3,29.2c2.2,2.6,1.7,3.6-1.2,5
		c-18.1,8.5-36.2,17-54.2,25.7c-3.4,1.6-6.2,1.9-9.3-0.3c-0.7-0.5-1.5-0.7-2.2-1.2c-12.4-9.1-26-7.1-40-4.7c1.7,2.3,5.5,3.2,4.6,7
		c-0.3,1.3-0.3,2.7-1.6,3.4c-2.4,1.3-3.4,3-2.6,5.7c0.3,1-0.2,2.1-1.1,2.6c-3.9,2.3-2.9,4.7-0.4,7.5c8.7,9.5,9.5,21.5,10.9,33.4
		c1.9,16,4.3,32,6.4,48c0.2,1.5,1.3,3.6-0.4,4.6c-1.3,0.8-2.8-0.7-4.1-1.3c-10.8-4.9-21.5-9.8-32.2-14.8c-4.4-2.1-7.9-0.5-10.8,2.3
		c-4.1,3.9-5.6,10.3-11.8,12.3c-0.7,0.2-1,2-1.2,3.1c-1.8,8.1-3.7,16.2-5.3,24.4c-1.2,5.7,0.2,6.9,5.9,5.5
		c7.1-1.7,14.2-3.5,22.2-5.5c-4.2,6.4-9.2,10.8-13.3,15.8c-3.4,4.1-7,8.1-10.7,11.9c-2,2-2.1,3.6-0.7,6c4.3,6.9,8.3,14,13.1,22.3
		c-7.1-2.1-13.2-3.5-19-5.6c-4.2-1.5-5.1-0.4-4.8,3.8c0.6,9,0.9,18,1.3,26.9c0.2,3.2,0.9,6.2,2.4,9.1c2.3,4.2,4.3,8.7,6.4,13
		c5.4,11.4,10.5,22.8,21.8,30.3c4.9,3.3,8.2,9.1,12.2,13.8c0.8,0.9,1.5,1.9,0.2,3c-1.7,1.4-2.6,2.6-0.7,4.9c1.2,1.5-3.9,4.8-6.9,4
		c-4.7-1.2-9.3-2.6-13.9-3.9c-1.2-0.3-2.6-1.5-3.5,0.2c-0.8,1.5,0.5,2.4,1.4,3.4c3,3.2,7.1,5.5,8,10.5c0.4,2.1,2.9,1,4.4,0.9
		c11-0.3,16.8,9,13.6,19.8c-2.2,7.3-6.3,9.2-13.2,9.4c-13.4,0.5-26.6-1-39.9-1.9c-2-0.1-3-1.1-3.7-2.7c-1.8-3.8-3.7-7.5-5.4-11.3
		c-1.9-4.1-3.8-7.7-7.9-10.5c-4-2.8-5.6-8.1-7.6-12.7c-1.7-4-3-8.1-4.5-12.2c-1-2.6-2.2-4.7-4.6-6.7c-3-2.4-5-6.7-3-10.6
		c1.4-2.8,0.3-3.3-1.6-4.4c-7.1-4-14.1-8.2-21.2-12.2c-1.8-1-3.5-1.8-2-4.6c1.4-2.7,3-2.5,5.2-1.3c3.4,1.8,6.9,3.3,10.3,5.2
		c2.4,1.3,3.2,0.4,4.6-1.6c5.1-6.6,3.4-12.9,0.1-19.4c-0.8-1.7-2.3-2.3-3.7-3.1c-7.4-4.3-8.5-6.1-9.1-16.4
		c6.5,4.6,14.5,5.7,19.6,13.4c0.7-7.3-0.7-13.7-1.1-20.1c-0.5-9-1.8-17.9-2.4-26.8c-0.2-2.7-1.1-4.7-3-6.5c-1.9-1.8-3.3-4.3-5.4-5.8
		c-7.2-5.2-9.9-12.9-7.7-20.6c1.9-6.6-1-11.5-1.9-17.1c-1.1-6.3,0.4-11.9,5.9-15.9c0.9-0.7,2.3-1.3,1.7-2.7c-1.3-3,0.9-4.6,2.2-6.7
		c1-1.6,2.1-3,3.2-4.5c1.6-2.3,3.9-4.8,2-7.6c-1.3-1.9-3.6-0.1-5.5,0c-3.7,0.3-4.5,2.6-4.7,5.8c-0.1,2.8-0.7,5.6-1.2,9.2
		c-7.2-4.3-13.9-8.2-20.5-12.4c-2.5-1.6-4.3-2.1-6.4,0.4c-1.6,1.9-3.4,3.2-6,1.6c-1.3-0.8-2.5,0-3.6,1c-5.4,5-10.8,10-16.2,14.9
		c-1.3,1.2-1.7,2.2-0.7,3.9c2,3.1,1.8,6.4,0.5,9.6c-1,2.4-1,3.8,2.2,3.4c5-0.6,9.9,0.8,14.9,1.2c3.6,0.3,4.1,1.7,2.8,4.8
		c-5.6,13.7-15.2,23.8-27.9,30.9c-3.8,2.1-4.9,4.6-5.1,8.6c-1,20-2.4,39.9-3.6,59.8c-0.1,1.6,0,3.2,0,5c2.4-0.7,2.6-3.7,5.3-4.3
		c2.8,9.8,5.5,19.5,8.3,29.2c2.9,10.1,5.9,20.1,10.2,29.8c0.9,1.9,1.5,4.1,0.4,5.7c-1.5,2.2-3.2,0.1-4.8-0.4
		c-0.5-0.1-1.2-0.3-1.4-0.1c-5.7,5.2-11.2,0.5-16.8-0.3c-0.2-0.4-0.5-0.7-0.9-0.2C420.4,863.6,420.7,863.9,420.9,864.1z
		 M501.8,692.4c0.9-3-1.5-5.3-3.1-8c-1.5-2.4-2.7-1.8-4.1,0c-3.1,4.2-2.7,8.7-1.1,13.3c0.6,1.5,0.4,4.5,2.8,4
		c2.2-0.5,4.8-1.7,5.2-4.7C501.7,695.6,501.7,694.3,501.8,692.4z M320.6,676.5c-9.6,7.7-12,18-6,26.6
		C316.5,694.1,321.4,686.5,320.6,676.5z"/>
	<path class="st1" d="M501.8,692.4c-0.1,1.9-0.2,3.2-0.3,4.5c-0.3,3-3,4.3-5.2,4.7c-2.4,0.5-2.2-2.4-2.8-4c-1.6-4.5-2-9.1,1.1-13.3
		c1.3-1.8,2.6-2.4,4.1,0C500.4,687,502.7,689.4,501.8,692.4z"/>
	<path class="st1" d="M320.6,676.5c0.8,10-4.1,17.6-6,26.6C308.6,694.5,311,684.2,320.6,676.5z"/>
	<path class="st1" d="M198.3,562.7c0.4,0.3,0.7,0.6,0.1,0.9c0,0-0.4-0.3-0.6-0.5C198,563,198.1,562.9,198.3,562.7z"/>
	<path class="st1" d="M420.9,864.1c-0.2-0.2-0.5-0.5-0.5-0.5c0.4-0.5,0.6-0.2,0.9,0.2C421.2,863.8,421,864,420.9,864.1z"/>
</g>
</svg>
