<?xml version="1.0" encoding="utf-8"?>
<!-- Generator: Adobe Illustrator 21.1.0, SVG Export Plug-In . SVG Version: 6.00 Build 0)  -->
<svg version="1.1" id="social-engineering_xA0_Image_1_"
	 xmlns="http://www.w3.org/2000/svg" xmlns:xlink="http://www.w3.org/1999/xlink" x="0px" y="0px" viewBox="0 0 1304.3 1112.6"
	 style="enable-background:new 0 0 1304.3 1112.6;" xml:space="preserve">
<style type="text/css">
	.st0{fill:#05CD7B;}
	.st1{fill:#211650;}
</style>
<g>
	<path class="st0" d="M213.8,1112.6c1.7-11.8,3.2-22.4,4.7-33.1c6.5-44.8,13.1-89.6,19.7-134.4c2.1-14.5,4-29,6.4-43.5
		c0.6-3.7-0.2-5.5-3.4-7.5c-36.9-23-71.1-49.4-102.1-80C80.3,755.7,36.4,688.2,14.5,607.7C-11.7,511.6-2,418.5,40.7,328.9
		c34.5-72.3,85.7-131,148.6-179.9c77.5-60.2,165-99.7,259.7-123.9C521.5,6.7,595.2-1.5,669.9,0.2c121.4,2.8,237,29.3,345.3,85.1
		c77.1,39.7,144.3,91.9,197.6,161c43.5,56.5,73.3,119.3,85.6,189.9c14.2,81.8,2.8,160.3-31.7,235.5c-33.2,72.3-83.2,131.5-145,180.9
		c-71.9,57.6-153.2,96.7-241.4,122.3c-54.3,15.7-109.6,25.4-166,29.5c-113,8.2-223.1-5.3-330.3-42.2c-5-1.7-10.2-5.9-14.9-4.4
		c-4.4,1.5-7.5,6.8-11.2,10.4c-46.6,46.8-93.1,93.5-139.7,140.3C217.1,1109.6,215.9,1110.7,213.8,1112.6z M451.2,596
		c0-0.1-0.1-0.3-0.1-0.4c0-0.1-0.2,0-0.3,0C450.9,595.8,451.1,595.9,451.2,596c-0.3,5.6,1.8,10.7,2.8,16.1c0.3,1.6,1.5,2.2,2.8,2.6
		c8.4,3,11.5,9.3,12.7,17.9c2.2,15.5,2.5,31.7,11.2,45.7c0.9,1.4,0.5,2.9,0.2,4.4c-1.3,5.5-2.7,11-3.8,16.5
		c-0.7,3.1-1.6,4.3-4.8,2.3c-5.1-3.1-10.6-5.6-15.8-8.5c-2.5-1.4-4-1.3-5.6,1.5c-1.6,2.7-1.2,4,1.3,5.5c8.9,5.6,17.6,11.4,26.5,17
		c2.4,1.5,3.9,3.1,3.9,6.2c0.1,4.2,1.3,8.6,4.7,11.3c4.8,3.8,6.6,9,8.1,14.5c1.2,4.1,4.2,7.9,3.6,12.3c-0.5,3.5,0.4,6.1,2,8.9
		c1.6,2.8,3.2,5.5,4.5,8.4c1.1,2.4,2.6,3.4,5.3,3.8c18.5,2.8,37,4.6,55.7,3.8c9.9-0.4,9.7-0.3,13.7-9.2c1.4-3.2,0-5.5-0.9-8
		c-1.4-4.1-3-8.1-4.2-12.3c-0.8-2.6-2.2-3.8-4.9-4c-4.1-0.3-9,0.4-8.6-6.4c0.1-0.9-1.6-2-2.6-2.8c-1.7-1.4-3.4-2.7-5.2-3.9
		c-1.4-1-2.1-2.4-1-3.8c1.2-1.6,2.5,0,3.3,0.7c2.9,2.6,4.9,1.8,6.8-1.2c0.6-1,1.5-1.8,2.3-2.6c4.7-5.7,4.7-11.4-1.2-15.9
		c-7.4-5.8-12.1-13-15-21.8c-1.8-5.4-4.6-10.4-6.5-15.7c-1.4-4-2.9-4.7-5.8-1.3c-2.4,2.7-4.1,2.9-4.9-1.4c-0.8-4.5-1.8-8.6-1-13.5
		c0.7-4.3-0.2-8.9,1.4-13.4c3.1-9,6-18,8.4-27.2c1.5-5.9,4.3-10.3,10-12.6c2.7-1.1,4-3,3.9-6.2c-0.2-7.7,1.6-14.8,7.3-20.4
		c0.9-0.9,1.5-2.2,2.3-3.2c3.6-4.8,3.7-4.8,7.1-0.1c7.4,10.3,13.4,21.5,19.7,32.5c0.6,1,1.1,2.1,1.2,3.3c0.9,13.1-1,26.1-2.2,39.7
		c-4.2-2.6-6-6.9-9.8-8.9c0,6.2-0.1,12,0.1,17.7c0,1.1,0.6,2.4,1.4,3.1c4.7,4.4,4.2,9.4,2.7,15c-1.6,5.7-4.1,10.9-6.1,16.4
		c-1.2,3.3-2.2,3.9-4.8,1.1c-4.8-5.3-10.2-10.1-14.8-15.6c-3.8-4.6-5.9-0.8-8.4,0.9c-3.6,2.5-0.1,3.9,1.1,5.4
		c5.6,6.4,12,12.2,16.7,19.2c3.8,5.6,8.6,11.5,5.4,19.6c-1.5,3.9-0.7,8.1,0.7,12.2c2.9,8.4,7.1,16.2,10.5,24.3
		c4,9.6,5,19.7,3.4,29.8c-0.5,3.6-0.4,6.8,0,10.2c1.1,8.6,6.2,15.3,9.8,22.8c1.6,3.3,3.8,4.5,7.4,4.5c10.3,0,20.7,0.3,30.4,4.7
		c1,0.5,2.3,0.5,3.4,0.4c10.8-0.6,21.6-1.3,32.4-1.9c1.2-0.1,2.5-0.1,3-1.4c3-7.8,9.5-14.9,4.8-24.3c-1.4-2.7-0.5-6.7-3.7-8.4
		c-2.9-1.6-4.1-4.2-5.7-6.7c-3.6-5.3-5.3-12.2-11-15.8c-6-3.8-7.6-10-11.1-16.6c3.3,1.2,5.4,1.9,7.5,2.9c4.7,2.2,9.3,3.4,14-0.3
		c2-1.6,4-0.6,6,0.5c2.5,1.3,4.3,0.7,4.2-2.5c0-1.6,0.1-3.4-0.6-4.9c-9.5-22-15-45.2-21.6-68c-0.8-2.9-1-6.1-3.1-8.9
		c-1.9,2.2-3.6,4.1-5.9,6.6c-0.1-1.7-0.2-2.5-0.2-3.2c1.3-27.3,2.7-54.5,4.8-81.8c0.4-4.9,1.9-7.6,6.3-10.1
		c16.5-9.5,29.1-22.5,36.3-40.5c1.5-3.6,0.7-5.2-3.2-5.6c-6.9-0.7-13.7-2.7-20.8-2c-2.5,0.3-3.4-0.3-2.3-3c2-5,2.8-10-0.9-14.7
		c-1.6-2,0.3-2.6,1.3-3.5c6.9-6.5,13.9-12.9,20.9-19.4c1.2-1.2,2.7-2.7,4.3-1.6c4,2.5,6.6,0.2,9.1-2.3c2.2-2.2,4.1-2.1,6.6-0.5
		c6.4,4,12.8,7.8,19.2,11.6c8.5,5.1,8.5,5.1,9.4-4.8c0.8-8.4,0.8-8.4,8.9-10.2c4.4-0.9,6.1,0.8,4.9,5.1c-0.4,1.4-1.4,2.6-2.2,3.9
		c-2.8,4.5-8.5,8.4-8,13.3c0.8,7.3-6.9,7.4-7.9,12.5c-0.3,1.6-1.2,3.1-1.6,4.7c-1.5,6.5,0.2,12.5,2.6,18.5c1.2,3.1,4,6.1-0.6,8.8
		c-0.8,0.5-0.4,1.8-0.3,2.8c0.3,3.7,0.6,7.3,0.6,11c0,4.4,1.4,7.9,4.7,11c4.8,4.6,9.1,9.8,13.7,14.5c1.8,1.8,2.3,3.8,2.5,6.2
		c0.8,10,1.8,19.9,2.7,29.8c0.9,10.4,1.7,20.7,2.7,32.6c-6.7-10.6-17.3-12.5-26.1-18.2c-0.5,4,1.4,6.6,1.7,9.5c0.5,5,3,8.3,7.7,10
		c5.1,1.9,8,5.6,9.3,10.8c0.5,2.1,1.4,4.1,2.3,6.1c0.7,1.6,0.8,3.1-0.1,4.7c-1.7,3.2-3.4,6.5-4.9,9.8c-1.1,2.5-2.4,2.5-4.6,1.4
		c-4.7-2.5-9.6-4.6-14.3-7.2c-2.8-1.5-4.4-1.8-6.2,1.5c-1.9,3.4-0.4,4.6,2.2,6.1c9.4,5.3,18.7,10.9,28.1,16.3c1.7,1,3.7,1.7,1.9,4.5
		c-2.1,3.2-0.3,12.9,3.1,14.6c3.9,1.9,5,5,6.2,8.5c1.5,4.4,3,8.9,4.7,13.2c2.8,6.8,5,14.7,10.8,18.8c5.4,3.9,7.9,8.7,10.5,14
		c2.3,4.8,4.6,9.6,6.8,14.5c0.9,1.9,1.8,3.4,4.3,3.5c16.9,0.5,33.7,3.5,50.8,2.2c13.5-1.1,13.6-0.7,18.2-13c2.9-7.7,0-14.3-4.5-20.3
		c-2.1-2.8-4.7-5.4-9.2-4.8c-4.9,0.7-10.1,2.3-11.9-5.7c-0.8-3.4-5.5-6-8.5-8.9c-1.3-1.2-2.4-2.5-1.4-4.3c1.1-2,2.7-0.6,3.9-0.2
		c5.8,1.6,11.6,3,17.3,5c4.5,1.6,7.2-1,10.4-3c1.2-0.7,1.2-1.6,0.1-2.3c-3.2-2-1.8-3.8,0.2-5.4c1.6-1.3,2-2.3,0.5-4
		c-7.7-8.5-14.1-18.2-23.7-24.9c-5.4-3.7-8.9-8.7-11.6-14.6c-5.7-12.1-11.7-23.9-17.7-35.9c-1.1-2.1-1.7-4.2-1.9-6.6
		c-0.6-12.1-1.3-24.3-1.9-36.4c-0.4-8.6-0.4-8.6,8.3-6c6.9,2.1,13.8,4,20.7,6.1c0.4-1.9-0.3-2.6-0.8-3.5
		c-4.8-8.2-9.4-16.5-14.5-24.5c-2-3.3-2.1-5.7,0.7-8.3c1.1-1,2-2.2,3-3.3c9.4-10.5,18.8-21.1,29.2-32.6c-11.6,2.9-21.9,5.5-32.2,8
		c-4.5,1.1-6.9-1.1-6-5.5c2.5-11.7,5.1-23.4,7.7-35.1c0.3-1.5,0.6-3.1,2.5-3.3c3.2-0.4,4.8-2.6,6.5-5c2.3-3.3,4.7-6.5,7.1-9.6
		c3.3-4.1,9.5-5.6,14.2-3.4c7.7,3.6,15.4,7.2,23.1,10.7c8.2,3.8,16.5,7.5,25.3,11.6c-3.2-23.6-6.6-46.3-9.2-69.1
		c-1.8-15.6-3.2-31.2-14.4-43.6c-0.8-0.9-1.3-2-2.1-2.8c-1.4-1.4-1.3-2.9,0.1-3.8c3.5-2.4,5.3-5.1,3.8-9.5c-0.3-1,0.8-1.7,1.6-2.3
		c1.9-1.5,4.4-2.2,4.5-5.5c0.1-2.7-0.9-4.9-2.4-7.2c3.1-0.3,5.7-0.4,8.4-0.8c7.6-1.2,14.8-0.8,21.6,3.3c5.1,3.1,10.7,5.4,16,8.1
		c2,1,3.6,1,5.6,0.1c24.7-11.7,49.3-23.5,74.1-35.1c3-1.4,3.2-2.4,1.1-5c-12.5-14.7-24.7-29.7-37.3-44.3c-7.8-9-14.9-18.3-17.8-30.1
		c-1.5-6.1-5.1-10.6-9.8-14.6c-5.5-4.6-10.5-9.8-16.1-14.2c-6.3-5-10.5-10.8-10.9-19.1c-0.1-2.8-0.9-5.6-1.5-8.3
		c-1.7-8.7-3.5-17.3-5.2-26c-0.4,0-0.7,0-1.1,0c-4.4,11.5-8.9,23.1-13.8,35.7c-7.8-18-15-34.8-22.7-52.5c-0.8,1.5-1.1,2.1-1.3,2.6
		c-6.4,15.8-12.8,31.5-19,47.3c-1.3,3.2-3,4.5-6.5,4.7c-11,0.7-21.9,2-32.8,2.6c-6.4,0.3-12.9,2.5-19.3,0.7
		c-10.4-2.8-20.8-5.8-31.2-9c-3.1-0.9-5.7-0.8-8.6,0.5c-13.7,5.8-27.4,11.3-41.1,17c-2.2,0.9-4,0.8-6.2-0.2
		c-10.6-4.9-21.3-9.5-31.8-14.7c-3.4-1.7-6.1-1.5-9.4,0c-7.3,3.2-14.8,6.1-22.1,9.3c-2.5,1.1-4.7,0.9-7.2,0
		c-42-16.4-84.2-32.5-126.1-49.2c-9.8-3.9-18.8-0.4-28.2-0.2c1.4,1.3,2.8,2.1,4.3,2.8c23.5,11,47.1,22,70.7,32.9
		c3.1,1.5,5,2.7,2,5.9c-2.6,2.8-1.9,4.4,1.4,6.3c15.9,9.1,31.7,18.5,47.5,27.7c2,1.2,4,2.1,4.4,5c1.4,10.9,3.8,21.6,8.3,31.8
		c1.2,2.8-0.3,3.4-2.7,3.7c-5.4,0.7-10.9,1.4-16.3,2.5c-4,0.8-7.4,0.1-11-1.8c-10.7-5.7-21.2-11.9-32.7-16.2
		c-12.9-4.8-26.1-9.3-38.6-15.1c-11.6-5.4-22.9-7.1-34.9-2c-2.3,1-4.9,1.1-7.2,1.9c-3,1-5.8,0.7-8.7-0.4c-33-12.1-66-24.1-99-36.3
		c-2.7-1-5.3-1.5-8.2-0.9c-6.9,1.2-13.8,2.5-20.7,3.1c-6.2,0.6-11.2,2.2-12.9,9.1c-0.7,3.2-2.7,3.6-5.7,2.2
		c-4.7-2.1-9.6-3.9-14.3-5.9c-11.4-4.7-11.3-4.7-11.8,7.9c-0.1,3.1,1,4.5,3.8,5.4c4.2,1.5,8.4,3.1,12.6,4.9c2.4,1,3.1,3.5,2.3,5.4
		c-0.7,1.8-2.6,0-3.9-0.3c-2.3-0.5-4.4-1.5-6.6-2.2c-7.1-2.5-6.6-2.3-8.6,5c-1.5,5.5,0.3,7,5.2,8.7c34.8,11.9,69.9,23.2,104.4,36
		c1.7,0.6,3.8,0.7,5.2,2.9c-8.5,4-16.6,7.7-24.7,11.5c-2.5,1.2-3.6,0-4.8-2c-2.4-4.2-4.9-8.3-7.4-12.4c-0.8-1.4-1.6-2.9-3.6-3.2
		c-11.5-1.6-23.1-3.3-34.6-5c-2.9-0.4-3.4,0.7-2.6,3.4c1.3,4.5,2.6,9,3.4,13.6c1.8,10,4.8,19,16.2,21.8c0.3,0.1,0.6,0.3,0.9,0.5
		c3.9,2.6,5.3,8,3.2,12.1c-2.5,4.8-5.9,9.5-0.4,15.8c-5.5-1.7-8.1-5.4-13.1-6.6c2.2,5.5,0.9,11.6,5.1,15.3c4,3.5,7.4,6.5,5.2,12.4
		c-0.7,1.7,0.9,3.5,1.7,5.1c6.2,11.9,11,24.2,13.2,37.5c0.4,2.2,1.2,4.2,2.8,5.8c5.1,5,6.9,11.1,6.4,18.1c-0.1,1.6,0.2,3.3,0.5,5
		c1.3,8.2-0.3,15.8-3.6,23.3c-1,2.2-1.8,2.6-3.3,0.6c-1.6-2.1-3.4-4.1-5-6.3c-1.3-1.8-2.4-1.9-3.8,0c-3.7,4.7-6.8,9.4-3.8,15.8
		c1.3,2.8,1.7,6.1,2.7,9.1c0.8,2.3,0.6,4.1-0.9,6c-8.4,9.9-14,21.4-17.5,33.9c-0.9,3.1-2.8,4.1-5.7,4.6c-13.5,2.1-27,4-40.4,6.4
		c-4.1,0.7-8.5,0.4-12.4,2.6c6,8,6,7.9,15.2,8.3c15.5,0.6,30.9,1.5,46.4,2c4.4,0.2,3.7,1.8,2,4.4c-3.6,5.4-7.1,10.9-10.6,16.4
		c-0.9,1.4-1.7,3-3.5,3.4c-6.2,1.4-8.1,6.1-9.3,11.5c-0.5,2.1-1.2,4.2-1.8,6.2c-0.5,1.6-0.9,3.3-3,3.6c-2.3,0.3-2.6-1.8-3.2-3.2
		c-3.7-8.5-12-11.8-19-18.3c0,5.1,0.1,8.9,0,12.7c-0.2,6,1.1,11.2,7.2,13.9c2.9,1.3,1.8,3.3,1.1,5.4c-2.1,6.4-3.2,13.1,0.4,19.3
		c2.3,3.9,3.3,7.8,3.1,12.3c-0.2,3,0.6,6,0.5,8.9c-0.2,5.1,3.1,9.8,2.2,14.7c-1.3,7.2-4.6,14-3.9,22.4c-8.3-4.8-16-8.9-23.2-13.6
		c-4.4-2.9-5.3,0.8-7.3,2.9c-2.7,2.9,0.3,3.6,1.8,4.8c8.4,6.3,16.7,12.7,25.3,18.7c3.1,2.2,4.1,4.4,3.2,7.9c-1,4.1-0.8,9.4,2.8,10.9
		c7.5,3.2,7.3,9.2,8,15.4c0.6,5.1,1.9,10.1,3.8,15c0.5,1.2,0.8,2.6,0.7,3.9c-0.2,8.5,2.6,16.4,4.1,24.6c0.4,2.4,1.6,3.6,4.1,4.2
		c6.4,1.3,12.6,3.5,19,4.4c11.8,1.7,23.5-1.8,35.3-1.1c11,0.7,16.3-4.2,18.8-14.2c0.6-2.6,1-4.5-0.2-7c-5.6-11.4-10.6-23.1-21.1-31
		c-2.4-1.8-3-4.5-1.5-6.6c1.3-1.9,3.1,0.6,4.7,1.2c3.1,1.1,13.9-2.1,13.5-4.5c-1.2-7.4,1.8-16.1-6.3-21.5c-5-3.3-7.6-8-9.3-13.7
		c-2-7-4.7-13.9-7-20.8c-0.7-2.3-1.8-3.7-4.3-2.4c-2.3,1.2-3.3,0.2-3.9-2c-0.4-1.4-0.7-3.3-1.7-4.1c-5.4-4-1.6-6.5,1.3-9.1
		c0.9-0.8,1.7-1.6,2.7-2.3c3.8-2.7,5.1-6.1,4.1-10.8c-0.9-4.5,0-8.9,1.7-13.2c3.4-8.2,6.5-16.4,9.5-24.7c1-2.7,2.5-4.5,4.8-6.1
		c23.6-16.9,46.1-35.1,65.1-57.3c8.7-10.2,16.4-21,20.6-34c1.3-4.1,0.9-6.2-3.7-7.8c-4.6-1.6-9.4-2.2-14.9-3.5
		c3.1-2,5.5-3.2,7.4-4.9c6.7-6,18.1-8.8,15.4-21.5c-0.1-0.3,0.2-0.7,0.3-0.9c3.1-4.1,2.4-8.8,2.5-13.5c0.1-8,0-8,7.4-5.5
		c0.2,0.1,0.3,0.1,0.5,0.2c2.2,0.9,4.8,0.9,5.1,4.5c0.2,3.1-1.8,4.1-3.8,5.2c-2,1.1-3.6,2.2-2.7,5c0.8,2.9-0.3,6.4,4.1,7.5
		c6.9,1.8,13.6,6,21.1,2.3c1.3-0.6,2.8-0.6,3.1,1.8c0.8,6.6-1.6,11.7-7.3,14.8c-0.9,0.5-2.3,1-2.4,1.6c-0.5,4.9-4.8,7-7.5,10.2
		c-10.3,12.6-15.6,28.3-4.7,44c1.7,2.4,0.5,4.1-0.5,6c-8.1,14.9-16.3,29.8-24.4,44.8c-2,3.7-3.4,3.6-5.8,0.3
		C468.7,606.9,460.5,600.8,451.2,596z"/>
	<path class="st1" d="M451.2,596c9.3,4.7,17.5,10.8,23.5,19.5c2.3,3.3,3.8,3.5,5.8-0.3c8-15,16.3-29.8,24.4-44.8
		c1-1.8,2.2-3.6,0.5-6c-10.9-15.7-5.6-31.4,4.7-44c2.7-3.2,7-5.3,7.5-10.2c0.1-0.6,1.5-1.2,2.4-1.6c5.7-3.1,8.1-8.3,7.3-14.8
		c-0.3-2.4-1.8-2.4-3.1-1.8c-7.6,3.7-14.2-0.5-21.1-2.3c-4.4-1.1-3.3-4.7-4.1-7.5c-0.8-2.9,0.7-3.9,2.7-5c2-1.1,4-2,3.8-5.2
		c-0.3-3.5-2.9-3.6-5.1-4.5c-0.2-0.1-0.3-0.1-0.5-0.2c-7.4-2.5-7.4-2.5-7.4,5.5c0,4.6,0.7,9.4-2.5,13.5c-0.2,0.3-0.4,0.6-0.3,0.9
		c2.7,12.7-8.8,15.5-15.4,21.5c-1.9,1.7-4.4,2.9-7.4,4.9c5.5,1.3,10.4,1.8,14.9,3.5c4.5,1.6,5,3.7,3.7,7.8
		c-4.2,13-11.9,23.8-20.6,34c-19,22.2-41.5,40.4-65.1,57.3c-2.2,1.6-3.8,3.4-4.8,6.1c-3,8.3-6.2,16.5-9.5,24.7
		c-1.8,4.3-2.7,8.7-1.7,13.2c1,4.7-0.3,8.1-4.1,10.8c-1,0.7-1.8,1.5-2.7,2.3c-3,2.6-6.8,5.1-1.3,9.1c1,0.8,1.3,2.7,1.7,4.1
		c0.6,2.2,1.6,3.2,3.9,2c2.5-1.3,3.5,0.1,4.3,2.4c2.3,7,5,13.8,7,20.8c1.6,5.7,4.3,10.4,9.3,13.7c8.1,5.3,5.1,14.1,6.3,21.5
		c0.4,2.4-10.5,5.6-13.5,4.5c-1.5-0.6-3.3-3.1-4.7-1.2c-1.5,2.1-0.9,4.8,1.5,6.6c10.6,7.9,15.6,19.6,21.1,31c1.2,2.5,0.9,4.4,0.2,7
		c-2.5,10-7.8,14.9-18.8,14.2c-11.7-0.7-23.5,2.8-35.3,1.1c-6.4-0.9-12.6-3.1-19-4.4c-2.5-0.5-3.7-1.7-4.1-4.2
		c-1.5-8.2-4.3-16.1-4.1-24.6c0-1.3-0.3-2.7-0.7-3.9c-1.9-4.8-3.2-9.9-3.8-15c-0.7-6.3-0.5-12.2-8-15.4c-3.6-1.5-3.7-6.8-2.8-10.9
		c0.8-3.5-0.1-5.7-3.2-7.9c-8.6-6-16.9-12.4-25.3-18.7c-1.5-1.1-4.4-1.9-1.8-4.8c2-2.1,2.8-5.8,7.3-2.9c7.2,4.7,14.9,8.7,23.2,13.6
		c-0.7-8.4,2.6-15.2,3.9-22.4c0.9-4.9-2.3-9.6-2.2-14.7c0.1-3-0.7-6-0.5-8.9c0.2-4.5-0.8-8.3-3.1-12.3c-3.6-6.2-2.5-12.8-0.4-19.3
		c0.7-2.1,1.8-4.1-1.1-5.4c-6.1-2.7-7.4-7.8-7.2-13.9c0.1-3.8,0-7.6,0-12.7c7,6.5,15.3,9.8,19,18.3c0.6,1.4,0.9,3.5,3.2,3.2
		c2-0.3,2.5-1.9,3-3.6c0.6-2.1,1.3-4.1,1.8-6.2c1.2-5.4,3.1-10.2,9.3-11.5c1.7-0.4,2.6-2,3.5-3.4c3.5-5.5,7-11,10.6-16.4
		c1.7-2.7,2.4-4.3-2-4.4c-15.5-0.5-30.9-1.4-46.4-2c-9.2-0.4-9.2-0.3-15.2-8.3c3.9-2.2,8.3-1.9,12.4-2.6c13.4-2.3,26.9-4.3,40.4-6.4
		c2.9-0.4,4.8-1.4,5.7-4.6c3.5-12.5,9.1-23.9,17.5-33.9c1.6-1.9,1.7-3.7,0.9-6c-1-3-1.4-6.3-2.7-9.1c-3-6.4,0.1-11.1,3.8-15.8
		c1.5-1.9,2.5-1.7,3.8,0c1.6,2.1,3.3,4.2,5,6.3c1.6,2,2.4,1.6,3.3-0.6c3.3-7.5,4.9-15.2,3.6-23.3c-0.3-1.6-0.6-3.3-0.5-5
		c0.5-7-1.3-13.1-6.4-18.1c-1.6-1.5-2.4-3.6-2.8-5.8c-2.2-13.3-7-25.6-13.2-37.5c-0.8-1.6-2.4-3.3-1.7-5.1c2.3-6-1.2-8.9-5.2-12.4
		c-4.2-3.7-2.9-9.8-5.1-15.3c4.9,1.2,7.5,4.9,13.1,6.6c-5.5-6.4-2.1-11,0.4-15.8c2.1-4.2,0.7-9.5-3.2-12.1c-0.3-0.2-0.6-0.4-0.9-0.5
		c-11.5-2.8-14.4-11.8-16.2-21.8c-0.8-4.6-2.1-9.1-3.4-13.6c-0.8-2.7-0.3-3.8,2.6-3.4c11.5,1.7,23.1,3.4,34.6,5
		c2,0.3,2.7,1.8,3.6,3.2c2.5,4.1,5,8.3,7.4,12.4c1.1,2,2.3,3.2,4.8,2c8.1-3.8,16.2-7.6,24.7-11.5c-1.4-2.2-3.5-2.3-5.2-2.9
		c-34.5-12.8-69.5-24.1-104.4-36c-4.8-1.7-6.7-3.2-5.2-8.7c2-7.3,1.5-7.4,8.6-5c2.2,0.8,4.4,1.7,6.6,2.2c1.3,0.3,3.2,2.2,3.9,0.3
		c0.8-2,0.1-4.4-2.3-5.4c-4.1-1.7-8.3-3.4-12.6-4.9c-2.7-0.9-3.9-2.3-3.8-5.4c0.5-12.6,0.4-12.6,11.8-7.9c4.8,1.9,9.6,3.7,14.3,5.9
		c2.9,1.3,4.9,1,5.7-2.2c1.6-6.9,6.6-8.5,12.9-9.1c6.9-0.7,13.8-1.9,20.7-3.1c2.9-0.5,5.5-0.1,8.2,0.9c33,12.1,66,24.2,99,36.3
		c2.9,1.1,5.7,1.4,8.7,0.4c2.4-0.8,5-0.9,7.2-1.9c12-5.1,23.2-3.4,34.9,2c12.5,5.8,25.7,10.2,38.6,15.1
		c11.4,4.3,21.9,10.4,32.7,16.2c3.6,1.9,7,2.6,11,1.8c5.4-1.1,10.8-1.8,16.3-2.5c2.4-0.3,3.9-1,2.7-3.7c-4.4-10.2-6.9-20.8-8.3-31.8
		c-0.4-2.8-2.4-3.8-4.4-5c-15.8-9.3-31.5-18.7-47.5-27.7c-3.4-1.9-4-3.6-1.4-6.3c3-3.2,1.2-4.5-2-5.9
		c-23.6-10.9-47.1-21.9-70.7-32.9c-1.5-0.7-2.9-1.5-4.3-2.8c9.4-0.3,18.4-3.7,28.2,0.2c41.9,16.7,84.1,32.8,126.1,49.2
		c2.5,1,4.7,1.1,7.2,0c7.3-3.2,14.8-6.1,22.1-9.3c3.3-1.4,6-1.6,9.4,0c10.5,5.1,21.2,9.7,31.8,14.7c2.1,1,4,1.1,6.2,0.2
		c13.7-5.7,27.4-11.3,41.1-17c2.9-1.2,5.5-1.4,8.6-0.5c10.3,3.2,20.7,6.2,31.2,9c6.4,1.7,12.9-0.4,19.3-0.7
		c11-0.5,21.9-1.9,32.8-2.6c3.5-0.2,5.3-1.5,6.5-4.7c6.2-15.8,12.6-31.5,19-47.3c0.2-0.6,0.5-1.1,1.3-2.6
		c7.6,17.6,14.9,34.5,22.7,52.5c4.9-12.6,9.3-24.2,13.8-35.7c0.4,0,0.7,0,1.1,0c1.7,8.7,3.5,17.3,5.2,26c0.6,2.8,1.4,5.5,1.5,8.3
		c0.4,8.3,4.6,14.1,10.9,19.1c5.6,4.4,10.6,9.6,16.1,14.2c4.7,4,8.3,8.5,9.8,14.6c2.9,11.8,10,21.1,17.8,30.1
		c12.6,14.6,24.8,29.6,37.3,44.3c2.2,2.6,1.9,3.6-1.1,5c-24.7,11.6-49.4,23.3-74.1,35.1c-2,1-3.6,1-5.6-0.1
		c-5.3-2.8-10.9-5.1-16-8.1c-6.9-4.1-14-4.5-21.6-3.3c-2.6,0.4-5.3,0.5-8.4,0.8c1.4,2.3,2.4,4.4,2.4,7.2c-0.1,3.3-2.6,4-4.5,5.5
		c-0.8,0.6-1.9,1.3-1.6,2.3c1.5,4.4-0.4,7.1-3.8,9.5c-1.4,1-1.5,2.5-0.1,3.8c0.8,0.8,1.3,1.9,2.1,2.8c11.2,12.5,12.6,28,14.4,43.6
		c2.7,22.8,6,45.5,9.2,69.1c-8.8-4-17.1-7.8-25.3-11.6c-7.7-3.6-15.4-7.2-23.1-10.7c-4.7-2.2-10.9-0.7-14.2,3.4
		c-2.5,3.1-4.9,6.4-7.1,9.6c-1.7,2.4-3.3,4.6-6.5,5c-1.9,0.2-2.2,1.7-2.5,3.3c-2.5,11.7-5.2,23.4-7.7,35.1c-0.9,4.5,1.5,6.6,6,5.5
		c10.3-2.5,20.5-5.1,32.2-8c-10.3,11.6-19.8,22.1-29.2,32.6c-1,1.1-1.9,2.3-3,3.3c-2.8,2.6-2.8,5-0.7,8.3c5,8,9.7,16.3,14.5,24.5
		c0.5,0.8,1.2,1.6,0.8,3.5c-6.9-2-13.9-4-20.7-6.1c-8.6-2.6-8.7-2.6-8.3,6c0.6,12.1,1.3,24.3,1.9,36.4c0.1,2.4,0.8,4.5,1.9,6.6
		c6,11.9,12,23.8,17.7,35.9c2.8,5.9,6.2,10.9,11.6,14.6c9.6,6.6,16,16.4,23.7,24.9c1.6,1.7,1.2,2.7-0.5,4c-2.1,1.6-3.4,3.5-0.2,5.4
		c1.1,0.7,1.1,1.6-0.1,2.3c-3.2,2-5.9,4.6-10.4,3c-5.6-2-11.5-3.5-17.3-5c-1.3-0.3-2.8-1.8-3.9,0.2c-1,1.8,0.2,3.1,1.4,4.3
		c3,2.9,7.7,5.5,8.5,8.9c1.8,7.9,7,6.4,11.9,5.7c4.5-0.6,7,1.9,9.2,4.8c4.4,6,7.4,12.6,4.5,20.3c-4.7,12.3-4.8,11.9-18.2,13
		c-17.1,1.3-33.9-1.7-50.8-2.2c-2.5-0.1-3.4-1.6-4.3-3.5c-2.2-4.8-4.5-9.7-6.8-14.5c-2.6-5.3-5.1-10.1-10.5-14
		c-5.7-4.1-8-12-10.8-18.8c-1.8-4.3-3.2-8.7-4.7-13.2c-1.2-3.5-2.3-6.6-6.2-8.5c-3.4-1.6-5.2-11.4-3.1-14.6c1.8-2.8-0.2-3.5-1.9-4.5
		c-9.3-5.5-18.7-11-28.1-16.3c-2.7-1.5-4.1-2.7-2.2-6.1c1.8-3.3,3.5-3,6.2-1.5c4.7,2.5,9.6,4.7,14.3,7.2c2.2,1.2,3.5,1.2,4.6-1.4
		c1.5-3.4,3.2-6.6,4.9-9.8c0.9-1.6,0.8-3.1,0.1-4.7c-0.9-2-1.7-4-2.3-6.1c-1.3-5.2-4.2-8.9-9.3-10.8c-4.7-1.7-7.2-5-7.7-10
		c-0.3-2.9-2.2-5.6-1.7-9.5c8.8,5.6,19.4,7.5,26.1,18.2c-1-11.9-1.8-22.3-2.7-32.6c-0.9-9.9-1.9-19.9-2.7-29.8
		c-0.2-2.5-0.8-4.4-2.5-6.2c-4.6-4.8-8.9-9.9-13.7-14.5c-3.3-3.1-4.7-6.6-4.7-11c0-3.7-0.3-7.3-0.6-11c-0.1-1-0.5-2.3,0.3-2.8
		c4.6-2.7,1.9-5.7,0.6-8.8c-2.4-5.9-4.1-12-2.6-18.5c0.4-1.6,1.3-3.1,1.6-4.7c1-5.1,8.7-5.2,7.9-12.5c-0.5-4.9,5.2-8.8,8-13.3
		c0.8-1.3,1.8-2.5,2.2-3.9c1.3-4.3-0.5-6.1-4.9-5.1c-8.1,1.8-8.1,1.8-8.9,10.2c-0.9,9.9-1,9.9-9.4,4.8c-6.4-3.8-12.9-7.7-19.2-11.6
		c-2.5-1.6-4.4-1.7-6.6,0.5c-2.5,2.5-5.1,4.8-9.1,2.3c-1.7-1-3.1,0.5-4.3,1.6c-7,6.5-13.9,12.9-20.9,19.4c-1,0.9-2.8,1.5-1.3,3.5
		c3.7,4.6,2.9,9.7,0.9,14.7c-1.1,2.7-0.2,3.2,2.3,3c7.1-0.7,13.9,1.3,20.8,2c3.9,0.4,4.6,1.9,3.2,5.6c-7.2,18-19.8,31-36.3,40.5
		c-4.3,2.5-5.9,5.2-6.3,10.1c-2.1,27.2-3.4,54.5-4.8,81.8c0,0.8,0.1,1.5,0.2,3.2c2.2-2.5,3.9-4.4,5.9-6.6c2.1,2.8,2.2,6,3.1,8.9
		c6.6,22.9,12.1,46.1,21.6,68c0.6,1.4,0.5,3.3,0.6,4.9c0.1,3.2-1.7,3.8-4.2,2.5c-2-1.1-4-2.1-6-0.5c-4.7,3.7-9.3,2.5-14,0.3
		c-2.1-1-4.2-1.6-7.5-2.9c3.4,6.6,5.1,12.8,11.1,16.6c5.7,3.6,7.5,10.5,11,15.8c1.7,2.5,2.9,5.1,5.7,6.7c3.2,1.7,2.3,5.7,3.7,8.4
		c4.7,9.4-1.7,16.5-4.8,24.3c-0.5,1.3-1.8,1.3-3,1.4c-10.8,0.6-21.6,1.3-32.4,1.9c-1.1,0.1-2.4,0-3.4-0.4c-9.7-4.4-20-4.7-30.4-4.7
		c-3.6,0-5.8-1.2-7.4-4.5c-3.6-7.5-8.7-14.2-9.8-22.8c-0.4-3.5-0.6-6.7,0-10.2c1.5-10.1,0.6-20.2-3.4-29.8
		c-3.4-8.1-7.6-15.9-10.5-24.3c-1.4-4.1-2.2-8.3-0.7-12.2c3.1-8-1.7-14-5.4-19.6c-4.7-7-11.1-12.8-16.7-19.2
		c-1.2-1.4-4.7-2.9-1.1-5.4c2.5-1.8,4.6-5.6,8.4-0.9c4.5,5.5,10,10.3,14.8,15.6c2.6,2.9,3.6,2.2,4.8-1.1c2-5.5,4.5-10.7,6.1-16.4
		c1.5-5.6,2.1-10.6-2.7-15c-0.8-0.7-1.3-2-1.4-3.1c-0.1-5.8-0.1-11.6-0.1-17.7c3.8,2,5.7,6.3,9.8,8.9c1.2-13.6,3.1-26.5,2.2-39.7
		c-0.1-1.1-0.6-2.3-1.2-3.3c-6.3-11-12.3-22.1-19.7-32.5c-3.4-4.8-3.6-4.8-7.1,0.1c-0.8,1.1-1.4,2.3-2.3,3.2
		c-5.7,5.7-7.5,12.7-7.3,20.4c0.1,3.2-1.2,5.1-3.9,6.2c-5.8,2.3-8.5,6.7-10,12.6c-2.4,9.2-5.3,18.2-8.4,27.2
		c-1.5,4.5-0.7,9.1-1.4,13.4c-0.7,4.9,0.2,9,1,13.5c0.8,4.3,2.5,4.1,4.9,1.4c2.9-3.4,4.3-2.8,5.8,1.3c1.9,5.3,4.7,10.3,6.5,15.7
		c2.9,8.8,7.6,16,15,21.8c5.9,4.5,5.9,10.2,1.2,15.9c-0.7,0.9-1.7,1.7-2.3,2.6c-1.9,3-3.9,3.7-6.8,1.2c-0.8-0.7-2.1-2.3-3.3-0.7
		c-1.1,1.4-0.4,2.8,1,3.8c1.8,1.3,3.5,2.5,5.2,3.9c1,0.8,2.7,1.9,2.6,2.8c-0.4,6.8,4.5,6.1,8.6,6.4c2.7,0.2,4.1,1.4,4.9,4
		c1.2,4.2,2.8,8.2,4.2,12.3c0.9,2.6,2.3,4.9,0.9,8c-4,8.9-3.8,8.8-13.7,9.2c-18.7,0.8-37.2-1-55.7-3.8c-2.7-0.4-4.2-1.4-5.3-3.8
		c-1.3-2.9-2.9-5.6-4.5-8.4c-1.6-2.8-2.5-5.5-2-8.9c0.6-4.4-2.5-8.2-3.6-12.3c-1.5-5.4-3.3-10.6-8.1-14.5c-3.4-2.7-4.6-7-4.7-11.3
		c-0.1-3.2-1.5-4.7-3.9-6.2c-8.9-5.6-17.6-11.4-26.5-17c-2.5-1.6-2.9-2.8-1.3-5.5c1.6-2.7,3.1-2.9,5.6-1.5
		c5.2,2.9,10.7,5.5,15.8,8.5c3.3,1.9,4.2,0.8,4.8-2.3c1.2-5.5,2.5-11,3.8-16.5c0.4-1.5,0.7-3-0.2-4.4c-8.7-14-9-30.1-11.2-45.7
		c-1.2-8.5-4.3-14.8-12.7-17.9c-1.2-0.4-2.5-1-2.8-2.6C453,606.8,450.9,601.6,451.2,596L451.2,596z M519.2,522.9
		c-12.1,10.3-15.4,25.8-6.9,34.2C513.7,545.4,521.7,535.8,519.2,522.9z M753,543.8c1.2-3.7-1.1-6.8-3.4-9.9
		c-2.7-3.7-3.9-3.7-6.3,0.2c-3.7,6-2.1,12.1-0.2,18.2c1.2,3.8,2.6,3.8,5.9,1.9C753.3,551.8,752.8,548.1,753,543.8z"/>
	<path class="st1" d="M451.2,596c-0.2-0.1-0.3-0.2-0.5-0.3c0.1,0,0.2,0,0.3,0C451.1,595.8,451.2,595.9,451.2,596
		C451.2,596,451.2,596,451.2,596z"/>
	<path class="st0" d="M519.2,522.9c2.5,12.9-5.5,22.5-6.9,34.2C503.8,548.7,507.1,533.2,519.2,522.9z"/>
	<path class="st0" d="M753,543.8c-0.2,4.3,0.3,7.9-4,10.4c-3.3,1.9-4.8,2-5.9-1.9c-1.9-6.1-3.4-12.2,0.2-18.2
		c2.4-3.9,3.6-3.9,6.3-0.2C751.9,537.1,754.2,540.1,753,543.8z"/>
</g>
</svg>
