<?xml version="1.0" encoding="utf-8"?>
<!-- Generator: Adobe Illustrator 21.1.0, SVG Export Plug-In . SVG Version: 6.00 Build 0)  -->
<svg version="1.1" id="wifi-networks--2_xA0_Image_1_"
	 xmlns="http://www.w3.org/2000/svg" xmlns:xlink="http://www.w3.org/1999/xlink" x="0px" y="0px" viewBox="0 0 1363.6 1375.9"
	 style="enable-background:new 0 0 1363.6 1375.9;" xml:space="preserve">
<style type="text/css">
	.st0{fill:#221651;}
	.st1{fill:#07CE7C;}
</style>
<g>
	<path class="st0" d="M41.1,1210.8c-2.2-11.2,3.2-19.9,4.9-29.3c0.2-1.3,0.3-2.2-0.1-3.5c-2.6-11-5.1-22.1-3.4-33.7
		c0.4-2.5-2.1-5.7-3.8-8.2c-1.6-2.3-2.4-4.6-2.2-7.3c0.4-7-0.9-14.2,2.1-21c0.8-1.9-0.4-3.3-2.2-4.3c-6.6-3.7-9.4-9.1-8.5-16.8
		c0.6-5.4,0.1-10.8,0.1-17.5c9.3,8.3,20.5,12.9,24.9,24.7c0.5,1.4,1,3.3,3.4,2.8c1.9-0.4,2.8-1.7,3.2-3.3c1.5-5,3-10.1,4.2-15.2
		c1.1-4.9,4-7.5,8.7-8.3c3.9-0.7,5.5-4,7.4-6.7c4.8-7.1,9.2-14.4,13.7-21.6c1.3-2,1.7-3.2-1.7-3.5c-21.6-1.8-43.2-2.9-64.8-3.2
		c-9.1-0.1-13.1-5.1-17.8-11.5c14-2.2,27.6-4.1,41-6.5c10.4-1.8,21-2.8,31.3-5.7c2.6-0.7,3.3-2.2,4.1-4.2c3.7-9.8,5.7-20.2,11.8-29
		c3.9-5.7,7.8-11.4,11.9-17c1-1.4,1.3-2.3,0.7-4.3c-2.2-7-3.4-14.4-5.6-21.4c-0.7-2.1-0.4-3,0.9-4.2c0.4-0.3,0.7-0.8,0.9-1.2
		c7.8-11.4,7.9-11.5,16.2-0.3c0.8,1.1,1.2,2.5,2.8,2.2c1.5-0.3,1.5-2,2.2-3c8.8-14.8,4.1-30.6,3.3-46.1c-0.1-2.6-1.5-4.8-3.2-6.5
		c-5.6-5.9-9-12.9-10.2-21c-2-13.5-7.6-25.8-13.7-37.9c-2.9-5.7-5.7-11.2-2.9-17.8c0.9-2.1-1.6-3.4-3-4.1c-6.9-3.7-8.4-10.3-9.8-17
		c-0.1-0.6-0.1-1.3,0-2c0.2-1.9-2.8-4.2-0.8-5.3c2.2-1.3,4,1.7,5.8,2.9c2.4,1.6,4.7,3.4,7.7,4.8c0-1.2,0.3-2.2,0-2.8
		c-3.7-5.6-0.4-10.1,2.1-14.8c4.6-8.9,2.5-15-6.7-19.5c-3.6-1.8-7.3-3.5-10.9-5.5c-1.7-1-3-2.4-3.5-4.6c-2.7-11.8-5.4-23.5-8.9-35.1
		c-0.9-3-1.1-4.8,3.6-4c13.9,2.3,27.8,4.4,41.8,5.7c5.7,0.6,7.9,4,10.2,7.9c2.7,4.5,5.4,9,8,13.6c1.1,2,2.7,3.1,4.8,2.1
		c10.8-4.9,21.6-9.8,33.3-15.2c-6.3-3.6-12.5-5.4-18.5-7.5c-21-7.4-42-14.7-63.1-21.9c-21.6-7.4-43.4-14.6-65-21.9
		c-3.1-1-4.5-2.6-3.3-6.2c1.1-3.4,1.5-7.2,2-10.8c0.3-2.6,1.3-3.1,3.6-2.1c4.8,2.1,10,2.9,14.8,5.2c1.2,0.6,3.8,2.7,4.6,0.4
		c0.8-2.4,0.9-6.2-2.6-7.1c-5.9-1.4-11-4.6-16.7-6.3c-3.6-1.1-5.1-2.9-4.7-6.7c0.5-4.7,0.7-9.5,1.1-14.2c0.3-3.4,2.2-1.4,3.5-0.9
		c9.4,3.8,18.8,7.6,28.2,11.4c6.2,2.5,7.4,2.5,9.7-3.7c2.4-6.6,6.1-9.6,13.3-9.9c7.9-0.4,15.9-1.9,23.6-3.8
		c8.8-2.2,16.4,0.2,24.3,3.3c12.3,4.8,24.8,9.2,37.2,13.7c16,5.9,32.1,11.8,48.1,17.6c13,4.7,26.1,9.4,39.1,14.2
		c1.9,0.7,3.6,0.4,5.3,0c9.3-2.4,18.8-4.4,27.9-7.3c5.6-1.8,10.2-0.3,15.1,1.6c21.8,8.4,43.5,16.8,65.3,25.1
		c12.3,4.7,24.1,10.8,35.2,17.7c9.3,5.8,18.6,6.5,28.7,4.1c4.8-1.1,9.6-2.1,14.5-2.7c2.5-0.3,2.4-1.5,1.7-2.9
		c-6.8-13.5-7.6-28.7-11.5-43c-1.3-5-5.6-5.5-8.7-7.4c-18.5-11.1-37.2-21.9-55.8-32.8c-0.1-0.1-0.3-0.2-0.4-0.3
		c-6.8-4.5-6.9-4.6-2.5-11.8c1.2-2,0.9-2.9-1.3-3.9c-16.5-7.6-32.9-15.4-49.4-23.1c-15.6-7.3-31.1-14.7-46.7-21.9
		c-1.4-0.6-3-1.1-2.8-2.6c0.3-1.5,2.2-1.1,3.4-1.2c4.1-0.5,8.4-0.3,12.4-1.3c8.6-2.1,16.2,1.1,23.9,4c21.9,8.4,43.6,17.1,65.5,25.3
		c21.9,8.1,43.5,17.1,65.3,25.7c10.7,4.2,21.6,8.2,32.2,12.6c1.8,0.7,2.9,0,4.1-0.5c9.6-3.6,19.1-7.8,28.3-12.1
		c7.5-3.5,13-1.5,19.3,1.4c11.2,5.2,22.3,10.7,33.7,15.3c2.5,1,4.7,0.7,6.5-0.6c9.8-6.9,19.4-14.1,29.2-21.1
		c6.2-4.5,9-11.5,13.1-17.5c8.9-13,17.4-26.3,26.3-39.3c2.3-3.3,2.1-5.9,0.1-9.3c-11.6-19.9-22.9-40-35.1-61.4
		c24.7,6.6,48.1,12.9,72.6,19.5c-9.3-15.3-18-29.7-26.7-44c0.2-0.3,0.5-0.6,0.7-0.8c7.9,4.1,15.9,8.3,23.8,12.4
		c10,5.2,20,10.3,30.1,15.4c0.7,0.4,1.7,0.6,2.4,0.4c8.1-1.6,16.5-1.6,24.3-4.6c2.8-1.1,5.6,0,8.4-0.5c5-1,10.1-1.5,14.8-3.1
		c2.6-0.9,4.6-0.6,7,0.1c9.2,3,18.5,5.7,27.7,8.8c2.1,0.7,4.3,0.6,6.4,0.6c32.1-0.8,64.2-1.5,96.3-2.5c4.2-0.1,4.6,0.8,3.7,4.6
		c-8,33.9-16.1,67.8-23.5,101.9c-1.3,6-5.1,8.4-9.3,10.2c-9.1,3.7-17.6,8.5-26.7,12.1c-1.6,0.6-2.9,1.7-3.7,3.1
		c-7.2,11.1-14.4,22.2-21.5,33.3c-5.2,8.1-5.9,17.7-8.4,26.6c-5.9,20.6-13.5,40.5-20.1,60.8c-4.5,13.9-9.5,27.7-14.2,41.5
		c-1.4,4,0.5,7.9,0.8,11.8c1.6,18.7,6.2,36.8,12,54.6c0.3,0.9,0.7,2.1,1.4,2.6c8.7,5.9,12.3,15.7,17.5,24.1
		c3.5,5.5,2.6,12.8,3.5,19.4c3.5,24.1,6.6,48.3,9.8,72.4c1.4,10.5,2.8,21,4.3,31.5c0.4,2.7-0.7,2.8-2.8,1.8
		c-16.1-7.5-32.4-14.8-48.4-22.4c-5.2-2.5-10.7-4.5-15.6-7.6c-2.3-1.5-12.2,3.5-14.3,6.6c-3.8,5.4-7.9,10.5-11.7,16
		c-0.7,1.1-1.9,1.9-2.6,1.9c-8.5,0.8-7.1,7.9-8.3,13c-2.8,11.5-5,23.2-7.6,34.7c-0.5,2-0.8,4-0.5,5.9c0.6,3.4,1.9,5.7,6.4,4.4
		c12.3-3.4,24.8-6.2,37.2-9.3c1.2-0.3,2.5-1,4.1,0.1c-3.7,4.4-7.2,8.9-11,13.2c-10.2,11.6-20.4,23.2-30.9,34.6
		c-2.1,2.3-1.5,3.8-0.3,5.9c7.4,12.4,14.7,24.9,22,37.3c0.3,0.5,0.1,1.2,0.2,2.3c-12.2-4.5-24.6-6.7-36.2-11.6
		c-2.1-0.9-3.4-1-3.2,2.1c1.1,19.1,1.8,38.3,3.2,57.4c0.4,6,4.5,11.1,7.1,16.5c7.4,15.3,15,30.6,22.7,45.8
		c2.8,5.5,8.7,7.9,13.1,11.7c7.1,5.9,13,12.7,18.9,19.7c2.9,3.4,5.7,6.9,8.6,10.3c1.8,2.1,3,3.4-0.2,5.8c-4,2.9-3.3,5.1,2.2,8.3
		c-6.2,5.3-12.4,8.4-20.8,4.6c-5.9-2.6-12.5-3.8-18.8-5.4c-1.3-0.3-3.5-1.5-4.3,0.8c-0.7,2,0.8,3.5,2,4.7c3.5,3.4,7.2,6.8,10.8,10.1
		c1.6,1.5,3.1,3.4,2.9,5.4c-0.6,4.9,2.2,4.6,5.4,4.1c1.1-0.2,2.4-0.3,3.5-0.2c3.6,0.5,7.5-2.2,10.9,0.5c5.7,4.5,8.9,10.4,11.4,17.3
		c3.8,10.7-3.3,18.6-5.3,27.8c-0.4,1.6-2.4,2-4.2,2.1c-11.6,0.7-23.3,2.9-34.8,2c-15.7-1.2-31.4-2.5-47.1-3.8
		c-2.4-0.2-3.3-1.8-4.2-3.6c-4.6-9.8-9.4-19.6-13.8-29.5c-0.7-1.5-1.6-3-2.6-3.4c-8-2.3-10.1-9.6-13.8-15.6
		c-6.4-10.5-9.4-22.5-13.7-33.9c-0.9-2.3-1.8-4.3-4.2-5.5c-7.2-3.7-10.5-15.3-6.1-22.2c1.2-2,0.6-2.4-0.8-3.2
		c-13.1-7.5-26.1-15-39.2-22.5c-4.7-2.7-4.7-3.8-1.7-9.3c2.4-4.4,4.7-2,7.4-0.6c6.7,3.5,13.5,6.8,20.2,10.2c1.9,0.9,2.7,0,3.5-1.5
		c2.5-5.1,5.3-10.1,7.6-15.3c0.6-1.4,0.7-3.2-0.1-4.8c-1-2.2-2.2-4.3-2.7-6.7c-1.7-9-8.1-13.3-15.7-16.6c-3.2-1.4-5.2-3.6-5.9-7.2
		c-0.9-4.7-2.3-9.2-3.4-13.9c-0.2-0.8-1.9-1.6-0.3-2.4c0.8-0.4,2.2-0.3,2.8,0.1c7.6,5.1,16.2,8.6,24.1,13.2
		c3.7,2.2,4.6,6.7,8.4,10.1c-1.1-11.5-2-22.1-3.3-32.8c-0.8-6.4-2-12.6-1.9-19.1c0.2-8.7-1.7-17.2-1.9-25.8
		c-0.3-10.2-7.9-15-13.3-21.6c-3.3-4.1-7.1-7.7-10.8-11.5c-2-2.1-2.9-4.3-3-7.4c-0.1-6.3-0.1-12.7-1.7-18.9
		c-0.5-1.9-0.1-4.1,1.6-4.9c3.9-1.7,2.7-3.7,1.3-6.5c-5.3-9.9-6.7-20.3-3.4-31.3c1.1-3.6,2.9-6.6,5.7-9c3.2-2.6,6.4-4.1,4.8-10
		c-1.1-3.9,4.4-7.6,6.8-11.4c1.7-2.8,3.7-5.5,5.8-8c2.2-2.6,1.6-5.5,1.4-8.4c-0.1-1.7-0.9-2.4-2.6-1.8c-0.3,0.1-0.6,0.2-1,0.3
		c-13.6,2.7-13.7,2.9-15,17.5c-0.3,3-0.8,6.1-1.2,9.5c-11.3-6.7-22.3-13.1-33.1-19.8c-6.9-4.3-7.1-4.6-13,0.9
		c-2.8,2.6-5.5,4.3-9.1,1.3c-1.4-1.2-3.1-1.2-4.4,0.1c-10,9.3-19.9,18.6-29.9,28c-0.9,0.9-2.1,1.4-0.7,3.1c5.2,6.4,3.9,13.3,1,20
		c-1.2,2.7-0.6,3.4,1.9,3.1c10.9-1.5,21.2,2.1,31.9,2.9c2.2,0.2,2.8,0.8,2,3c-4.3,12.1-10.6,22.9-19,32.8
		c-9.7,11.2-21.4,19.5-34.2,26.4c-3,1.6-2.7,3.9-2.9,6.3c-2.3,28.2-3.9,56.5-5.3,84.8c-0.4,8.2-0.9,16.3-1.3,24.5
		c-0.1,1.6-0.8,3.2,0.5,5.2c1.9-2.6,3.7-5,5.6-7.4c1.6-2.1,2.6-2.3,3.4,0.7c3.2,12.3,6.4,24.6,10,36.7c6.2,20.6,11.2,41.6,20.6,61.1
		c1.3,2.7,1.1,5.7,0.5,8.3c-0.6,2.8-3.9,2.7-5.3,1.6c-4.8-3.9-8.6-1.1-12.2,1.5c-2.8,2.1-5.2,2.1-8.1,0.8c-4-1.8-8.1-3.2-12.1-4.9
		c-0.7-0.3-1.3-1.1-2.1-0.3c-0.8,0.8-0.1,1.5,0.3,2.2c3.4,7.2,6.7,14.2,13.9,18.8c5.8,3.6,7.1,10.7,11,15.9
		c3.2,4.3,4.4,10.2,10.3,12.4c1,0.4,1.6,2.4,2,3.8c1.4,4.7,2.2,9.7,4.1,14.2c2,4.8-1.3,8.2-2.5,11.9c-0.9,2.6-2.5,5.3-3.4,8
		c-1.5,4.6-4.1,6.6-9.2,6.5c-11.4-0.1-22.8,2.2-34.3,2c-5.7-0.1-11.4-0.2-16.5-2.5c-9.6-4.4-19.8-4-29.7-3.5
		c-6.6,0.3-10.4-1.4-13.1-7.1c-2.8-5.9-6.8-11.2-9.1-17.2c-2.4-6.2-3.7-12.9-4.8-19.5c-0.3-1.9,2.3-3.9,2.9-6.4
		c1.5-7.1-1.4-13.7-1.5-20.6c-0.2-16.1-10.7-28.2-15.6-42.5c-3.1-8.8-4.5-17.1-1.4-25.8c1.7-4.7-1.8-7.6-3.2-11.3
		c-5.9-15.3-19.3-24.6-29.1-36.8c-2.4-3-1.8-3.9,1-5.8c6.7-4.4,6.5-4.5,12.2,1c7.3,7.1,14.7,13.9,22.2,20.9
		c5.8-10.4,9.5-22.3,12-34.6c0.3-1.5-0.3-2.7-1.3-3.6c-6.1-5.8-7.2-13.1-6.6-21c0.3-4,0.1-8,0.1-12.3c3.9,4.2,7.6,8.3,11.1,12.1
		c2.9-1.4,2.3-3,2.4-4.1c1.2-15.1,3.6-30.1,2.5-45.4c-0.1-1.8,0.1-3.7-0.8-5.4c-8.9-15.3-17.1-30.9-27.6-45.2
		c-2.4-3.3-4.3-4.4-6.5,0c-0.7,1.5-1.8,2.8-2.9,4c-8.3,8.4-11.7,18.7-11.1,30.3c0.1,2.8-1.2,4.3-3.6,5.3
		c-8.7,3.5-12.9,10.2-15.1,19.3c-3.3,13.4-8,26.4-12.2,39.6c-0.8,2.6-1.5,5.1,0.3,7.6c0.7,1,1.2,2.2,0.6,3.3
		c-4.5,8.2,0.9,15.4,2,23.4c1-0.6,1.6-0.9,2.1-1.3c7.7-6.8,7.8-6.8,11.7,2.5c4.3,10.1,8.3,20.3,12.5,30.5c1.2,2.9,3.1,5.3,5.6,7.4
		c4.2,3.4,8.3,6.9,12.1,10.7c2,2,1,5.3,2,7.9c1.1,2.8,0.9,5-1.9,6.9c-1.6,1.1-2.7,3-3.7,4.8c-3.4,6-5.9,6.4-11.3,2.7
		c-1-0.7-1.9-3.7-3.6-1.3c-1.2,1.7-0.7,3.8,1.3,5.2c2.3,1.6,4.5,3.4,6.8,4.9c2.9,2,4.9,4.3,4.4,8.1c-0.5,3.9,3.3,3.7,4.9,3.6
		c8.6-0.9,12.1,3.5,13.6,11.2c0.5,2.8,1.5,5.7,3.2,8.2c5.7,8.6-0.2,15.9-3,23.4c-0.4,1-2,0.8-3.2,0.9c-6.8,0.1-13.7,0.3-20.5,0.4
		c-15.9,0.3-31.7,0.2-47.3-3.2c-4-0.9-8.2-1.4-12.4-0.8c-4.1,0.5-7-1.4-8.9-5c-2.8-5.3-5.6-10.7-8.5-15.9c-0.9-1.6-0.7-3.2-0.6-4.8
		c0.6-11.3-6-20.6-8.6-30.9c-0.6-2.2-4.4-3.7-6.3-6.1c-3.8-4.8-6.3-10-6.1-16.2c0.1-2.5-0.9-3.9-2.9-5.2
		c-12.3-7.8-24.2-16.1-36.7-23.6c-4.4-2.7-2.8-4.6-1.3-7.8c1.9-4.1,3.9-3.3,7-1.6c7.1,3.9,14.4,7.5,21.6,11.4c2.9,1.6,4.4,0.8,5-2.2
		c1.8-7.8,3.6-15.6,5.3-23.4c0.5-2.2-0.1-4.2-1-6.2c-2.7-6-5-12.2-8-18.1c-1.6-3.2-0.5-6.2-0.9-9.3c-1.6-11-3.4-21.9-5.4-32.8
		c-1.1-5.7-2.5-10.5-6.4-14.8c-2.8-3.2-6.7-4.1-10.1-5.9c-2.4-1.3-3.2-2.9-3.7-5c-1.5-6.7-2.8-13.4-4.4-21.3
		c10.9,8,22.4,13.2,29.7,23.9c0.6,0.8,1.1,1.6,1.8,2.4c5,5.6,4.9,5.6,8.6-1.3c9.7-17.7,19.6-35.4,29.5-53c2.6-4.7,4.5-8.9,0.3-13.9
		c-4.7-5.5-4.9-12.5-5.3-19.4c-1-17.2,8.4-29.3,19.2-40.9c1.6-1.7,3.4-3,3.5-5.7c0-2.5,2.7-3,4.3-3.5c6.3-1.6,9-5.4,8.6-11.9
		c-0.2-3.3,1.7-7.8,0.1-9.6c-1.9-2.1-5.5,1.4-8.6,2.1c-2,0.5-4.1,0.8-5.9,0.3c-6.4-1.6-12.8-3.2-18.8-5.8
		c-4.8-2.1-4.5-12.6-0.1-15.4c2.4-1.6,5.5-2.6,5-6.5c-0.5-4.1-3.4-5.5-6.8-6.6c-9.5-3.2-9.4-3.2-9.5,6.7c0,6.4,0.1,12.5-3.4,18.5
		c-1.6,2.8-0.6,7.2-0.6,10.8c0,1.9,0,3.6-2,4.7c-9.2,5.3-16.3,13.6-26.1,18.1c0.8,1.8,1.9,2.9,3.5,2.7c6.9-0.9,12.2,3.4,18.4,4.9
		c1.9,0.5,2.4,1,2.1,2.9c-1.4,9.4-5.6,17.9-10.4,25.8c-5.6,9.2-11.9,18.2-19.2,26.1c-12.5,13.6-25.6,26.7-39.9,38.5
		c-14.7,12.2-29.4,24.2-45.1,35c-1.8,1.2-2.8,3.2-3.7,5.5c-5,11.8-8.8,24-13.8,35.7c-2.4,5.7-1.4,11.6-0.8,17.2
		c0.5,5.5-2.2,8.4-5.9,11.2c-0.9,0.7-1.9,1.3-2.7,2.1c-6,5.7-6,5.7-2.2,12.5c0.5,1,0.8,2.1,1.2,3.2c1.1,3.5,2.2,6.3,6.9,3.6
		c1.8-1,3.4-0.1,4.2,2.5c3.7,11.9,7.8,23.7,11.8,35.5c1.9,5.5,6.8,8.3,10.9,11.6c3.8,3.2,5.5,6.6,5.9,11.3c0.3,3.8,0.3,7.7,1.2,11.4
		c1.2,4.7-1.1,6.6-4.9,8c-5.4,2.1-10.7,5.4-16.4,0.6c-0.7-0.6-2.5-0.8-2.5,0.2c-0.1,1.8-1.4,3.5,0,5.5c2.7,3.8,6.1,7.1,9.7,9.9
		c7.1,5.6,10.1,13.6,14,21.1c1.5,2.8,2.5,6.2,4.3,8.7c4.1,5.5,3.5,10.7,0.5,16c-1.7,2.9-2.9,5.9-3.9,8.9c-1.5,4.4-4.7,5.3-8.6,5.5
		c-13.9,0.7-27.8,0.6-41.5,2.3c-12.6,1.6-24-3.3-35.9-4.6c-11.1-1.2-9.4-10.2-11.5-16.9c-2.2-7.3-1.8-14.9-2.4-22.3
		c-0.5-5.6-4.4-10.2-5.1-15.9c-0.9-7-4.2-13.9-1.8-21.2c0.4-1.1-0.1-1.3-1-1.7c-11.9-5.7-14.3-9.8-11.9-21.5
		c0.7-3.2-0.3-4.5-2.7-6.3c-12.4-8.9-24.6-18.1-37-27.1c-2.5-1.8-2.3-3.3-0.6-5.6c5-6.5,4.8-6.4,11.9-2.1
		C22,1200.1,31,1205.1,41.1,1210.8z M304.4,967.5c-14.7,11.8-19.6,34.6-9.2,43.5c3.3-10.4,6.4-20.8,9.9-31
		C306.7,975.6,305.5,971.8,304.4,967.5z M608,997.1c0.6-8-1.8-14.2-6.3-18.7c-1.2-1.2-1.9-1-2.9-0.1c-1.1,1.2-2.4,2.3-3.3,3.7
		c-3.9,6.2-2.9,21.7,1.6,27.3c1.1,1.3,1.8,0.8,2.9,0.2C605.7,1006.7,609.7,1002.9,608,997.1z"/>
	<path class="st1" d="M826.5,20.5c0-5.8,0.1-11.7,0-17.5c0-2.3,0.5-3.2,3.1-3c24.2,2.1,48.4,5,72.2,10c33.5,6.9,66.2,16.6,98,29.4
		c38.6,15.5,74.9,34.9,109.2,58.3c23.3,15.9,45.2,33.6,65.9,52.9c20,18.6,39.1,38.1,56.7,59c22.9,27.2,43,56.3,60.5,87.3
		c17.9,31.8,32.5,65,44,99.6c9.8,29.5,17.1,59.6,21.7,90.4c2.8,18.9,5.1,37.7,6,56.8c0.2,3.5-0.9,4.5-4.4,4.4
		c-10.8-0.2-21.7-0.2-32.5,0c-4,0.1-5.3-1.6-5.2-5.2c0.1-8.3-1.6-16.4-2.7-24.7c-0.9-6.9-2-13.7-3-20.5c-1.8-11.1-4.3-21.9-6.6-32.9
		c-4.2-19.7-10.1-39-16.7-58c-5-14.5-10.8-28.7-17.1-42.7c-5.6-12.6-11.9-24.8-18.1-37c-6.9-13.5-14.9-26.5-23.2-39.3
		c-17.8-27.5-37.8-53.1-60-77.2c-17.7-19.3-37.6-36.2-58.1-52.4c-21.2-16.9-43.9-31.7-67.4-45.1c-15.3-8.7-31.2-16.4-47.2-23.8
		c-20.2-9.3-41-17.1-62.2-23.9c-14-4.5-28.2-8.2-42.6-11.5c-13.1-3.1-26.3-5.8-39.5-7.7c-8.6-1.3-17.2-3.3-26-3.1
		c-3.1,0.1-4.8-1.2-4.7-4.7C826.7,32.2,826.5,26.4,826.5,20.5z"/>
	<path class="st1" d="M826.5,166.9c0-5.3,0.2-10.7-0.1-16c-0.2-3.2,0.8-4.3,4.1-4.1c13.9,0.6,27.9,1.4,41.7,3.3
		c27.2,3.6,53.9,9.7,79.8,19c43.5,15.5,83.5,37.5,119.1,67.1c36.6,30.4,68.9,64.8,94.2,105.4c23.6,37.9,40.7,78.5,50.3,122.2
		c4.7,21.5,8.2,43.2,9,65.3c0.2,5.1,0.6,10.3,0.9,15.4c0.1,2.4-0.3,3.6-3.1,3.6c-11.5-0.2-23-0.1-34.5,0c-2.3,0-3.1-0.7-3.3-3.1
		c-0.8-9.2-1.5-18.5-2.9-27.6c-1.8-11.4-4-22.7-6.4-34c-4.5-21.7-11.8-42.7-20-63.2c-7.9-19.8-18-38.4-29.2-56.6
		c-16.1-26.1-34.7-50.2-57-71.3c-18.2-17.2-38-32.3-59.5-45.4c-12.5-7.6-25-15-38.2-21.2c-25-11.8-50.8-21.2-77.7-27.5
		c-11.3-2.7-22.8-5.3-34.5-6.4c-9-0.9-17.9-2.8-27.1-2.9c-3.5-0.1-6.4-1.2-5.8-6.3C827,177.3,826.5,172.1,826.5,166.9z"/>
	<path class="st1" d="M826.5,303.6c0-5.5,0.2-11-0.1-16.5c-0.2-3.6,1-4.5,4.5-4.3c22.4,1.3,44.4,4.5,65.8,11.2
		c42.5,13.2,79.2,35.8,110.9,67.2c24.3,24.1,44.8,50.5,59.3,81.6c10.8,23.2,18.1,47.4,21.7,72.7c1.4,9.5,1.9,19.1,2.9,28.7
		c0.4,3.5-1.3,3.7-4,3.7c-11-0.1-22-0.1-33,0c-3.1,0-4.3,0-4.9-4.2c-2-14.4-4.4-28.8-8.7-42.8c-5.2-17.3-11.4-34.1-20-49.9
		c-12.3-22.5-26.7-43.5-45.7-61c-14.1-13-29.7-23.7-46.3-33.3c-15.6-9-32.1-15.8-49.2-21.4c-13.4-4.4-27.2-7-41.1-9.5
		c-2.5-0.5-5.2-1.3-7.6-1c-4.8,0.7-4.6-1.9-4.5-5.1C826.6,314.3,826.5,308.9,826.5,303.6z"/>
</g>
</svg>
