<?xml version="1.0" encoding="utf-8"?>
<!-- Generator: Adobe Illustrator 21.1.0, SVG Export Plug-In . SVG Version: 6.00 Build 0)  -->
<svg version="1.1" id="internal-networks_xA0_Image_1_"
	 xmlns="http://www.w3.org/2000/svg" xmlns:xlink="http://www.w3.org/1999/xlink" x="0px" y="0px" viewBox="0 0 963.8 857.4"
	 style="enable-background:new 0 0 963.8 857.4;" xml:space="preserve">
<style type="text/css">
	.st0{fill:#221751;}
	.st1{fill:#05CB7A;}
</style>
<g>
	<path class="st0" d="M619.2,641.5c-1.2-11.5-1.3-23-3.1-34.3c-1.8-11.7-1.9-23.7-2.5-35.6c-0.2-5-2.5-9.7-2-14.8
		c0.2-1.8-1.5-2.5-2.5-3.5c-7-7.7-14-15.4-21.1-22.9c-1.4-1.5-2-2.9-2.1-5.2c-0.3-6.6-0.1-13.3-1.7-19.9c-0.6-2.3-0.1-4.5,2.2-5.5
		c3.4-1.5,2.2-3.4,1-5.5c-5.5-10.1-7.1-20.5-3.8-31.7c1.4-4.9,4.2-8.4,8.3-11.1c2.3-1.5,4.3-3,2.1-6.2c-0.9-1.4-0.2-3,0.9-4.5
		c3.9-5.3,7.4-10.9,11.5-16c2.3-2.9,2-5.7,1.8-8.9c-0.1-2-1-2.5-2.9-2c-3.7,1-7.4,1.9-11.2,2.6c-2.3,0.5-2.6,2.1-2.8,4
		c-0.9,6.7-1.9,13.4-2.9,20.5c-10.7-6.4-21.2-12.5-31.7-18.9c-8.1-4.9-8.2-5.2-15.7,1.1c-2.4,2-4.3,2.6-6.7,0.8
		c-2.7-2.1-4.7-1.3-7,1c-9.2,8.8-18.5,17.4-27.9,25.9c-1.8,1.6-2,2.6-0.4,4.7c4.2,5.8,3.2,12.3,0.5,18.3c-1.4,3.2-1.1,4.2,2.4,3.8
		c10.7-1.4,20.9,2.2,31.4,2.9c1.9,0.1,2.6,0.8,1.9,2.8c-4.4,11.9-10.3,22.7-18.7,32.4c-9.9,11.5-21.8,20-34.9,27.1
		c-3,1.6-2.5,4.1-2.7,6.4c-1.4,19.1-2.7,38.2-3.9,57.4c-1.1,17.8-1.9,35.6-2.9,53.4c-0.1,1,0,1.9,0,4c3.1-4.1,5.6-7.4,8.4-11.1
		c2.8,10,5.3,19.4,8,28.7c7.2,24.8,13.2,49.9,24.1,73.5c2.5,5.3,0.5,10-3.6,9.8c-0.5,0-1.2,0.1-1.4-0.2c-4.8-4.5-8.7-1.1-12.4,1.6
		c-2.5,1.8-4.7,1.8-7.3,0.7c-4.2-1.8-8.4-3.4-12.6-5.1c-0.7-0.3-1.4-1.1-2.1-0.3c-0.7,0.8-0.1,1.5,0.3,2.2
		c3.4,7.2,6.7,14.2,13.9,18.8c5.8,3.6,7.1,10.7,11,15.9c3.2,4.3,4.4,10.2,10.4,12.4c1,0.4,1.6,2.4,2,3.8c1.4,4.7,2.2,9.7,4.1,14.2
		c2,4.8-1.3,8.2-2.5,11.9c-0.9,2.6-2.5,5.3-3.4,8c-1.5,4.6-4.1,6.6-9.2,6.5c-11.4-0.1-22.8,2.2-34.3,2c-5.7-0.1-11.4-0.2-16.5-2.5
		c-9.6-4.4-19.8-3.9-29.7-3.5c-6.6,0.3-10.4-1.4-13.1-7.1c-2.8-5.9-6.8-11.2-9.1-17.2c-2.4-6.2-3.6-12.9-4.8-19.5
		c-0.4-2,2.4-3.5,2.9-6c1.5-7.3-1.3-14.1-1.4-21.1c-0.3-16.2-10.9-28.5-15.8-42.9c-2.9-8.4-4.3-16.5-1.3-24.9
		c1.8-5-1.6-7.9-3.1-11.8c-5.9-15.3-19.3-24.6-29.1-36.8c-2.1-2.7-2.3-4,0.6-5.5c0.3-0.2,0.6-0.3,0.9-0.5c6.2-4.4,6.1-4.2,11.4,0.9
		c7.4,7.2,15,14.2,22.5,21.3c5.8-10.4,9.6-22.3,12-34.7c0.3-1.3-0.2-2.4-1-3.2c-7-6.4-7.3-14.8-6.9-23.4c0.2-3.3,0-6.6,0-10.3
		c4,4.3,7.7,8.4,12.3,13.3c1.8-5.8,1.6-10,2-14.2c1.2-12.3,2.6-24.5,1.7-36.9c-0.1-1.7,0-3.3-0.9-4.9c-8.9-15.3-17.1-30.9-27.6-45.2
		c-2.5-3.4-4.3-4.2-6.5,0.1c-0.7,1.5-1.8,2.8-2.9,4c-8.3,8.4-11.6,18.7-11.1,30.3c0.1,2.5-0.9,4.1-3.1,5c-9.2,3.6-13.4,10.6-15.7,20
		c-3.3,13.4-8.1,26.4-12.2,39.6c-0.2,0.8-0.9,1.7-0.7,2.4c2.8,10.1-2.8,21.3,4.8,31c1.9-1.8,4.3-3.8,6.5-5.9
		c1.5-1.4,2.4-1.3,3.2,0.7c5,12,10.1,23.9,15,36c1.3,3.1,2.7,6,5.3,8.2c4.2,3.6,8.4,7.2,12.5,10.9c2.4,2.1,1.3,5.3,2.1,7.9
		c0.7,2.3,2.3,5.1-1.6,7c-1.6,0.8-2.8,3.2-3.9,5.2c-3.3,5.9-6,6.2-11.3,2.6c-1-0.7-1.9-3.7-3.6-1.2c-1.2,1.7-0.7,3.8,1.4,5.2
		c2.2,1.5,4.3,3.1,6.4,4.7c2.9,2.1,5.3,4.3,4.8,8.5c-0.5,3.9,3.2,3.7,5,3.5c8.5-0.8,12.1,3.5,13.6,11.2c0.5,2.8,1.5,5.7,3.2,8.2
		c5.6,8.6-0.3,15.9-3.1,23.4c-0.4,1-2.1,0.8-3.2,0.8c-10.2,0.1-20.3-0.1-30.4,0.5c-12.7,0.7-25-1.3-37.4-3.3
		c-4.1-0.7-8.2-1.3-12.4-0.8c-4.1,0.5-7-1.5-8.9-5c-2.8-5.3-5.6-10.7-8.6-15.9c-0.9-1.6-0.7-3.2-0.6-4.8c0.6-11.3-6.2-20.5-8.5-31
		c-0.2-0.8-1.8-1.3-2.7-2c-5.8-5.5-10.1-11.8-9.8-20.1c0.1-2.5-0.9-3.8-3-5.1c-12.3-7.8-24.2-16.1-36.7-23.6
		c-4.5-2.7-2.7-4.7-1.2-7.8c1.7-3.5,3.5-3.5,6.6-1.8c7.1,4,14.5,7.5,21.6,11.4c2.9,1.6,4.6,1.5,5.4-2c1.7-7.8,3.6-15.6,5.3-23.4
		c0.4-2,0-3.8-0.8-5.7c-2.8-6-5.2-12.2-8.1-18.1c-1.6-3.2-0.6-6.5-1-9.7c-1.5-11-3.4-21.9-5.4-32.8c-1-5.7-2.5-10.5-6.4-14.8
		c-2.8-3.2-6.7-4.1-10.1-5.9c-2.4-1.3-3.2-2.9-3.7-5c-1.4-6.7-2.8-13.4-4.4-21.3c10.9,8,22.4,13.2,29.8,23.8
		c0.9,1.3,2.1,2.5,3.2,3.8c3.4,3.9,4.2,3.8,6.7-0.8c10-18.3,19.9-36.7,30-54.9c2.6-4.7,4.5-8.9,0.3-13.9c-4.5-5.4-4.9-12.1-5.3-18.9
		c-1.1-17.4,8.3-29.7,19.2-41.4c1.6-1.7,3.4-3,3.5-5.7c0-2.5,2.7-3,4.3-3.4c6.3-1.6,9-5.4,8.6-11.9c-0.2-3.3,1.7-7.8,0.1-9.6
		c-1.9-2.1-5.5,1.4-8.6,2.2c-2,0.5-4.1,0.8-5.9,0.3c-6.4-1.6-12.8-3.2-18.8-5.8c-4.8-2.1-4.5-12.6-0.1-15.4c2.4-1.6,5.5-2.6,5-6.5
		c-0.5-4.1-3.4-5.5-6.8-6.6c-9.5-3.2-9.4-3.2-9.5,6.7c0,6.3,0.3,12.5-3.4,18.5c-1.7,2.7-0.6,7.1-0.6,10.8c0,1.9,0.1,3.6-1.9,4.7
		c-9.2,5.3-16.4,13.5-26.1,18.2c0.8,1.9,2.1,2.9,3.9,2.7c6.9-0.9,12.2,3.8,18.4,5c2,0.4,1.8,1.4,1.6,2.8
		c-1.4,9.4-5.7,17.8-10.3,25.9c-5.3,9.4-12,18.1-19.2,26c-10.7,11.5-21.6,22.8-33.6,33.2c-16.2,14.1-33,27.5-50.6,39.9
		c-2.1,1.5-3.4,3.4-4.5,6c-5,11.7-8.8,24-13.8,35.7c-2.5,5.7-1.4,11.6-0.9,17.2c0.5,5.5-2.2,8.4-5.9,11.2c-1,0.8-2.1,1.5-3.1,2.4
		c-5.6,5.5-5.6,5.5-1.9,12.1c0.6,1,0.8,2.1,1.2,3.2c1.1,3.4,2.2,6.4,6.8,3.7c1.7-1,3.4-0.2,4.3,2.5c3.7,11.9,7.7,23.7,11.8,35.5
		c1.9,5.6,7.2,8.3,11.2,12c3,2.7,5.1,5.4,5.4,9.5c0.4,5.1,1,10.2,1.5,15.4c0.1,1.3,0.7,2.9-1,3.5c-6.5,2.2-12.4,8.4-20,2.9
		c-0.9-0.7-2.8-1.3-2.9-0.1c-0.3,1.7-1.5,3.4-0.1,5.5c2.7,3.8,6.2,7,9.6,9.9c7.2,6,10.6,14.3,14.5,22.4c2,4.1,4.1,8.2,6.3,12.2
		c1,1.9,1.5,3.4,0.3,5.7c-2.4,4.6-4.5,9.4-6.1,14.3c-1.4,4.2-4.4,5.3-8,5.6c-18.2,1-36.3,2.4-54.5,2.6c-6.2,0.1-12.5-2.4-18.7-4.2
		c-1.6-0.5-3.3-0.6-4.8-0.7c-11.1-0.8-9.5-10.1-11.5-16.9c-2.2-7.3-1.8-14.9-2.4-22.3c-0.4-5.6-4.4-10.2-5.1-15.9
		c-0.9-7-4.2-13.9-1.9-21.2c0.5-1.6-0.4-1.5-1.4-1.7c-11.4-2.5-13.3-11-11.5-20.4c0.7-3.9-0.2-5.7-3.2-7.8
		C25.9,702.1,14.1,693,2,684.2c-2.7-2-2.3-3.6-0.5-5.9c4.9-6.2,4.7-6,11.5-2c8.9,5.4,18.1,10.4,28.1,16.1
		c-2.3-10.8,2.9-19.4,4.8-28.6c0.4-2.1,0.2-3.7-0.3-5.5c-2.5-10.6-4.8-21.2-3.1-32.3c0.4-2.9-1.8-5.8-3.7-8.2
		c-1.7-2.3-2.5-4.6-2.4-7.3c0.4-7-1-14.2,2.1-21c0.8-1.8-0.1-3.3-2.1-4.4c-6.9-3.7-9.5-9.4-8.6-17.2c0.5-4.6-0.1-9.3-0.1-14
		c0-2.1,0.6-2.8,2.6-1.2c5.7,4.6,11.7,8.9,17.3,13.6c2.8,2.4,3.5,6.3,5.3,9.5c0.7,1.3,1.1,2.9,3.1,2.6c1.8-0.3,2.9-1.5,3.3-3.2
		c1.5-5.2,2.9-10.4,4.3-15.7c1.1-4.5,3.8-7.3,8.5-8c4.1-0.7,5.7-4.1,7.7-7c4.6-7,9-14.1,13.5-21.1c1.6-2.5,1.5-3.3-2-3.6
		c-21.2-1.9-42.5-2.9-63.8-3.2c-9.1-0.1-13.7-4.5-18.2-11.5c9-1.5,17.7-2.9,26.5-4.3c11.5-1.9,23.2-3.1,34.6-5.9
		c3.5-0.9,7.3-0.6,11-1.9c2.7-0.9,3.5-2.4,4.2-4.7c1.1-3.7,3-7.2,3.8-10.9c3.1-13.5,12.7-23.4,19.8-34.6c1.1-1.7,1.3-2.7,0.7-4.7
		c-2.1-7.1-3.5-14.4-5.6-21.4c-0.5-1.6-0.3-2.2,0.5-3.4c2-2.6,3.9-5.3,5.7-8.1c3.1-4.6,3.3-4.6,6.7-0.1c1.9,2.5,3.8,4.9,5.7,7.3
		c1.5,2,3.2,1.4,3.8-0.4c2.7-7.7,7.4-14.8,5.8-23.6c-0.8-4.1-1-8.3-0.8-12.4c0.3-9.8-2.5-18.2-9.7-25.1c-3.5-3.3-3.5-8-4.2-12.1
		c-2.8-15.4-8.8-29.5-16.1-43.2c-2.4-4.5-3.1-9.1-1.3-13.9c1.1-3.1-1.7-4.2-3-4.9c-7.5-3.9-8.6-11.1-9.5-18.1c-0.3-2-3.3-4.6-0.5-6
		c2-1,3.9,2,5.8,3.1c2.4,1.4,4.6,3.1,6.9,4.6c0.4-0.6,0.7-1,0.6-1.2c-4.4-7.4,0.4-13.3,3.2-19.4c2.4-5.4,0.3-11.9-4.8-14.8
		c-4.2-2.3-8.2-4.8-12.5-6.8c-3-1.4-4.3-3-5-6.4c-2.4-11-5.5-21.9-8.5-32.8c-1.5-5.5-1.6-5.6,4.1-4.8c13.6,1.9,27.2,4.1,40.9,5.4
		c5.6,0.5,7.9,3.8,10.3,7.8c2.7,4.5,5.4,9,8,13.6c1.1,2,2.6,3.2,4.7,2.3c10.7-4.8,21.3-9.8,31.9-14.7c0.2-0.1,0.4-0.5,0.8-1
		c-5.7-2.9-11.7-4.8-17.6-6.9c-21-7.3-42-14.6-63.1-21.8c-21.6-7.4-43.3-14.6-65-22c-3-1-4.8-2.4-3.4-6.1c1-2.8,1.7-5.9,1.6-8.8
		c0-5.3,2.3-5.1,6.2-3.5c5.5,2.1,11.1,3.9,16.6,5.8c1.6-4.9,0.8-7.1-4.4-8.5c-5.5-1.5-10.7-4.4-16.1-6.5c-2.4-0.9-3.2-2.5-3-4.9
		c0.4-5.1,0.7-10.1,1-15.2c0.2-3.3,2-1.6,3.4-1c9.4,3.8,18.8,7.6,28.2,11.4c6.3,2.6,7.6,2.6,9.7-3.5c2.5-7,6.5-9.5,13.8-10.1
		c10.1-0.8,20.1-2.9,30-4.8c6-1.2,10.9,2.1,16,3.8c13,4.4,25.7,9.5,38.5,14.2c16,5.9,32.1,11.7,48.1,17.6
		c13.2,4.8,26.4,9.5,39.6,14.3c1.9,0.7,3.6,0.2,5.3-0.3c9.7-2.4,19.4-4.5,28.9-7.6c5-1.6,9.3,0,13.3,1.7c22,8.9,44.2,17.4,66.5,25.6
		c12.1,4.4,23.5,10.5,34.3,17.5c9.3,6,18.7,6.4,28.7,4.1c4.7-1,9.4-1.5,14.1-2.6c2.6-0.6,3.1-1.2,2.2-3.3c-5.5-12.2-8-25.2-9.8-38.4
		c-0.8-6-4.8-9.1-9.5-11.8c-20.2-11.7-40.3-23.4-60.6-35c-4.9-2.8-1.9-5.7-0.1-8.1c2.1-2.8,3.1-4.1-1.3-6
		c-16-7.1-31.7-14.9-47.5-22.3c-16-7.5-32-15-48.1-22.5c-1.1-0.5-2.1-1.4-3-2.7c11.5-0.2,22.5-5.4,34.3-0.6
		c25.6,10.3,51.6,19.7,77.3,29.7c23.5,9.1,46.9,18.5,70.3,27.8c7.1,2.8,14.3,5.3,21.3,8.3c1.9,0.8,3.1,0.2,4.6-0.3
		c9.6-3.6,19-7.9,28.3-12.1c7.1-3.2,12.3-1.8,18.4,1c12.5,5.9,25.2,11.6,37.7,17.4c1.6,0.8,2.9,0.9,4.7,0.1
		c9.8-4.6,19.9-8.7,29.9-12.5c13.5-5.1,26.3-11.8,40.1-16.1c2.5-0.8,4.7,0.1,6.7,0.6c13.9,3.8,27.7,7.9,41.4,12
		c1.8,0.5,3.5,0.8,5.4,0.6c21.4-1.8,42.8-3.7,64.2-5.4c3-0.2,4.2-1.2,5.3-4.3c6.4-16.9,13.4-33.6,20.1-50.4c1.7-4.3,3.7-8.6,5-13.1
		c0.5-1.5,1.4-1.6,2.2-2.3c0.5,0.7,1.1,1.4,1.4,2.2c6.9,16,13.8,32,20.7,48.1c2.2,5.1,4.2,10.2,6.7,16.4
		c7.1-15.9,11.5-31.4,18.5-45.8c2.4,0.6,1.8,2.5,2,3.7c3.5,17.6,6.7,35.3,10.3,52.9c0.8,3.9,4.2,6.4,7.1,8.5
		c3.5,2.5,6.3,5.8,9.5,8.6c7.7,7,15.9,13.6,23.1,21.1c4.1,4.3,5.4,10.6,7.1,16.2c3.5,11.5,9.8,21.2,17.8,30.1
		c9.6,10.6,18.3,22,27.4,33c7.4,8.9,14.7,18,22.5,26.6c6.5,7.2,6.8,6.9-1.8,10.9c-30.6,14.5-61.2,28.9-91.7,43.4
		c-3.3,1.6-6.1,2-9.7,0.1c-9.5-5.1-19.4-9.7-29.1-14.5c-1.2-0.6-2.3-1.3-3.7-1.2c-13.9,1.2-27.7,2.4-41.9,3.6
		c1.3,2.6,3.4,3.8,5.3,4.8c2.6,1.4,2.8,3.4,3.2,6c0.6,4.5-1.4,7.2-4.8,9.3c-1.6,1-3.7,1.8-2.6,4.4c2,4.9-0.6,8.1-4.2,10.6
		c-2.3,1.6-2.2,2.6-0.8,4.8c5,7.7,9.5,15.7,14.8,23.3c2.9,4.2,2.5,8.9,3.2,13.3c4,27.7,7.5,55.5,11.3,83.3
		c1.2,9.2,2.5,18.3,3.8,27.5c0.1,1,0.7,2.2-0.2,2.8c-0.9,0.7-1.8-0.1-2.7-0.5c-16-7.4-32.1-14.6-48-22.2c-5.2-2.5-10.8-4.4-15.7-7.6
		c-2.3-1.5-12.3,3.3-14.4,6.3c-3.6,5.1-7.5,10-11.2,15.1c-1.8,2.5-3.8,4.4-7.1,4.1c-1.9-0.1-2.1,1.1-2.4,2.5
		c-3.4,15.4-6.9,30.8-10,46.3c-1.3,6.7,1.6,9.1,8.1,7.5c11.8-2.9,23.5-5.8,35.3-8.7c1.3-0.3,2.5-0.9,4.4-0.1
		c-3.8,4.6-7.4,9.3-11.4,13.6c-7.7,8.3-15.1,16.7-22.4,25.3c-2.7,3.2-5.4,6.4-8.4,9.3c-1.9,1.8-1.5,3.2-0.4,5.1
		c7.5,12.5,14.9,25.1,22.2,37.7c0.3,0.5,0.2,1.2,0.5,2.5c-12.2-4.4-24.6-6.7-36.1-11.5c-2.5-1-3.6-0.8-3.4,2.4
		c1.1,18.8,1.9,37.6,3.1,56.4c0.4,6.3,4.4,11.5,7.1,17.1c7.4,15.4,15.1,30.6,22.7,45.9c2.7,5.4,8.3,7.9,12.7,11.3
		c10.1,7.9,17.2,18.3,25.8,27.6c0.9,1,1.6,2.1,2.5,3.1c1.8,1.9,2.7,3.2-0.3,5.4c-4.1,3-3.4,5,2.1,8.7c-2.8,1.8-5.4,3.7-8.2,5.2
		c-4.4,2.4-8.6-0.2-12.8-1.3c-6.3-1.7-12.6-3.5-18.9-5.1c-1.3-0.3-3.2-1.2-4,0.6c-0.9,2.1,0.7,3.8,2.1,5.1c3.3,3.2,6.8,6.2,10.2,9.3
		c2.1,2,3.8,4.2,3.5,7.3c-0.3,2.9,1.1,3.4,3.6,3c1.6-0.3,3.3-0.5,5-0.3c3.7,0.4,7.7-2.2,10.9,0.3c5.6,4.4,9.1,10.1,11.6,17.2
		c3.7,10.9-3.2,18.9-5.5,28.2c-0.4,1.4-2.2,1.8-3.8,1.9c-11.8,0.7-23.7,2.9-35.3,2c-15.5-1.2-31.1-2.4-46.6-3.8
		c-2.3-0.2-3.4-1.6-4.3-3.5c-4.6-9.8-9.4-19.6-13.9-29.5c-0.9-2-1.8-3.4-3.7-4.1c-5.6-1.8-7.9-6.6-10.6-11.1
		c-7.3-12.2-11.7-25.7-16.1-39.1c-0.5-1.7-1.7-3.3-3.8-4.2c-7.3-3.3-7.3-10.8-9.1-17.1c-0.6-2.1,1.5-3.6,2.6-5c1.5-2,0.8-2.5-1-3.5
		c-13.1-7.5-26-15.2-39.2-22.5c-4.9-2.7-3.4-5.3-1.6-9.1c2.3-4.6,4.7-2.2,7.4-0.9c6.9,3.5,13.8,7,20.7,10.4c1.6,0.8,2.5-0.1,3.2-1.4
		c2.6-5.2,5.4-10.4,7.7-15.8c0.6-1.3,0.7-3.1-0.3-4.8c-1.1-1.7-2-3.7-2.4-5.7c-1.5-9.4-8.1-14-16-17.5c-3-1.3-4.9-3.3-5.6-6.8
		c-0.9-4.7-2.4-9.2-3.5-13.8c-0.2-0.8-1.8-1.6-0.5-2.4c0.9-0.6,2.2-0.7,3.2,0.1c5.2,4.1,11.4,6.3,17.2,9.4
		C610.7,631.5,615.8,635.1,619.2,641.5z M167.5,423.3c-31.7,0-55.7,28.5-50.2,59.7c4,22.7,21.6,39.2,44.8,42.1
		c21.8,2.7,43.7-10.3,52.5-31.3c8.7-20.7,2.6-44.8-15.1-59.1c-2.5-2.1-2.9-3.6-1.6-6.6c9-20.4,17.7-41,26.5-61.5
		c15-34.9,29.9-69.8,44.8-104.7c1.1-2.7,2.3-3.8,5.6-3.1c6.1,1.2,12.3,0.8,18.3-0.9c3.7-1.1,5.7-0.4,7.6,3
		c10.8,18.9,21.8,37.8,33,56.5c2.2,3.6,2.2,5.9-0.4,9.5c-8.1,11.6-9.1,24.1-2.5,36.8c6.4,12.3,17,18.7,30.6,19.4
		c20.7,1,38.3-17.6,36.9-38c-1.4-20.8-20.6-36.2-41.4-33.1c-2,0.3-3.5,0.3-4.6-1.7c-11.7-20.2-23.4-40.3-35.2-60.4
		c-1.5-2.5-0.9-4.2,1-6.1c3.3-3.3,6.2-7,8.2-11.3c1.4-3.2,3.3-3.4,6.3-2.7c42,9.5,84.1,19,126.2,28.4c2.5,0.6,3.6,1.3,3.8,4.1
		c0.7,14.3,6.3,26.4,17,36.1c1.9,1.7,2,3,0.9,5.1c-13.9,27.2-27.6,54.3-41.4,81.6c-1.2,2.3-2.4,3.1-5,2.4
		c-6.7-1.6-13.5-1.5-20.3-0.2c-25.1,4.7-42.7,27.6-41.2,53.7c1.5,24.9,22.5,45.9,47.4,47.3c22,1.2,41.6-10.7,50.4-30.8
		c8.5-19.4,3.8-42.4-12-57.4c-2.6-2.4-2.8-4-1.3-7.1c13.6-26.5,27.1-53.1,40.5-79.8c1.4-2.9,2.9-3.7,6.1-3c14.1,2.9,27.2,0,38.9-8.2
		c3.1-2.2,4.9-1.9,7.7,0.4c28.8,23.2,57.6,46.3,86.6,69.3c2.7,2.1,3.3,3.8,2.3,7c-6.6,22,10.3,44.9,33.3,45.5
		c14.3,0.3,28.3-8.7,33.7-21.7c6.1-14.5,2.7-30-8.8-40.7c-10.7-9.9-26.6-12.3-39.9-5.4c-4.1,2.1-6.5,1.4-9.6-1.2
		c-11.1-9.1-22.3-18-33.5-26.9c-16.9-13.5-33.8-27-50.8-40.4c-3.4-2.7-4.6-4.9-2.7-9.5c4-9.2,4.8-19.1,2.2-28.9
		c-1-3.8,0.3-5.2,3.3-6.8c30.8-16.6,61.6-33.2,92.2-50.1c3.8-2.1,6-2.1,9.3,1.2c15.3,15.3,38.9,18.8,58.3,9.1
		c19-9.5,30.6-30.7,28-51.1c-4.1-31.3-31.3-48.7-57.1-45.1c-30.8,4.4-49.6,31.4-43.4,61.6c0.7,3.3,0,4.8-2.8,6.3
		c-31.5,17-63,34.1-94.4,51.2c-2.6,1.4-4.2,1.2-6.4-0.9c-25.4-24.8-64.2-19.4-81.5,11.3c-1.5,2.7-2.9,3.2-5.9,2.5
		c-41.7-9.4-83.5-18.7-125.2-27.9c-3.7-0.8-5-2.2-5.2-6.1c-1.4-25.4-23-46.5-48.2-47.4c-22.5-0.8-42.4,12.1-50.2,32.6
		c-8,20.8-1.9,43.6,15.8,58.1c2.4,1.9,2.7,3.4,1.5,6.2c-22.8,52.9-45.4,105.9-68.1,158.9c-1.4,3.4-2.3,7.4-4.6,9.9
		c-2.7,2.9-6.9-0.5-10.4,0.3C167.8,423.4,167.7,423.3,167.5,423.3z M304.4,448.8c-15.2,14.3-19.3,33.8-9.2,44
		c3.3-10.4,6.2-20.5,9.8-30.5C306.5,457.6,305.6,453.6,304.4,448.8z M608.3,474.2c1.4-4.2-2-7.2-4.3-10.6c-3.8-5.6-5.6-5.5-8.9,0.6
		c-4.9,9.1-1.6,17.8,1.9,26.3c0.8,1.9,1.8,1.1,3.1,0.4c5.1-2.6,8.7-5.9,7.8-12.3C607.8,477.4,608.1,476.1,608.3,474.2z"/>
	<path class="st1" d="M167.5,423.3c0.2,0,0.3,0,0.5,0c3.5-0.8,7.7,2.6,10.4-0.3c2.4-2.5,3.2-6.5,4.6-9.9
		c22.7-53,45.3-105.9,68.1-158.9c1.2-2.8,0.9-4.3-1.5-6.2c-17.6-14.5-23.8-37.3-15.8-58.1c7.9-20.5,27.7-33.4,50.2-32.6
		c25.2,0.9,46.8,22,48.2,47.4c0.2,3.9,1.5,5.3,5.2,6.1c41.8,9.2,83.5,18.5,125.2,27.9c3,0.7,4.4,0.2,5.9-2.5
		c17.3-30.8,56.1-36.2,81.5-11.3c2.2,2.2,3.8,2.3,6.4,0.9c31.4-17.1,62.9-34.2,94.4-51.2c2.8-1.5,3.5-3,2.8-6.3
		c-6.2-30.1,12.6-57.2,43.4-61.6c25.7-3.7,53,13.7,57.1,45.1c2.7,20.4-9,41.6-28,51.1c-19.4,9.7-43,6.2-58.3-9.1
		c-3.3-3.3-5.5-3.3-9.3-1.2c-30.7,16.8-61.4,33.5-92.2,50.1c-3.1,1.7-4.3,3-3.3,6.8c2.6,9.8,1.8,19.7-2.2,28.9
		c-2,4.6-0.8,6.8,2.7,9.5c17,13.4,33.9,26.9,50.8,40.4c11.2,8.9,22.4,17.8,33.5,26.9c3.2,2.6,5.5,3.3,9.6,1.2
		c13.3-7,29.3-4.5,39.9,5.4c11.5,10.7,14.8,26.2,8.8,40.7c-5.4,13-19.5,22-33.7,21.7c-23-0.5-39.8-23.5-33.3-45.5
		c1-3.3,0.3-4.9-2.3-7c-29-23-57.8-46.1-86.6-69.3c-2.8-2.3-4.7-2.5-7.7-0.4c-11.8,8.2-24.8,11.1-38.9,8.2c-3.3-0.7-4.7,0.1-6.1,3
		c-13.4,26.6-26.9,53.2-40.5,79.8c-1.6,3.1-1.3,4.7,1.3,7.1c15.9,15,20.6,38,12,57.4c-8.8,20.1-28.4,32-50.4,30.8
		c-24.8-1.4-45.9-22.4-47.4-47.3c-1.5-26.1,16-49,41.2-53.7c6.8-1.3,13.6-1.4,20.3,0.2c2.7,0.6,3.9-0.1,5-2.4
		c13.7-27.2,27.5-54.4,41.4-81.6c1.1-2.1,0.9-3.4-0.9-5.1c-10.6-9.6-16.3-21.7-17-36.1c-0.1-2.8-1.3-3.6-3.8-4.1
		c-42.1-9.4-84.1-18.8-126.2-28.4c-3-0.7-4.9-0.5-6.3,2.7c-1.9,4.3-4.8,8-8.2,11.3c-1.9,1.9-2.5,3.6-1,6.1
		c11.8,20.1,23.5,40.3,35.2,60.4c1.2,2,2.7,2,4.6,1.7c20.8-3.1,39.9,12.3,41.4,33.1c1.4,20.5-16.2,39-36.9,38
		c-13.6-0.6-24.2-7.1-30.6-19.4c-6.6-12.7-5.6-25.2,2.5-36.8c2.5-3.6,2.5-5.9,0.4-9.5c-11.2-18.7-22.2-37.6-33-56.5
		c-1.9-3.4-3.9-4.1-7.6-3c-6,1.8-12.2,2.2-18.3,0.9c-3.2-0.7-4.4,0.4-5.6,3.1c-14.9,34.9-29.8,69.8-44.8,104.7
		c-8.8,20.5-17.5,41-26.5,61.5c-1.3,3-1,4.6,1.6,6.6c17.7,14.3,23.8,38.4,15.1,59.1c-8.8,20.9-30.7,33.9-52.5,31.3
		c-23.2-2.8-40.8-19.4-44.8-42.1C111.8,451.9,135.8,423.3,167.5,423.3z"/>
</g>
</svg>
