<?xml version="1.0" encoding="utf-8"?>
<!-- Generator: Adobe Illustrator 21.1.0, SVG Export Plug-In . SVG Version: 6.00 Build 0)  -->
<svg version="1.1" id="ddos--1_xA0_Image_1_" xmlns="http://www.w3.org/2000/svg" xmlns:xlink="http://www.w3.org/1999/xlink"
	 x="0px" y="0px" viewBox="0 0 1189.2 1666.3" style="enable-background:new 0 0 1189.2 1666.3;" xml:space="preserve">
<style type="text/css">
	.st0{fill:#05CD7A;}
	.st1{fill:#211750;}
</style>
<g>
	<path class="st0" d="M1008.7,705.4c8.1,7.1,17.3,12.7,26.1,18.8c50.7,35.6,101.5,71.1,152.3,106.5c3.6,2.5,2,3.3-0.4,5
		c-94.1,65.8-188.1,131.6-282.1,197.4C604.7,1243.2,304.9,1453.1,5,1663c-1.5,1-3,2-5,3.3C0,1110.7,0,555.8,0,0
		c7.8,5.4,15.2,10.5,22.6,15.7c45.9,32.1,91.8,64.2,137.6,96.3c0.5,0.4,0.9,0.9,1.4,1.4c-1,0.3-2.5,0.2-2.8,0.9
		c-2.7,5.2-6.1,2.5-9.5,1.2c-1.2-0.4-2.9-2.1-3.6,0.3c-0.4,1.6-1.1,3.7,1.3,4.7c1.5,0.7,3.5,0.7,4.3,2.7c-0.5,0.2-0.8,0.3-1.1,0.4
		c-1.6,0.5-4-2.9-5,1.2c-0.9,3.6,2,3.3,3.7,3.9c8.9,3.2,17.9,6.2,26.9,9.3c3.4,1.2,6.9,2.5,11.3,4.1c-3.6,1.6-6,2.7-8.4,3.9
		c-1.3,0.6-2.5,0.5-2.9-0.8c-2.5-7.1-9.1-5.4-14.3-6.6c-0.9-0.2-2.4-0.8-2.8,1c-0.6,2.4,3.1,10.6,5.5,12.1c3.6,2.3,4.7,7.1,1.2,8.9
		c-4.9,2.5-2,4.1-0.4,6.2c0.6,0.8,0.8,1.6,1.1,2.6c2.1,6.4,3.9,12.9,6.7,19.1c2.6,5.7,2.3,11,0.7,16.4c-2.2,0.5-2.4-3.2-4.5-1.5
		c-1.8,1.4-1.9,3.4-1.2,5.5c0.7,2.1,0.9,3.9,0.1,6.2c-3.8,10.1-10.4,15.8-21.6,15.3c-0.7,0-1.3,0.1-2,0.2c-1,0.3-2.7-0.3-2.5,1.5
		c0.1,1.2,1.3,2,2.5,2.1c1.3,0.2,2.7,0.2,4,0.2c5.2,0.2,10.5,0.1,15.7,1.3c-1.6,6.6-9,9-9.8,16.8c-2.7-3.7-4.7-6.6-8.9-8
		c2.4,13.1,7.5,25.4,3.8,38.9c-2.3-1.4-4.2-2.5-6.1-3.5c-1.2-0.6-2.6-2.3-3.9-0.5c-1.6,2.2,0.9,2.8,2,3.7c2.7,2.2,7.6,4.2,7.8,6.5
		c0.3,5.4,5.6,8.3,5.3,13.9c-0.2,3.2,1.1,6.8,1.7,10.2c0.5,2.8,1.7,4.4,4.9,5.2c5.9,1.6,11.6,0.5,17.3,0.4c5.5-0.1,7.7-4.1,5.7-9.2
		c-1.6-4.2-4.8-7.4-7.6-11.1c2.6-0.9,5.7,0,6.3-2.7c0.7-2.9,0.3-6-2.6-8c-2.4-1.7-2.4-4.6-3.5-7c-1-2.3-0.8-5-4.1-6.3
		c-1.7-0.6-2.9-3.4-0.3-5.3c1.9-1.4,2-3.5,2.4-5.7c1.2-6.7,2.8-13,9.1-17.4c9.9-7,19.3-14.9,25.5-25.8c3.6-6.4,3.3-6.9-4.5-9.1
		c7-3.1,9.5-8.4,9.2-15.2c-0.1-1.7,0.8-2,2.2-1.4c1.2,0.5,2.5,0.9,1.8,2.8c-1.7,4.8-0.9,5.9,4.1,6.7c1.4,0.2,3.7-1.5,4.3,0.9
		c0.5,2-1.1,3.4-2.5,4.9c-5.1,5.6-10.2,11.5-5.4,19.8c0.7,1.3,0,2.3-0.5,3.2c-2.5,4.7-5.1,9.3-7.6,14.1c-1.1,2.1-2.1,2.3-3.6,0.4
		c-2-2.4-4.2-4.5-7.7-5.5c0.3,2.5,0,5.1,2,6.1c4.2,2.1,4.4,5.8,4.9,9.7c0.6,4.3,1,8.6,3.1,12.5c1.7,3.1,0.4,6.6-1.4,8.9
		c-1.4,1.7-3.6-1.1-5.5-1.8c-1-0.3-2-1.8-3-0.4c-0.9,1.3,0.2,2.1,1.2,2.8c0.7,0.5,1.4,1,2.1,1.4c8.4,4.5,12,12.2,13.8,21
		c0.8,3.9,2.4,7.1,7.3,7.4c5.3,0.3,10.6,1.3,15.9,1.1c2.8-0.1,5.6,0,6.2-3.5c0.5-3.2-0.4-7.3-2.9-8.4c-3.3-1.4-4.2-4.2-6.9-6.3
		c3.2,1.4,4.1-1.1,5.3-2.7c1.1-1.6,0.2-3.4-1.1-4.4c-3.9-2.9-5.2-7.2-7-11.3c-0.5-1.2-0.8-3.4-2-3.1c-4.5,1.1-3.1-2.3-3.2-4.1
		c-0.6-11.7,7.1-20.3,11.3-30.3c1-2.5,2.5-2.5,4.3-0.1c4.8,6.7,8,13.6,6.6,22.3c-0.6,3.5-1.1,4.1-3.9,1.3c-0.4,3.4-0.2,5.9,1,8.7
		c1.5,3.4,0,7.4-2.5,9.5c-2,1.7-3.3-2.2-5.1-3.3c-0.6-0.3-0.9-0.9-1.4-1.4c-0.8-0.7-1.6-1.2-2.6-0.3c-1,0.9-0.6,1.8,0.1,2.6
		c1.1,1.3,2.2,2.5,3.3,3.7c2.2,2.5,5.2,5.3,4.5,8.5c-1,4.8,1,8.5,2.8,12.3c2.1,4.5,3.1,9,2.3,14c-0.8,5.1,3.2,12.9,6.8,13
		c6.1,0.1,12,2.7,18.2,1.5c2.7-0.5,6,0.9,7.5-3.1c1.5-3.8,1.2-6.9-1.4-10.2c-3.1-3.9-5.9-8.1-8.8-12.1c3.2,0.7,5.9-0.4,8.6-0.6
		c2.8-0.2,2.6-1.3,1.9-3.1c-3.2-7.9-5.4-16.1-7.5-24.3c-0.4-1.6-0.8-3-2.9-1.7l0.1,0.1c-0.6-8,0.5-15.9,0.7-23.8
		c0.2-5.2,0.5-9.7,6.2-12.2c2.1-0.9,3.8-3.2,5.4-5.1c2.1-2.4,5-5.5,4-8.1c-0.9-2.6-5.2-1.7-8.1-2c-0.3,0-0.6-0.2-1.2-0.5
		c1.5-2.3-1-5.2,0.4-7c3.1-4.2,7.3-7.4,12.6-8.8c2.9-0.8,4.3,2,6.6,2.7c2,0.7,3.2,3,5.7,2.4c0.5,0.2,1,0.4,1.5,0.6
		c0,1.3-0.1,2.5-1.1,3.6c-2.3,2.7-2.7,19-0.6,21.8c1.4,1.9,3,3.5,4.6,5.2c1,1.1,2.1,2.1,2.1,3.8c0.1,6.8,1.8,13.4,1.1,20.3
		c-2.7-1.4-5.5-2.7-8.5-4.2c-0.1,3.8,1.5,5.6,4,7.4c3,2.1,4.4,5.3,2.3,9.1c-2.3,4.1-4.4,0.5-6.7,0c-1-0.2-2.1-1.7-3-0.1
		c-0.9,1.7,0.5,2.7,1.7,3c8.1,2.3,10.8,9.3,13,15.9c2.6,8,9.3,13.3,11.9,21.1c0.4,1.2,1.6,1.7,2.8,1.7c6.5-0.1,12.8,1.6,19.4,0.5
		c4.2-0.7,4.6-3.8,4.8-6.4c0.1-2.9-0.8-6.8-4.4-6.8c-5.1-0.1-5.9-3.9-8.7-6.8c3.1-0.7,5,0.5,7.1,1.1c1.6,0.5,3.4,0.6,3.9-1
		c0.4-1.5,1.9-3.3,0.1-5c-2.2-2.2-4.2-4.7-6.4-6.9c-7.6-7.7-12.5-16.7-13.1-27.6c-0.6-10-0.4-10,9.1-8.1c0.1,0,0.3-0.1,0.6-0.3
		c-0.9-5.4-10.4-10.5-0.8-16.4c33,23.2,66,46.3,99.1,69.5c25.6,17.9,51.1,35.8,76.7,53.7c1.2,0.8,2.2,1.9,3.3,2.9
		c-3.1,0.5-5.4-1.5-7.8-2.8c-4.5-2.4-8.7-2.9-13.1-0.1c-3.2,2.1-6.2,1.3-9.4,0c-13.4-5.4-27-10.5-40.4-15.9
		c-3.7-1.5-7.3-1.7-12.1-0.5c8.8,4.2,16.8,7.9,24.8,11.7c1.2,0.6,3.3,1.6,3.2,2c-1.2,4.8,3.2,4.8,5.4,6.3c3.5,2.5,7.4,4.5,11.2,6.6
		c1.5,0.9,2.9,1.8,3,3.7c0.2,3.2,1.1,6.2,2.3,9.2c0.4,1.1,1.1,2.5-0.8,2.6c-3.4,0.1-6.7,2-10.2-0.1c-7.7-4.7-16.4-7.3-24.7-10.8
		c-4.5-1.9-8.9-2.7-13.5-0.9c-2.6,1.1-5.1,0.7-7.7-0.3c-10.8-4-21.6-7.9-32.3-11.9c-5.1-1.9-11.3-1.4-14.3,1.3
		c-4,3.5-6.4,2.2-9.8,0.9c-1.2-0.4-2.9-2.1-3.6,0.2c-0.5,1.7-1.1,4,1.7,5c1.4,0.5,3.4,0.5,3.8,2.8c-0.8,0-1.4,0.1-2,0
		c-1.6-0.2-3.3-2-4.1,1.3c-0.7,2.8,1,3.1,2.7,3.7c3,1,6,2,9,3.1c9.7,3.6,19.7,6.2,29.9,10.8c-3.2,1.5-5.6,2.5-8,3.7
		c-1.6,0.8-2.7,0.3-3.3-1.1c-2.8-7.3-9.7-4.9-15-6.3c-1-0.3-2.3,0.2-1.8,1.5c1.6,4.1,0.4,9.5,5.8,11.9c3.4,1.5,3.9,8,0.6,8.9
		c-5.5,1.5-1.2,3.6-0.8,5.2c0.2,1,1.4,1.8,1.9,3.2c1.9,6.5,3.9,13,6.6,19.1c2.6,5.7,2.3,11,0.8,16.4c-2.3,0.7-2.4-3.1-4.5-1.5
		c-1.8,1.4-2,3.3-1.3,5.4c0.7,2.1,1,3.9,0.1,6.2c-3.8,10-10.3,15.9-21.6,15.4c-0.7,0-1.3,0.1-2,0.2c-1,0.3-2.7-0.3-2.5,1.5
		c0.1,1.2,1.2,2,2.5,2.2c1.3,0.2,2.7,0.2,4,0.2c5.2,0.2,10.5,0.1,15.7,1.3c-1.5,6.6-9,8.9-9.8,16.9c-2.7-3.9-4.8-6.6-8.9-8.2
		c2.3,13.2,7.5,25.5,3.8,38.9c-2.3-1.3-4.1-2.5-6-3.5c-1.2-0.6-2.6-2.4-3.9-0.6c-1.7,2.2,0.8,2.8,1.9,3.7c2.7,2.2,7,3.8,7.9,6.5
		c2,6,5.7,11.5,6.2,18.1c0.2,2.5,0.8,4.9,1.1,7.4c0.3,2.1,1.5,2.9,3.5,3.6c5.9,2,11.9,0.9,17.8,0.7c6.4-0.2,8.4-4,5.9-10.1
		c-1.6-3.9-4.8-6.6-7.2-10.3c2.4-0.9,5.6,0,6.2-2.7c0.7-2.9,0.3-6-2.6-8c-2.6-1.8-2.6-4.9-3.7-7.5c-0.9-2.1-0.9-4.7-3.9-5.8
		c-1.7-0.6-2.9-3.3-0.3-5.3c1.9-1.4,2-3.5,2.4-5.7c1.2-6.7,2.8-13,9.1-17.4c10.1-7.2,19.5-15.1,25.7-26.2c3.4-6.1,3.1-6.5-3.5-8.2
		c-0.1,0-0.2-0.5-0.4-1.1c6.4-2.4,8.4-7.7,8.3-14.1c0-0.8-0.2-1.9,0.8-2.1c0.9-0.1,1.9,0.4,2.8,0.8c0.8,0.4,0.8,1.2,0.5,2.1
		c-1.7,4.9-0.7,6.2,4.6,6.7c1.3,0.1,3.3-1.3,3.8,0.9c0.4,1.7-0.6,3.2-2.1,4.6c-5.4,5.6-10.6,11.5-5.8,20.1c0.7,1.3,0,2.3-0.5,3.3
		c-2.5,4.7-5.1,9.3-7.6,14.1c-1.1,2-2,2.4-3.6,0.5c-2-2.4-4.3-4.5-7.7-5.6c0.2,2.5,0,5.1,2,6.1c4.1,2.2,4.4,5.8,5,9.7
		c0.6,4.3,1,8.6,3.1,12.5c1.7,3.2,0.4,6.6-1.4,8.9c-1.4,1.8-3.6-1.1-5.5-1.7c-0.3-0.1-0.6-0.3-0.9-0.5c-0.7-0.4-1.6-0.9-2.2,0.1
		c-0.5,0.8-0.3,1.6,0.4,2.2c0.7,0.5,1.3,1.1,2,1.5c8.9,4.7,13,12.5,14.7,22.1c0.7,3.7,2.6,6.7,7.2,6.9c5.3,0.3,10.6,1.3,15.9,1.1
		c2.8-0.1,5.6,0,6.2-3.5c0.6-3.3-0.4-7.3-2.9-8.4c-3.3-1.3-4.2-4.3-6.8-6.1c2.8,0.7,4.1-1.1,5.2-2.9c1.1-1.7,0.2-3.4-1.1-4.4
		c-3.9-2.9-5.2-7.2-7-11.3c-0.5-1.2-0.8-3.4-2-3.1c-4.5,1.1-3.1-2.3-3.2-4c-0.7-11.5,7-20,11-29.9c1.2-3,2.8-3,4.9-0.1
		c4.7,6.6,7.5,13.5,6.2,21.9c-0.5,3.5-1,4.3-3.8,1.3c-0.4,3.4-0.2,5.9,1,8.7c1.5,3.4,0,7.4-2.4,9.5c-2,1.7-3.3-2.1-5.1-3.3
		c-0.6-0.3-0.9-0.9-1.4-1.4c-0.8-0.7-1.6-1.2-2.6-0.3c-1,0.9-0.6,1.8,0.1,2.6c1.1,1.3,2.2,2.5,3.3,3.7c2.2,2.5,5.2,5.3,4.5,8.5
		c-1,4.8,1,8.5,2.8,12.3c2.1,4.5,3.1,9,2.3,14c-0.8,5.1,3.2,12.9,6.8,13c6.1,0.1,12,2.7,18.2,1.5c2.7-0.5,6,0.9,7.5-3.1
		c1.5-3.8,1.2-6.9-1.4-10.2c-3.1-3.9-5.9-8.1-8.8-12.1c3.2,0.4,5.8-0.3,8.6-0.5c2.8-0.3,2.6-1.3,1.9-3.1c-3.2-7.9-5.4-16.1-7.5-24.3
		c-0.4-1.6-0.8-3-2.9-1.7l0.1,0.1c-0.8-10.2,0.9-20.2,1.1-30.3c0.1-2.3,2-2.9,3.4-3.9c4.4-2.9,8.1-6.4,10.6-11
		c2.4-4.6,2.2-4.8-3-5.8c-1.6-0.3-4.7,1.7-4.6-1.6c0.1-2-1.3-4.3-0.3-5.7c3.1-4.2,7.2-7.4,12.5-9c2.9-0.9,4.2,1.4,6.1,2.3
		c1.9,0.8,3.7,2,5.9,3.3c0.5-2,0.7-3.7,1.3-5.2c0.5-1.5,2.1-1.9,3.3-1.6c1.5,0.4,1,1.9,0.5,2.9c-1.4,2.6-2.7,5.2-4.3,7.7
		c-2,3.1-2.4,19.1-0.1,22c1.4,1.8,3.1,3.5,4.6,5.2c0.9,1,1.8,2,1.8,3.4c0.1,6.8,1.9,13.5,1.1,20.4c-2.7-1.4-5.5-2.7-8.5-4.2
		c-0.1,3.8,1.5,5.6,4,7.4c3,2.1,4.5,5.3,2.3,9.1c-2.3,4.1-4.4,0.5-6.7,0c-1-0.2-2.1-1.7-3-0.1c-0.9,1.7,0.5,2.7,1.7,3
		c8.1,2.2,10.8,9.3,13,15.9c2.6,8,9.3,13.3,11.9,21.1c0.4,1.2,1.6,1.7,2.8,1.7c6.5-0.1,12.8,1.6,19.4,0.5c4.2-0.7,4.6-3.8,4.7-6.4
		c0.1-2.9-0.8-6.8-4.4-6.8c-5.1,0-5.8-4-8.9-6.7c3.3-0.7,5.3,0.5,7.3,1.1c1.6,0.5,3.4,0.5,3.9-1c0.4-1.5,1.9-3.3,0.1-5
		c-2.1-2.1-3.9-4.5-6.1-6.6c-8.2-8-13.1-17.4-13.6-28.9c-0.4-9.1-0.3-9.1,8.7-7.1c0.3,0.1,0.6-0.1,1.1-0.2c-0.5-2.9-2.3-5.2-3.9-7.3
		c-2.2-3-1.3-4.9,0.9-7.2c2.9-3.2,6.4-5.8,8.2-9.9c0.1,0,0.3-0.1,0.4-0.1c0.1,0,0-0.2,0-0.3c-0.1,0.2-0.3,0.3-0.4,0.5
		c-2.9-0.6-5.6,0.6-8.3,1.4c-3.5,1-4.3-0.1-3.6-3.3c1.3-5.9,2.1-11.9,7.2-16.3c2.6-2.3,4.5-3.5,7.8-1.8c5,2.5,10.2,4.7,16,7.4
		c-1.1-8.4-2-16.1-3.2-23.8c-0.8-5-0.3-10.3-3.7-14.7c-2.2-2.9-1.7-11.1,1.4-13.1c2.7-1.8,6.4-1.5,9.5,0.2c1.7,0.9,3.5,1.8,5.3,2.8
		c9.6,8.2,20.4,14.8,30.7,22.1c74.4,52.2,148.8,104.2,223.2,156.3c9.5,6.7,19,13.3,28.5,20c1.3,0.9,3.1,1.4,3.2,3.4
		c-4.8-1.9-9.6-3.9-14.9-1.5c-3,1.4-5.7,0.5-8.6-0.6c-10.4-3.9-21-7.6-31.4-11.6c-5.1-2-11.4-1.4-14.3,1.1
		c-4.1,3.7-6.7,2.3-10.3,0.9c-1.1-0.4-2.6-1.9-3.3,0.1c-0.5,1.6-1.2,3.6,1,4.9c1.5,0.9,3.6,0.8,4.5,2.7c-1.1,1.1-2.3,0.4-3.3,0
		c-1.6-0.7-2.4-0.4-2.8,1.5c-0.3,1.4-0.8,2.6,1,3.3c1.3,0.4,2.5,0.9,3.8,1.4c12,4.1,24.1,8.3,37.2,12.8c-3.7,1.7-6.2,2.9-8.7,4.1
		c-1.3,0.6-2.4,0.2-2.9-1c-2.7-7.4-9.6-5.1-14.9-6.5c-0.9-0.2-2.5,0-2,1.3c1.5,4.1,0.3,9.5,5.6,12c3.6,1.8,4,6.4,1.1,9.1
		c-2.8,2.7-3,2.9-0.5,5.6c1.2,1.3,0.6,2.9,1.2,4c2.9,5.8,4,12.3,6.9,18.1c2.8,5.5,2.4,10.9,0.7,16c-2.4,0.7-2.4-3.2-4.6-1.2
		c-1.5,1.4-2,3.2-1.1,5c1.6,3.5,0.6,6.4-1.8,9.1c-1.5,1.7-2.3,3.7-2.8,5.8c-0.8,3.4-2.7,4.9-6.2,5.2c-4.3,0.4-8.5,1.3-12.8,2
		c-0.9,0.2-2.3,0-2.4,1.3c0,1.2,1.1,2.1,2.2,2.4c1.1,0.3,2.3,0.2,3.5,0.3c5.5,0.1,11,0.2,16.6,1.2c-1.7,6.5-9,9.1-9.9,16.5
		c-3-3.3-4.7-6.4-9.1-7.5c2.9,13,7.5,25.3,4.1,38.7c-2.2-1.2-4-2.4-5.9-3.3c-1.3-0.7-2.9-2.7-4.3-0.6c-1.5,2.1,1.1,2.7,2.2,3.7
		c2.6,2.3,7.4,4,7.8,6.5c0.8,5.4,5.7,9,5.4,14.8c-0.2,3.4,1.2,6.8,1.8,10.3c0.4,2.3,1.5,3.2,3.7,3.9c6.1,2,12.2,0.8,18.3,0.6
		c5.4-0.1,7.5-4.1,5.5-9.3c-1.6-4.2-4.8-7.4-7.9-11.2c3-0.6,6,0.2,6.6-2.7c0.6-2.7,0.4-5.7-2.4-7.6c-2.4-1.7-2.6-4.5-3.7-6.9
		c-1-2.4-0.9-5.3-4.3-6.7c-1.7-0.7-2.7-3.4-0.1-5.3c2-1.4,1.9-3.6,2.3-5.7c1.3-6.5,2.6-12.7,8.8-17.1c9.9-7,19.3-14.9,25.6-25.7
		c3.8-6.6,3.6-7.1-4.6-9.7c8.9-2.8,9.5-9.6,9.6-16.5c4.4,1.1,4.5,1.2,3.8,3.1c-1.7,4.7-0.9,5.9,4.3,6.6c1.4,0.2,3.7-1.6,4.2,1
		c0.3,1.7-0.8,3.1-2.2,4.6c-4.5,4.7-9.8,9.9-6.9,16.9c1.8,4.5,0.2,7.2-1.5,10.5c-1.5,2.8-3.2,5.5-4.5,8.3c-1.5,3.3-2.9,4.7-5.6,0.9
		c-1.5-2.1-3.7-3.4-6.6-4.4c0.2,3.4,0.6,5.9,3.7,7.4c2.3,1.1,2.6,3.8,2.9,6.1c0.7,5.3,1.2,10.5,3.6,15.5c1.3,2.8,0.1,6.2-1.6,8.4
		c-1.3,1.6-3.4-1.1-5.2-1.6c-1.1-0.3-2.2-2.3-3.4-0.5c-1,1.6,0.7,2.3,1.7,3.1c0.4,0.3,0.8,0.6,1.3,0.8c8.6,4.5,12.3,12.3,14.1,21.3
		c0.8,3.9,2.6,7,7.4,7.3c5.3,0.3,10.6,1.3,15.9,1.1c2.8-0.1,5.6-0.1,6.2-3.5c0.5-3.2-0.4-7.2-3-8.4c-3.2-1.4-4.3-4.1-6.6-6.1
		c2.8,0.7,4.1-1,5.2-2.9c1-1.7,0.2-3.4-1.2-4.4c-3.9-2.9-5.1-7.2-7-11.3c-0.5-1.1-0.7-3.3-2.1-3c-4.6,1.1-3-2.4-3.1-4.1
		c-0.6-11.7,7.1-20.3,11.3-30.3c1.1-2.6,2.6-2.4,4.3,0c4.8,6.7,7.9,13.6,6.5,22.3c-0.6,3.8-1.4,3.7-3.9,1.3c-0.4,2.6-1,5.1,0.2,6.8
		c2.2,2.8,1,5.4,0.2,8c-1.5,4.8-2.2,4.9-5.6,1.5c-0.9-0.9-1.9-1.9-2.8-2.8c-0.8-0.7-1.7-1.2-2.6-0.3c-1,0.9-0.6,1.8,0.1,2.6
		c1.6,1.9,3.3,3.7,4.9,5.7c1.6,1.9,3.6,4.3,3,6.6c-1.2,4.6,0.8,8.2,2.6,11.9c2.2,4.6,3.3,9.3,2.5,14.5c-0.8,5.1,3.2,12.8,6.8,13
		c7.1,0.5,14,2.5,21.2,1.4c2.3-0.3,3.5-1,4.5-3.1c1.6-3.6,1.3-6.7-1-9.8c-3.1-4.1-6.1-8.3-9.2-12.4c0.2-0.4,0.3-0.8,0.5-1.2
		c2.8,1.9,5.4,0.8,8.1,0.6c2.8-0.2,2.6-1.3,1.9-3.1c-3.2-7.9-5.4-16.1-7.5-24.3c-0.4-1.6-0.8-3-2.9-1.7l0.1,0.1
		c-0.8-10.2,0.9-20.2,1.1-30.3c0.1-2.3,2-2.9,3.4-3.9c4.4-2.9,8.1-6.4,10.6-11c2.4-4.6,2.2-4.8-3-5.8c-1.6-0.3-4.7,1.7-4.6-1.6
		c0.1-2-1.3-4.3-0.3-5.7c3.1-4.2,7.2-7.4,12.5-9c2.9-0.9,4.2,1.4,6.1,2.3c1.9,0.8,3.7,2,5.9,3.3c0.5-2,0.7-3.7,1.3-5.2
		c0.5-1.5,2.1-1.9,3.3-1.6c1.5,0.4,1,1.9,0.5,2.9c-1.4,2.6-2.7,5.2-4.3,7.7c-2,3.1-2.4,19.1-0.1,22c1.4,1.8,3.1,3.5,4.6,5.2
		c0.9,1,1.8,1.9,1.8,3.4c0.1,6.8,1.9,13.5,1.1,20.4c-2.7-1.4-5.5-2.7-8.7-4.3c0.3,3.8,1.6,5.7,4.2,7.5c3,2.1,4.5,5.3,2.3,9.1
		c-2.3,4.1-4.4,0.5-6.7,0c-1-0.2-2.1-1.7-3-0.1c-0.9,1.7,0.5,2.7,1.7,3c8.1,2.2,10.8,9.3,13,15.9c2.6,8,9.3,13.3,11.9,21.1
		c0.4,1.2,1.6,1.7,2.8,1.7c6.5-0.1,12.8,1.6,19.4,0.5c4.2-0.7,4.6-3.8,4.7-6.4c0.1-2.9-0.8-6.8-4.4-6.8c-5.1,0-5.8-4-8.9-6.7
		c3.3-0.7,5.3,0.5,7.3,1.1c1.6,0.5,3.4,0.5,3.9-1c0.4-1.5,1.9-3.3,0.1-5c-2.1-2.1-3.9-4.5-6.1-6.6c-8.2-8-13.1-17.4-13.6-28.9
		c-0.4-9.1-0.3-9.1,8.7-7.1c0.3,0.1,0.6-0.1,1.1-0.2c-0.5-2.9-2.3-5.2-3.9-7.3c-2.2-3-1.3-4.9,0.9-7.2c2.9-3.2,6.4-5.8,8.2-9.9
		c0.1,0,0.3-0.1,0.4-0.1c0.1,0,0-0.2,0-0.3c-0.1,0.2-0.3,0.3-0.4,0.5c-1.1,0-2.3-0.1-3.4,0.1c-9.4,1.8-9,1.9-7.3-7.8
		c0.9-5.4,4.8-8.4,7.8-12.2c1.1-1.5,3.2-1.7,5-0.6C1004,702.6,1006.4,704,1008.7,705.4z M849.7,971.6c-3.1-0.6-5.9,0.8-8.8,1.5
		c-3,0.8-3.7-0.3-3.2-3c1.1-6.2,2.3-12.2,7.3-16.9c2.6-2.4,4.6-3.3,7.8-1.7c5,2.5,10.1,4.7,15.9,7.3c-0.8-6.7-1.2-12.7-2.4-18.6
		c-1.3-6.6-0.3-13.7-4.4-19.7c-2.1-3.1-1.9-10.9,1.2-13.2c2.8-2.1,6.7-1.5,9.9,0.3c1,0.6,2.2,0.9,3.1,1.6c2.5,1.7,4.9,1.4,7.5,0.1
		c7-3.5,14-6.9,21.2-10c4.1-1.8,3.5-3.1,1.1-6.2c-6.7-8.6-15.7-15.6-18.7-26.7c-0.2-0.7-0.9-1.5-1.6-1.9
		c-8.4-5.3-12.1-13.3-12.8-22.9c-0.1-0.7-0.3-1.4-0.7-2.8c-1.8,4.5-3.3,8.3-5.1,12.8c-2.9-6.5-5.4-12.1-8.3-18.7
		c-2.5,6.1-4.5,11.2-6.6,16.2c-0.6,1.3-0.8,3.2-2.6,3.3c-7.3,0.5-14.7,3.2-21.7,0.6c-7.7-2.8-14.5-2.5-21.4,1.5
		c-4.5,2.6-8.8,2.8-13.4-0.1c-4.3-2.7-9-4.4-13.9-1c-3.4,2.4-6.8,1.3-10.3-0.1c-13.1-5.2-26.4-10.3-39.5-15.5
		c-3.8-1.5-7.5-1.8-12.7-0.8c7.8,3.7,14.8,6.7,21.5,10.3c2.7,1.4,7.6,1.1,6.9,6.5c-0.1,0.4,1.2,1,1.9,1.4c2.3,1.4,4.6,2.8,6.9,4.1
		c10.3,6,10.3,6,13,17.4c0.2,0.9,0.9,2.3-0.5,2.4c-3.4,0.1-6.7,2.2-10.2,0.1c-7.9-4.7-16.7-7.4-25.1-11c-4.6-1.9-8.9-2.6-13.5-0.8
		c-2.7,1.1-5.1,0.6-7.7-0.4c-10.8-4-21.6-7.9-32.3-11.9c-5.1-1.9-11.3-1.3-14.3,1.3c-4,3.6-6.4,2.1-9.8,0.8
		c-1.2-0.4-2.9-2.1-3.5,0.4c-0.4,1.6-1.1,3.7,1.4,4.7c1.5,0.7,3.5,0.7,4.5,3.2c-1.3-0.2-2.1-0.1-2.8-0.4c-1.8-0.7-2.9-1-3.6,1.5
		c-0.7,2.9,1.2,3,2.8,3.6c12.7,4.4,25.4,8.8,38.7,13.3c-2.6,2.4-5.5,2.9-7.9,4.2c-1.2,0.7-2.5,0.5-2.9-0.8
		c-2.6-7.1-9.1-5.4-14.3-6.6c-0.9-0.2-2.4-0.8-2.8,1.1c-0.5,2.5,3.1,10.5,5.6,12c3.6,2.2,4.7,7.3,1.2,8.9c-5.5,2.5-1.7,4.2-0.3,6.2
		c0.6,0.8,0.8,1.7,1.1,2.6c2.1,6.4,4,12.9,6.7,19.1c2.6,5.7,2.4,11,0.7,16.4c-2.2,0.5-2.3-3.2-4.5-1.5c-1.8,1.4-2.1,3.5-1.2,5.4
		c1.4,3.2,0.7,5.8-1.5,8.2c-1.8,2-2.8,4.5-3.5,7.1c-0.7,2.9-2.5,4-5.3,4.3c-4.5,0.6-8.9,1.3-13.3,2.1c-0.9,0.1-2.3-0.1-2.5,1.1
		c-0.2,1.3,1,2.1,2.1,2.4c1.3,0.3,2.6,0.3,4,0.3c5.4,0.2,10.8,0.1,16.2,1.3c-1.8,6.6-9,9.1-9.9,16.6c-2.7-3.6-4.7-6.5-8.9-7.8
		c2.5,13.1,7.5,25.4,3.8,38.8c-2.2-1.3-3.9-2.4-5.7-3.2c-1.3-0.7-2.9-2.8-4.3-0.8c-1.7,2.4,1.2,2.9,2.4,4c2.5,2.2,7.3,4,7.4,6.2
		c0.3,5.4,5.5,8.3,5.2,13.9c-0.1,3.3,1.1,7.1,1.8,10.7c0.5,2.5,1.6,3.8,4.3,4.6c6,1.8,11.9,0.6,17.8,0.5c5.5-0.1,7.7-4.1,5.7-9.2
		c-1.6-4.2-4.8-7.4-7.7-11.1c2.6-0.9,5.7,0,6.4-2.8c0.7-3,0.3-6-2.7-8c-2.4-1.7-2.4-4.6-3.5-7c-1-2.3-0.8-5-4.1-6.3
		c-1.7-0.6-2.8-3.4-0.2-5.3c1.9-1.4,2-3.5,2.4-5.7c1.2-6.7,2.8-13,9.1-17.4c9.9-7,19.3-14.9,25.4-25.8c3.6-6.3,3.3-6.8-4.5-9.2
		c7-3.1,9.5-8.4,9.2-15.2c-0.1-1.7,0.9-2,2.2-1.3c1.2,0.5,2.5,0.9,1.8,2.9c-1.8,4.7-0.9,5.9,4.1,6.6c1.4,0.2,3.7-1.5,4.2,0.9
		c0.5,2-1.1,3.4-2.5,4.9c-5.1,5.6-10.2,11.5-5.4,19.9c0.7,1.3,0,2.3-0.5,3.2c-2.5,4.7-5.1,9.3-7.6,14.1c-1.1,2.1-2.1,2.3-3.6,0.4
		c-2-2.4-4.2-4.5-8-5.6c0.8,2.5,0.3,5.2,2.4,6.3c4.2,2.1,4.4,5.8,4.9,9.7c0.6,4.3,1,8.6,3.1,12.5c1.6,3.1,0.4,6.6-1.4,8.9
		c-1.3,1.7-3.6-1.2-5.5-1.8c-1-0.3-2-1.8-3-0.4c-0.9,1.3,0.3,2.1,1.2,2.8c0.7,0.5,1.4,1,2.1,1.4c8.4,4.5,11.9,12.2,13.8,21
		c0.8,3.9,2.5,7.1,7.3,7.4c5.3,0.3,10.6,1.3,15.9,1.1c2.8-0.1,5.6,0,6.2-3.5c0.5-3.2-0.4-7.3-2.9-8.4c-3.3-1.4-4.2-4.2-6.8-6.3
		c3.3,1.5,4.1-1,5.3-2.7c1.1-1.6,0.2-3.4-1.1-4.4c-3.9-2.9-5.2-7.2-7-11.3c-0.5-1.2-0.8-3.4-2-3.1c-4.5,1.1-3.1-2.3-3.2-4.1
		c-0.6-11.7,7.1-20.3,11.3-30.3c1-2.5,2.5-2.5,4.3-0.1c4.8,6.7,7.9,13.6,6.6,22.3c-0.6,3.6-1.2,4.1-3.9,1.3c-0.4,3.4-0.2,5.9,1,8.7
		c1.5,3.4,0,7.4-2.5,9.5c-2,1.7-3.3-2.2-5.1-3.3c-0.6-0.3-0.9-0.9-1.4-1.4c-0.8-0.7-1.6-1.2-2.6-0.3c-1,0.9-0.6,1.8,0.1,2.6
		c1.1,1.3,2.2,2.5,3.3,3.7c2.2,2.5,5.2,5.3,4.5,8.5c-1,4.8,1,8.5,2.8,12.3c2.1,4.5,3.1,9,2.3,14c-0.8,5.1,3.2,12.8,6.8,13
		c7.1,0.5,14,2.5,21.2,1.4c2.3-0.3,3.5-1,4.5-3.1c1.7-3.8,1.2-6.9-1.4-10.2c-3.1-3.9-5.9-8.1-8.8-12.1c3.2,0.4,5.8-0.3,8.6-0.5
		c2.8-0.3,2.6-1.3,1.9-3.1c-3.2-7.9-5.4-16.1-7.5-24.3c-0.4-1.6-0.8-3-2.9-1.7l0.1,0.1c-0.8-10.2,0.9-20.2,1.1-30.3
		c0.1-2.3,2-2.9,3.4-3.9c4.4-2.9,8.1-6.4,10.6-11c2.4-4.6,2.2-4.8-3-5.8c-1.6-0.3-4.7,1.7-4.6-1.6c0.1-2-1.3-4.3-0.3-5.7
		c3.1-4.2,7.2-7.4,12.5-9c2.9-0.9,4.2,1.4,6.1,2.3c1.9,0.8,3.7,2,5.9,3.3c0.5-2,0.7-3.7,1.3-5.2c0.5-1.5,2.1-1.9,3.3-1.6
		c1.5,0.4,1,1.9,0.5,2.9c-1.4,2.6-2.7,5.2-4.3,7.7c-2,3.1-2.4,19.1-0.1,22c1.4,1.8,3.1,3.5,4.6,5.2c0.9,1,1.8,1.9,1.8,3.4
		c0.1,6.8,1.9,13.5,1.1,20.4c-2.7-1.4-5.5-2.7-8.7-4.3c0.3,3.8,1.6,5.7,4.2,7.5c3,2.1,4.5,5.3,2.3,9.1c-2.3,4.1-4.5,0.5-6.7,0
		c-1-0.2-2.1-1.7-3-0.1c-0.9,1.7,0.5,2.7,1.7,3c8.1,2.2,10.8,9.3,13,15.9c2.6,8,9.3,13.3,11.9,21.1c0.4,1.2,1.6,1.7,2.8,1.7
		c6.5-0.1,12.8,1.6,19.4,0.5c4.2-0.7,4.6-3.8,4.7-6.4c0.1-2.9-0.8-6.8-4.4-6.8c-5.1,0-5.8-4-8.9-6.7c3.3-0.7,5.3,0.5,7.3,1.1
		c1.6,0.5,3.4,0.5,3.9-1c0.4-1.5,1.9-3.3,0.1-5c-2.1-2.1-3.9-4.5-6.1-6.6c-8.2-8-13.1-17.4-13.6-28.9c-0.4-9.1-0.3-9.1,8.7-7.1
		c0.3,0.1,0.6-0.1,1.4-0.3c-1.4-2.5-2.5-5.1-4.2-7.3c-2.3-2.9-1.3-4.8,0.8-7.2C844.3,978.2,847.8,975.6,849.7,971.6
		c0.1-0.1,0.3-0.1,0.4-0.2c0.1,0,0-0.2,0-0.3C849.9,971.2,849.8,971.4,849.7,971.6z M583.6,797.5c-2.7-1.4-5.5-2.7-8.5-4.2
		c-0.1,3.8,1.5,5.6,4,7.4c3,2.1,4.5,5.3,2.3,9.1c-2.3,4.1-4.5,0.5-6.7,0c-1-0.2-2.1-1.7-3-0.1c-0.9,1.7,0.5,2.7,1.7,3
		c8.1,2.2,10.8,9.3,13,15.9c2.6,8,9.3,13.3,11.9,21.1c0.4,1.2,1.6,1.7,2.8,1.7c6.5-0.1,12.8,1.6,19.4,0.5c4.2-0.7,4.6-3.8,4.7-6.4
		c0.1-2.9-0.8-6.8-4.4-6.8c-5.1,0-5.8-4-8.9-6.7c3.3-0.7,5.3,0.5,7.3,1.1c1.6,0.5,3.4,0.5,3.9-1c0.4-1.5,1.9-3.3,0.1-5
		c-2.1-2.1-3.9-4.5-6.1-6.6c-8.2-8-13.1-17.4-13.6-28.9c-0.4-9.1-0.3-9.1,8.7-7.1c0.3,0.1,0.6-0.1,1.1-0.2c-0.5-2.9-2.3-5.2-3.9-7.3
		c-2.2-3-1.3-4.9,0.9-7.2c2.9-3.2,6.4-5.8,8.2-9.9c0.1,0,0.3-0.1,0.4-0.1c0.1,0,0-0.2,0-0.3c-0.1,0.2-0.3,0.3-0.4,0.5
		c-3.1-0.6-5.9,0.8-8.8,1.5c-3,0.8-3.7-0.3-3.2-3c1.1-6.2,2.3-12.2,7.3-16.9c2.6-2.4,4.6-3.3,7.8-1.7c5,2.5,10.1,4.7,15.8,7.3
		c-0.8-6.7-1.2-12.7-2.4-18.6c-1.3-6.6-0.3-13.7-4.4-19.7c-2.1-3.1-1.9-10.9,1.2-13.2c2.8-2.1,6.7-1.5,9.9,0.3
		c1,0.6,2.2,0.9,3.1,1.6c2.5,1.7,4.9,1.4,7.5,0.1c7-3.5,14-6.9,21.2-10c4.1-1.8,3.5-3.1,1.1-6.2c-6.7-8.6-15.7-15.6-18.7-26.7
		c-0.2-0.7-0.9-1.5-1.6-1.9c-8.4-5.3-12.1-13.3-12.8-22.9c-0.1-0.7-0.3-1.4-0.7-2.8c-1.8,4.5-3.3,8.3-5.1,12.8
		c-2.9-6.5-5.4-12.1-8.3-18.7c-2.5,6.1-4.5,11.2-6.6,16.2c-0.6,1.3-0.8,3.2-2.6,3.3c-7.3,0.5-14.7,3.2-21.7,0.6
		c-7.7-2.8-14.5-2.5-21.4,1.5c-4.5,2.6-8.8,2.8-13.4-0.1c-4.3-2.7-9-4.4-13.9-1c-3.4,2.4-6.8,1.3-10.3-0.1
		c-13.1-5.2-26.4-10.3-39.5-15.5c-3.8-1.5-7.5-1.8-12.7-0.8c7.8,3.7,14.8,6.7,21.5,10.3c2.7,1.4,7.6,1.1,6.9,6.5
		c-0.1,0.4,1.2,1,1.9,1.4c2.3,1.4,4.6,2.8,6.9,4.1c10.3,6,10.3,6,13,17.4c0.2,0.9,0.9,2.3-0.5,2.4c-3.4,0.1-6.7,2.2-10.2,0.1
		c-7.9-4.7-16.7-7.4-25.1-11c-4.6-1.9-8.9-2.6-13.5-0.8c-2.7,1.1-5.1,0.6-7.7-0.4c-10.8-4-21.6-7.9-32.3-11.9
		c-5.1-1.9-11.3-1.3-14.3,1.3c-4,3.6-6.4,2-9.8,0.8c-1.2-0.4-2.9-2.1-3.5,0.4c-0.4,1.6-1.1,3.7,1.4,4.7c1.5,0.7,3.5,0.7,4.5,3.2
		c-1.3-0.2-2.1-0.1-2.8-0.4c-1.8-0.7-2.9-1-3.6,1.5c-0.7,2.9,1.2,3,2.9,3.6c12.7,4.4,25.4,8.8,39.3,13.5c-3.6,1.7-6.1,2.8-8.6,4
		c-1.3,0.6-2.5,0.4-2.9-0.8c-2.6-7.1-9.1-5.4-14.3-6.6c-0.9-0.2-2.4-0.8-2.8,1.1c-0.5,2.5,3.1,10.5,5.6,12c3.6,2.2,4.7,7.3,1.2,8.9
		c-5.5,2.5-1.7,4.2-0.3,6.2c0.6,0.8,0.8,1.7,1.1,2.6c2.1,6.4,4,12.9,6.7,19.1c2.6,5.7,2.4,11,0.7,16.4c-2.2,0.5-2.3-3.2-4.5-1.5
		c-1.8,1.4-2.1,3.5-1.2,5.4c1.4,3.2,0.7,5.8-1.5,8.2c-1.8,2-2.8,4.5-3.5,7.1c-0.7,2.9-2.5,4-5.3,4.3c-4.5,0.6-8.9,1.3-13.3,2.1
		c-0.9,0.1-2.3-0.1-2.5,1.1c-0.2,1.3,1,2.1,2.1,2.4c1.3,0.3,2.6,0.3,4,0.3c5.4,0.2,10.8,0.1,16.2,1.3c-1.8,6.6-9,9.1-9.9,16.6
		c-2.7-3.6-4.7-6.5-8.9-7.8c2.5,13.1,7.5,25.4,3.8,38.8c-2.2-1.3-3.9-2.4-5.7-3.2c-1.3-0.7-2.9-2.8-4.3-0.8c-1.7,2.4,1.2,2.9,2.4,4
		c2.5,2.2,7.3,4,7.4,6.2c0.3,5.4,5.5,8.3,5.2,13.9c-0.1,3.3,1.1,7.1,1.8,10.7c0.5,2.5,1.6,3.8,4.3,4.6c6,1.8,11.9,0.6,17.8,0.5
		c5.5-0.1,7.7-4.1,5.7-9.2c-1.6-4.2-4.8-7.4-7.8-11.3c2.8-0.5,5.9,0.2,6.5-2.6c0.7-2.9,0.3-6-2.7-8c-2.4-1.7-2.4-4.6-3.5-7
		c-1-2.3-0.8-5-4.1-6.3c-1.7-0.6-2.9-3.4-0.2-5.3c1.9-1.4,2-3.5,2.4-5.7c1.2-6.7,2.8-13,9.1-17.4c9.9-7,19.3-14.9,25.4-25.8
		c3.6-6.3,3.3-6.9-4.5-9.2c7-3.1,9.5-8.4,9.2-15.2c-0.1-1.7,0.9-2,2.2-1.3c1.2,0.5,2.5,0.9,1.8,2.9c-1.8,4.7-0.9,5.9,4.1,6.6
		c1.4,0.2,3.7-1.5,4.2,0.9c0.5,2-1.1,3.4-2.5,4.9c-5.1,5.6-10.2,11.5-5.4,19.9c0.7,1.3,0,2.3-0.5,3.2c-2.5,4.7-5.1,9.3-7.6,14.1
		c-1.1,2.1-2.1,2.3-3.6,0.4c-2-2.4-4.2-4.5-7.7-5.5c0.3,2.5,0,5.1,2.1,6.2c4.2,2.1,4.4,5.8,4.9,9.7c0.6,4.3,1,8.6,3.1,12.5
		c1.6,3.1,0.4,6.6-1.4,8.9c-1.3,1.7-3.6-1.2-5.5-1.8c-1-0.3-2-1.8-3-0.4c-0.9,1.3,0.3,2.1,1.2,2.8c0.7,0.5,1.4,1,2.1,1.4
		c8.4,4.5,11.9,12.2,13.8,21c0.8,3.9,2.5,7.1,7.3,7.4c5.3,0.3,10.6,1.3,15.9,1.1c2.8-0.1,5.6,0,6.2-3.5c0.5-3.2-0.4-7.3-2.9-8.4
		c-3.3-1.4-4.2-4.2-6.7-6.1c2.8,0.7,4.1-1.1,5.1-2.9c1-1.7,0.2-3.4-1.1-4.4c-3.9-2.9-5.2-7.2-7-11.3c-0.5-1.2-0.8-3.4-2-3.1
		c-4.5,1.1-3.1-2.3-3.2-4.1c-0.6-11.7,7.1-20.3,11.3-30.3c1-2.5,2.5-2.5,4.3-0.1c4.8,6.7,7.9,13.6,6.6,22.3
		c-0.6,3.6-1.2,4.1-3.9,1.3c-0.4,3.4-0.2,5.9,1,8.7c1.5,3.4,0,7.4-2.5,9.5c-2,1.7-3.3-2.2-5.1-3.3c-0.6-0.3-0.9-0.9-1.4-1.4
		c-0.8-0.7-1.6-1.2-2.6-0.3c-1,0.9-0.6,1.8,0.1,2.6c1.1,1.3,2.2,2.5,3.3,3.7c2.2,2.5,5.2,5.3,4.5,8.5c-1,4.8,1,8.5,2.8,12.3
		c2.1,4.5,3.1,9,2.3,14c-0.8,5.1,3.2,12.8,6.8,13c7.1,0.5,14,2.5,21.2,1.4c2.3-0.3,3.5-1,4.5-3.1c1.7-3.8,1.2-6.9-1.4-10.2
		c-3.1-3.9-5.9-8.1-8.8-12.1c3.2,0.4,5.8-0.3,8.6-0.5c2.8-0.3,2.6-1.3,1.9-3.1c-3.2-7.9-5.4-16.1-7.5-24.3c-0.4-1.6-0.8-3-2.9-1.7
		l0.1,0.1c-0.8-10.2,0.9-20.2,1.1-30.3c0.1-2.3,2-2.9,3.4-3.9c4.4-2.9,8.1-6.4,10.6-11c2.4-4.6,2.2-4.8-3-5.8
		c-1.6-0.3-4.7,1.7-4.6-1.6c0.1-2-1.3-4.3-0.3-5.7c3.1-4.2,7.2-7.4,12.5-9c2.9-0.9,4.2,1.4,6.1,2.3c1.9,0.8,3.7,2,5.9,3.3
		c0.5-2,0.7-3.7,1.3-5.2c0.5-1.5,2.1-1.9,3.3-1.6c1.5,0.4,1,1.9,0.5,2.9c-1.4,2.6-2.7,5.2-4.3,7.7c-2,3.1-2.4,19.1-0.1,22
		c1.4,1.8,3.1,3.5,4.6,5.2c0.9,1,1.8,2,1.8,3.4C582.6,784,584.3,790.7,583.6,797.5z M374.6,1138.5c-2.7-1.4-5.5-2.7-8.5-4.2
		c-0.1,3.8,1.5,5.6,4,7.4c3,2.1,4.5,5.3,2.3,9.1c-2.3,4.1-4.5,0.5-6.7,0c-1-0.2-2.1-1.7-3-0.1c-0.9,1.7,0.5,2.7,1.7,3
		c8.1,2.2,10.8,9.3,13,15.9c2.6,8,9.3,13.3,11.9,21.1c0.4,1.2,1.6,1.7,2.8,1.7c6.5-0.1,12.8,1.6,19.4,0.5c4.2-0.7,4.6-3.8,4.7-6.4
		c0.1-2.9-0.8-6.8-4.4-6.8c-5.1,0-5.8-4-8.9-6.7c3.3-0.7,5.3,0.5,7.3,1.1c1.6,0.5,3.4,0.5,3.9-1c0.4-1.5,1.9-3.3,0.1-5
		c-2.1-2.1-3.9-4.5-6.1-6.6c-8.2-8-13.1-17.4-13.6-28.9c-0.4-9.1-0.3-9.1,8.7-7.1c0.3,0.1,0.6-0.1,1.1-0.2c-0.5-2.9-2.3-5.2-3.9-7.3
		c-2.2-3-1.3-4.9,0.9-7.2c2.9-3.2,6.4-5.8,8.2-9.9c0.1,0,0.3-0.1,0.4-0.1c0.1,0,0-0.2,0-0.3c-0.1,0.2-0.3,0.3-0.4,0.5
		c-3.1-0.6-5.9,0.8-8.8,1.5c-3,0.8-3.7-0.3-3.2-3c1.1-6.2,2.3-12.2,7.3-16.9c2.6-2.4,4.6-3.3,7.8-1.7c5,2.5,10.1,4.7,15.9,7.3
		c-0.8-6.7-1.2-12.7-2.4-18.5c-1.3-6.6-0.3-13.7-4.4-19.7c-2.1-3.1-1.9-10.9,1.2-13.2c2.8-2.1,6.7-1.5,9.9,0.3
		c1,0.6,2.2,0.9,3.1,1.6c2.5,1.7,4.9,1.4,7.5,0.1c7-3.5,14-6.9,21.2-10c4.1-1.8,3.5-3.1,1.1-6.2c-6.7-8.6-15.7-15.6-18.7-26.7
		c-0.2-0.7-0.9-1.5-1.6-1.9c-8.4-5.3-12.1-13.3-12.8-22.9c-0.1-0.7-0.3-1.4-0.7-2.8c-1.8,4.5-3.3,8.3-5.1,12.8
		c-2.9-6.5-5.4-12.1-8.3-18.7c-2.5,6.1-4.5,11.2-6.6,16.2c-0.6,1.3-0.8,3.2-2.6,3.3c-7.3,0.5-14.7,3.2-21.7,0.6
		c-7.7-2.8-14.5-2.5-21.4,1.5c-4.5,2.6-8.8,2.8-13.4-0.1c-4.3-2.7-9-4.4-13.9-1c-3.4,2.4-6.8,1.3-10.3-0.1
		c-13.1-5.2-26.4-10.3-39.5-15.5c-3.8-1.5-7.5-1.8-11.6-1c0.3,0.4,0.4,0.8,0.6,0.9c6.6,3.2,13.3,6.1,19.8,9.5
		c2.7,1.4,7.6,1.1,6.9,6.5c-0.1,0.4,1.2,1,1.9,1.4c2.3,1.4,4.6,2.8,6.9,4.1c10.3,6,10.3,6,13,17.4c0.2,0.9,0.9,2.3-0.5,2.4
		c-3.4,0.1-6.7,2.2-10.2,0.1c-7.9-4.7-16.7-7.4-25.1-11c-4.6-1.9-8.9-2.6-13.5-0.8c-2.7,1.1-5.1,0.6-7.7-0.4
		c-10.8-4-21.6-7.9-32.3-11.9c-5.1-1.9-11.3-1.3-14.3,1.3c-4,3.6-6.4,2.1-9.8,0.8c-1.2-0.4-2.9-2.1-3.5,0.4
		c-0.4,1.6-1.1,3.7,1.4,4.7c1.5,0.7,3.5,0.7,4.5,3.2c-1.3-0.2-2.1-0.1-2.8-0.4c-1.8-0.7-2.9-1-3.6,1.5c-0.7,2.9,1.2,3,2.8,3.6
		c12.7,4.4,25.4,8.8,38.7,13.3c-2.6,2.4-5.5,2.9-7.9,4.2c-1.2,0.7-2.5,0.5-2.9-0.8c-2.6-7.1-9.1-5.4-14.3-6.6
		c-0.9-0.2-2.4-0.8-2.8,1.1c-0.5,2.5,3.1,10.5,5.6,12c3.6,2.2,4.7,7.3,1.2,8.9c-5.5,2.5-1.7,4.2-0.3,6.2c0.6,0.8,0.8,1.7,1.1,2.6
		c2.1,6.4,4,12.9,6.7,19.1c2.6,5.7,2.4,11,0.7,16.3c-2.3,0.7-2.4-3.2-4.5-1.4c-1.8,1.4-2.1,3.5-1.2,5.5c1.4,3.2,0.7,5.8-1.5,8.2
		c-1.8,2-2.8,4.5-3.5,7.1c-0.7,2.9-2.5,4-5.3,4.3c-4.5,0.6-8.9,1.3-13.3,2.1c-0.9,0.1-2.3-0.1-2.5,1.1c-0.2,1.3,1,2.1,2.1,2.4
		c1.3,0.3,2.6,0.3,4,0.3c5.4,0.2,10.8,0.1,16.1,1.3c-1.6,6.6-9,9-9.8,16.6c-2.8-3.5-4.7-6.4-9-7.8c2.5,13.1,7.5,25.4,3.8,38.8
		c-2.2-1.3-3.9-2.4-5.7-3.2c-1.3-0.7-2.9-2.8-4.3-0.8c-1.7,2.4,1.2,2.9,2.4,4c2.5,2.2,7.3,4,7.4,6.2c0.3,5.4,5.5,8.3,5.2,13.9
		c-0.1,3.3,1.1,7.1,1.8,10.7c0.5,2.5,1.6,3.8,4.3,4.6c6,1.8,11.9,0.6,17.8,0.5c5.5-0.1,7.7-4.1,5.7-9.2c-1.6-4.2-4.8-7.4-7.8-11.3
		c2.8-0.5,5.9,0.2,6.5-2.6c0.7-2.9,0.3-6-2.7-8c-2.4-1.7-2.4-4.6-3.5-7c-1-2.3-0.8-5-4.1-6.3c-1.7-0.6-2.9-3.4-0.2-5.3
		c1.9-1.4,2-3.5,2.4-5.7c1.2-6.7,2.8-13,9.1-17.4c9.9-7,19.3-14.9,25.4-25.8c3.6-6.3,3.3-6.9-4.5-9.2c7-3.1,9.5-8.4,9.2-15.2
		c-0.1-1.7,0.9-2,2.2-1.3c1.2,0.5,2.5,0.9,1.8,2.9c-1.8,4.7-0.9,5.9,4.1,6.6c1.4,0.2,3.7-1.5,4.2,0.9c0.5,2-1.1,3.4-2.5,4.9
		c-5.1,5.6-10.2,11.5-5.4,19.9c0.7,1.3,0,2.3-0.5,3.2c-2.5,4.7-5.1,9.3-7.6,14.1c-1.1,2.1-2.1,2.3-3.6,0.4c-2-2.4-4.2-4.5-8-5.6
		c0.8,2.5,0.3,5.2,2.4,6.3c4.2,2.1,4.4,5.8,4.9,9.7c0.6,4.3,1,8.6,3.1,12.5c1.6,3.1,0.4,6.6-1.4,8.9c-1.3,1.7-3.6-1.2-5.5-1.8
		c-1-0.3-2-1.8-3-0.4c-0.9,1.3,0.3,2.1,1.2,2.8c0.7,0.5,1.4,1,2.1,1.4c8.4,4.5,11.9,12.2,13.8,21c0.8,3.9,2.5,7.1,7.3,7.4
		c5.3,0.3,10.6,1.3,15.9,1.1c2.8-0.1,5.6,0,6.2-3.5c0.5-3.2-0.4-7.3-2.9-8.4c-3.3-1.4-4.2-4.2-6.7-6.1c2.8,0.7,4.1-1.1,5.1-2.9
		c1-1.7,0.2-3.4-1.1-4.4c-3.9-2.9-5.2-7.2-7-11.3c-0.5-1.2-0.8-3.4-2-3.1c-4.5,1.1-3.1-2.3-3.2-4.1c-0.6-11.7,7.1-20.3,11.3-30.3
		c1-2.5,2.5-2.5,4.3-0.1c4.8,6.7,7.9,13.6,6.6,22.3c-0.6,3.6-1.2,4.1-3.9,1.3c-0.4,3.4-0.2,5.9,1,8.7c1.5,3.4,0,7.4-2.5,9.5
		c-2,1.7-3.3-2.2-5.1-3.3c-0.6-0.3-0.9-0.9-1.4-1.4c-0.8-0.7-1.6-1.2-2.6-0.3c-1,0.9-0.6,1.8,0.1,2.6c1.1,1.3,2.2,2.5,3.3,3.7
		c2.2,2.5,5.2,5.3,4.5,8.5c-1,4.8,1,8.5,2.8,12.3c2.1,4.5,3.1,9,2.3,14c-0.8,5.1,3.2,12.8,6.8,13c7.1,0.5,14,2.5,21.2,1.4
		c2.3-0.3,3.5-1,4.5-3.1c1.7-3.8,1.2-6.9-1.4-10.2c-3.1-3.9-5.9-8.1-8.8-12.1c3.2,0.4,5.8-0.3,8.6-0.5c2.8-0.3,2.6-1.3,1.9-3.1
		c-3.2-7.9-5.4-16.1-7.5-24.3c-0.4-1.6-0.8-3-2.9-1.7l0.1,0.1c-0.8-10.2,0.9-20.2,1.1-30.3c0.1-2.3,2-2.9,3.4-3.9
		c4.4-2.9,8.1-6.4,10.6-11c2.4-4.6,2.2-4.8-3-5.8c-1.6-0.3-4.7,1.7-4.6-1.6c0.1-2-1.3-4.3-0.3-5.7c3.1-4.2,7.2-7.4,12.5-9
		c2.9-0.9,4.2,1.4,6.1,2.3c1.9,0.8,3.7,2,5.9,3.3c0.5-2,0.7-3.7,1.3-5.2c0.5-1.5,2.1-1.9,3.3-1.6c1.5,0.4,1,1.9,0.5,2.9
		c-1.4,2.6-2.7,5.2-4.3,7.7c-2,3.1-2.4,19.1-0.1,22c1.4,1.8,3.1,3.5,4.6,5.2c0.9,1,1.8,1.9,1.8,3.4
		C373.6,1125,375.3,1131.7,374.6,1138.5z M235.7,519.6c-3.1-0.6-5.9,0.8-8.8,1.5c-3,0.8-3.7-0.3-3.2-3c1.1-6.2,2.3-12.2,7.3-16.9
		c2.6-2.4,4.6-3.3,7.8-1.7c5,2.5,10.1,4.7,15.9,7.3c-0.8-6.7-1.2-12.7-2.4-18.6c-1.3-6.6-0.3-13.7-4.4-19.7
		c-2.1-3.1-1.9-10.9,1.2-13.2c2.8-2.1,6.7-1.5,9.9,0.3c1,0.6,2.2,0.9,3.1,1.6c2.5,1.7,4.9,1.4,7.5,0.1c7-3.5,14-6.9,21.2-10
		c4.1-1.8,3.5-3.1,1.1-6.2c-6.7-8.6-15.7-15.6-18.7-26.7c-0.2-0.7-0.9-1.5-1.6-1.9c-8.4-5.3-12.1-13.3-12.8-22.9
		c-0.1-0.7-0.3-1.4-0.7-2.8c-1.8,4.5-3.3,8.3-5.1,12.8c-2.9-6.5-5.4-12.1-8.3-18.7c-2.5,6.1-4.5,11.2-6.6,16.2
		c-0.6,1.3-0.8,3.2-2.6,3.3c-7.3,0.5-14.7,3.2-21.7,0.6c-7.7-2.8-14.5-2.5-21.4,1.5c-4.5,2.6-8.8,2.8-13.4-0.1
		c-4.3-2.7-9-4.4-13.9-1c-3.4,2.4-6.8,1.3-10.3-0.1c-13.1-5.2-26.4-10.3-39.5-15.5c-3.8-1.5-7.5-1.8-12.7-0.8
		c7.8,3.7,14.8,6.7,21.5,10.3c2.7,1.4,7.6,1.1,6.9,6.5c-0.1,0.4,1.2,1,1.9,1.4c2.3,1.4,4.6,2.8,6.9,4.1c10.3,6,10.3,6,13,17.4
		c0.2,0.9,0.9,2.3-0.5,2.4c-3.4,0.1-6.7,2.2-10.2,0.1c-7.9-4.7-16.7-7.4-25.1-11c-4.6-1.9-8.9-2.6-13.5-0.8
		c-2.7,1.1-5.1,0.6-7.7-0.4c-10.8-4-21.6-7.9-32.3-11.9c-5.1-1.9-11.3-1.3-14.3,1.3c-4,3.6-6.4,2-9.8,0.8c-1.2-0.4-2.9-2.1-3.5,0.4
		c-0.4,1.6-1.1,3.7,1.4,4.7c1.5,0.7,3.5,0.7,4.5,3.2c-1.3-0.2-2.1-0.1-2.8-0.4c-1.8-0.7-2.9-1-3.6,1.5c-0.7,2.9,1.2,3,2.8,3.6
		c12.7,4.4,25.4,8.8,38.7,13.3c-2.6,2.4-5.5,2.9-7.9,4.2c-1.2,0.7-2.5,0.5-2.9-0.8c-2.6-7.1-9.1-5.4-14.3-6.6
		c-0.9-0.2-2.4-0.8-2.8,1.1c-0.5,2.5,3.1,10.5,5.6,12c3.6,2.2,4.7,7.3,1.2,8.9c-5.5,2.5-1.7,4.2-0.3,6.2c0.6,0.8,0.8,1.7,1.1,2.6
		c2.1,6.4,4,12.9,6.7,19.1c2.6,5.7,2.4,11,0.7,16.4c-2.2,0.5-2.3-3.2-4.5-1.5c-1.8,1.4-2.1,3.5-1.2,5.4c1.4,3.2,0.7,5.8-1.5,8.2
		c-1.8,2-2.8,4.5-3.5,7.1c-0.7,2.9-2.5,4-5.3,4.3c-4.5,0.6-8.9,1.3-13.3,2.1c-0.9,0.1-2.3-0.1-2.5,1.1c-0.2,1.3,1,2.1,2.1,2.4
		c1.3,0.3,2.6,0.3,4,0.3c5.4,0.2,10.8,0.1,16.1,1.3c-1.6,6.6-9,9-9.8,16.6c-2.8-3.5-4.7-6.4-9-7.8c2.5,13.1,7.5,25.4,3.8,38.8
		c-2.2-1.3-3.9-2.4-5.7-3.2c-1.3-0.7-2.9-2.8-4.3-0.8c-1.7,2.4,1.2,2.9,2.4,4c2.5,2.2,7.3,4,7.4,6.2c0.3,5.4,5.5,8.3,5.2,13.9
		c-0.1,3.3,1.1,7.1,1.8,10.7c0.5,2.5,1.6,3.8,4.3,4.6c6,1.8,11.9,0.6,17.8,0.5c5.5-0.1,7.7-4.1,5.7-9.2c-1.6-4.2-4.8-7.4-7.7-11.1
		c2.6-0.9,5.7,0,6.4-2.8c0.7-3,0.3-6-2.7-8c-2.4-1.7-2.4-4.6-3.5-7c-1-2.3-0.8-5-4.1-6.3c-1.7-0.6-2.9-3.4-0.2-5.3
		c1.9-1.4,2-3.5,2.4-5.7c1.2-6.7,2.8-13,9.1-17.4c9.9-7,19.3-14.9,25.4-25.8c3.6-6.3,3.3-6.9-4.8-9.3c7.9-2.7,9.6-8.4,9.5-15.1
		c0-1.7,0.9-2,2.3-1.3c1.2,0.5,2.5,0.9,1.8,2.9c-1.8,4.7-0.9,5.9,4.1,6.6c1.4,0.2,3.7-1.5,4.2,0.9c0.5,2-1.1,3.4-2.5,4.9
		c-5.1,5.6-10.2,11.5-5.4,19.9c0.7,1.3,0,2.3-0.5,3.2c-2.5,4.7-5.1,9.3-7.6,14.1c-1.1,2.1-2.1,2.3-3.6,0.4c-2-2.4-4.2-4.5-7.7-5.5
		c0.3,2.5,0,5.1,2.1,6.2c4.2,2.1,4.4,5.8,4.9,9.7c0.6,4.3,1,8.6,3.1,12.5c1.6,3.1,0.4,6.6-1.4,8.9c-1.3,1.7-3.6-1.2-5.5-1.8
		c-1-0.3-2-1.8-3-0.4c-0.9,1.3,0.3,2.1,1.2,2.8c0.7,0.5,1.4,1,2.1,1.4c8.4,4.5,11.9,12.2,13.8,21c0.8,3.9,2.5,7.1,7.3,7.4
		c5.3,0.3,10.6,1.3,15.9,1.1c2.8-0.1,5.6,0,6.2-3.5c0.5-3.2-0.4-7.3-2.9-8.4c-3.3-1.4-4.2-4.2-6.7-6.1c2.8,0.7,4.1-1.1,5.1-2.9
		c1-1.7,0.2-3.4-1.1-4.4c-3.9-2.9-5.2-7.2-7-11.3c-0.5-1.2-0.8-3.4-2-3.1c-4.5,1.1-3.1-2.3-3.2-4.1c-0.6-11.7,7.1-20.3,11.3-30.3
		c1-2.5,2.5-2.5,4.3-0.1c4.8,6.7,7.9,13.6,6.6,22.3c-0.6,3.6-1.2,4.1-3.9,1.3c-0.4,3.4-0.2,5.9,1,8.7c1.5,3.4,0,7.4-2.5,9.5
		c-2,1.7-3.3-2.2-5.1-3.3c-0.6-0.3-0.9-0.9-1.4-1.4c-0.8-0.7-1.6-1.2-2.6-0.3c-1,0.9-0.6,1.8,0.1,2.6c1.1,1.3,2.2,2.5,3.3,3.7
		c2.2,2.5,5.2,5.3,4.5,8.5c-1,4.8,1,8.5,2.8,12.3c2.1,4.5,3.1,9,2.3,14c-0.8,5.1,3.2,12.8,6.8,13c7.1,0.5,14,2.5,21.2,1.4
		c2.3-0.3,3.5-1,4.5-3.1c1.7-3.8,1.2-6.9-1.4-10.2c-3.1-3.9-5.9-8.1-8.8-12.1c3.2,0.7,5.9-0.4,8.6-0.6c2.8-0.2,2.6-1.3,1.9-3.1
		c-3.2-7.9-5.4-16.1-7.5-24.3c-0.4-1.6-0.8-3-2.9-1.7l0.1,0.1c-0.8-10.2,0.9-20.2,1.1-30.3c0.1-2.3,2-2.9,3.4-3.9
		c4.4-2.9,8.1-6.4,10.6-11c2.4-4.6,2.2-4.8-3-5.8c-1.6-0.3-4.7,1.7-4.6-1.6c0.1-2-1.3-4.3-0.3-5.7c3.1-4.2,7.2-7.4,12.5-9
		c2.9-0.9,4.2,1.4,6.1,2.3c1.9,0.8,3.7,2,5.9,3.3c0.5-2,0.7-3.7,1.3-5.2c0.5-1.5,2.1-1.9,3.3-1.6c1.5,0.4,1,1.9,0.5,2.9
		c-1.4,2.6-2.7,5.2-4.3,7.7c-2,3.1-2.4,19.1-0.1,22c1.4,1.8,3.1,3.5,4.6,5.2c0.9,1,1.8,1.9,1.8,3.4c0.1,6.8,1.9,13.5,1.1,20.4
		c-2.7-1.4-5.5-2.7-8.5-4.2c-0.1,3.8,1.5,5.6,4,7.4c3,2.1,4.5,5.3,2.3,9.1c-2.3,4.1-4.4,0.5-6.7,0c-1-0.2-2.1-1.7-3-0.1
		c-0.9,1.7,0.5,2.7,1.7,3c8.1,2.2,10.8,9.3,13,15.9c2.6,8,9.3,13.3,11.9,21.1c0.4,1.2,1.6,1.7,2.8,1.7c6.5-0.1,12.8,1.6,19.4,0.5
		c4.2-0.7,4.6-3.8,4.7-6.4c0.1-2.9-0.8-6.8-4.4-6.8c-5.1,0-5.8-4-8.9-6.7c3.3-0.7,5.3,0.5,7.3,1.1c1.6,0.5,3.4,0.5,3.9-1
		c0.4-1.5,1.9-3.3,0.1-5c-2.1-2.1-3.9-4.5-6.1-6.6c-8.2-8-13.1-17.4-13.6-28.9c-0.4-9.1-0.3-9.1,8.7-7.1c0.3,0.1,0.6-0.1,1.1-0.2
		c-0.5-2.9-2.3-5.2-3.9-7.3c-2.2-3-1.3-4.9,0.9-7.2C230.3,526.2,233.8,523.6,235.7,519.6c0.1-0.1,0.3-0.1,0.4-0.2c0.1,0,0-0.2,0-0.3
		C235.9,519.2,235.8,519.4,235.7,519.6z M235.6,889.5c-2.7-1.4-5.5-2.7-8.5-4.2c-0.1,3.8,1.5,5.6,4,7.4c3,2.1,4.5,5.3,2.3,9.1
		c-2.3,4.1-4.5,0.5-6.7,0c-1-0.2-2.1-1.7-3-0.1c-0.9,1.7,0.5,2.7,1.7,3c8.1,2.2,10.8,9.3,13,15.9c2.6,8,9.3,13.3,11.9,21.1
		c0.4,1.2,1.6,1.7,2.8,1.7c6.5-0.1,12.8,1.6,19.4,0.5c4.2-0.7,4.6-3.8,4.7-6.4c0.1-2.9-0.8-6.8-4.4-6.8c-5.1,0-5.8-4-8.9-6.7
		c3.3-0.7,5.3,0.5,7.3,1.1c1.6,0.5,3.4,0.5,3.9-1c0.4-1.5,1.9-3.3,0.1-5c-2.1-2.1-3.9-4.5-6.1-6.6c-8.2-8-13.1-17.4-13.6-28.9
		c-0.4-9.1-0.3-9.1,8.7-7.1c0.3,0.1,0.6-0.1,1.1-0.2c-0.5-2.9-2.3-5.2-3.9-7.3c-2.2-3-1.3-4.9,0.9-7.2c2.9-3.2,6.4-5.8,8.2-9.9
		c0.1,0,0.3-0.1,0.4-0.1c0.1,0,0-0.2,0-0.3c-0.1,0.2-0.3,0.3-0.4,0.5c-3.1-0.6-5.9,0.8-8.8,1.5c-3,0.8-3.7-0.3-3.2-3
		c1.1-6.2,2.3-12.2,7.3-16.9c2.6-2.4,4.6-3.3,7.8-1.7c5,2.5,10.1,4.7,15.9,7.3c-0.8-6.7-1.2-12.7-2.4-18.6
		c-1.3-6.6-0.3-13.7-4.4-19.7c-2.1-3.1-1.9-10.9,1.2-13.2c2.8-2.1,6.7-1.5,9.9,0.3c1,0.6,2.2,0.9,3.1,1.6c2.5,1.7,4.9,1.4,7.5,0.1
		c7-3.5,14-6.9,21.2-10c4.1-1.8,3.5-3.1,1.1-6.2c-6.7-8.6-15.7-15.6-18.7-26.7c-0.2-0.7-0.9-1.5-1.6-1.9
		c-8.4-5.3-12.1-13.3-12.8-22.9c-0.1-0.7-0.3-1.4-0.7-2.8c-1.8,4.5-3.3,8.3-5.1,12.8c-2.9-6.5-5.4-12.1-8.3-18.7
		c-2.5,6.1-4.5,11.2-6.6,16.2c-0.6,1.3-0.8,3.2-2.6,3.3c-7.3,0.5-14.7,3.2-21.7,0.6c-7.7-2.8-14.5-2.5-21.4,1.5
		c-4.5,2.6-8.8,2.8-13.4-0.1c-4.3-2.7-9-4.4-13.9-1c-3.4,2.4-6.8,1.3-10.3-0.1c-13.1-5.2-26.4-10.3-39.5-15.5
		c-3.8-1.5-7.5-1.8-12.7-0.8c7.8,3.7,14.8,6.7,21.5,10.3c2.7,1.4,7.6,1.1,6.9,6.5c-0.1,0.4,1.2,1,1.9,1.4c2.3,1.4,4.6,2.8,6.9,4.1
		c10.3,6,10.3,6,13,17.4c0.2,0.9,0.9,2.3-0.5,2.4c-3.4,0.1-6.7,2.2-10.2,0.1c-7.9-4.7-16.7-7.4-25.1-11c-4.6-1.9-8.9-2.6-13.5-0.8
		c-2.7,1.1-5.1,0.6-7.7-0.4c-10.8-4-21.6-7.9-32.3-11.9c-5.1-1.9-11.3-1.3-14.3,1.3c-4,3.6-6.4,2-9.8,0.8c-1.2-0.4-2.9-2.1-3.5,0.4
		c-0.4,1.6-1.1,3.7,1.4,4.7c1.5,0.7,3.5,0.7,4.5,3.2c-1.3-0.2-2.1-0.1-2.8-0.4c-1.8-0.7-2.9-1-3.6,1.5c-0.7,2.9,1.2,3,2.9,3.6
		c12.7,4.4,25.4,8.8,38.7,13.3c-2.6,2.4-5.5,2.9-7.9,4.2c-1.2,0.7-2.5,0.5-2.9-0.8c-2.6-7.1-9.1-5.4-14.3-6.6
		c-0.9-0.2-2.4-0.8-2.8,1.1c-0.5,2.5,3.1,10.5,5.6,12c3.6,2.2,4.7,7.3,1.2,8.9c-5.5,2.5-1.7,4.2-0.3,6.2c0.6,0.8,0.8,1.7,1.1,2.6
		c2.1,6.4,4,12.9,6.7,19.1c2.6,5.7,2.4,11,0.7,16.4c-2.2,0.5-2.3-3.2-4.5-1.5c-1.8,1.4-2.1,3.5-1.2,5.4c1.4,3.2,0.7,5.8-1.5,8.2
		c-1.8,2-2.8,4.5-3.5,7.1c-0.7,2.9-2.5,4-5.3,4.3c-4.5,0.6-8.9,1.3-13.3,2.1c-0.9,0.1-2.3-0.1-2.5,1.1c-0.2,1.3,1,2.1,2.1,2.4
		c1.3,0.3,2.6,0.3,4,0.3c5.4,0.2,10.8,0.1,16.1,1.3c-1.6,6.6-9,9-9.8,16.6c-2.8-3.5-4.7-6.4-9-7.8c2.5,13.1,7.5,25.4,3.8,38.8
		c-2.1-1.2-3.6-2.2-5.3-3c-1.5-0.7-3.2-3.2-4.7-1c-1.8,2.6,1.5,3.1,2.8,4.2c2.3,2.1,6.9,3.9,7,5.9c0.1,5.4,5.4,8.3,5.2,13.9
		c-0.1,3.3,1.1,7.1,1.8,10.7c0.5,2.5,1.6,3.8,4.3,4.6c6,1.8,11.9,0.6,17.8,0.5c5.5-0.1,7.7-4.1,5.7-9.2c-1.6-4.2-4.8-7.4-7.7-11.1
		c2.6-0.9,5.7,0,6.4-2.8c0.7-3,0.3-6-2.7-8c-2.4-1.7-2.4-4.6-3.5-7c-1-2.3-0.8-5-4.1-6.3c-1.7-0.6-2.8-3.4-0.2-5.3
		c1.9-1.4,2-3.5,2.4-5.7c1.2-6.7,2.8-13,9.1-17.4c9.9-7,19.3-14.9,25.4-25.8c3.6-6.3,3.3-6.8-4.8-9.3c7.9-2.7,9.6-8.4,9.5-15.1
		c0-1.7,0.9-2,2.3-1.3c1.2,0.5,2.5,0.9,1.8,2.9c-1.8,4.7-0.9,5.9,4.1,6.6c1.4,0.2,3.7-1.5,4.2,0.9c0.5,2-1.1,3.4-2.5,4.9
		c-5.1,5.6-10.2,11.5-5.4,19.9c0.7,1.3,0,2.3-0.5,3.2c-2.5,4.7-5.1,9.3-7.6,14.1c-1.1,2.1-2.1,2.3-3.6,0.4c-2-2.4-4.2-4.5-8-5.6
		c0.8,2.5,0.3,5.2,2.4,6.3c4.2,2.1,4.4,5.8,4.9,9.7c0.6,4.3,1,8.6,3.1,12.5c1.6,3.1,0.4,6.6-1.4,8.9c-1.3,1.7-3.6-1.2-5.5-1.8
		c-1-0.3-2-1.8-3-0.4c-0.9,1.3,0.3,2.1,1.2,2.8c0.7,0.5,1.4,1,2.1,1.4c8.4,4.5,11.9,12.2,13.8,21c0.8,3.9,2.5,7.1,7.3,7.4
		c5.3,0.3,10.6,1.3,15.9,1.1c2.8-0.1,5.6,0,6.2-3.5c0.5-3.2-0.4-7.3-2.9-8.4c-3.3-1.4-4.2-4.2-6.7-6.1c2.8,0.7,4.1-1.1,5.1-2.9
		c1-1.7,0.2-3.4-1.1-4.4c-3.9-2.9-5.2-7.2-7-11.3c-0.5-1.2-0.8-3.4-2-3.1c-4.5,1.1-3.1-2.3-3.2-4.1c-0.6-11.7,7.1-20.3,11.3-30.3
		c1-2.5,2.5-2.5,4.3-0.1c4.8,6.7,7.9,13.6,6.6,22.3c-0.6,3.6-1.2,4-3.9,1.3c-0.4,3.4-0.2,5.9,1,8.7c1.5,3.4,0,7.4-2.5,9.5
		c-2,1.7-3.3-2.2-5.1-3.3c-0.6-0.3-0.9-0.9-1.4-1.4c-0.8-0.7-1.6-1.2-2.6-0.3c-1,0.9-0.6,1.8,0.1,2.6c1.1,1.3,2.2,2.5,3.3,3.7
		c2.2,2.5,5.2,5.3,4.5,8.5c-1,4.8,1,8.5,2.8,12.3c2.1,4.5,3.1,9,2.3,14c-0.8,5.1,3.2,12.8,6.8,13c7.1,0.5,14,2.5,21.2,1.4
		c2.3-0.3,3.5-1,4.5-3.1c1.7-3.8,1.2-6.9-1.4-10.2c-3.1-3.9-5.9-8.1-8.8-12.1c3.2,0.4,5.8-0.3,8.6-0.5c2.8-0.3,2.6-1.3,1.9-3.1
		c-3.2-7.9-5.4-16.1-7.5-24.3c-0.4-1.6-0.8-3-2.9-1.7l0.1,0.1c-0.8-10.2,0.9-20.2,1.1-30.3c0.1-2.3,2-2.9,3.4-3.9
		c4.4-2.9,8.1-6.4,10.6-11c2.4-4.6,2.2-4.8-3-5.8c-1.6-0.3-4.7,1.7-4.6-1.6c0.1-2-1.3-4.3-0.3-5.7c3.1-4.2,7.2-7.4,12.5-9
		c2.9-0.9,4.2,1.4,6.1,2.3c1.9,0.8,3.7,2,5.9,3.3c0.5-2,0.7-3.7,1.3-5.2c0.5-1.5,2.1-1.9,3.3-1.6c1.5,0.4,1,1.9,0.5,2.9
		c-1.4,2.6-2.7,5.2-4.3,7.7c-2,3.1-2.4,19.1-0.1,22c1.4,1.8,3.1,3.5,4.6,5.2c0.9,1,1.8,1.9,1.8,3.4
		C234.6,876,236.3,882.7,235.6,889.5z M235.6,1388.5c-2.7-1.4-5.5-2.7-8.5-4.2c-0.1,3.8,1.5,5.6,4,7.4c3,2.1,4.5,5.3,2.3,9.1
		c-2.3,4.1-4.5,0.5-6.7,0c-1-0.2-2.1-1.7-3-0.1c-0.9,1.7,0.5,2.7,1.7,3c8.1,2.2,10.8,9.3,13,15.9c2.6,8,9.3,13.3,11.9,21.1
		c0.4,1.2,1.6,1.7,2.8,1.7c6.5-0.1,12.8,1.6,19.4,0.5c4.2-0.7,4.6-3.8,4.7-6.4c0.1-2.9-0.8-6.8-4.4-6.8c-5.1,0-5.8-4-8.9-6.7
		c3.3-0.7,5.3,0.5,7.3,1.1c1.6,0.5,3.4,0.5,3.9-1c0.4-1.5,1.9-3.3,0.1-5c-2.1-2.1-3.9-4.5-6.1-6.6c-8.2-8-13.1-17.4-13.6-28.9
		c-0.4-9.1-0.3-9.1,8.7-7.1c0.3,0.1,0.6-0.1,1.1-0.2c-0.5-2.9-2.3-5.2-3.9-7.3c-2.2-3-1.3-4.9,0.9-7.2c2.9-3.2,6.4-5.8,8.2-9.9
		c0.1,0,0.3-0.1,0.4-0.1c0.1,0,0-0.2,0-0.3c-0.1,0.2-0.3,0.3-0.4,0.5c-3.1-0.6-5.9,0.8-8.8,1.5c-3,0.8-3.7-0.3-3.2-3
		c1.1-6.2,2.3-12.2,7.3-16.9c2.6-2.4,4.6-3.3,7.8-1.7c5,2.5,10.1,4.7,15.9,7.3c-0.8-6.7-1.2-12.7-2.4-18.5
		c-1.3-6.6-0.3-13.7-4.4-19.7c-2.1-3.1-1.9-10.9,1.2-13.2c2.8-2.1,6.7-1.5,9.9,0.3c1,0.6,2.2,0.9,3.1,1.6c2.5,1.7,4.9,1.4,7.5,0.1
		c7-3.5,14-6.9,21.2-10c4.1-1.8,3.5-3.1,1.1-6.2c-6.7-8.6-15.7-15.6-18.7-26.7c-0.2-0.7-0.9-1.5-1.6-1.9
		c-8.4-5.3-12.1-13.3-12.8-22.9c-0.1-0.7-0.3-1.4-0.7-2.8c-1.8,4.5-3.3,8.3-5.1,12.8c-2.9-6.5-5.4-12.1-8.3-18.7
		c-2.5,6.1-4.5,11.2-6.6,16.2c-0.6,1.3-0.8,3.2-2.6,3.3c-7.3,0.5-14.7,3.2-21.7,0.6c-7.7-2.8-14.5-2.5-21.4,1.5
		c-4.5,2.6-8.8,2.8-13.4-0.1c-4.3-2.7-9-4.4-13.9-1c-3.4,2.4-6.8,1.3-10.3-0.1c-13.1-5.2-26.4-10.3-39.5-15.5
		c-3.8-1.5-7.5-1.8-12.7-0.8c7.8,3.7,14.8,6.7,21.5,10.3c2.7,1.4,7.6,1.1,6.9,6.5c-0.1,0.4,1.2,1,1.9,1.4c2.3,1.4,4.6,2.8,6.9,4.1
		c10.3,6,10.3,6,13,17.4c0.2,0.9,0.9,2.3-0.5,2.4c-3.4,0.1-6.7,2.2-10.2,0.1c-7.9-4.7-16.7-7.4-25.1-11c-4.6-1.9-8.9-2.6-13.5-0.8
		c-2.7,1.1-5.1,0.6-7.7-0.4c-10.8-4-21.6-7.9-32.3-11.9c-5.1-1.9-11.3-1.3-14.3,1.3c-4,3.6-6.4,2.1-9.8,0.8
		c-1.2-0.4-2.9-2.1-3.5,0.4c-0.4,1.6-1.1,3.7,1.4,4.7c1.5,0.7,3.5,0.7,4.5,3.2c-1.3-0.2-2.1-0.1-2.8-0.4c-1.8-0.7-2.9-1-3.6,1.5
		c-0.7,2.8,1.2,3,2.8,3.6c12.7,4.4,25.4,8.8,38.7,13.3c-2.6,2.4-5.5,2.9-7.9,4.2c-1.2,0.7-2.5,0.5-2.9-0.8
		c-2.6-7.1-9.1-5.4-14.3-6.6c-0.9-0.2-2.4-0.8-2.8,1.1c-0.5,2.5,3.1,10.5,5.6,12c3.6,2.2,4.7,7.3,1.2,8.9c-5.5,2.5-1.7,4.2-0.3,6.2
		c0.6,0.8,0.8,1.7,1.1,2.6c2.1,6.4,4,12.9,6.7,19.1c2.6,5.7,2.4,11,0.7,16.4c-2.2,0.5-2.3-3.2-4.5-1.5c-1.8,1.4-2.1,3.5-1.2,5.4
		c1.4,3.2,0.7,5.8-1.5,8.2c-1.8,2-2.8,4.5-3.5,7.1c-0.7,2.9-2.5,4-5.3,4.3c-4.5,0.6-8.9,1.3-13.3,2.1c-0.9,0.1-2.3-0.1-2.5,1.1
		c-0.2,1.3,1,2.1,2.1,2.4c1.3,0.3,2.6,0.3,4,0.3c5.4,0.2,10.8,0.1,16.1,1.3c-1.6,6.6-9,9-9.8,16.6c-2.8-3.5-4.7-6.4-9-7.8
		c2.5,13.1,7.5,25.4,3.8,38.8c-2.2-1.3-3.9-2.4-5.7-3.2c-1.3-0.7-2.9-2.8-4.3-0.8c-1.7,2.4,1.2,2.9,2.4,4c2.5,2.2,7.3,4,7.4,6.2
		c0.3,5.4,5.5,8.3,5.2,13.9c-0.1,3.3,1.1,7.1,1.8,10.7c0.5,2.5,1.6,3.8,4.3,4.6c6,1.8,11.9,0.6,17.8,0.5c5.5-0.1,7.7-4.1,5.7-9.2
		c-1.6-4.2-4.8-7.4-7.7-11.1c2.6-0.9,5.7,0,6.4-2.8c0.7-3,0.3-6-2.7-8c-2.4-1.7-2.4-4.6-3.5-7c-1-2.3-0.8-5-4.1-6.3
		c-1.7-0.6-2.9-3.4-0.2-5.3c1.9-1.4,2-3.5,2.4-5.7c1.2-6.7,2.8-13,9.1-17.4c9.9-7,19.3-14.9,25.4-25.8c3.6-6.3,3.3-6.9-4.5-9.2
		c7-3.1,9.5-8.4,9.2-15.2c-0.1-1.7,0.9-2,2.2-1.3c1.2,0.5,2.5,0.9,1.8,2.9c-1.8,4.7-0.9,5.9,4.1,6.6c1.4,0.2,3.7-1.5,4.2,0.9
		c0.5,2-1.1,3.4-2.5,4.9c-5.1,5.6-10.2,11.5-5.4,19.9c0.7,1.3,0,2.3-0.5,3.2c-2.5,4.7-5.1,9.3-7.6,14.1c-1.1,2.1-2.1,2.3-3.6,0.4
		c-2-2.4-4.2-4.5-7.7-5.5c0.3,2.5,0,5.1,2.1,6.2c4.2,2.1,4.4,5.8,4.9,9.7c0.6,4.3,1,8.6,3.1,12.5c1.6,3.1,0.4,6.6-1.4,8.9
		c-1.3,1.7-3.6-1.2-5.5-1.8c-1-0.3-2-1.8-3-0.4c-0.9,1.3,0.3,2.1,1.2,2.8c0.7,0.5,1.4,1,2.1,1.4c8.4,4.5,11.9,12.2,13.8,21
		c0.8,3.9,2.5,7.1,7.3,7.4c5.3,0.3,10.6,1.3,15.9,1.1c2.8-0.1,5.6,0,6.2-3.5c0.5-3.2-0.4-7.3-2.9-8.4c-3.3-1.4-4.2-4.2-6.7-6.1
		c2.8,0.7,4.1-1.1,5.1-2.9c1-1.7,0.2-3.4-1.1-4.4c-3.9-2.9-5.2-7.2-7-11.3c-0.5-1.2-0.8-3.4-2-3.1c-4.5,1.1-3.1-2.3-3.2-4.1
		c-0.6-11.7,7.1-20.3,11.3-30.3c1-2.5,2.5-2.5,4.3-0.1c4.8,6.7,7.9,13.6,6.6,22.3c-0.6,3.6-1.2,4.1-4.1,1c0,3.6-0.1,6.1,1.2,8.9
		c1.5,3.3,0,7.4-2.5,9.5c-2,1.7-3.3-2.2-5.1-3.3c-0.6-0.3-0.9-0.9-1.4-1.4c-0.8-0.7-1.6-1.2-2.6-0.3c-1,0.9-0.6,1.8,0.1,2.6
		c1.1,1.3,2.2,2.5,3.3,3.7c2.2,2.5,5.2,5.3,4.5,8.5c-1,4.8,1,8.5,2.8,12.3c2.1,4.5,3.1,9,2.3,14c-0.8,5.1,3.2,12.8,6.8,13
		c7.1,0.5,14,2.5,21.2,1.4c2.3-0.3,3.5-1,4.5-3.1c1.7-3.8,1.2-6.9-1.4-10.2c-3.1-3.9-5.9-8.1-8.8-12.1c3.2,0.4,5.8-0.3,8.6-0.5
		c2.8-0.3,2.6-1.3,1.9-3.1c-3.2-7.9-5.4-16.1-7.5-24.3c-0.4-1.6-0.8-3-2.9-1.7l0.1,0.1c-0.8-10.2,0.9-20.2,1.1-30.3
		c0.1-2.3,2-2.9,3.4-3.9c4.4-2.9,8.1-6.4,10.6-11c2.4-4.6,2.2-4.8-3-5.8c-1.6-0.3-4.7,1.7-4.6-1.6c0.1-2-1.3-4.3-0.3-5.7
		c3.1-4.2,7.2-7.4,12.5-9c2.9-0.9,4.2,1.4,6.1,2.3c1.9,0.8,3.7,2,5.9,3.3c0.5-2,0.7-3.7,1.3-5.2c0.5-1.5,2.1-1.9,3.3-1.6
		c1.5,0.4,1,1.9,0.5,2.9c-1.4,2.6-2.7,5.2-4.3,7.7c-2,3.1-2.4,19.1-0.1,22c1.4,1.8,3.1,3.5,4.6,5.2c0.9,1,1.8,1.9,1.8,3.4
		C234.6,1375,236.3,1381.7,235.6,1388.5z"/>
	<path class="st1" d="M964.9,759.8c0.5-7.1-1.3-13.8-1.4-20.6c0-1.5-0.9-2.4-1.8-3.4c-1.6-1.7-3.2-3.4-4.6-5.2
		c-2.2-2.9-1.9-18.9,0.1-22c1.6-2.4,2.9-5.1,4.3-7.7c0.5-1,1-2.5-0.5-2.9c-1.2-0.3-2.8,0-3.3,1.6c-0.5,1.5-0.8,3.2-1.3,5.2
		c-2.2-1.2-4-2.4-5.9-3.3c-2-0.9-3.2-3.2-6.1-2.3c-5.3,1.6-9.3,4.8-12.5,9c-1.1,1.4,0.4,3.7,0.3,5.7c-0.1,3.3,3,1.3,4.6,1.6
		c5.2,1,5.4,1.2,3,5.8c-2.5,4.7-6.2,8.2-10.6,11c-1.5,1-3.4,1.6-3.4,3.9c-0.2,10.1-1.9,20.2-1.1,30.3c-0.1,0.1-0.2,0.2-0.3,0.3
		c0.1-0.1,0.1-0.3,0.2-0.4c2.1-1.3,2.5,0.1,2.9,1.7c2.1,8.2,4.3,16.4,7.5,24.3c0.7,1.8,1,2.9-1.9,3.1c-2.7,0.2-5.3,1.3-8.1-0.6
		c-0.2,0.4-0.3,0.8-0.5,1.2c3.1,4.2,6.1,8.3,9.2,12.4c2.3,3.1,2.6,6.2,1,9.8c-0.9,2.1-2.2,2.8-4.5,3.1c-7.2,1.1-14.2-0.9-21.2-1.4
		c-3.7-0.2-7.6-7.9-6.8-13c0.8-5.2-0.3-9.8-2.5-14.5c-1.8-3.7-3.8-7.3-2.6-11.9c0.6-2.3-1.4-4.6-3-6.6c-1.6-1.9-3.3-3.8-4.9-5.7
		c-0.7-0.8-1.1-1.7-0.1-2.6c1-0.9,1.8-0.5,2.6,0.3c1,0.9,1.9,1.9,2.8,2.8c3.5,3.4,4.2,3.3,5.6-1.5c0.8-2.6,1.9-5.2-0.2-8
		c-1.3-1.7-0.6-4.1-0.2-6.8c2.5,2.4,3.3,2.5,3.9-1.3c1.3-8.6-1.8-15.6-6.5-22.3c-1.7-2.4-3.2-2.5-4.3,0c-4.2,9.9-12,18.6-11.3,30.3
		c0.1,1.7-1.5,5.2,3.1,4.1c1.3-0.3,1.5,1.9,2.1,3c1.8,4.1,3.1,8.4,7,11.3c1.3,1,2.2,2.7,1.2,4.4c-1,1.8-2.3,3.6-5.2,2.9
		c2.4,2,3.5,4.7,6.6,6.1c2.6,1.1,3.5,5.2,3,8.4c-0.5,3.4-3.3,3.4-6.2,3.5c-5.4,0.2-10.6-0.8-15.9-1.1c-4.8-0.3-6.6-3.4-7.4-7.3
		c-1.8-9.1-5.5-16.8-14.1-21.3c-0.4-0.2-0.9-0.5-1.3-0.8c-1-0.8-2.7-1.5-1.7-3.1c1.1-1.8,2.2,0.2,3.4,0.5c1.8,0.5,3.9,3.2,5.2,1.6
		c1.8-2.2,3-5.6,1.6-8.4c-2.4-5-2.8-10.2-3.6-15.5c-0.3-2.3-0.6-4.9-2.9-6.1c-3.1-1.5-3.5-4-3.7-7.4c2.8,1,5.1,2.4,6.6,4.4
		c2.7,3.8,4.1,2.4,5.6-0.9c1.3-2.9,3.1-5.5,4.5-8.3c1.7-3.3,3.3-6,1.5-10.5c-2.9-7,2.4-12.2,6.9-16.9c1.4-1.5,2.6-2.9,2.2-4.6
		c-0.5-2.6-2.8-0.8-4.2-1c-5.2-0.7-6.1-1.9-4.3-6.6c0.7-1.9,0.6-2.1-3.8-3.1c-0.1,7-0.7,13.8-9.6,16.5c8.1,2.6,8.4,3.2,4.6,9.7
		c-6.3,10.7-15.6,18.6-25.6,25.7c-6.2,4.4-7.5,10.6-8.8,17.1c-0.4,2.2-0.3,4.3-2.3,5.7c-2.6,1.9-1.6,4.6,0.1,5.3
		c3.3,1.4,3.2,4.3,4.3,6.7c1,2.4,1.2,5.3,3.7,6.9c2.8,1.9,3,4.9,2.4,7.6c-0.6,2.9-3.7,2.1-6.6,2.7c3.1,3.8,6.2,7,7.9,11.2
		c2,5.2-0.1,9.2-5.5,9.3c-6.1,0.1-12.2,1.4-18.3-0.6c-2.2-0.7-3.4-1.7-3.7-3.9c-0.6-3.4-2-6.9-1.8-10.3c0.3-5.8-4.5-9.4-5.4-14.8
		c-0.4-2.5-5.1-4.3-7.8-6.5c-1.1-0.9-3.7-1.5-2.2-3.7c1.4-2.1,2.9-0.1,4.3,0.6c1.9,0.9,3.7,2.1,5.9,3.3c3.4-13.5-1.2-25.7-4.1-38.7
		c4.5,1.1,6.2,4.2,9.1,7.5c0.8-7.4,8.2-10,9.9-16.5c-5.6-1-11.1-1.1-16.6-1.2c-1.2,0-2.4,0-3.5-0.3c-1.2-0.3-2.3-1.1-2.2-2.4
		c0-1.3,1.4-1.1,2.4-1.3c4.3-0.7,8.5-1.6,12.8-2c3.5-0.3,5.5-1.8,6.2-5.2c0.5-2.1,1.3-4.1,2.8-5.8c2.4-2.7,3.4-5.6,1.8-9.1
		c-0.8-1.8-0.4-3.7,1.1-5c2.2-2,2.3,1.9,4.6,1.2c1.8-5.1,2.1-10.5-0.7-16c-2.9-5.8-4-12.3-6.9-18.1c-0.5-1.1,0-2.6-1.2-4
		c-2.5-2.7-2.3-2.9,0.5-5.6c2.9-2.8,2.6-7.4-1.1-9.1c-5.3-2.6-4.1-7.9-5.6-12c-0.5-1.3,1.1-1.5,2-1.3c5.3,1.4,12.2-0.9,14.9,6.5
		c0.4,1.2,1.5,1.7,2.9,1c2.5-1.2,5-2.4,8.7-4.1c-13.2-4.5-25.2-8.7-37.2-12.8c-1.3-0.4-2.5-0.9-3.8-1.4c-1.8-0.6-1.3-1.9-1-3.3
		c0.3-1.8,1.2-2.1,2.8-1.5c1,0.4,2.1,1,3.3,0c-0.9-1.9-3-1.9-4.5-2.7c-2.2-1.2-1.5-3.3-1-4.9c0.6-2,2.2-0.6,3.3-0.1
		c3.6,1.4,6.1,2.8,10.3-0.9c2.9-2.6,9.2-3.1,14.3-1.1c10.4,4,21,7.6,31.4,11.6c2.9,1.1,5.7,1.9,8.6,0.6c5.3-2.4,10.1-0.4,14.9,1.5
		c7.6,3,15.3,5.6,22.2,9.9c3.9,2.4,7.4,0.8,11.1,0.5c2-0.2,1.1-1.6,0.7-2.6c-1.1-3-2-6-2.3-9.2c-0.1-2-1.6-2.8-3-3.6
		c-4-2.3-8.2-4.5-12-7.2c-1.8-1.3-6.4-1-4.3-5.6c0.1-0.1-2-1.4-3.2-2c-8.1-3.8-16.2-7.6-25.3-11.9c5-1,8.6-0.9,12.5,0.7
		c13.3,5.4,26.7,10.4,39.9,15.7c3.6,1.5,6.9,2.2,10.3-0.1c4.1-2.7,8.1-2.5,12,0.2c5.5,3.9,11,3.8,16.6,0.4
		c6.1-3.7,12.3-3.6,18.9-1.2c7.4,2.7,15.1,0,22.7-0.3c1.9-0.1,2-2.1,2.5-3.4c2.1-5.2,4.2-10.3,6.6-16.3c2.9,6.6,5.4,12.4,8.2,18.8
		c1.8-4.5,3.4-8.4,5.2-12.8c0.5,1.8,1,2.8,1,3.9c0.4,9.1,4.3,16.1,11.8,21.2c0.8,0.5,1.8,1.3,2,2.2c3.7,12.2,13.8,19.8,20.9,29.5
		c0.3,0.4,0.5,0.8,1,1.6c-9.2,4.4-18.3,8.7-27.4,13.1c-1.4,0.7-2.5,0.3-3.8-0.4c-1.6-0.9-3.4-1.5-4.9-2.5c-2.3-1.5-4.8-0.8-7.2-1.2
		c-4.3-0.6-2.2,3.1-3.4,4.6c-2.8,3.2-3,6.5-0.1,10.2c4,5.2,2.9,11.8,3.9,17.8c1.1,6.4,1.8,12.8,2.7,19.6c-3.7-0.4-6.4-3.4-10-2.9
		c-2.3-1.4-4.7-2.9-7-4.3c-1.8-1.1-3.9-0.9-5,0.6c-2.9,3.8-6.8,6.8-7.8,12.2c-1.7,9.8-2.1,9.7,7.3,7.8c1.1-0.2,2.3-0.1,3.4-0.1l0,0
		c-1.8,4-5.4,6.7-8.2,9.9c-2.2,2.4-3.1,4.3-0.9,7.2c1.6,2.2,3.4,4.5,3.9,7.3c-0.4,0.1-0.8,0.3-1.1,0.2c-9-2-9.1-2-8.7,7.1
		c0.5,11.5,5.4,21,13.6,28.9c2.1,2.1,4,4.5,6.1,6.6c1.8,1.8,0.3,3.6-0.1,5c-0.4,1.6-2.2,1.5-3.9,1c-2-0.6-4-1.8-7.3-1.1
		c3.1,2.8,3.8,6.7,8.9,6.7c3.6,0,4.6,4,4.4,6.8c-0.1,2.7-0.6,5.7-4.7,6.4c-6.6,1.1-12.9-0.6-19.4-0.5c-1.3,0-2.4-0.5-2.8-1.7
		c-2.7-7.7-9.3-13.1-11.9-21.1c-2.1-6.6-4.9-13.6-13-15.9c-1.2-0.3-2.6-1.3-1.7-3c0.9-1.6,2-0.2,3,0.1c2.2,0.5,4.4,4.1,6.7,0
		c2.1-3.8,0.7-7-2.3-9.1c-2.6-1.8-3.9-3.7-4.2-7.5C959.2,756.8,961.9,758.2,964.9,759.8c0.2,0.1,0.2-0.1,0.2-0.1
		c-0.1-0.1-0.3-0.1-0.4-0.1c0,0.1,0.1,0.3,0.1,0.4C964.8,760,965,760,964.9,759.8z M957.7,715c0.9,1-0.2,3.9,2.3,3.9
		c1.8,0,2.3-2.1,2.3-3.9c0-1.9-0.5-4-2.6-4C958.1,711,958,713.2,957.7,715z M874.2,719.2c3-5.9,3.3-7.7,2.4-11.4
		C873.9,711.4,871.5,714.6,874.2,719.2z"/>
	<path class="st1" d="M303,212.2c-2.5,0.6-3.8-1.7-5.7-2.4c-2.3-0.8-3.6-3.5-6.6-2.7c-5.3,1.4-9.4,4.6-12.6,8.8
		c-1.3,1.8,1.1,4.7-0.4,7c0.6,0.3,0.9,0.5,1.2,0.5c2.9,0.3,7.2-0.6,8.1,2c0.9,2.6-2,5.7-4,8.1c-1.6,1.9-3.3,4.1-5.4,5.1
		c-5.6,2.5-6,6.9-6.2,12.2c-0.2,7.9-1.3,15.8-0.7,23.8c-0.1,0.1-0.2,0.2-0.3,0.3c0.1-0.1,0.1-0.3,0.2-0.4c2.1-1.3,2.5,0.1,2.9,1.7
		c2.1,8.2,4.3,16.4,7.5,24.3c0.7,1.8,0.9,2.9-1.9,3.1c-2.7,0.2-5.3,1.3-8.6,0.6c2.9,4.1,5.7,8.2,8.8,12.1c2.6,3.2,2.8,6.3,1.4,10.2
		c-1.5,4.1-4.8,2.6-7.5,3.1c-6.2,1.2-12.1-1.3-18.2-1.5c-3.6-0.1-7.6-7.9-6.8-13c0.8-5-0.2-9.5-2.3-14c-1.8-3.9-3.8-7.5-2.8-12.3
		c0.7-3.2-2.4-6-4.5-8.5c-1.1-1.3-2.2-2.5-3.3-3.7c-0.7-0.8-1.1-1.7-0.1-2.6c1-0.9,1.8-0.4,2.6,0.3c0.5,0.5,0.9,1,1.4,1.4
		c1.8,1.1,3.1,5,5.1,3.3c2.5-2.1,4-6.2,2.5-9.5c-1.2-2.8-1.4-5.3-1-8.7c2.8,2.9,3.3,2.3,3.9-1.3c1.4-8.6-1.8-15.6-6.6-22.3
		c-1.8-2.5-3.2-2.4-4.3,0.1c-4.2,9.9-11.9,18.6-11.3,30.3c0.1,1.8-1.3,5.2,3.2,4.1c1.2-0.3,1.5,1.9,2,3.1c1.8,4.1,3.1,8.4,7,11.3
		c1.3,1,2.2,2.8,1.1,4.4c-1.1,1.6-2,4.1-5.3,2.7c2.6,2.1,3.6,5,6.9,6.3c2.5,1,3.5,5.1,2.9,8.4c-0.6,3.4-3.4,3.4-6.2,3.5
		c-5.4,0.2-10.6-0.8-15.9-1.1c-4.9-0.3-6.5-3.5-7.3-7.4c-1.8-8.9-5.4-16.5-13.8-21c-0.7-0.4-1.4-0.9-2.1-1.4c-1-0.7-2.1-1.5-1.2-2.8
		c1-1.4,2,0.1,3,0.4c1.9,0.6,4.2,3.5,5.5,1.8c1.8-2.3,3.1-5.7,1.4-8.9c-2.1-4-2.5-8.3-3.1-12.5c-0.5-3.8-0.8-7.5-4.9-9.7
		c-2-1-1.8-3.7-2-6.1c3.5,1.1,5.7,3.1,7.7,5.5c1.5,1.9,2.5,1.7,3.6-0.4c2.5-4.7,5.1-9.4,7.6-14.1c0.5-1,1.3-2,0.5-3.2
		c-4.8-8.4,0.3-14.3,5.4-19.8c1.4-1.6,3-2.9,2.5-4.9c-0.6-2.5-2.8-0.7-4.3-0.9c-5-0.7-5.8-1.9-4.1-6.7c0.7-1.9-0.6-2.3-1.8-2.8
		c-1.4-0.6-2.3-0.3-2.2,1.4c0.3,6.8-2.2,12.1-9.2,15.2c7.8,2.3,8.1,2.8,4.5,9.1c-6.2,10.8-15.5,18.7-25.5,25.8
		c-6.3,4.5-7.9,10.8-9.1,17.4c-0.4,2.2-0.4,4.3-2.4,5.7c-2.6,1.9-1.4,4.6,0.3,5.3c3.3,1.2,3.1,4,4.1,6.3c1.1,2.4,1.1,5.3,3.5,7
		c2.9,2,3.3,5,2.6,8c-0.7,2.8-3.8,1.9-6.3,2.7c2.9,3.7,6,6.9,7.6,11.1c2,5.1-0.2,9.1-5.7,9.2c-5.8,0.1-11.5,1.2-17.3-0.4
		c-3.2-0.9-4.4-2.4-4.9-5.2c-0.6-3.4-1.9-7.1-1.7-10.2c0.3-5.6-4.9-8.5-5.3-13.9c-0.1-2.3-5.1-4.2-7.8-6.5c-1.1-0.9-3.6-1.5-2-3.7
		c1.3-1.8,2.7-0.1,3.9,0.5c1.9,1,3.7,2.1,6.1,3.5c3.7-13.5-1.4-25.8-3.8-38.9c4.2,1.4,6.2,4.3,8.9,8c0.8-7.8,8.2-10.2,9.8-16.8
		c-5.2-1.1-10.4-1.1-15.7-1.3c-1.3,0-2.7,0-4-0.2c-1.2-0.2-2.4-1-2.5-2.1c-0.2-1.8,1.5-1.3,2.5-1.5c0.6-0.2,1.3-0.3,2-0.2
		c11.2,0.5,17.8-5.2,21.6-15.3c0.9-2.3,0.6-4.2-0.1-6.2c-0.7-2.1-0.5-4.1,1.2-5.5c2.1-1.7,2.2,2,4.5,1.5c1.7-5.4,1.9-10.7-0.7-16.4
		c-2.8-6.1-4.7-12.6-6.7-19.1c-0.3-0.9-0.5-1.8-1.1-2.6c-1.7-2.1-4.5-3.7,0.4-6.2c3.5-1.8,2.4-6.6-1.2-8.9
		c-2.4-1.5-6.1-9.6-5.5-12.1c0.4-1.8,1.9-1.2,2.8-1c5.2,1.2,11.8-0.5,14.3,6.6c0.5,1.3,1.7,1.4,2.9,0.8c2.4-1.1,4.8-2.2,8.4-3.9
		c-4.4-1.6-7.8-2.9-11.3-4.1c-9-3.1-18-6.1-26.9-9.3c-1.8-0.6-4.6-0.2-3.7-3.9c1-4.2,3.4-0.7,5-1.2c0.3-0.1,0.6-0.2,1.1-0.4
		c-0.8-2-2.8-2.1-4.3-2.7c-2.4-1.1-1.8-3.2-1.3-4.7c0.7-2.4,2.4-0.7,3.6-0.3c3.4,1.2,6.9,3.9,9.5-1.2c0.3-0.6,1.8-0.6,2.8-0.9
		c7.2-2.1,13.7,0.3,20.2,3c6,2.4,12.3,4.3,18.2,6.8c5.8,2.4,11.5,4.2,17.7,1.3c1.6-0.7,3.2-0.4,4.8,0.2c9.7,4,19.9,6.9,28.8,12.4
		c3.7,2.3,7.1,0.3,10.6,0.2c1.4-0.1,1.2-1.3,0.8-2.3c-1.3-3.3-2.1-6.6-2.5-10.1c-0.2-1.7-1.7-2.3-3-3.1c-3.9-2.3-7.9-4.3-11.5-6.9
		c-2-1.4-6.6-1.1-4.7-5.9c0.1-0.2-2-1.4-3.2-2c-8-3.8-16.1-7.6-25-11.8c5.2-1.3,9-0.7,12.9,0.9c13.3,5.4,26.7,10.3,39.9,15.7
		c3.4,1.4,6.3,1.7,9.3-0.2c4.2-2.6,8.4-2.6,12.5,0.2c5.3,3.6,10.7,3.9,16.1,0.4c6.2-4,12.6-3.7,19.4-1.2c7.5,2.7,15.1-0.1,22.7-0.5
		c1.6-0.1,1.7-1.9,2.2-3.1c2.1-5.2,4.2-10.4,6.7-16.5c2.9,6.6,5.5,12.4,8.3,18.8c1.8-4.5,3.3-8.3,5.1-12.8c0.5,1.7,0.9,2.7,1,3.7
		c0.4,9.2,4.4,16.4,12.1,21.6c0.8,0.5,1.7,1.3,2,2.2c3.5,11.9,13.4,19.2,20.3,28.7c0.4,0.5,0.8,1.1,1.6,2.1
		c-9.4,4.5-18.6,8.9-27.9,13.3c-1.2,0.6-2.2,0.1-3.3-0.4c-1.5-0.8-3-1.5-4.5-2.2c-6-3-8.5-2.2-11.6,3.2c-2,3.4-2.6,6.4,0.2,10
		c4.1,5.1,3,11.8,4,17.7c1.1,6.5,1.8,13.1,2.8,20.3c-5.9-2.7-11.2-5-16.4-7.6c-2.9-1.5-4.7-0.5-7,1.5c-5.4,4.6-6.4,10.9-7.6,17.1
		c-0.6,3,0.2,3.9,3.4,3.1c2.8-0.7,5.6-2.3,8.6-1.5l-0.1-0.1c-1.1,3.3-4.5,4.9-6,8c-9.5,5.9-0.1,11,0.8,16.4
		c-0.3,0.2-0.5,0.4-0.6,0.3c-9.4-1.8-9.6-1.8-9.1,8.1c0.6,10.9,5.5,19.9,13.1,27.6c2.2,2.2,4.2,4.7,6.4,6.9c1.8,1.8,0.3,3.5-0.1,5
		c-0.4,1.6-2.2,1.4-3.9,1c-2-0.6-4-1.8-7.1-1.1c2.8,2.9,3.6,6.7,8.7,6.8c3.6,0,4.6,4,4.4,6.8c-0.1,2.7-0.6,5.7-4.8,6.4
		c-6.6,1.1-12.9-0.6-19.4-0.5c-1.3,0-2.4-0.5-2.8-1.7c-2.7-7.7-9.3-13.1-11.9-21.1c-2.1-6.6-4.9-13.6-13-15.9
		c-1.2-0.3-2.6-1.3-1.7-3c0.9-1.6,2-0.2,3,0.1c2.2,0.5,4.4,4.1,6.7,0c2.1-3.8,0.6-7-2.3-9.1c-2.5-1.8-4.1-3.6-4-7.4
		c3,1.5,5.8,2.9,8.7,4.5c0.1,0.1-0.1-0.1-0.3-0.2c0,0.1,0.1,0.3,0.1,0.4c0,0.1,0.2,0,0.1-0.2c0.5-7.1-1.3-13.7-1.4-20.5
		c0-1.7-1.1-2.7-2.1-3.8c-1.6-1.7-3.2-3.4-4.6-5.2c-2.1-2.8-1.6-19.1,0.6-21.8c1-1.2,1.1-2.3,1.1-3.6c0.9-1.2,1.9-2.3,2.7-3.5
		c0.7-1.1,1.9-2.7,0.2-3.3c-1.3-0.5-3.4-0.3-4,1.8C303.1,209.2,303.1,210.8,303,212.2z M303.8,223.1c0.7,1.2-0.1,3.9,2.4,3.8
		c1.8-0.1,2.2-2.1,2.2-3.9c0-1.9-0.6-4-2.6-4C303.8,219,303.9,221.3,303.8,223.1z M220.6,228.3c1.1-4.8,3.3-8,2.6-12.6
		C219.6,219.2,217.8,222.5,220.6,228.3z"/>
	<path class="st1" d="M493.6,523.5c2.1-1.3,2.5,0.1,2.9,1.7c2.1,8.2,4.3,16.4,7.5,24.3c0.7,1.8,0.9,2.9-1.9,3.1
		c-2.7,0.3-5.4,0.9-8.6,0.5c2.9,4.1,5.7,8.2,8.8,12.1c2.6,3.2,2.8,6.3,1.4,10.2c-1.5,4.1-4.8,2.6-7.5,3.1
		c-6.2,1.2-12.1-1.3-18.2-1.5c-3.6-0.1-7.6-7.9-6.8-13c0.8-5-0.2-9.5-2.3-14c-1.8-3.9-3.8-7.5-2.8-12.3c0.6-3.2-2.4-6-4.5-8.5
		c-1.1-1.3-2.2-2.5-3.3-3.7c-0.7-0.8-1.1-1.7-0.1-2.6c1-0.9,1.8-0.4,2.6,0.3c0.5,0.5,0.9,1,1.4,1.4c1.8,1.1,3.1,5,5.1,3.3
		c2.5-2.1,4-6.1,2.4-9.5c-1.2-2.8-1.4-5.3-1-8.7c2.8,3,3.3,2.2,3.8-1.3c1.3-8.4-1.5-15.3-6.2-21.9c-2.1-2.9-3.6-2.9-4.9,0.1
		c-4.1,9.8-11.7,18.3-11,29.9c0.1,1.8-1.3,5.2,3.2,4c1.2-0.3,1.5,1.9,2,3.1c1.8,4.1,3.1,8.4,7,11.3c1.3,1,2.1,2.7,1.1,4.4
		c-1.1,1.8-2.4,3.5-5.2,2.9c2.6,1.9,3.5,4.8,6.8,6.1c2.5,1,3.5,5.1,2.9,8.4c-0.6,3.5-3.4,3.4-6.2,3.5c-5.4,0.2-10.6-0.8-15.9-1.1
		c-4.6-0.3-6.5-3.3-7.2-6.9c-1.7-9.6-5.8-17.4-14.7-22.1c-0.7-0.4-1.4-1-2-1.5c-0.8-0.6-0.9-1.4-0.4-2.2c0.6-1,1.4-0.5,2.2-0.1
		c0.3,0.2,0.6,0.4,0.9,0.5c1.9,0.6,4.2,3.5,5.5,1.7c1.8-2.3,3.1-5.7,1.4-8.9c-2.1-4-2.5-8.3-3.1-12.5c-0.5-3.8-0.8-7.5-5-9.7
		c-2-1-1.8-3.7-2-6.1c3.4,1.1,5.7,3.1,7.7,5.6c1.5,1.9,2.5,1.6,3.6-0.5c2.5-4.7,5.1-9.4,7.6-14.1c0.5-1,1.2-2,0.5-3.3
		c-4.8-8.6,0.4-14.6,5.8-20.1c1.4-1.5,2.5-2.9,2.1-4.6c-0.5-2.2-2.5-0.7-3.8-0.9c-5.3-0.5-6.2-1.9-4.6-6.7c0.3-0.9,0.3-1.7-0.5-2.1
		c-0.8-0.5-1.9-0.9-2.8-0.8c-1,0.1-0.8,1.3-0.8,2.1c0.1,6.4-1.9,11.7-8.3,14.1c0.2,0.6,0.2,1.1,0.4,1.1c6.6,1.7,6.9,2.1,3.5,8.2
		c-6.2,11-15.7,19-25.7,26.2c-6.3,4.5-7.9,10.8-9.1,17.4c-0.4,2.2-0.5,4.2-2.4,5.7c-2.6,1.9-1.3,4.7,0.3,5.3c3.1,1.2,3,3.7,3.9,5.8
		c1.1,2.5,1.1,5.7,3.7,7.5c2.9,2,3.3,5.1,2.6,8c-0.7,2.7-3.8,1.8-6.2,2.7c2.4,3.6,5.5,6.4,7.2,10.3c2.6,6.1,0.6,9.9-5.9,10.1
		c-5.9,0.2-11.9,1.3-17.8-0.7c-2-0.7-3.2-1.4-3.5-3.6c-0.3-2.5-0.9-4.9-1.1-7.4c-0.5-6.6-4.2-12.1-6.2-18.1
		c-0.9-2.7-5.3-4.3-7.9-6.5c-1.1-0.9-3.6-1.5-1.9-3.7c1.3-1.8,2.7,0,3.9,0.6c1.9,1,3.7,2.1,6,3.5c3.8-13.5-1.5-25.8-3.8-38.9
		c4.1,1.6,6.2,4.3,8.9,8.2c0.7-8,8.2-10.3,9.8-16.9c-5.2-1.2-10.4-1.1-15.7-1.3c-1.3,0-2.7,0-4-0.2c-1.2-0.2-2.4-1-2.5-2.2
		c-0.2-1.8,1.5-1.3,2.5-1.5c0.6-0.2,1.3-0.3,2-0.2c11.2,0.5,17.7-5.4,21.6-15.4c0.9-2.3,0.6-4.2-0.1-6.2c-0.7-2.1-0.5-4.1,1.3-5.4
		c2.1-1.6,2.2,2.2,4.5,1.5c1.5-5.4,1.8-10.7-0.8-16.4c-2.8-6.1-4.7-12.6-6.6-19.1c-0.4-1.4-1.6-2.2-1.9-3.2
		c-0.3-1.6-4.6-3.7,0.8-5.2c3.3-0.9,2.8-7.4-0.6-8.9c-5.5-2.5-4.2-7.8-5.8-11.9c-0.5-1.3,0.7-1.8,1.8-1.5c5.3,1.4,12.1-1,15,6.3
		c0.5,1.4,1.7,1.9,3.3,1.1c2.4-1.2,4.8-2.2,8-3.7c-10.2-4.5-20.3-7.2-29.9-10.8c-3-1.1-6-2-9-3.1c-1.7-0.6-3.4-0.9-2.7-3.7
		c0.8-3.3,2.6-1.5,4.1-1.3c0.6,0.1,1.2,0,2,0c-0.5-2.3-2.5-2.3-3.8-2.8c-2.8-1-2.2-3.2-1.7-5c0.7-2.4,2.4-0.7,3.6-0.2
		c3.4,1.3,5.8,2.6,9.8-0.9c3-2.7,9.2-3.2,14.3-1.3c10.8,4,21.6,7.9,32.3,11.9c2.6,1,5.1,1.4,7.7,0.3c4.6-1.9,9-1.1,13.5,0.9
		c8.3,3.5,17,6.1,24.7,10.8c3.5,2.1,6.8,0.2,10.2,0.1c1.9,0,1.3-1.5,0.8-2.6c-1.2-2.9-2.1-6-2.3-9.2c-0.1-1.9-1.5-2.8-3-3.7
		c-3.8-2.1-7.6-4.2-11.2-6.6c-2.2-1.6-6.6-1.5-5.4-6.3c0.1-0.4-2-1.4-3.2-2c-8-3.8-15.9-7.5-24.8-11.7c4.7-1.2,8.3-1,12.1,0.5
		c13.5,5.3,27,10.5,40.4,15.9c3.2,1.3,6.2,2.1,9.4,0c4.3-2.8,8.6-2.3,13.1,0.1c2.4,1.3,4.7,3.2,7.8,2.8c0,0-0.1,0-0.1,0
		c0.1,1.1,0.6,0.7,1,0.2c1.4-0.5,3-0.7,4.2-1.4c7.8-4.5,15.4-5,24.2-2c6.5,2.2,13.8-0.3,20.7-0.8c1.6-0.1,1.7-1.8,2.2-3
		c2.1-5.2,4.3-10.4,6.8-16.6c2.9,6.6,5.4,12.4,8.2,18.8c1.8-4.5,3.4-8.4,5.2-12.9c0.5,2,1.1,3.3,1.1,4.6c0.3,8.8,4.3,15.4,11.4,20.3
		c0.9,0.6,2.1,1.5,2.4,2.5c3.5,11.9,13.4,19.2,20.3,28.7c0.5,0.7,1,1.3,1.6,2.3c-9.2,4.4-18.2,8.6-27.2,12.9
		c-1.3,0.6-2.5,0.9-3.8,0.1c-1.8-0.9-3.5-1.8-5.3-2.8c-3.1-1.7-6.8-2-9.5-0.2c-3,2-3.6,10.2-1.4,13.1c3.4,4.4,2.9,9.7,3.7,14.7
		c1.2,7.6,2.1,15.3,3.2,23.8c-5.8-2.7-11-4.9-16-7.4c-3.3-1.6-5.2-0.5-7.8,1.8c-5,4.5-5.8,10.4-7.2,16.3c-0.7,3.2,0.2,4.3,3.6,3.3
		c2.6-0.8,5.3-2,8.3-1.4l0,0c-1.8,4-5.4,6.7-8.2,9.9c-2.2,2.4-3.1,4.3-0.9,7.2c1.6,2.2,3.4,4.5,3.9,7.3c-0.4,0.1-0.8,0.3-1.1,0.2
		c-9-2-9.1-2-8.7,7.1c0.5,11.5,5.4,21,13.6,28.9c2.1,2.1,4,4.5,6.1,6.6c1.8,1.8,0.3,3.6-0.1,5c-0.4,1.6-2.2,1.5-3.9,1
		c-2-0.6-4-1.8-7.3-1.1c3.1,2.8,3.8,6.7,8.9,6.7c3.6,0,4.6,4,4.4,6.8c-0.1,2.7-0.6,5.7-4.7,6.4c-6.6,1.1-12.9-0.6-19.4-0.5
		c-1.3,0-2.4-0.5-2.8-1.7c-2.7-7.7-9.3-13.1-11.9-21.1c-2.1-6.6-4.9-13.6-13-15.9c-1.2-0.3-2.6-1.3-1.7-3c0.9-1.6,2-0.2,3,0.1
		c2.2,0.5,4.4,4.1,6.7,0c2.1-3.8,0.6-7-2.3-9.1c-2.5-1.8-4.1-3.6-4-7.4c3,1.5,5.8,2.9,8.7,4.5c0.1,0.1-0.1-0.1-0.3-0.2
		c0,0.1,0.1,0.3,0.1,0.4c0,0.1,0.2,0,0.1-0.2c0.5-7.1-1.3-13.8-1.4-20.6c0-1.5-0.9-2.4-1.8-3.4c-1.6-1.7-3.2-3.4-4.6-5.2
		c-2.2-2.9-1.9-18.9,0.1-22c1.6-2.4,2.9-5.1,4.3-7.7c0.5-1,1-2.5-0.5-2.9c-1.2-0.3-2.8,0-3.3,1.6c-0.5,1.5-0.8,3.2-1.3,5.2
		c-2.2-1.2-4-2.4-5.9-3.3c-2-0.9-3.2-3.2-6.1-2.3c-5.3,1.6-9.3,4.8-12.5,9c-1.1,1.4,0.4,3.7,0.3,5.7c-0.1,3.3,3,1.3,4.6,1.6
		c5.2,1,5.4,1.2,3,5.8c-2.5,4.7-6.2,8.2-10.6,11c-1.5,1-3.4,1.6-3.4,3.9C494.6,503.4,492.9,513.4,493.6,523.5c0,0.2-0.1,0.3-0.2,0.4
		C493.5,523.8,493.5,523.6,493.6,523.5z M526.7,472c0.8,1.1-0.2,3.9,2.3,4c1.8,0.1,2.4-2,2.4-3.8c0-1.9-0.5-4-2.6-4.1
		C527.1,468,527,470.1,526.7,472z M446.3,465.1c-4.7,3.9-5.3,6.6-2.6,11.2C444.7,472.4,446.9,469.2,446.3,465.1z"/>
	<path class="st1" d="M345.7,229.6c0-0.2,0-0.4,0-0.6c0.2,0.1,0.4,0.1,0.5,0.2c-0.2,0.1-0.4,0.2-0.6,0.3
		C345.6,229.5,345.7,229.6,345.7,229.6z"/>
	<path class="st0" d="M519.6,363.7c-0.5,0.5-0.9,0.9-1-0.2C519,363.6,519.3,363.6,519.6,363.7z"/>
	<path class="st1" d="M270.6,1350.5c-1.8,4-5.4,6.7-8.2,9.9c-2.2,2.4-3.1,4.3-0.9,7.2c1.6,2.2,3.4,4.5,3.9,7.3
		c-0.4,0.1-0.8,0.3-1.1,0.2c-9-2-9.1-2-8.7,7.1c0.5,11.5,5.4,21,13.6,28.9c2.1,2.1,4,4.5,6.1,6.6c1.8,1.8,0.3,3.6-0.1,5
		c-0.4,1.6-2.2,1.5-3.9,1c-2-0.6-4-1.8-7.3-1.1c3.1,2.8,3.8,6.7,8.9,6.7c3.6,0,4.6,4,4.4,6.8c-0.1,2.7-0.6,5.7-4.7,6.4
		c-6.6,1.1-12.9-0.6-19.4-0.5c-1.3,0-2.4-0.5-2.8-1.7c-2.7-7.7-9.3-13.1-11.9-21.1c-2.1-6.6-4.9-13.6-13-15.9
		c-1.2-0.3-2.6-1.3-1.7-3c0.9-1.6,2-0.2,3,0.1c2.2,0.5,4.4,4.1,6.7,0c2.1-3.8,0.6-7-2.3-9.1c-2.5-1.8-4.1-3.6-4-7.4
		c3,1.5,5.8,2.9,8.8,4.5c0.1,0.1-0.1-0.1-0.3-0.2c0,0.1,0.1,0.3,0.1,0.4c0,0.1,0.2,0,0.1-0.2c0.5-7.1-1.3-13.8-1.4-20.6
		c0-1.5-0.9-2.4-1.8-3.4c-1.6-1.7-3.2-3.4-4.6-5.2c-2.2-2.9-1.9-18.9,0.1-22c1.6-2.4,2.9-5.1,4.3-7.7c0.5-1,1-2.5-0.5-2.9
		c-1.2-0.3-2.8,0-3.3,1.6c-0.5,1.5-0.8,3.2-1.3,5.2c-2.2-1.2-4-2.4-5.9-3.3c-2-0.9-3.2-3.2-6.1-2.3c-5.3,1.6-9.3,4.8-12.5,9
		c-1.1,1.4,0.4,3.7,0.3,5.7c-0.1,3.3,3,1.3,4.6,1.6c5.2,1,5.4,1.2,3,5.8c-2.5,4.7-6.2,8.2-10.6,11c-1.5,1-3.4,1.6-3.4,3.9
		c-0.2,10.1-1.9,20.2-1.1,30.3c-0.1,0.1-0.2,0.2-0.3,0.3c0.1-0.1,0.1-0.3,0.2-0.4c2.1-1.3,2.5,0.1,2.9,1.7
		c2.1,8.2,4.3,16.4,7.5,24.3c0.7,1.8,0.9,2.9-1.9,3.1c-2.7,0.3-5.4,0.9-8.6,0.5c2.9,4.1,5.7,8.2,8.8,12.1c2.6,3.2,3,6.4,1.4,10.2
		c-0.9,2.1-2.2,2.8-4.5,3.1c-7.2,1.1-14.2-0.9-21.2-1.4c-3.7-0.2-7.6-7.9-6.8-13c0.8-5-0.2-9.5-2.3-14c-1.8-3.9-3.8-7.5-2.8-12.3
		c0.7-3.3-2.4-6-4.5-8.5c-1.1-1.3-2.2-2.5-3.3-3.7c-0.7-0.8-1.1-1.7-0.1-2.6c1-0.9,1.8-0.4,2.6,0.3c0.5,0.5,0.9,1,1.4,1.4
		c1.8,1.1,3.1,5,5.1,3.3c2.5-2.1,4-6.2,2.5-9.5c-1.3-2.8-1.2-5.3-1.2-8.9c2.9,3,3.5,2.5,4.1-1c1.4-8.6-1.8-15.6-6.6-22.3
		c-1.7-2.4-3.2-2.4-4.3,0.1c-4.2,9.9-11.9,18.6-11.3,30.3c0.1,1.8-1.3,5.1,3.2,4.1c1.3-0.3,1.5,1.9,2,3.1c1.8,4.1,3.1,8.4,7,11.3
		c1.3,1,2.2,2.7,1.1,4.4c-1.1,1.8-2.4,3.5-5.1,2.9c2.5,1.9,3.5,4.8,6.7,6.1c2.6,1.1,3.5,5.1,2.9,8.4c-0.6,3.4-3.4,3.4-6.2,3.5
		c-5.4,0.2-10.6-0.8-15.9-1.1c-4.8-0.3-6.5-3.5-7.3-7.4c-1.8-8.9-5.4-16.5-13.8-21c-0.7-0.4-1.4-0.9-2.1-1.4c-1-0.7-2.1-1.5-1.2-2.8
		c1-1.5,2,0,3,0.4c1.9,0.6,4.2,3.5,5.5,1.8c1.8-2.3,3.1-5.7,1.4-8.9c-2.1-4-2.5-8.2-3.1-12.5c-0.5-3.8-0.8-7.5-4.9-9.7
		c-2-1-1.8-3.7-2.1-6.2c3.5,1.1,5.7,3.1,7.7,5.5c1.5,1.9,2.5,1.7,3.6-0.4c2.5-4.7,5.1-9.4,7.6-14.1c0.5-1,1.3-2,0.5-3.2
		c-4.8-8.4,0.2-14.3,5.4-19.9c1.4-1.6,3-2.9,2.5-4.9c-0.6-2.5-2.8-0.7-4.2-0.9c-5-0.7-5.9-1.9-4.1-6.6c0.7-1.9-0.5-2.3-1.8-2.9
		c-1.4-0.6-2.3-0.3-2.2,1.3c0.3,6.8-2.1,12.1-9.2,15.2c7.8,2.3,8.1,2.8,4.5,9.2c-6.2,10.8-15.5,18.7-25.4,25.8
		c-6.3,4.5-7.9,10.8-9.1,17.4c-0.4,2.2-0.4,4.3-2.4,5.7c-2.6,1.9-1.4,4.6,0.2,5.3c3.3,1.2,3.1,4,4.1,6.3c1.1,2.4,1.1,5.3,3.5,7
		c2.9,2,3.4,5,2.7,8c-0.6,2.8-3.8,1.9-6.4,2.8c2.9,3.7,6,6.9,7.7,11.1c2,5.1-0.2,9.1-5.7,9.2c-5.9,0.1-11.8,1.3-17.8-0.5
		c-2.7-0.8-3.8-2.1-4.3-4.6c-0.7-3.6-1.9-7.4-1.8-10.7c0.2-5.6-5-8.5-5.2-13.9c-0.1-2.2-4.9-4-7.4-6.2c-1.2-1-4.1-1.5-2.4-4
		c1.4-2,2.9,0.1,4.3,0.8c1.8,0.9,3.5,2,5.7,3.2c3.7-13.4-1.3-25.8-3.8-38.8c4.2,1.3,6.2,4.3,9,7.8c0.8-7.6,8.2-10,9.8-16.6
		c-5.3-1.2-10.8-1.1-16.1-1.3c-1.3-0.1-2.7,0-4-0.3c-1.1-0.3-2.3-1.1-2.1-2.4c0.2-1.3,1.5-1,2.5-1.1c4.4-0.7,8.9-1.5,13.3-2.1
		c2.8-0.3,4.6-1.4,5.3-4.3c0.6-2.6,1.6-5.1,3.5-7.1c2.2-2.4,2.9-5.1,1.5-8.2c-0.9-2-0.6-4,1.2-5.4c2.1-1.7,2.3,2,4.5,1.5
		c1.7-5.4,1.9-10.7-0.7-16.4c-2.8-6.1-4.7-12.6-6.7-19.1c-0.3-0.9-0.5-1.7-1.1-2.6c-1.4-2-5.2-3.7,0.3-6.2c3.5-1.6,2.4-6.6-1.2-8.9
		c-2.4-1.5-6.1-9.6-5.6-12c0.4-1.8,1.8-1.3,2.8-1.1c5.2,1.2,11.8-0.5,14.3,6.6c0.5,1.3,1.7,1.5,2.9,0.8c2.4-1.4,5.3-1.9,7.9-4.2
		c-13.2-4.5-25.9-8.9-38.7-13.3c-1.7-0.6-3.6-0.8-2.8-3.6c0.6-2.5,1.8-2.2,3.6-1.5c0.7,0.3,1.5,0.2,2.8,0.4c-1-2.5-3-2.6-4.5-3.2
		c-2.4-1.1-1.8-3.1-1.4-4.7c0.7-2.5,2.4-0.8,3.5-0.4c3.4,1.2,5.8,2.8,9.8-0.8c3-2.7,9.2-3.2,14.3-1.3c10.8,4,21.6,7.9,32.3,11.9
		c2.6,1,5,1.5,7.7,0.4c4.6-1.8,8.9-1.2,13.5,0.8c8.4,3.6,17.2,6.3,25.1,11c3.5,2.1,6.8,0,10.2-0.1c1.4,0,0.7-1.4,0.5-2.4
		c-2.8-11.4-2.7-11.4-13-17.4c-2.3-1.4-4.6-2.7-6.9-4.1c-0.7-0.4-2-1-1.9-1.4c0.8-5.4-4.1-5.1-6.9-6.5c-6.7-3.5-13.7-6.6-21.5-10.3
		c5.2-1,8.9-0.8,12.7,0.8c13.1,5.3,26.4,10.3,39.5,15.5c3.5,1.4,6.9,2.5,10.3,0.1c4.9-3.4,9.6-1.7,13.9,1c4.6,2.9,8.9,2.8,13.4,0.1
		c6.9-4,13.7-4.3,21.4-1.5c7,2.5,14.5-0.2,21.7-0.6c1.8-0.1,2.1-2,2.6-3.3c2.1-5,4.1-10.1,6.6-16.2c2.9,6.6,5.4,12.3,8.3,18.7
		c1.8-4.5,3.3-8.3,5.1-12.8c0.4,1.5,0.7,2.1,0.7,2.8c0.7,9.6,4.4,17.6,12.8,22.9c0.7,0.4,1.4,1.2,1.6,1.9
		c3,11.2,12.1,18.1,18.7,26.7c2.4,3.1,3,4.4-1.1,6.2c-7.2,3.1-14.2,6.5-21.2,10c-2.6,1.3-5,1.6-7.5-0.1c-1-0.7-2.1-1-3.1-1.6
		c-3.3-1.8-7.1-2.4-9.9-0.3c-3.1,2.3-3.3,10.1-1.2,13.2c4.1,6,3.1,13.1,4.4,19.7c1.2,5.8,1.5,11.8,2.4,18.5
		c-5.7-2.6-10.9-4.8-15.9-7.3c-3.2-1.6-5.2-0.7-7.8,1.7c-5,4.7-6.2,10.7-7.3,16.9c-0.5,2.6,0.2,3.8,3.2,3
		C264.7,1351.3,267.6,1350,270.6,1350.5L270.6,1350.5z M233.3,1345c0.1-2.8-0.6-4.9-2.4-5.1c-1.9-0.2-2.2,2.1-2.1,3.7
		c0.2,1.6-0.1,4.1,2.1,4.2C232.8,1348,233.3,1346,233.3,1345z M148.2,1336.1c-3.2,4.3-5.7,7.5-2.9,12.1
		C147.9,1343,148.4,1341.1,148.2,1336.1z"/>
	<path class="st1" d="M270.6,851.5c-1.8,4-5.4,6.7-8.2,9.9c-2.2,2.4-3.1,4.3-0.9,7.2c1.6,2.2,3.4,4.5,3.9,7.3
		c-0.4,0.1-0.8,0.3-1.1,0.2c-9-2-9.1-2-8.7,7.1c0.5,11.5,5.4,21,13.6,28.9c2.1,2.1,4,4.5,6.1,6.6c1.8,1.8,0.3,3.6-0.1,5
		c-0.4,1.6-2.2,1.5-3.9,1c-2-0.6-4-1.8-7.3-1.1c3.1,2.8,3.8,6.7,8.9,6.7c3.6,0,4.6,4,4.4,6.8c-0.1,2.7-0.6,5.7-4.7,6.4
		c-6.6,1.1-12.9-0.6-19.4-0.5c-1.3,0-2.4-0.5-2.8-1.7c-2.7-7.7-9.3-13.1-11.9-21.1c-2.1-6.6-4.9-13.6-13-15.9
		c-1.2-0.3-2.6-1.3-1.7-3c0.9-1.6,2-0.2,3,0.1c2.2,0.5,4.4,4.1,6.7,0c2.1-3.8,0.6-7-2.3-9.1c-2.5-1.8-4.1-3.6-4-7.4
		c3,1.5,5.8,2.9,8.8,4.5c0.1,0.1-0.1-0.1-0.3-0.2c0,0.1,0.1,0.3,0.1,0.4c0,0.1,0.2,0,0.1-0.2c0.5-7.1-1.3-13.8-1.4-20.6
		c0-1.5-0.9-2.4-1.8-3.4c-1.6-1.7-3.2-3.4-4.6-5.2c-2.2-2.9-1.9-18.9,0.1-22c1.6-2.4,2.9-5.1,4.3-7.7c0.5-1,1-2.5-0.5-2.9
		c-1.2-0.3-2.8,0-3.3,1.6c-0.5,1.5-0.8,3.2-1.3,5.2c-2.2-1.2-4-2.4-5.9-3.3c-2-0.9-3.2-3.2-6.1-2.3c-5.3,1.6-9.3,4.8-12.5,9
		c-1.1,1.4,0.4,3.7,0.3,5.7c-0.1,3.3,3,1.3,4.6,1.6c5.2,1,5.4,1.2,3,5.8c-2.5,4.7-6.2,8.2-10.6,11c-1.5,1-3.4,1.6-3.4,3.9
		c-0.2,10.1-1.9,20.2-1.1,30.3c-0.1,0.1-0.2,0.2-0.3,0.3c0.1-0.1,0.1-0.3,0.2-0.4c2.1-1.3,2.5,0.1,2.9,1.7
		c2.1,8.2,4.3,16.4,7.5,24.3c0.7,1.8,0.9,2.9-1.9,3.1c-2.7,0.3-5.4,0.9-8.6,0.5c2.9,4.1,5.7,8.2,8.8,12.1c2.6,3.2,3,6.4,1.4,10.2
		c-0.9,2.1-2.2,2.8-4.5,3.1c-7.2,1.1-14.2-0.9-21.2-1.4c-3.7-0.2-7.6-7.9-6.8-13c0.8-5-0.2-9.5-2.3-14c-1.8-3.9-3.8-7.5-2.8-12.3
		c0.7-3.3-2.4-6-4.5-8.5c-1.1-1.3-2.2-2.5-3.3-3.7c-0.7-0.8-1.1-1.7-0.1-2.6c1-0.9,1.8-0.4,2.6,0.3c0.5,0.5,0.9,1,1.4,1.4
		c1.8,1.1,3.1,5,5.1,3.3c2.5-2.1,4-6.2,2.5-9.5c-1.2-2.8-1.4-5.3-1-8.7c2.7,2.8,3.3,2.3,3.9-1.3c1.4-8.6-1.8-15.6-6.6-22.3
		c-1.7-2.4-3.2-2.4-4.3,0.1c-4.2,9.9-11.9,18.6-11.3,30.3c0.1,1.8-1.3,5.1,3.2,4.1c1.3-0.3,1.5,1.9,2,3.1c1.8,4.1,3.1,8.4,7,11.3
		c1.3,1,2.2,2.7,1.1,4.4c-1.1,1.8-2.4,3.5-5.1,2.9c2.5,1.9,3.5,4.8,6.7,6.1c2.6,1.1,3.5,5.1,2.9,8.4c-0.6,3.4-3.4,3.4-6.2,3.5
		c-5.4,0.2-10.6-0.8-15.9-1.1c-4.8-0.3-6.5-3.5-7.3-7.4c-1.8-8.9-5.4-16.5-13.8-21c-0.7-0.4-1.4-0.9-2.1-1.4c-1-0.7-2.1-1.5-1.2-2.8
		c1-1.5,2,0,3,0.4c1.9,0.6,4.2,3.5,5.5,1.8c1.8-2.3,3.1-5.7,1.4-8.9c-2.1-4-2.5-8.2-3.1-12.5c-0.5-3.8-0.8-7.5-4.9-9.7
		c-2.1-1.1-1.5-3.7-2.4-6.3c3.8,1.2,6.1,3.2,8,5.6c1.5,1.9,2.5,1.7,3.6-0.4c2.5-4.7,5.1-9.4,7.6-14.1c0.5-1,1.3-2,0.5-3.2
		c-4.8-8.4,0.2-14.3,5.4-19.9c1.4-1.6,3-2.9,2.5-4.9c-0.6-2.5-2.8-0.7-4.2-0.9c-5-0.7-5.9-1.9-4.1-6.6c0.7-1.9-0.5-2.3-1.8-2.9
		c-1.4-0.6-2.3-0.3-2.3,1.3c0.1,6.7-1.6,12.4-9.5,15.1c8.2,2.4,8.5,2.9,4.8,9.3c-6.2,10.8-15.5,18.7-25.4,25.8
		c-6.3,4.5-7.9,10.8-9.1,17.4c-0.4,2.2-0.4,4.3-2.4,5.7c-2.6,1.9-1.4,4.6,0.2,5.3c3.3,1.2,3.1,4,4.1,6.3c1.1,2.4,1.1,5.3,3.5,7
		c2.9,2,3.4,5,2.7,8c-0.6,2.8-3.8,1.9-6.4,2.8c2.9,3.7,6,6.9,7.7,11.1c2,5.1-0.2,9.1-5.7,9.2c-5.9,0.1-11.8,1.3-17.8-0.5
		c-2.7-0.8-3.8-2.1-4.3-4.6c-0.7-3.6-1.9-7.4-1.8-10.7c0.2-5.6-5.1-8.5-5.2-13.9c-0.1-2-4.7-3.8-7-5.9c-1.3-1.1-4.6-1.6-2.8-4.2
		c1.5-2.2,3.2,0.3,4.7,1c1.7,0.7,3.2,1.8,5.3,3c3.7-13.4-1.3-25.8-3.8-38.8c4.2,1.3,6.1,4.3,9,7.8c0.8-7.6,8.2-10,9.8-16.6
		c-5.3-1.2-10.8-1.1-16.1-1.3c-1.3-0.1-2.7,0-4-0.3c-1.1-0.3-2.3-1.1-2.1-2.4c0.2-1.3,1.5-1,2.5-1.1c4.4-0.7,8.9-1.5,13.3-2.1
		c2.8-0.3,4.6-1.4,5.3-4.3c0.6-2.6,1.6-5.1,3.5-7.1c2.2-2.4,2.9-5.1,1.5-8.2c-0.9-2-0.6-4,1.2-5.4c2.1-1.7,2.3,2,4.5,1.5
		c1.7-5.4,1.9-10.7-0.7-16.4c-2.8-6.1-4.7-12.6-6.7-19.1c-0.3-0.9-0.5-1.7-1.1-2.6c-1.4-2-5.2-3.7,0.3-6.2c3.5-1.6,2.4-6.6-1.2-8.9
		c-2.4-1.5-6.1-9.6-5.6-12c0.4-1.8,1.8-1.3,2.8-1.1c5.2,1.2,11.8-0.5,14.3,6.6c0.5,1.3,1.7,1.5,2.9,0.8c2.4-1.4,5.3-1.9,7.9-4.2
		c-13.2-4.6-25.9-8.9-38.7-13.3c-1.7-0.6-3.6-0.8-2.9-3.6c0.6-2.5,1.8-2.2,3.6-1.5c0.7,0.3,1.5,0.2,2.8,0.4c-1-2.5-3-2.6-4.5-3.2
		c-2.4-1.1-1.8-3.1-1.4-4.7c0.6-2.5,2.4-0.8,3.5-0.4c3.4,1.2,5.8,2.8,9.8-0.8c3-2.7,9.2-3.2,14.3-1.3c10.8,4,21.6,7.9,32.3,11.9
		c2.6,1,5,1.5,7.7,0.4c4.6-1.8,8.9-1.2,13.5,0.8c8.4,3.6,17.2,6.3,25.1,11c3.5,2.1,6.8,0,10.2-0.1c1.4,0,0.7-1.4,0.5-2.4
		c-2.8-11.4-2.7-11.4-13-17.4c-2.3-1.4-4.6-2.7-6.9-4.1c-0.7-0.4-2-1-1.9-1.4c0.8-5.4-4.1-5.1-6.9-6.5c-6.7-3.5-13.7-6.6-21.5-10.3
		c5.2-1,8.9-0.8,12.7,0.8c13.1,5.3,26.4,10.3,39.5,15.5c3.5,1.4,6.9,2.5,10.3,0.1c4.9-3.4,9.6-1.7,13.9,1c4.6,2.9,8.9,2.8,13.4,0.1
		c6.9-4,13.7-4.3,21.4-1.5c7,2.5,14.5-0.2,21.7-0.6c1.8-0.1,2.1-2,2.6-3.3c2.1-5,4.1-10.1,6.6-16.2c2.9,6.6,5.4,12.3,8.3,18.7
		c1.8-4.5,3.3-8.3,5.1-12.8c0.4,1.5,0.7,2.1,0.7,2.8c0.7,9.6,4.4,17.6,12.8,22.9c0.7,0.4,1.4,1.2,1.6,1.9
		c3,11.2,12.1,18.1,18.7,26.7c2.4,3.1,3,4.4-1.1,6.2c-7.2,3.1-14.2,6.5-21.2,10c-2.6,1.3-5,1.6-7.5-0.1c-1-0.7-2.1-1-3.1-1.6
		c-3.3-1.8-7.1-2.4-9.9-0.3c-3.1,2.3-3.3,10.1-1.2,13.2c4.1,6,3.1,13.1,4.4,19.7c1.2,5.8,1.5,11.8,2.4,18.6
		c-5.7-2.6-10.9-4.8-15.9-7.3c-3.2-1.6-5.2-0.7-7.8,1.7c-5,4.7-6.2,10.7-7.3,16.9c-0.5,2.6,0.2,3.8,3.2,3
		C264.7,852.3,267.6,851,270.6,851.5L270.6,851.5z M233.3,845.8c0.3-2.2-0.3-4.2-2.3-4.8c-1.4-0.4-2,1.5-2.1,2.8
		c-0.1,2-0.3,4.6,2.1,5.2C232.3,849.3,233.2,847.4,233.3,845.8z M148.5,837.9c-4.9,4.4-5.5,7-2.7,11.3
		C146.7,845.5,148.7,842.3,148.5,837.9z"/>
	<path class="st1" d="M200.9,557.8c0.5-7.1-1.3-13.8-1.4-20.6c0-1.5-0.9-2.4-1.8-3.4c-1.6-1.7-3.2-3.4-4.6-5.2
		c-2.2-2.9-1.9-18.9,0.1-22c1.6-2.4,2.9-5.1,4.3-7.7c0.5-1,1-2.5-0.5-2.9c-1.2-0.3-2.8,0-3.3,1.6c-0.5,1.5-0.8,3.2-1.3,5.2
		c-2.2-1.2-4-2.4-5.9-3.3c-2-0.9-3.2-3.2-6.1-2.3c-5.3,1.6-9.3,4.8-12.5,9c-1.1,1.4,0.4,3.7,0.3,5.7c-0.1,3.3,3,1.3,4.6,1.6
		c5.2,1,5.4,1.2,3,5.8c-2.5,4.7-6.2,8.2-10.6,11c-1.5,1-3.4,1.6-3.4,3.9c-0.2,10.1-1.9,20.2-1.1,30.3c-0.1,0.1-0.2,0.2-0.3,0.3
		c0.1-0.1,0.1-0.3,0.2-0.4c2.1-1.3,2.5,0.1,2.9,1.7c2.1,8.2,4.3,16.4,7.5,24.3c0.7,1.8,0.9,2.9-1.9,3.1c-2.7,0.2-5.3,1.3-8.6,0.6
		c2.9,4.1,5.7,8.2,8.8,12.1c2.6,3.2,3,6.4,1.4,10.2c-0.9,2.1-2.2,2.8-4.5,3.1c-7.2,1.1-14.2-0.9-21.2-1.4c-3.7-0.2-7.6-7.9-6.8-13
		c0.8-5-0.2-9.5-2.3-14c-1.8-3.9-3.8-7.5-2.8-12.3c0.7-3.3-2.4-6-4.5-8.5c-1.1-1.3-2.2-2.5-3.3-3.7c-0.7-0.8-1.1-1.7-0.1-2.6
		c1-0.9,1.8-0.4,2.6,0.3c0.5,0.5,0.9,1,1.4,1.4c1.8,1.1,3.1,5,5.1,3.3c2.5-2.1,4-6.2,2.5-9.5c-1.2-2.8-1.4-5.3-1-8.7
		c2.7,2.8,3.3,2.3,3.9-1.3c1.4-8.6-1.8-15.6-6.6-22.3c-1.7-2.4-3.2-2.4-4.3,0.1c-4.2,9.9-11.9,18.6-11.3,30.3
		c0.1,1.8-1.3,5.1,3.2,4.1c1.3-0.3,1.5,1.9,2,3.1c1.8,4.1,3.1,8.4,7,11.3c1.3,1,2.2,2.7,1.1,4.4c-1.1,1.8-2.4,3.5-5.1,2.9
		c2.5,1.9,3.5,4.8,6.7,6.1c2.6,1.1,3.5,5.1,2.9,8.4c-0.6,3.4-3.4,3.4-6.2,3.5c-5.4,0.2-10.6-0.8-15.9-1.1c-4.8-0.3-6.5-3.5-7.3-7.4
		c-1.8-8.9-5.4-16.5-13.8-21c-0.7-0.4-1.4-0.9-2.1-1.4c-1-0.7-2.1-1.5-1.2-2.8c1-1.5,2,0,3,0.4c1.9,0.6,4.2,3.5,5.5,1.8
		c1.8-2.3,3.1-5.7,1.4-8.9c-2.1-4-2.5-8.2-3.1-12.5c-0.5-3.8-0.8-7.5-4.9-9.7c-2-1-1.8-3.7-2.1-6.2c3.5,1.1,5.7,3.1,7.7,5.5
		c1.5,1.9,2.5,1.7,3.6-0.4c2.5-4.7,5.1-9.4,7.6-14.1c0.5-1,1.3-2,0.5-3.2c-4.8-8.4,0.2-14.3,5.4-19.9c1.4-1.6,3-2.9,2.5-4.9
		c-0.6-2.5-2.8-0.7-4.2-0.9c-5-0.7-5.9-1.9-4.1-6.6c0.7-1.9-0.5-2.3-1.8-2.9c-1.4-0.6-2.3-0.3-2.3,1.3c0.1,6.7-1.6,12.4-9.5,15.1
		c8.2,2.4,8.5,2.9,4.8,9.3c-6.2,10.8-15.5,18.7-25.4,25.8c-6.3,4.5-7.9,10.8-9.1,17.4c-0.4,2.2-0.4,4.3-2.4,5.7
		c-2.6,1.9-1.4,4.6,0.2,5.3c3.3,1.2,3.1,4,4.1,6.3c1.1,2.4,1.1,5.3,3.5,7c2.9,2,3.4,5,2.7,8c-0.6,2.8-3.8,1.9-6.4,2.8
		c2.9,3.7,6,6.9,7.7,11.1c2,5.1-0.2,9.1-5.7,9.2c-5.9,0.1-11.8,1.3-17.8-0.5c-2.7-0.8-3.8-2.1-4.3-4.6c-0.7-3.6-1.9-7.4-1.8-10.7
		c0.2-5.6-5-8.5-5.2-13.9c-0.1-2.2-4.9-4-7.4-6.2c-1.2-1-4.1-1.5-2.4-4c1.4-2,2.9,0.1,4.3,0.8c1.8,0.9,3.5,2,5.7,3.2
		c3.7-13.4-1.3-25.8-3.8-38.8c4.2,1.3,6.2,4.3,9,7.8c0.8-7.6,8.2-10,9.8-16.6c-5.3-1.2-10.8-1.1-16.1-1.3c-1.3-0.1-2.7,0-4-0.3
		c-1.1-0.3-2.3-1.1-2.1-2.4c0.2-1.3,1.5-1,2.5-1.1c4.4-0.7,8.9-1.5,13.3-2.1c2.8-0.3,4.6-1.4,5.3-4.3c0.6-2.6,1.6-5.1,3.5-7.1
		c2.2-2.4,2.9-5.1,1.5-8.2c-0.9-2-0.6-4,1.2-5.4c2.1-1.7,2.3,2,4.5,1.5c1.7-5.4,1.9-10.7-0.7-16.4c-2.8-6.1-4.7-12.6-6.7-19.1
		c-0.3-0.9-0.5-1.7-1.1-2.6c-1.4-2-5.2-3.7,0.3-6.2c3.5-1.6,2.4-6.6-1.2-8.9c-2.4-1.5-6.1-9.6-5.6-12c0.4-1.8,1.8-1.3,2.8-1.1
		c5.2,1.2,11.8-0.5,14.3,6.6c0.5,1.3,1.7,1.5,2.9,0.8c2.4-1.4,5.3-1.9,7.9-4.2c-13.2-4.6-25.9-8.9-38.7-13.3
		c-1.7-0.6-3.6-0.8-2.8-3.6c0.6-2.5,1.8-2.2,3.6-1.5c0.7,0.3,1.5,0.2,2.8,0.4c-1-2.5-3-2.6-4.5-3.2c-2.4-1.1-1.8-3.1-1.4-4.7
		c0.6-2.5,2.4-0.8,3.5-0.4c3.4,1.2,5.8,2.8,9.8-0.8c3-2.7,9.2-3.2,14.3-1.3c10.8,4,21.6,7.9,32.3,11.9c2.6,1,5,1.5,7.7,0.4
		c4.6-1.8,8.9-1.2,13.5,0.8c8.4,3.6,17.2,6.3,25.1,11c3.5,2.1,6.8,0,10.2-0.1c1.4,0,0.7-1.4,0.5-2.4c-2.8-11.4-2.7-11.4-13-17.4
		c-2.3-1.4-4.6-2.7-6.9-4.1c-0.7-0.4-2-1-1.9-1.4c0.8-5.4-4.1-5.1-6.9-6.5c-6.7-3.5-13.7-6.6-21.5-10.3c5.2-1,8.9-0.8,12.7,0.8
		c13.1,5.3,26.4,10.3,39.5,15.5c3.5,1.4,6.9,2.5,10.3,0.1c4.9-3.4,9.6-1.7,13.9,1c4.6,2.9,8.9,2.8,13.4,0.1c6.9-4,13.7-4.3,21.4-1.5
		c7,2.5,14.5-0.2,21.7-0.6c1.8-0.1,2.1-2,2.6-3.3c2.1-5,4.1-10.1,6.6-16.2c2.9,6.6,5.4,12.3,8.3,18.7c1.8-4.5,3.3-8.3,5.1-12.8
		c0.4,1.5,0.7,2.1,0.7,2.8c0.7,9.6,4.4,17.6,12.8,22.9c0.7,0.4,1.4,1.2,1.6,1.9c3,11.2,12.1,18.1,18.7,26.7c2.4,3.1,3,4.4-1.1,6.2
		c-7.2,3.1-14.2,6.5-21.2,10c-2.6,1.3-5,1.6-7.5-0.1c-1-0.7-2.1-1-3.1-1.6c-3.3-1.8-7.1-2.4-9.9-0.3c-3.1,2.3-3.3,10.1-1.2,13.2
		c4.1,6,3.1,13.1,4.4,19.7c1.2,5.8,1.5,11.8,2.4,18.6c-5.7-2.6-10.9-4.8-15.9-7.3c-3.2-1.6-5.2-0.7-7.8,1.7
		c-5,4.7-6.2,10.7-7.3,16.9c-0.5,2.6,0.2,3.8,3.2,3c2.9-0.8,5.7-2.1,8.8-1.5l0,0c-1.8,4-5.4,6.7-8.2,9.9c-2.2,2.4-3.1,4.3-0.9,7.2
		c1.6,2.2,3.4,4.5,3.9,7.3c-0.4,0.1-0.8,0.3-1.1,0.2c-9-2-9.1-2-8.7,7.1c0.5,11.5,5.4,21,13.6,28.9c2.1,2.1,4,4.5,6.1,6.6
		c1.8,1.8,0.3,3.6-0.1,5c-0.4,1.6-2.2,1.5-3.9,1c-2-0.6-4-1.8-7.3-1.1c3.1,2.8,3.8,6.7,8.9,6.7c3.6,0,4.6,4,4.4,6.8
		c-0.1,2.7-0.6,5.7-4.7,6.4c-6.6,1.1-12.9-0.6-19.4-0.5c-1.3,0-2.4-0.5-2.8-1.7c-2.7-7.7-9.3-13.1-11.9-21.1
		c-2.1-6.6-4.9-13.6-13-15.9c-1.2-0.3-2.6-1.3-1.7-3c0.9-1.6,2-0.2,3,0.1c2.2,0.5,4.4,4.1,6.7,0c2.1-3.8,0.6-7-2.3-9.1
		c-2.5-1.8-4.1-3.6-4-7.4C195.2,554.8,197.9,556.2,200.9,557.8c0.1,0.1-0.1-0.1-0.3-0.2c0,0.1,0.1,0.3,0.1,0.4
		C200.8,558,201,558,200.9,557.8z M198.3,513.5c0.2-2.2-0.6-4.4-2.3-4.6c-2-0.2-2.2,2.1-2.1,3.7c0.1,1.7-0.1,4.1,2.1,4.3
		C197.7,517.1,198.3,515,198.3,513.5z M110.5,516.9c0.8-3.5,3.6-6.6,2.7-11.2C109.6,509.1,107.8,512.4,110.5,516.9z"/>
	<path class="st1" d="M409.6,1100.5c-1.8,4-5.4,6.7-8.2,9.9c-2.2,2.4-3.1,4.3-0.9,7.2c1.6,2.2,3.4,4.5,3.9,7.3
		c-0.4,0.1-0.8,0.3-1.1,0.2c-9-2-9.1-2-8.7,7.1c0.5,11.5,5.4,21,13.6,28.9c2.1,2.1,4,4.5,6.1,6.6c1.8,1.8,0.3,3.6-0.1,5
		c-0.4,1.6-2.2,1.5-3.9,1c-2-0.6-4-1.8-7.3-1.1c3.1,2.8,3.8,6.7,8.9,6.7c3.6,0,4.6,4,4.4,6.8c-0.1,2.7-0.6,5.7-4.7,6.4
		c-6.6,1.1-12.9-0.6-19.4-0.5c-1.3,0-2.4-0.5-2.8-1.7c-2.7-7.7-9.3-13.1-11.9-21.1c-2.1-6.6-4.9-13.6-13-15.9
		c-1.2-0.3-2.6-1.3-1.7-3c0.9-1.6,2-0.2,3,0.1c2.2,0.5,4.4,4.1,6.7,0c2.1-3.8,0.6-7-2.3-9.1c-2.5-1.8-4.1-3.6-4-7.4
		c3,1.5,5.8,2.9,8.8,4.5c0.1,0.1-0.1-0.1-0.3-0.2c0,0.1,0.1,0.3,0.1,0.4c0,0.1,0.2,0,0.1-0.2c0.5-7.1-1.3-13.8-1.4-20.6
		c0-1.5-0.9-2.4-1.8-3.4c-1.6-1.7-3.2-3.4-4.6-5.2c-2.2-2.9-1.9-18.9,0.1-22c1.6-2.4,2.9-5.1,4.3-7.7c0.5-1,1-2.5-0.5-2.9
		c-1.2-0.3-2.8,0-3.3,1.6c-0.5,1.5-0.8,3.2-1.3,5.2c-2.2-1.2-4-2.4-5.9-3.3c-2-0.9-3.2-3.2-6.1-2.3c-5.3,1.6-9.3,4.8-12.5,9
		c-1.1,1.4,0.4,3.7,0.3,5.7c-0.1,3.3,3,1.3,4.6,1.6c5.2,1,5.4,1.2,3,5.8c-2.5,4.7-6.2,8.2-10.6,11c-1.5,1-3.4,1.6-3.4,3.9
		c-0.2,10.1-1.9,20.2-1.1,30.3c-0.1,0.1-0.2,0.2-0.3,0.3c0.1-0.1,0.1-0.3,0.2-0.4c2.1-1.3,2.5,0.1,2.9,1.7
		c2.1,8.2,4.3,16.4,7.5,24.3c0.7,1.8,0.9,2.9-1.9,3.1c-2.7,0.3-5.4,0.9-8.6,0.5c2.9,4.1,5.7,8.2,8.8,12.1c2.6,3.2,3,6.4,1.4,10.2
		c-0.9,2.1-2.2,2.8-4.5,3.1c-7.2,1.1-14.2-0.9-21.2-1.4c-3.7-0.2-7.6-7.9-6.8-13c0.8-5-0.2-9.5-2.3-14c-1.8-3.9-3.8-7.5-2.8-12.3
		c0.7-3.3-2.4-6-4.5-8.5c-1.1-1.3-2.2-2.5-3.3-3.7c-0.7-0.8-1.1-1.7-0.1-2.6c1-0.9,1.8-0.4,2.6,0.3c0.5,0.5,0.9,1,1.4,1.4
		c1.8,1.1,3.1,5,5.1,3.3c2.5-2.1,4-6.2,2.5-9.5c-1.2-2.8-1.4-5.3-1-8.7c2.7,2.8,3.3,2.3,3.9-1.3c1.4-8.6-1.8-15.6-6.6-22.3
		c-1.7-2.4-3.2-2.4-4.3,0.1c-4.2,9.9-11.9,18.6-11.3,30.3c0.1,1.8-1.3,5.1,3.2,4.1c1.3-0.3,1.5,1.9,2,3.1c1.8,4.1,3.1,8.4,7,11.3
		c1.3,1,2.2,2.7,1.1,4.4c-1.1,1.8-2.4,3.5-5.1,2.9c2.5,1.9,3.4,4.8,6.7,6.1c2.6,1.1,3.5,5.1,2.9,8.4c-0.6,3.4-3.4,3.4-6.2,3.5
		c-5.4,0.2-10.6-0.8-15.9-1.1c-4.8-0.3-6.5-3.5-7.3-7.4c-1.8-8.9-5.4-16.5-13.8-21c-0.7-0.4-1.4-0.9-2.1-1.4c-1-0.7-2.1-1.5-1.2-2.8
		c1-1.5,2,0,3,0.4c1.9,0.6,4.2,3.5,5.5,1.8c1.8-2.3,3.1-5.7,1.4-8.9c-2.1-4-2.5-8.2-3.1-12.5c-0.5-3.8-0.8-7.5-4.9-9.7
		c-2.1-1.1-1.5-3.7-2.4-6.3c3.8,1.2,6.1,3.2,8,5.6c1.5,1.9,2.5,1.7,3.6-0.4c2.5-4.7,5.1-9.4,7.6-14.1c0.5-1,1.3-2,0.5-3.2
		c-4.8-8.4,0.2-14.3,5.4-19.9c1.4-1.6,3-2.9,2.5-4.9c-0.6-2.5-2.8-0.7-4.2-0.9c-5-0.7-5.9-1.9-4.1-6.6c0.7-1.9-0.5-2.3-1.8-2.9
		c-1.4-0.6-2.3-0.3-2.2,1.3c0.3,6.8-2.1,12.1-9.2,15.2c7.8,2.3,8.1,2.8,4.5,9.2c-6.2,10.8-15.5,18.7-25.4,25.8
		c-6.3,4.5-7.9,10.8-9.1,17.4c-0.4,2.2-0.4,4.3-2.4,5.7c-2.6,1.9-1.4,4.6,0.2,5.3c3.3,1.2,3.1,4,4.1,6.3c1.1,2.4,1.1,5.3,3.5,7
		c2.9,2,3.4,5,2.7,8c-0.7,2.7-3.7,2-6.5,2.6c3.1,3.9,6.2,7.1,7.8,11.3c2,5.1-0.2,9.1-5.7,9.2c-5.9,0.1-11.8,1.3-17.8-0.5
		c-2.7-0.8-3.8-2.1-4.3-4.6c-0.7-3.6-1.9-7.4-1.8-10.7c0.2-5.6-5-8.5-5.2-13.9c-0.1-2.2-4.9-4-7.4-6.2c-1.2-1-4.1-1.5-2.4-4
		c1.4-2,2.9,0.1,4.3,0.8c1.8,0.9,3.5,2,5.7,3.2c3.7-13.4-1.3-25.8-3.8-38.8c4.2,1.3,6.2,4.3,9,7.8c0.8-7.6,8.2-10,9.8-16.6
		c-5.3-1.2-10.8-1.1-16.1-1.3c-1.3-0.1-2.7,0-4-0.3c-1.1-0.3-2.3-1.1-2.1-2.4c0.2-1.3,1.5-1,2.5-1.1c4.4-0.7,8.9-1.5,13.3-2.1
		c2.8-0.3,4.6-1.4,5.3-4.3c0.6-2.6,1.6-5.1,3.5-7.1c2.2-2.4,2.9-5.1,1.5-8.2c-0.9-2-0.6-4,1.2-5.5c2.2-1.8,2.2,2.1,4.5,1.4
		c1.7-5.3,1.9-10.6-0.7-16.3c-2.8-6.1-4.7-12.6-6.7-19.1c-0.3-0.9-0.5-1.7-1.1-2.6c-1.4-2-5.2-3.7,0.3-6.2c3.5-1.6,2.4-6.6-1.2-8.9
		c-2.4-1.5-6.1-9.6-5.6-12c0.4-1.8,1.8-1.3,2.8-1.1c5.2,1.2,11.8-0.5,14.3,6.6c0.5,1.3,1.7,1.5,2.9,0.8c2.4-1.4,5.3-1.9,7.9-4.2
		c-13.2-4.5-25.9-8.9-38.7-13.3c-1.7-0.6-3.6-0.8-2.8-3.6c0.6-2.5,1.8-2.2,3.6-1.5c0.7,0.3,1.5,0.2,2.8,0.4c-1-2.5-3-2.6-4.5-3.2
		c-2.4-1.1-1.8-3.1-1.4-4.7c0.7-2.5,2.4-0.8,3.5-0.4c3.4,1.2,5.8,2.8,9.8-0.8c3-2.7,9.2-3.2,14.3-1.3c10.8,4,21.6,7.9,32.3,11.9
		c2.6,1,5,1.5,7.7,0.4c4.6-1.8,8.9-1.2,13.5,0.8c8.4,3.6,17.2,6.3,25.1,11c3.5,2.1,6.8,0,10.2-0.1c1.4,0,0.7-1.4,0.5-2.4
		c-2.8-11.4-2.7-11.4-13-17.4c-2.3-1.4-4.6-2.7-6.9-4.1c-0.7-0.4-2-1-1.9-1.4c0.8-5.4-4.1-5.1-6.9-6.5c-6.5-3.4-13.2-6.4-19.8-9.5
		c-0.2-0.1-0.3-0.5-0.6-0.9c4-0.8,7.8-0.5,11.6,1c13.1,5.3,26.4,10.3,39.5,15.5c3.5,1.4,6.9,2.5,10.3,0.1c4.9-3.4,9.6-1.7,13.9,1
		c4.6,2.9,8.9,2.8,13.4,0.1c6.9-4,13.7-4.3,21.4-1.5c7,2.5,14.5-0.2,21.7-0.6c1.8-0.1,2.1-2,2.6-3.3c2.1-5,4.1-10.1,6.6-16.2
		c2.9,6.6,5.4,12.3,8.3,18.7c1.8-4.5,3.3-8.3,5.1-12.8c0.4,1.5,0.7,2.1,0.7,2.8c0.7,9.6,4.4,17.6,12.8,22.9c0.7,0.4,1.4,1.2,1.6,1.9
		c3,11.2,12.1,18.1,18.7,26.7c2.4,3.1,3,4.4-1.1,6.2c-7.2,3.1-14.2,6.5-21.2,10c-2.6,1.3-5,1.6-7.5-0.1c-1-0.7-2.1-1-3.1-1.6
		c-3.3-1.8-7.1-2.4-9.9-0.3c-3.1,2.3-3.3,10.1-1.2,13.2c4.1,6,3.1,13.1,4.4,19.7c1.2,5.8,1.5,11.8,2.4,18.5
		c-5.7-2.6-10.9-4.8-15.9-7.3c-3.2-1.6-5.2-0.7-7.8,1.7c-5,4.7-6.2,10.7-7.3,16.9c-0.5,2.6,0.2,3.8,3.2,3
		C403.7,1101.3,406.6,1100,409.6,1100.5L409.6,1100.5z M367.8,1094.1c0.7,1.3-0.1,3.9,2.4,3.8c1.8-0.1,2.2-2.1,2.2-3.9
		c0-1.9-0.6-4-2.6-4C367.8,1090,367.9,1092.3,367.8,1094.1z M284.5,1099.2c1.2-4.8,3.3-8,2.8-12.5
		C283.6,1090.1,281.8,1093.4,284.5,1099.2z"/>
	<path class="st1" d="M543.6,804.5c2.1-1.3,2.5,0.1,2.9,1.7c2.1,8.2,4.3,16.4,7.5,24.3c0.7,1.8,0.9,2.9-1.9,3.1
		c-2.7,0.3-5.4,0.9-8.6,0.5c2.9,4.1,5.7,8.2,8.8,12.1c2.6,3.2,3,6.4,1.4,10.2c-0.9,2.1-2.2,2.8-4.5,3.1c-7.2,1.1-14.2-0.9-21.2-1.4
		c-3.7-0.2-7.6-7.9-6.8-13c0.8-5-0.2-9.5-2.3-14c-1.8-3.9-3.8-7.5-2.8-12.3c0.7-3.3-2.4-6-4.5-8.5c-1.1-1.3-2.2-2.5-3.3-3.7
		c-0.7-0.8-1.1-1.7-0.1-2.6c1-0.9,1.8-0.4,2.6,0.3c0.5,0.5,0.9,1,1.4,1.4c1.8,1.1,3.1,5,5.1,3.3c2.5-2.1,4-6.2,2.5-9.5
		c-1.2-2.8-1.4-5.3-1-8.7c2.7,2.8,3.3,2.3,3.9-1.3c1.4-8.6-1.8-15.6-6.6-22.3c-1.7-2.4-3.2-2.4-4.3,0.1
		c-4.2,9.9-11.9,18.6-11.3,30.3c0.1,1.8-1.3,5.1,3.2,4.1c1.3-0.3,1.5,1.9,2,3.1c1.8,4.1,3.1,8.4,7,11.3c1.3,1,2.2,2.7,1.1,4.4
		c-1.1,1.8-2.4,3.5-5.1,2.9c2.5,1.9,3.5,4.8,6.7,6.1c2.6,1.1,3.5,5.1,2.9,8.4c-0.6,3.4-3.4,3.4-6.2,3.5c-5.4,0.2-10.6-0.8-15.9-1.1
		c-4.8-0.3-6.5-3.5-7.3-7.4c-1.8-8.9-5.4-16.5-13.8-21c-0.7-0.4-1.4-0.9-2.1-1.4c-1-0.7-2.1-1.5-1.2-2.8c1-1.5,2,0,3,0.4
		c1.9,0.6,4.2,3.5,5.5,1.8c1.8-2.3,3.1-5.7,1.4-8.9c-2.1-4-2.5-8.2-3.1-12.5c-0.5-3.8-0.8-7.5-4.9-9.7c-2-1-1.8-3.7-2.1-6.2
		c3.5,1.1,5.7,3.1,7.7,5.5c1.5,1.9,2.5,1.7,3.6-0.4c2.5-4.7,5.1-9.4,7.6-14.1c0.5-1,1.3-2,0.5-3.2c-4.8-8.4,0.2-14.3,5.4-19.9
		c1.4-1.6,3-2.9,2.5-4.9c-0.6-2.5-2.8-0.7-4.2-0.9c-5-0.7-5.9-1.9-4.1-6.6c0.7-1.9-0.5-2.3-1.8-2.9c-1.4-0.6-2.3-0.3-2.2,1.3
		c0.3,6.8-2.1,12.1-9.2,15.2c7.8,2.3,8.1,2.8,4.5,9.2c-6.2,10.8-15.5,18.7-25.4,25.8c-6.3,4.5-7.9,10.8-9.1,17.4
		c-0.4,2.2-0.4,4.3-2.4,5.7c-2.6,1.9-1.4,4.6,0.2,5.3c3.3,1.2,3.1,4,4.1,6.3c1.1,2.4,1.1,5.3,3.5,7c2.9,2,3.4,5,2.7,8
		c-0.7,2.7-3.7,2-6.5,2.6c3.1,3.9,6.2,7.1,7.8,11.3c2,5.1-0.2,9.1-5.7,9.2c-5.9,0.1-11.8,1.3-17.8-0.5c-2.7-0.8-3.8-2.1-4.3-4.6
		c-0.7-3.6-1.9-7.4-1.8-10.7c0.2-5.6-5-8.5-5.2-13.9c-0.1-2.2-4.9-4-7.4-6.2c-1.2-1-4.1-1.5-2.4-4c1.4-2,2.9,0.1,4.3,0.8
		c1.8,0.9,3.5,2,5.7,3.2c3.7-13.4-1.3-25.8-3.8-38.8c4.2,1.3,6.2,4.2,8.9,7.8c0.9-7.6,8.2-10.1,9.9-16.6c-5.4-1.2-10.8-1.1-16.2-1.3
		c-1.3-0.1-2.7,0-4-0.3c-1.1-0.3-2.3-1.1-2.1-2.4c0.2-1.3,1.5-1,2.5-1.1c4.4-0.7,8.9-1.5,13.3-2.1c2.8-0.3,4.6-1.4,5.3-4.3
		c0.6-2.6,1.6-5.1,3.5-7.1c2.2-2.4,2.9-5.1,1.5-8.2c-0.9-2-0.6-4,1.2-5.4c2.1-1.7,2.3,2,4.5,1.5c1.7-5.4,1.9-10.7-0.7-16.4
		c-2.8-6.1-4.7-12.6-6.7-19.1c-0.3-0.9-0.5-1.7-1.1-2.6c-1.4-2-5.2-3.7,0.3-6.2c3.5-1.6,2.4-6.6-1.2-8.9c-2.4-1.5-6.1-9.6-5.6-12
		c0.4-1.8,1.8-1.3,2.8-1.1c5.2,1.2,11.8-0.5,14.3,6.6c0.5,1.3,1.7,1.5,2.9,0.8c2.5-1.2,5-2.4,8.6-4c-13.9-4.8-26.6-9.1-39.3-13.5
		c-1.7-0.6-3.6-0.8-2.9-3.6c0.6-2.5,1.8-2.2,3.6-1.5c0.7,0.3,1.5,0.2,2.8,0.4c-1-2.5-3-2.6-4.5-3.2c-2.4-1.1-1.8-3.1-1.4-4.7
		c0.6-2.5,2.4-0.8,3.5-0.4c3.4,1.2,5.8,2.8,9.8-0.8c3-2.7,9.2-3.2,14.3-1.3c10.8,4,21.6,7.9,32.3,11.9c2.6,1,5,1.5,7.7,0.4
		c4.6-1.8,8.9-1.2,13.5,0.8c8.4,3.6,17.2,6.3,25.1,11c3.5,2.1,6.8,0,10.2-0.1c1.4,0,0.7-1.4,0.5-2.4c-2.8-11.4-2.7-11.4-13-17.4
		c-2.3-1.4-4.6-2.7-6.9-4.1c-0.7-0.4-2-1-1.9-1.4c0.8-5.4-4.1-5.1-6.9-6.5c-6.7-3.5-13.7-6.6-21.5-10.3c5.2-1,8.9-0.8,12.7,0.8
		c13.1,5.3,26.4,10.3,39.5,15.5c3.5,1.4,6.9,2.5,10.3,0.1c4.9-3.4,9.6-1.7,13.9,1c4.6,2.9,8.9,2.8,13.4,0.1c6.9-4,13.7-4.3,21.4-1.5
		c7,2.5,14.5-0.2,21.7-0.6c1.8-0.1,2.1-2,2.6-3.3c2.1-5,4.1-10.1,6.6-16.2c2.9,6.6,5.4,12.3,8.3,18.7c1.8-4.6,3.3-8.3,5.1-12.8
		c0.4,1.5,0.7,2.1,0.7,2.8c0.7,9.6,4.4,17.6,12.8,22.9c0.7,0.4,1.4,1.2,1.6,1.9c3,11.2,12.1,18.1,18.7,26.7c2.4,3.1,3,4.4-1.1,6.2
		c-7.2,3.1-14.2,6.5-21.2,10c-2.6,1.3-5,1.6-7.5-0.1c-1-0.7-2.1-1-3.1-1.6c-3.3-1.8-7.1-2.4-9.9-0.3c-3.1,2.3-3.3,10.1-1.2,13.2
		c4.1,6,3.1,13.1,4.4,19.7c1.2,5.8,1.5,11.8,2.4,18.6c-5.7-2.6-10.9-4.8-15.8-7.3c-3.2-1.6-5.2-0.7-7.8,1.7
		c-5,4.7-6.2,10.7-7.3,16.9c-0.5,2.6,0.2,3.8,3.2,3c2.9-0.8,5.7-2.1,8.8-1.5l0,0c-1.8,4-5.4,6.7-8.2,9.9c-2.2,2.4-3.1,4.3-0.9,7.2
		c1.6,2.2,3.4,4.5,3.9,7.3c-0.4,0.1-0.8,0.3-1.1,0.2c-9-2-9.1-2-8.7,7.1c0.5,11.5,5.4,21,13.6,28.9c2.1,2.1,4,4.5,6.1,6.6
		c1.8,1.8,0.3,3.6-0.1,5c-0.4,1.6-2.2,1.5-3.9,1c-2-0.6-4-1.8-7.3-1.1c3.1,2.8,3.8,6.7,8.9,6.7c3.6,0,4.6,4,4.4,6.8
		c-0.1,2.7-0.6,5.7-4.7,6.4c-6.6,1.1-12.9-0.6-19.4-0.5c-1.3,0-2.4-0.5-2.8-1.7c-2.7-7.7-9.3-13.1-11.9-21.1
		c-2.1-6.6-4.9-13.6-13-15.9c-1.2-0.3-2.6-1.3-1.7-3c0.9-1.6,2-0.2,3,0.1c2.2,0.5,4.4,4.1,6.7,0c2.1-3.8,0.6-7-2.3-9.1
		c-2.5-1.8-4.1-3.6-4-7.4c3,1.5,5.8,2.9,8.8,4.5c0.1,0.1-0.1-0.1-0.3-0.2c0,0.1,0.1,0.3,0.1,0.4c0,0.1,0.2,0,0.1-0.2
		c0.5-7.1-1.3-13.8-1.4-20.6c0-1.5-0.9-2.4-1.8-3.4c-1.6-1.7-3.2-3.4-4.6-5.2c-2.2-2.9-1.9-18.9,0.1-22c1.6-2.4,2.9-5.1,4.3-7.7
		c0.5-1,1-2.5-0.5-2.9c-1.2-0.3-2.8,0-3.3,1.6c-0.5,1.5-0.8,3.2-1.3,5.2c-2.2-1.2-4-2.4-5.9-3.3c-2-0.9-3.2-3.2-6.1-2.3
		c-5.3,1.6-9.3,4.8-12.5,9c-1.1,1.4,0.4,3.7,0.3,5.7c-0.1,3.3,3,1.3,4.6,1.6c5.2,1,5.4,1.2,3,5.8c-2.5,4.7-6.2,8.2-10.6,11
		c-1.5,1-3.4,1.6-3.4,3.9C544.6,784.4,542.9,794.4,543.6,804.5c0,0.2-0.1,0.3-0.2,0.4C543.5,804.8,543.5,804.6,543.6,804.5z
		 M576.8,753.1c0.7,1.2-0.1,3.9,2.4,3.8c1.8-0.1,2.2-2.2,2.2-3.9c0-1.9-0.6-4-2.6-4C576.8,749,576.9,751.3,576.8,753.1z
		 M493.5,758.1c1.2-4.7,3.3-7.9,2.8-12C491.9,749.8,491.3,752,493.5,758.1z"/>
	<path class="st1" d="M849.6,971.5c-1.8,4-5.4,6.7-8.2,9.9c-2.2,2.4-3.2,4.3-0.8,7.2c1.7,2.1,2.8,4.8,4.2,7.3
		c-0.8,0.2-1.1,0.4-1.4,0.3c-9-2-9.1-2-8.7,7.1c0.5,11.5,5.4,21,13.6,28.9c2.1,2.1,4,4.5,6.1,6.6c1.8,1.8,0.3,3.6-0.1,5
		c-0.4,1.6-2.2,1.5-3.9,1c-2-0.6-4-1.8-7.3-1.1c3.1,2.8,3.8,6.7,8.9,6.7c3.6,0,4.6,4,4.4,6.8c-0.1,2.7-0.6,5.7-4.7,6.4
		c-6.6,1.1-12.9-0.6-19.4-0.5c-1.3,0-2.4-0.5-2.8-1.7c-2.7-7.7-9.3-13.1-11.9-21.1c-2.1-6.6-4.9-13.6-13-15.9
		c-1.2-0.3-2.6-1.3-1.7-3c0.9-1.6,2-0.2,3,0.1c2.2,0.5,4.4,4.1,6.7,0c2.1-3.8,0.7-7-2.3-9.1c-2.6-1.8-3.9-3.7-4.2-7.5
		c3.2,1.6,6,3,8.9,4.6c0.2,0.1,0.2-0.1,0.2-0.1c-0.1-0.1-0.3-0.1-0.4-0.1c0,0.1,0.1,0.3,0.1,0.4c0,0.1,0.2,0,0.1-0.2
		c0.5-7.1-1.3-13.8-1.4-20.6c0-1.5-0.9-2.4-1.8-3.4c-1.6-1.7-3.2-3.4-4.6-5.2c-2.2-2.9-1.9-18.9,0.1-22c1.6-2.4,2.9-5.1,4.3-7.7
		c0.5-1,1-2.5-0.5-2.9c-1.2-0.3-2.8,0-3.3,1.6c-0.5,1.5-0.8,3.2-1.3,5.2c-2.2-1.2-4-2.4-5.9-3.3c-2-0.9-3.2-3.2-6.1-2.3
		c-5.3,1.6-9.3,4.8-12.5,9c-1.1,1.4,0.4,3.7,0.3,5.7c-0.1,3.3,3,1.3,4.6,1.6c5.2,1,5.4,1.2,3,5.8c-2.5,4.7-6.2,8.2-10.6,11
		c-1.5,1-3.4,1.6-3.4,3.9c-0.2,10.1-1.9,20.2-1.1,30.3c-0.1,0.1-0.2,0.2-0.3,0.3c0.1-0.1,0.1-0.3,0.2-0.4c2.1-1.3,2.5,0.1,2.9,1.7
		c2.1,8.2,4.3,16.4,7.5,24.3c0.7,1.8,0.9,2.9-1.9,3.1c-2.7,0.3-5.4,0.9-8.6,0.5c2.9,4.1,5.7,8.2,8.8,12.1c2.6,3.2,3,6.4,1.4,10.2
		c-0.9,2.1-2.2,2.8-4.5,3.1c-7.2,1.1-14.2-0.9-21.2-1.4c-3.7-0.2-7.6-7.9-6.8-13c0.8-5-0.2-9.5-2.3-14c-1.8-3.9-3.8-7.5-2.8-12.3
		c0.7-3.3-2.4-6-4.5-8.5c-1.1-1.3-2.2-2.5-3.3-3.7c-0.7-0.8-1.1-1.7-0.1-2.6c1-0.9,1.8-0.4,2.6,0.3c0.5,0.5,0.9,1,1.4,1.4
		c1.8,1.1,3.1,5,5.1,3.3c2.5-2.1,4-6.2,2.5-9.5c-1.2-2.8-1.4-5.3-1-8.7c2.7,2.8,3.3,2.3,3.9-1.3c1.4-8.6-1.8-15.6-6.6-22.3
		c-1.7-2.4-3.2-2.4-4.3,0.1c-4.2,9.9-11.9,18.6-11.3,30.3c0.1,1.8-1.3,5.1,3.2,4.1c1.3-0.3,1.5,1.9,2,3.1c1.8,4.1,3.1,8.4,7,11.3
		c1.3,1,2.2,2.8,1.1,4.4c-1.1,1.6-2,4.1-5.3,2.7c2.6,2.1,3.6,5,6.8,6.3c2.6,1.1,3.5,5.1,2.9,8.4c-0.6,3.4-3.4,3.4-6.2,3.5
		c-5.4,0.2-10.6-0.8-15.9-1.1c-4.8-0.3-6.5-3.5-7.3-7.4c-1.8-8.9-5.4-16.5-13.8-21c-0.7-0.4-1.4-0.9-2.1-1.4c-1-0.7-2.1-1.5-1.2-2.8
		c1-1.5,2,0,3,0.4c1.9,0.6,4.2,3.5,5.5,1.8c1.8-2.3,3.1-5.7,1.4-8.9c-2.1-4-2.5-8.2-3.1-12.5c-0.5-3.8-0.8-7.5-4.9-9.7
		c-2.1-1.1-1.5-3.7-2.4-6.3c3.8,1.2,6.1,3.2,8,5.6c1.5,1.9,2.5,1.7,3.6-0.4c2.5-4.7,5.1-9.4,7.6-14.1c0.5-1,1.3-2,0.5-3.2
		c-4.8-8.4,0.2-14.3,5.4-19.9c1.4-1.6,3-2.9,2.5-4.9c-0.6-2.5-2.8-0.7-4.2-0.9c-5-0.7-5.9-1.9-4.1-6.6c0.7-1.9-0.5-2.3-1.8-2.9
		c-1.4-0.6-2.3-0.3-2.2,1.3c0.3,6.8-2.1,12.1-9.2,15.2c7.8,2.3,8.1,2.8,4.5,9.2c-6.2,10.8-15.5,18.7-25.4,25.8
		c-6.3,4.5-7.9,10.8-9.1,17.4c-0.4,2.2-0.4,4.3-2.4,5.7c-2.6,1.9-1.4,4.6,0.2,5.3c3.3,1.2,3.1,4,4.1,6.3c1.1,2.4,1.1,5.3,3.5,7
		c2.9,2,3.4,5,2.7,8c-0.6,2.8-3.8,1.9-6.4,2.8c2.9,3.7,6,6.9,7.7,11.1c2,5.1-0.2,9.1-5.7,9.2c-5.9,0.1-11.8,1.3-17.8-0.5
		c-2.7-0.8-3.8-2.1-4.3-4.6c-0.7-3.6-1.9-7.4-1.8-10.7c0.2-5.6-5-8.5-5.2-13.9c-0.1-2.2-4.9-4-7.4-6.2c-1.2-1-4.1-1.5-2.4-4
		c1.4-2,2.9,0.1,4.3,0.8c1.8,0.9,3.5,2,5.7,3.2c3.7-13.4-1.3-25.8-3.8-38.8c4.2,1.3,6.2,4.2,8.9,7.8c0.9-7.6,8.2-10.1,9.9-16.6
		c-5.4-1.2-10.8-1.1-16.2-1.3c-1.3-0.1-2.7,0-4-0.3c-1.1-0.3-2.3-1.1-2.1-2.4c0.2-1.3,1.5-1,2.5-1.1c4.4-0.7,8.9-1.5,13.3-2.1
		c2.8-0.3,4.6-1.4,5.3-4.3c0.6-2.6,1.6-5.1,3.5-7.1c2.2-2.4,2.9-5.1,1.5-8.2c-0.9-2-0.6-4,1.2-5.4c2.1-1.7,2.3,2,4.5,1.5
		c1.7-5.4,1.9-10.7-0.7-16.4c-2.8-6.1-4.7-12.6-6.7-19.1c-0.3-0.9-0.5-1.7-1.1-2.6c-1.4-2-5.2-3.7,0.3-6.2c3.5-1.6,2.4-6.6-1.2-8.9
		c-2.4-1.5-6.1-9.6-5.6-12c0.4-1.8,1.8-1.3,2.8-1.1c5.2,1.2,11.8-0.5,14.3,6.6c0.5,1.3,1.7,1.5,2.9,0.8c2.4-1.4,5.3-1.9,7.9-4.2
		c-13.2-4.6-25.9-8.9-38.7-13.3c-1.7-0.6-3.6-0.8-2.8-3.6c0.6-2.5,1.8-2.2,3.6-1.5c0.7,0.3,1.5,0.2,2.8,0.4c-1-2.5-3-2.6-4.5-3.2
		c-2.4-1.1-1.8-3.1-1.4-4.7c0.7-2.5,2.4-0.8,3.5-0.4c3.4,1.2,5.8,2.8,9.8-0.8c3-2.7,9.2-3.2,14.3-1.3c10.8,4,21.6,7.9,32.3,11.9
		c2.6,1,5,1.5,7.7,0.4c4.6-1.8,8.9-1.2,13.5,0.8c8.4,3.6,17.2,6.3,25.1,11c3.5,2.1,6.8,0,10.2-0.1c1.4,0,0.7-1.4,0.5-2.4
		c-2.8-11.4-2.7-11.4-13-17.4c-2.3-1.4-4.6-2.7-6.9-4.1c-0.7-0.4-2-1-1.9-1.4c0.8-5.4-4.1-5.1-6.9-6.5c-6.7-3.5-13.7-6.6-21.5-10.3
		c5.2-1,8.9-0.8,12.7,0.8c13.1,5.3,26.4,10.3,39.5,15.5c3.5,1.4,6.9,2.5,10.3,0.1c4.9-3.4,9.6-1.7,13.9,1c4.6,2.9,8.9,2.8,13.4,0.1
		c6.9-4,13.7-4.3,21.4-1.5c7,2.5,14.5-0.2,21.7-0.6c1.8-0.1,2.1-2,2.6-3.3c2.1-5,4.1-10.1,6.6-16.2c2.9,6.6,5.4,12.3,8.3,18.7
		c1.8-4.5,3.3-8.3,5.1-12.8c0.4,1.5,0.7,2.1,0.7,2.8c0.7,9.6,4.4,17.6,12.8,22.9c0.7,0.4,1.4,1.2,1.6,1.9
		c3,11.2,12.1,18.1,18.7,26.7c2.4,3.1,3,4.4-1.1,6.2c-7.2,3.1-14.2,6.5-21.2,10c-2.6,1.3-5,1.6-7.5-0.1c-1-0.7-2.1-1-3.1-1.6
		c-3.3-1.8-7.1-2.4-9.9-0.3c-3.1,2.3-3.3,10.1-1.2,13.2c4.1,6,3.1,13.1,4.4,19.7c1.2,5.8,1.5,11.8,2.4,18.6
		c-5.7-2.6-10.9-4.8-15.9-7.3c-3.2-1.6-5.2-0.7-7.8,1.7c-5,4.7-6.2,10.7-7.3,16.9c-0.5,2.6,0.2,3.8,3.2,3
		C843.7,972.3,846.6,971,849.6,971.5L849.6,971.5z M807.7,965.3c1,0.8-0.4,3.8,2.4,3.6c1.9-0.2,2.2-2.2,2.2-3.9c0-1.9-0.6-4-2.6-4
		C807.8,961,807.9,963.3,807.7,965.3z M727.5,957.9c-4.9,4.4-5.5,7-2.6,11.3C725.7,965.5,727.7,962.3,727.5,957.9z"/>
	<path class="st1" d="M409.7,1100.6c0.1-0.2,0.3-0.3,0.4-0.5c0,0.1,0,0.3,0,0.3C409.9,1100.5,409.7,1100.5,409.7,1100.6
		C409.6,1100.5,409.7,1100.6,409.7,1100.6z"/>
	<path class="st1" d="M270.7,1350.6c0.1-0.2,0.3-0.3,0.4-0.5c0,0.1,0,0.3,0,0.3C270.9,1350.5,270.7,1350.5,270.7,1350.6
		C270.6,1350.5,270.7,1350.6,270.7,1350.6z"/>
	<path class="st1" d="M849.7,971.6c0.1-0.2,0.3-0.3,0.4-0.5c0,0.1,0,0.3,0,0.3C849.9,971.5,849.7,971.5,849.7,971.6
		C849.6,971.5,849.7,971.6,849.7,971.6z"/>
	<path class="st1" d="M568.7,478.6c0.1-0.2,0.3-0.3,0.4-0.5c0,0.1,0,0.3,0,0.3C568.9,478.5,568.7,478.5,568.7,478.6
		C568.6,478.5,568.7,478.6,568.7,478.6z"/>
	<path class="st1" d="M235.7,519.6c0.1-0.2,0.3-0.3,0.4-0.5c0,0.1,0,0.3,0,0.3C235.9,519.5,235.7,519.5,235.7,519.6
		C235.6,519.5,235.7,519.6,235.7,519.6z"/>
	<path class="st1" d="M999.7,721.6c0.1-0.2,0.3-0.3,0.4-0.5c0,0.1,0,0.3,0,0.3C999.9,721.5,999.7,721.5,999.7,721.6
		C999.6,721.5,999.7,721.6,999.7,721.6z"/>
	<path class="st1" d="M618.7,759.6c0.1-0.2,0.3-0.3,0.4-0.5c0,0.1,0,0.3,0,0.3C618.9,759.5,618.7,759.5,618.7,759.6
		C618.6,759.5,618.7,759.6,618.7,759.6z"/>
	<path class="st1" d="M270.7,851.6c0.1-0.2,0.3-0.3,0.4-0.5c0,0.1,0,0.3,0,0.3C270.9,851.5,270.7,851.5,270.7,851.6
		C270.6,851.5,270.7,851.6,270.7,851.6z"/>
	<path class="st0" d="M957.7,715c0.3-1.9,0.4-4,2-4c2.1,0,2.6,2.1,2.6,4c0,1.8-0.5,3.9-2.3,3.9C957.5,718.9,958.6,716.1,957.7,715z"
		/>
	<path class="st0" d="M874.2,719.2c-2.8-4.7-0.3-7.8,2.4-11.4C877.6,711.6,877.2,713.3,874.2,719.2z"/>
	<path class="st0" d="M965.1,760c-0.1,0-0.3,0-0.3-0.1c-0.1-0.1-0.1-0.3-0.1-0.4c0.1,0,0.3,0,0.4,0.1
		C965.1,759.7,965.1,759.9,965.1,760z"/>
	<path class="st0" d="M924.6,766.5c-0.1,0.1-0.1,0.3-0.2,0.4C924.5,766.8,924.6,766.7,924.6,766.5
		C924.7,766.6,924.6,766.5,924.6,766.5z"/>
	<path class="st0" d="M303.8,223.1c0.1-1.8,0.1-4.1,2-4.1c2,0,2.6,2.1,2.6,4c0,1.7-0.3,3.8-2.2,3.9
		C303.6,227,304.5,224.3,303.8,223.1z"/>
	<path class="st0" d="M220.6,228.3c-2.8-5.8-1-9.1,2.6-12.6C223.9,220.2,221.7,223.4,220.6,228.3z"/>
	<path class="st0" d="M311.2,268c-0.2,0-0.4,0-0.4-0.1c-0.1-0.1-0.1-0.3-0.1-0.4C310.8,267.7,310.9,267.8,311.2,268z"/>
	<path class="st0" d="M270.6,274.5c-0.1,0.1-0.1,0.3-0.2,0.4C270.5,274.8,270.6,274.7,270.6,274.5
		C270.7,274.6,270.6,274.5,270.6,274.5z"/>
	<path class="st0" d="M526.7,472c0.3-1.9,0.4-4,2-4c2.1,0.1,2.6,2.2,2.6,4.1c0,1.8-0.5,3.9-2.4,3.8
		C526.5,475.9,527.5,473.1,526.7,472z"/>
	<path class="st0" d="M446.3,465.1c0.5,4.1-1.6,7.3-2.6,11.2C441,471.7,441.7,469.1,446.3,465.1z"/>
	<path class="st0" d="M534.2,517c-0.2,0-0.4,0-0.4-0.1c-0.1-0.1-0.1-0.3-0.1-0.4C533.8,516.7,533.9,516.8,534.2,517z"/>
	<path class="st0" d="M493.6,523.5c-0.1,0.1-0.1,0.3-0.2,0.4C493.5,523.8,493.6,523.7,493.6,523.5
		C493.7,523.6,493.6,523.5,493.6,523.5z"/>
	<path class="st0" d="M233.3,1345c0,0.9-0.6,3-2.3,2.9c-2.2-0.1-2-2.6-2.1-4.2c-0.1-1.6,0.1-3.9,2.1-3.7
		C232.7,1340.1,233.4,1342.3,233.3,1345z"/>
	<path class="st0" d="M148.2,1336.1c0.2,5-0.3,6.9-2.9,12.1C142.5,1343.6,144.9,1340.4,148.2,1336.1z"/>
	<path class="st0" d="M236.2,1389c-0.2,0-0.4,0-0.4-0.1c-0.1-0.1-0.1-0.3-0.1-0.4C235.8,1388.7,235.9,1388.8,236.2,1389z"/>
	<path class="st0" d="M195.6,1395.5c-0.1,0.1-0.1,0.3-0.2,0.4C195.5,1395.8,195.6,1395.7,195.6,1395.5
		C195.7,1395.6,195.6,1395.5,195.6,1395.5z"/>
	<path class="st0" d="M233.3,845.8c-0.1,1.6-1,3.5-2.3,3.2c-2.4-0.6-2.2-3.2-2.1-5.2c0.1-1.3,0.7-3.2,2.1-2.8
		C233,841.5,233.6,843.6,233.3,845.8z"/>
	<path class="st0" d="M148.5,837.9c0.2,4.4-1.8,7.6-2.7,11.3C143,844.8,143.6,842.3,148.5,837.9z"/>
	<path class="st0" d="M236.2,890c-0.2,0-0.4,0-0.4-0.1c-0.1-0.1-0.1-0.3-0.1-0.4C235.8,889.7,235.9,889.8,236.2,890z"/>
	<path class="st0" d="M195.6,896.5c-0.1,0.1-0.1,0.3-0.2,0.4C195.5,896.8,195.6,896.7,195.6,896.5
		C195.7,896.6,195.6,896.5,195.6,896.5z"/>
	<path class="st0" d="M198.3,513.5c0,1.5-0.6,3.5-2.4,3.4c-2.2-0.2-2-2.6-2.1-4.3c-0.1-1.6,0.2-3.9,2.1-3.7
		C197.7,509.2,198.5,511.3,198.3,513.5z"/>
	<path class="st0" d="M110.5,516.9c-2.7-4.5-1-7.8,2.7-11.2C114.1,510.3,111.4,513.4,110.5,516.9z"/>
	<path class="st0" d="M201.2,558c-0.2,0-0.4,0-0.4-0.1c-0.1-0.1-0.1-0.3-0.1-0.4C200.8,557.7,200.9,557.8,201.2,558z"/>
	<path class="st0" d="M160.6,564.5c-0.1,0.1-0.1,0.3-0.2,0.4C160.5,564.8,160.6,564.7,160.6,564.5
		C160.7,564.6,160.6,564.5,160.6,564.5z"/>
	<path class="st0" d="M367.8,1094.1c0.1-1.8,0.1-4.1,2-4.1c2,0,2.6,2.1,2.6,4c0,1.7-0.4,3.8-2.2,3.9
		C367.6,1098,368.5,1095.3,367.8,1094.1z"/>
	<path class="st0" d="M284.5,1099.2c-2.7-5.8-0.9-9.1,2.8-12.5C287.9,1091.2,285.8,1094.5,284.5,1099.2z"/>
	<path class="st0" d="M375.2,1139c-0.2,0-0.4,0-0.4-0.1c-0.1-0.1-0.1-0.3-0.1-0.4C374.8,1138.7,374.9,1138.8,375.2,1139z"/>
	<path class="st0" d="M334.6,1145.5c-0.1,0.1-0.1,0.3-0.2,0.4C334.5,1145.8,334.6,1145.7,334.6,1145.5
		C334.7,1145.6,334.6,1145.5,334.6,1145.5z"/>
	<path class="st0" d="M576.8,753.1c0.1-1.8,0.1-4.1,2-4.1c2,0,2.6,2.1,2.6,4c0,1.7-0.3,3.8-2.2,3.9
		C576.6,757,577.5,754.3,576.8,753.1z"/>
	<path class="st0" d="M493.5,758.1c-2.3-6.1-1.6-8.3,2.8-12C496.8,750.3,494.8,753.5,493.5,758.1z"/>
	<path class="st0" d="M584.2,798c-0.2,0-0.4,0-0.4-0.1c-0.1-0.1-0.1-0.3-0.1-0.4C583.8,797.7,583.9,797.8,584.2,798z"/>
	<path class="st0" d="M543.6,804.5c-0.1,0.1-0.1,0.3-0.2,0.4C543.5,804.8,543.6,804.7,543.6,804.5
		C543.7,804.6,543.6,804.5,543.6,804.5z"/>
	<path class="st0" d="M807.7,965.3c0.1-2,0.1-4.3,2-4.3c2,0,2.6,2.1,2.6,4c0,1.7-0.3,3.7-2.2,3.9
		C807.4,969.1,808.8,966.2,807.7,965.3z"/>
	<path class="st0" d="M727.5,957.9c0.2,4.4-1.8,7.6-2.6,11.3C722,964.9,722.6,962.3,727.5,957.9z"/>
	<path class="st0" d="M774.6,1016.5c-0.1,0.1-0.1,0.3-0.2,0.4C774.5,1016.8,774.6,1016.7,774.6,1016.5
		C774.7,1016.6,774.6,1016.5,774.6,1016.5z"/>
	<path class="st0" d="M815.1,1010c-0.1,0-0.3,0-0.3-0.1c-0.1-0.1-0.1-0.3-0.1-0.4c0.1,0,0.3,0,0.4,0.1
		C815.1,1009.7,815.1,1009.9,815.1,1010z"/>
</g>
</svg>
