<?xml version="1.0" encoding="utf-8"?>
<!-- Generator: Adobe Illustrator 21.1.0, SVG Export Plug-In . SVG Version: 6.00 Build 0)  -->
<svg version="1.1" id="ddos_xA0_Image_1_" xmlns="http://www.w3.org/2000/svg" xmlns:xlink="http://www.w3.org/1999/xlink" x="0px"
	 y="0px" viewBox="0 0 1046.4 920.1" style="enable-background:new 0 0 1046.4 920.1;" xml:space="preserve">
<style type="text/css">
	.st0{fill:#231751;}
</style>
<g>
	<path class="st0" d="M360.7,895c2.8,3.9,5.4,7.8,8.3,11.6c2.2,3,2.9,5.8,1.5,9.6c-1.4,4-4.4,3-7.2,3.6c-6.6,1.2-12.8-1.5-19.2-1.6
		c-3.1-0.1-7.3-8.2-6.5-12.7c0.9-5.2-0.1-9.8-2.3-14.4c-1.8-3.8-3.2-7.5-2.7-12.3c0.5-4.7-4-8-7.4-11.1c-0.3-1.2-2.5-2.4-0.3-3.7
		c1.7-1.1,2.3,0.6,3.2,1.4c1.9,1.6,3.1,3.9,5.1,4.8c6.4-5.7,0.7-12.6,1.8-19c3.5,2.2,3.2,2.2,3.9-1.1c2.1-10-2.5-17.6-8.5-25
		c-2.2,2.5-4.6,4.6-4.7,8.1c-0.1,1.3,0.1,2.7-1.1,3.7c-6.9,5.8-6.9,14.1-7.9,22c-0.1,1.1,0.1,3.7,1.1,3.4c5.5-1.4,3.4,4.4,5.8,5.7
		c0.7,3.4,2.6,6,5.3,8.2c1.5,1.2,2.3,2.9,1.2,4.8c-1.1,1.8-2.3,3.6-5.1,2.4c2.5,1.9,3.1,5.1,6.7,6.4c2.6,0.9,3.4,5.1,3.1,8.3
		c-0.3,3.5-3.3,3.4-6.1,3.5c-5.4,0.2-10.6-0.7-15.9-1c-4.7-0.2-6.7-3.2-7.3-6.8c-1.7-10-6.2-17.8-15.3-22.7c-1.1-0.6-3.3-1.1-2-3.2
		c1.1-1.7,2.3,0.2,3.4,0.5c1.9,0.4,4,3.6,5.4,1.6c1.5-2.2,2.8-5.6,1.4-8.5c-2.4-4.8-2.8-9.9-3.5-15c-0.4-3-1-5.9-4.3-7.3
		c-2.6-1.2-1.7-4-2.8-6.5c4.8,1.1,7,4.7,10.2,7.8c3.2-5.9,6.3-11.6,9.4-17.2c0.5-0.9,0.9-1.7,0.3-2.8c-5.1-8.7,0.4-14.5,5.8-20
		c1.6-1.7,2.6-3.2,2.1-5c-0.6-2.1-2.6-0.4-3.9-0.5c-5.4-0.6-6.2-2.1-4.3-6.7c1.4-3.4-2.1-2.5-4.1-3.7c0.3,7.6-0.9,14.1-9.6,17.3
		c2.4,0.7,3.7,1.2,5,1.5c2.1,0.5,2.5,1.6,1.8,3.6c-1.4,3.8-3.5,7.1-6.1,10.3c-6.2,7.7-13.6,14.3-21.7,19.9
		c-6.3,4.4-7.6,10.9-8.9,17.6c-0.4,2-0.2,4-2.1,5.2c-3.1,2.1-1,5.2,0.3,5.5c3,0.7,2.8,2.9,3.5,4.7c1.4,3.5,1.9,7.3,5.4,9.8
		c2.3,1.7,2,4.8,1.3,7c-0.8,2.4-3.8,1.9-7.2,1.5c3.4,4.3,6.7,7.6,8.4,11.9c2.1,5.1,0.1,9.1-5.3,9.3c-6.1,0.2-12.2,1.4-18.3-0.5
		c-2.5-0.8-3.4-1.9-4-4.2c-0.9-3.9-1.3-7.8-2.2-11.7c-1.9-8.2-5.2-15.2-12.7-19.7c-1.1-0.7-3.7-1.3-2.3-3.6c1.4-2.3,2.9-0.1,4.2,0.5
		c1.9,0.9,3.8,2.1,5.9,3.4c2.8-7,0.9-13.7,0.3-20.6c-0.5-5.8-3.6-10.8-3.5-16.6c0-0.4,0.2-0.9,0.3-1.7c3.2,1.9,5.7,4.1,8.2,8.6
		c0.7-8.3,8.1-10.8,9.9-17.3c-7.3-2.5-15.8,0.7-22.8-3.1c0-0.5,0.1-1.1,0.1-1.6c5.5-0.9,11-1.9,16.5-2.6c2.6-0.3,4.2-1.2,4.9-4
		c0.7-2.7,1.7-5.4,3.7-7.6c2.3-2.5,2.8-5.1,1.4-8.2c-1-2-0.6-4,1.1-5.4c2.5-2.1,2.1,2.6,4.6,1.6c1.8-5.4,1.9-10.8-1-16.6
		c-2.8-5.6-4.1-11.9-6.5-17.7c-0.6-1.6-1-3.1-2-4.7c-0.5-0.8-4.9-4.1,1-4.4c1.8-0.1,2.5-8,0.7-8.7c-7-2.4-5.6-8.9-7.9-14.6
		c4.8,0.7,8.8,1.2,12.9,1.8c0.8,0.1,1.7,0.5,2.2,1.1c1.5,1.7,2,5.4,4.1,5.2c3.1-0.3,6-2.4,10.2-4.2c-13.8-4.7-26.4-9.1-39.1-13.5
		c-1.3-0.5-3.5-0.3-3.4-2.2c0.1-1.7-0.3-4.9,3.5-3.1c0.8,0.4,2,1.4,3.4,0.1c-2-2.9-9.3-2.2-5.8-8.7c1.5-0.6,2.8,0.8,4.2,1.2
		c2.9,0.9,4.7,2.7,8.2-1c3-3,9.5-3.6,14.7-1.7c10.2,3.7,20.4,7.3,30.4,11.2c4.1,1.6,7.9,2.1,12,0.5c2.9-1.2,5.7-0.8,8.6,0.4
		c9.2,3.9,18.9,6.6,27.4,11.9c3.5,2.1,6.8,0.2,10.2,0c1.9-0.1,1.1-1.6,0.7-2.6c-1.1-3-2-6-2.3-9.2c-0.1-2-1.6-2.8-3.1-3.6
		c-4-2.3-8.2-4.5-12-7.2c-1.9-1.3-6.3-1.1-4.2-5.7c0.1-0.1-2-1.4-3.2-2c-8.1-3.8-16.1-7.6-25.2-11.9c5.1-1,8.7-0.9,12.5,0.7
		c13.4,5.4,27,10.4,40.4,15.9c3.3,1.4,6.3,1.7,9.4-0.2c4.2-2.6,8.4-2.7,12.5,0.1c5.3,3.7,10.7,4,16.2,0.5c6.2-4,12.6-3.7,19.4-1.3
		c7.5,2.7,15.1-0.1,22.7-0.5c1.6-0.1,1.7-1.8,2.2-3c2.1-5.2,4.3-10.4,6.8-16.5c2.9,6.5,5.3,12.1,8.3,18.8c1.9-4.6,3.3-8.3,5.1-12.8
		c0.5,1.7,0.9,2.7,1,3.6c0.5,9.2,4.3,16.5,12.1,21.6c0.8,0.5,1.7,1.3,2,2.2c3.5,11.9,13.4,19.2,20.3,28.7c0.5,0.6,0.9,1.3,1.5,2.2
		c-9.1,4.3-18,8.5-26.8,12.8c-1.7,0.8-3.1,0.7-4.7-0.2c-1.1-0.7-2.4-1.2-3.6-1.8c-7.5-3.7-10-2.6-13.1,5.1c-1.1,2.7-1.3,4.6,0.7,6.9
		c4.4,5.2,3.4,12,4.4,18.1c1.1,6.7,1.9,13.4,2.9,20.8c-5.9-2.7-11.2-5-16.4-7.6c-2.9-1.5-4.7-0.5-7,1.5c-5.4,4.6-6.3,10.9-7.6,17.2
		c-0.6,3.1,0.3,4,3.4,3c3-0.9,6-1.5,10.1-2.5c-3.8,4.3-6.7,7.9-10,11.1c-2.2,2.2-2.8,4-0.7,6.7c1.8,2.3,3,5,4.4,7.6
		c-0.5,0.2-0.7,0.3-0.8,0.3c-3.2-0.2-6.9-3.7-9.1-1.5c-1.6,1.5-0.4,6-0.2,9.1c0.7,11.1,5.6,20.1,13.2,28c2.7,2.8,6.8,4.7,6.6,9.6
		c-0.1,3.2-1.2,4.1-4.3,3.2c-2.2-0.7-4.4-1.1-6.8-1.2c2.8,2.3,2.9,7.1,8.3,6.9c3.9-0.1,4.9,4.1,4.6,7.1c-0.2,2.5-0.4,5.9-4.8,6.3
		c-6.6,0.7-13-0.5-19.4-0.6c-1.3,0-2.3-0.4-2.7-1.7c-2.7-7.9-9.5-13.3-12-21.5c-2-6.6-5.2-13.3-13-15.6c-1.2-0.3-2.7-1.1-1.6-2.9
		c0.9-1.6,2-0.1,3,0c2.2,0.2,4.4,4.8,6.8,0c2-4,0.6-7.3-2.7-9.3c-2.7-1.6-3.4-3.9-4-7c3.5,0.4,5.8,2.9,9.3,4.1
		c-0.6-7.1-1-14-1.7-20.8c-0.3-2.9-2.9-4.4-4.7-6.2c-1.9-2-3.3-4.1-3-7c0.4-3.5,0.2-6.9-0.7-10.5c-1.2-4.7,3.7-7.3,4.7-11.4
		c0.5-1.8,3-2.9,2.1-5.3c-0.4-1-1.4-0.4-2.2-0.3c-3.2,0.6-1.9,3.4-2.7,5.2c-0.1,0.3-0.2,0.6-0.5,1.5c-5.2-2.6-10.2-8.2-16.3-4.1
		c-4.8,3.2-10.7,6.7-7.5,14.7c2.5,0.4,5.9,0,9.1,1.6c-2.2,6.9-6.7,11.9-12.7,15.4c-2.3,1.4-3.2,2.9-3.3,5.6
		c-0.1,4.2-0.6,8.3-0.8,12.5c-0.3,6.7-1,13.1,2.7,19.7c3.4,6.1,4.3,13.6,6.7,20.3c1.2,3.3,2.8,5.8-3,5.6c-1.7-0.1-3.5-0.1-5.2-0.4
		c-0.4-0.1-1-0.4-1.2-0.2C359.9,894.1,360.3,894.6,360.7,895z M397.8,812.5c-0.2-1.3-0.5-3.6-2.5-3.5c-1.7,0.1-2.1,2.4-1.8,4
		c0.2,1.5,0,3.9,1.8,4.1C397.5,817.2,397.6,814.9,397.8,812.5z M312.5,806.3c-2.9,3.1-5.3,6.3-2.6,11.6
		C311.4,813.7,313.2,810.3,312.5,806.3z"/>
	<path class="st0" d="M684.7,214c2.8,3.9,5.4,7.8,8.3,11.6c2.2,3,2.9,5.8,1.5,9.6c-1.4,4-4.4,3-7.2,3.6c-6.6,1.2-12.8-1.5-19.2-1.6
		c-3.1-0.1-7.3-8.2-6.5-12.7c0.9-5.2-0.1-9.8-2.3-14.4c-1.8-3.8-3.2-7.5-2.7-12.3c0.5-4.7-4-8-7.4-11.1c-0.3-1.2-2.5-2.4-0.3-3.7
		c1.7-1.1,2.3,0.6,3.2,1.4c1.9,1.6,3.1,3.9,5.1,4.8c6.4-5.7,0.7-12.6,1.8-19c3.5,2.2,3.2,2.2,3.9-1.1c2.1-10-2.5-17.6-8.5-25
		c-2.2,2.5-4.6,4.6-4.7,8.1c-0.1,1.3,0.1,2.7-1.1,3.7c-6.9,5.8-6.9,14.1-7.9,22c-0.1,1.1,0.1,3.7,1.1,3.4c5.5-1.4,3.4,4.4,5.8,5.7
		c0.7,3.4,2.6,6,5.3,8.2c1.5,1.2,2.3,2.9,1.2,4.8c-1.1,1.8-2.3,3.6-5.1,2.4c2.5,1.9,3.1,5.1,6.7,6.4c2.6,0.9,3.4,5.1,3.1,8.3
		c-0.3,3.5-3.3,3.4-6.1,3.5c-5.4,0.2-10.6-0.7-15.9-1c-4.7-0.2-6.7-3.2-7.3-6.8c-1.7-10-6.2-17.8-15.3-22.7c-1.1-0.6-3.3-1.1-2-3.2
		c1.1-1.7,2.3,0.2,3.4,0.5c1.9,0.4,4,3.6,5.4,1.6c1.5-2.2,2.8-5.6,1.4-8.5c-2.4-4.8-2.8-9.9-3.5-15c-0.4-3-1-5.9-4.3-7.3
		c-2.6-1.2-1.7-4-2.8-6.5c4.8,1.1,7,4.7,10.2,7.8c3.2-5.9,6.3-11.6,9.4-17.2c0.5-0.9,0.9-1.7,0.3-2.8c-5.1-8.7,0.4-14.5,5.8-20
		c1.6-1.7,2.6-3.2,2.1-5c-0.6-2.1-2.6-0.4-3.9-0.5c-5.4-0.6-6.2-2.1-4.3-6.7c1.4-3.4-2.1-2.5-4.1-3.7c0.3,7.6-0.9,14.1-9.6,17.3
		c2.4,0.7,3.7,1.2,5,1.5c2.1,0.5,2.5,1.6,1.8,3.6c-1.4,3.8-3.5,7.1-6.1,10.3c-6.2,7.7-13.6,14.3-21.7,19.9
		c-6.3,4.4-7.6,10.9-8.9,17.6c-0.4,2-0.2,4-2.1,5.2c-3.1,2.1-1,5.2,0.3,5.5c3,0.7,2.8,2.9,3.5,4.7c1.4,3.5,1.9,7.3,5.4,9.8
		c2.3,1.7,2,4.8,1.3,7c-0.8,2.4-3.8,1.9-7.2,1.5c3.4,4.3,6.7,7.6,8.4,11.9c2.1,5.1,0.1,9.1-5.3,9.3c-6.1,0.2-12.2,1.4-18.3-0.5
		c-2.5-0.8-3.4-1.9-4-4.2c-0.9-3.9-1.3-7.8-2.2-11.7c-1.9-8.2-5.2-15.2-12.7-19.7c-1.1-0.7-3.7-1.3-2.3-3.6c1.4-2.3,2.9-0.1,4.2,0.5
		c1.9,0.9,3.8,2.1,5.9,3.4c2.8-7,0.9-13.7,0.3-20.6c-0.5-5.8-3.6-10.8-3.5-16.6c0-0.4,0.2-0.9,0.3-1.7c3.2,1.9,5.7,4.1,8.1,8.5
		c0.8-8.2,8.2-10.7,9.9-17.2c-7.2-2.8-15.8,1.1-22.7-4.7c5.5-0.9,11-1.9,16.5-2.6c2.6-0.3,4.2-1.2,4.9-4c0.7-2.7,1.7-5.4,3.7-7.6
		c2.3-2.5,2.8-5.1,1.4-8.2c-1-2-0.6-4,1.1-5.4c2.5-2.1,2.1,2.6,4.6,1.6c1.8-5.4,1.9-10.8-1-16.6c-2.8-5.6-4.1-11.9-6.5-17.7
		c-0.6-1.6-1-3.1-2-4.7c-0.5-0.8-4.9-4.1,1-4.4c1.8-0.1,2.5-8.1,0.7-8.7c-7-2.4-5.5-9-8.1-14.6c4.9,0.7,9,1.2,13,1.8
		c0.8,0.1,1.7,0.5,2.2,1.1c1.5,1.7,2,5.4,4.1,5.2c3.1-0.3,6-2.4,10.2-4.2c-13.8-4.7-26.4-9.1-39.1-13.5c-1.3-0.5-3.5-0.3-3.4-2.2
		c0.1-1.7-0.3-5,3.5-3.1c0.9,0.5,2,0.5,4.1,1c-2.6-3.8-9.9-3.1-6.5-9.6c1.5-0.6,2.8,0.8,4.2,1.2c2.9,0.9,4.7,2.7,8.2-1
		c3-3,9.5-3.6,14.7-1.7c10.2,3.7,20.4,7.3,30.4,11.2c4.1,1.6,7.9,2.1,12,0.5c2.9-1.2,5.7-0.8,8.6,0.4c9.2,3.9,18.9,6.6,27.4,11.9
		c3.5,2.1,6.8,0.2,10.2,0c1.9-0.1,1.1-1.6,0.7-2.6c-1.1-3-2-6-2.3-9.2c-0.1-2-1.6-2.8-3.1-3.6c-4-2.3-8.2-4.5-12-7.2
		c-1.9-1.3-6.3-1.1-4.2-5.7c0.1-0.1-2-1.4-3.2-2c-8.1-3.8-16.1-7.6-25.2-11.9c5.1-1,8.7-0.9,12.5,0.7c13.4,5.4,27,10.4,40.4,15.9
		c3.3,1.4,6.3,1.7,9.4-0.2c4.2-2.6,8.4-2.7,12.5,0.1c5.3,3.7,10.7,4,16.2,0.5c6.2-4,12.6-3.7,19.4-1.3c7.5,2.7,15.1-0.1,22.7-0.5
		c1.6-0.1,1.7-1.8,2.2-3c2.1-5.2,4.3-10.4,6.8-16.5c2.9,6.5,5.3,12.1,8.3,18.8c1.9-4.6,3.3-8.3,5.1-12.8c0.5,1.7,0.9,2.7,1,3.6
		c0.5,9.2,4.3,16.5,12.1,21.6c0.8,0.5,1.7,1.3,2,2.2c3.5,11.9,13.4,19.2,20.3,28.7c0.5,0.6,0.9,1.3,1.5,2.2
		c-9.1,4.3-18,8.5-26.8,12.8c-1.7,0.8-3.1,0.7-4.7-0.2c-1.1-0.7-2.4-1.2-3.6-1.8c-7.5-3.7-10-2.6-13.1,5.1c-1.1,2.7-1.3,4.6,0.7,6.9
		c4.4,5.2,3.4,12,4.4,18.1c1.1,6.7,1.9,13.4,2.9,20.8c-5.9-2.7-11.2-5-16.4-7.6c-2.9-1.5-4.7-0.5-7,1.5c-5.4,4.6-6.3,10.9-7.6,17.2
		c-0.6,3.1,0.3,4,3.4,3c3-0.9,6-1.5,10.1-2.5c-3.8,4.3-6.7,7.9-10,11.1c-2.2,2.2-2.8,4-0.7,6.7c1.8,2.3,3,5,4.4,7.6
		c-0.5,0.2-0.7,0.3-0.8,0.3c-3.2-0.2-6.9-3.7-9.1-1.5c-1.6,1.5-0.4,6-0.2,9.1c0.7,11.1,5.6,20.1,13.2,28c2.7,2.8,6.8,4.7,6.6,9.6
		c-0.1,3.2-1.2,4-4.3,3.2c-2.2-0.6-4.3-1.9-7.7-1.2c3.6,2.2,3.7,7,9.1,6.8c3.9-0.1,4.9,4.1,4.6,7.1c-0.2,2.5-0.4,5.9-4.8,6.3
		c-6.6,0.7-13-0.5-19.4-0.6c-1.3,0-2.3-0.4-2.7-1.7c-2.7-7.9-9.5-13.3-12-21.5c-2-6.6-5.2-13.3-13-15.6c-1.2-0.3-2.7-1.1-1.6-2.9
		c0.9-1.6,2-0.1,3,0c2.2,0.2,4.4,4.8,6.8,0c2-4,0.6-7.3-2.7-9.3c-2.7-1.6-3.4-3.9-4-7c3.5,0.4,5.8,2.9,9.3,4.1
		c-0.6-7.1-1-14-1.7-20.8c-0.3-2.9-2.9-4.4-4.7-6.2c-1.9-2-3.3-4.1-3-7c0.4-3.5,0.2-6.9-0.7-10.5c-1.2-4.7,3.7-7.3,4.7-11.4
		c0.5-1.8,3-2.9,2.1-5.3c-0.4-1-1.4-0.4-2.2-0.3c-3.2,0.6-1.9,3.4-2.7,5.2c-0.1,0.3-0.2,0.6-0.5,1.5c-5.2-2.6-10.1-8.2-16.3-4.2
		c-5,3.2-10.3,7-7.6,14.7c2.7,0.3,6,0.1,9.3,1.5c-2.2,7-6.7,12-12.8,15.5c-2.3,1.4-3.2,2.9-3.3,5.6c-0.1,4.2-0.6,8.3-0.8,12.5
		c-0.3,6.7-1,13.1,2.7,19.7c3.4,6.1,4.3,13.6,6.7,20.3c1.2,3.3,2.8,5.8-3,5.6c-1.7,0-3.5-0.1-5.2-0.4c-0.4-0.1-1-0.4-1.2-0.2
		C683.9,213.1,684.3,213.6,684.7,214z M717.3,132.4c1.3,0.8-0.4,3.9,2.4,3.7c1.9-0.1,2.1-2.3,2.1-3.9c0-1.9-0.5-4.1-2.4-4.1
		C717.5,128,717.5,130.3,717.3,132.4z M637,124.2c-3.7,4.1-5.6,7.5-3.1,12.9C635.3,132.6,637.3,129.3,637,124.2z"/>
	<path class="st0" d="M797.7,787.7c0.7,3.4,2.6,6,5.3,8.2c1.5,1.2,2.4,3,1.1,4.8c-1.1,1.5-1.8,4.5-5.2,2.2c2.6,2.2,3.2,5.4,6.9,6.6
		c2.6,0.9,3.4,5.1,3.1,8.3c-0.3,3.5-3.3,3.4-6.1,3.5c-5.4,0.2-10.6-0.7-15.9-1c-4.7-0.2-6.7-3.2-7.3-6.8c-1.7-10-6.2-17.8-15.3-22.7
		c-1.1-0.6-3.3-1.1-2-3.2c1.1-1.7,2.3,0.2,3.4,0.5c1.9,0.4,4,3.6,5.4,1.6c1.5-2.2,2.8-5.6,1.4-8.5c-2.4-4.8-2.8-9.9-3.5-15
		c-0.4-3-1-5.9-4.3-7.3c-2.7-1.2-1.5-4.1-3.3-6.8c5.2,1.6,7.7,4.8,10.6,8.3c3.3-6.1,6.4-11.8,9.5-17.4c0.5-0.9,0.9-1.7,0.3-2.8
		c-5.1-8.7,0.4-14.5,5.8-20c1.6-1.7,2.6-3.2,2.1-5c-0.6-2.1-2.6-0.4-3.9-0.5c-5.4-0.6-6.2-2.1-4.3-6.7c1.4-3.4-2.1-2.5-4.1-3.7
		c0.3,7.6-0.9,14.1-9.6,17.3c2.4,0.7,3.7,1.2,5,1.5c2.1,0.5,2.5,1.6,1.8,3.6c-1.4,3.8-3.5,7.1-6.1,10.3
		c-6.2,7.7-13.6,14.3-21.7,19.9c-6.3,4.4-7.6,10.9-8.9,17.6c-0.4,2-0.3,4-2.1,5.2c-3.1,2.1-1,5.2,0.3,5.5c3,0.7,2.8,2.9,3.5,4.7
		c1.4,3.5,1.9,7.3,5.4,9.8c2.3,1.7,2,4.8,1.3,7c-0.8,2.4-3.8,1.9-7.2,1.5c3.4,4.3,6.7,7.6,8.4,11.9c2.1,5.1,0.1,9.1-5.3,9.3
		c-6.1,0.2-12.2,1.4-18.3-0.5c-2.5-0.8-3.4-1.9-4-4.2c-0.9-3.9-1.3-7.8-2.2-11.7c-1.9-8.2-5.2-15.2-12.7-19.7
		c-1.1-0.7-3.7-1.3-2.3-3.6c1.4-2.3,2.9-0.1,4.2,0.5c1.9,0.9,3.8,2.1,5.9,3.4c2.8-7,0.9-13.7,0.3-20.6c-0.5-5.8-3.6-10.8-3.5-16.6
		c0-0.4,0.2-0.9,0.3-1.7c3.1,2.1,6,3.9,7.8,7.5c1.1-7.1,8.5-9.6,10.3-16.1c-7.3-2.8-15.8,1.1-22.7-4.7c5.5-0.9,11-1.9,16.5-2.6
		c2.6-0.3,4.2-1.2,4.9-4c0.7-2.7,1.7-5.4,3.7-7.6c2.3-2.5,2.8-5.1,1.4-8.2c-1-2-0.6-4.1,1.1-5.4c2.4-2,2.2,2.4,4.5,1.8
		c1.9-5.6,2-11-0.9-16.8c-2.8-5.6-4.1-11.9-6.5-17.7c-0.6-1.6-1-3.1-2-4.7c-0.5-0.8-4.9-4.1,1-4.4c1.8-0.1,2.5-8.1,0.7-8.7
		c-7-2.4-5.5-9-8.1-14.6c4.9,0.7,9,1.2,13,1.8c0.8,0.1,1.7,0.5,2.2,1.1c1.3,1.7,2.4,3.5,3.7,5.3c0.2,0.2,1,0.1,1.4-0.1
		c2.7-1.2,5.4-2.5,9.1-4.3c-13.7-4.7-26.4-9.1-39-13.4c-1.3-0.5-3.5-0.3-3.4-2.2c0.1-1.7-0.3-4.9,3.5-3.1c0.8,0.4,2,1.4,3.3,0.1
		c-1.6-3.1-9.6-2-5.6-8.8c1.3-0.5,2.6,0.9,4.1,1.3c2.9,0.9,4.7,2.7,8.2-1c3-3,9.5-3.6,14.7-1.7c10.2,3.7,20.4,7.3,30.4,11.2
		c4.1,1.6,7.9,2.1,12,0.5c2.9-1.2,5.7-0.8,8.6,0.4c9.2,3.9,18.9,6.6,27.4,11.9c3.5,2.1,6.8,0.2,10.2,0c1.9-0.1,1.1-1.6,0.7-2.6
		c-1.1-3-2-6-2.3-9.2c-0.1-2-1.6-2.8-3.1-3.6c-4-2.3-8.2-4.5-12-7.2c-1.9-1.3-6.3-1.1-4.2-5.7c0.1-0.1-2-1.4-3.2-2
		c-8.1-3.8-16.1-7.6-25.2-11.9c5.1-1,8.7-0.9,12.5,0.7c13.4,5.4,27,10.4,40.4,15.9c3.3,1.4,6.3,1.7,9.4-0.2
		c4.2-2.6,8.4-2.7,12.5,0.1c5.3,3.7,10.7,4,16.2,0.5c6.2-4,12.6-3.7,19.4-1.3c7.5,2.7,15.1-0.1,22.7-0.5c1.6-0.1,1.7-1.8,2.2-3
		c2.1-5.2,4.3-10.4,6.8-16.5c2.8,6.5,5.3,12.1,8.3,18.8c1.9-4.6,3.3-8.3,5.1-12.8c0.5,1.7,0.9,2.7,1,3.6c0.5,9.2,4.3,16.5,12.1,21.6
		c0.8,0.5,1.7,1.3,2,2.2c3.5,11.9,13.4,19.2,20.3,28.7c0.5,0.6,0.9,1.3,1.5,2.2c-9.1,4.3-18,8.5-26.8,12.8c-1.7,0.8-3.1,0.7-4.7-0.2
		c-1.1-0.7-2.4-1.2-3.6-1.8c-7.5-3.7-10-2.6-13.1,5.1c-1.1,2.7-1.3,4.6,0.7,6.9c4.4,5.2,3.4,12,4.4,18.1c1.1,6.7,1.9,13.4,2.9,20.8
		c-5.9-2.7-11.2-5-16.4-7.6c-2.9-1.5-4.7-0.5-7,1.5c-5.4,4.6-6.3,10.9-7.6,17.2c-0.6,3.1,0.3,4,3.4,3c3-0.9,6-1.5,10.1-2.5
		c-3.8,4.3-6.7,7.9-10,11.1c-2.2,2.2-2.8,4-0.7,6.7c1.8,2.3,3,5,4.4,7.6c-0.5,0.2-0.7,0.3-0.8,0.3c-3.2-0.2-6.9-3.7-9.1-1.5
		c-1.6,1.5-0.4,6-0.2,9.1c0.7,11.1,5.6,20.1,13.2,28c2.7,2.8,6.8,4.7,6.6,9.6c-0.1,3.2-1.2,4-4.3,3.2c-2.2-0.6-4.3-1.9-7.7-1.2
		c3.6,2.2,3.7,7,9.1,6.8c3.9-0.1,4.9,4.1,4.6,7.1c-0.2,2.5-0.4,5.9-4.8,6.3c-6.6,0.7-13-0.5-19.4-0.6c-1.3,0-2.3-0.4-2.7-1.7
		c-2.7-7.9-9.5-13.3-12-21.5c-2-6.6-5.2-13.3-13-15.6c-1.2-0.3-2.7-1.1-1.6-2.9c0.9-1.6,2-0.1,3,0c2.2,0.2,4.4,4.8,6.8,0
		c2-4,0.6-7.3-2.7-9.3c-2.7-1.6-3.4-3.9-4-7c3.5,0.4,5.8,2.9,9.3,4.1c-0.6-7.1-1-14-1.7-20.8c-0.3-2.9-2.9-4.4-4.7-6.2
		c-1.9-2-3.3-4.1-3-7c0.4-3.5,0.2-6.9-0.7-10.5c-1.2-4.7,3.7-7.3,4.7-11.4c0.5-1.8,3-2.9,2.1-5.3c-0.4-1-1.4-0.4-2.2-0.3
		c-3.2,0.6-1.9,3.4-2.7,5.2c-0.1,0.3-0.2,0.6-0.5,1.5c-5.2-2.6-10.1-8.2-16.3-4.2c-5,3.2-10.3,7-7.6,14.7c2.7,0.3,6,0.1,9.3,1.5
		c-2.2,7-6.7,12-12.8,15.5c-2.3,1.4-3.2,2.9-3.3,5.6c-0.1,4.2-0.6,8.3-0.8,12.5c-0.3,6.7-1,13.1,2.7,19.7c3.4,6.1,4.3,13.6,6.7,20.3
		c1.2,3.3,2.8,5.8-3,5.6c-1.7-0.1-3.5-0.1-5.2-0.4c-0.4-0.1-1-0.4-1.2-0.2c-0.6,0.5-0.2,1,0.3,1.4c2.8,3.9,5.4,7.8,8.3,11.6
		c2.2,3,2.9,5.8,1.5,9.6c-1.4,4-4.4,3-7.2,3.6c-6.6,1.2-12.8-1.5-19.2-1.6c-3.1-0.1-7.3-8.2-6.5-12.7c0.9-5.2-0.1-9.8-2.3-14.4
		c-1.8-3.8-3.2-7.5-2.7-12.3c0.5-4.7-4-8-7.4-11.1c-0.3-1.2-2.5-2.4-0.3-3.7c1.7-1.1,2.3,0.6,3.2,1.4c1.9,1.6,3.1,3.9,5,4.7
		c6.8-5.6,0.8-12.5,2-19c3.5,2.2,3.2,2.1,3.9-1.1c2.1-10-2.5-17.6-8.5-25c-2.2,2.5-4.6,4.6-4.7,8.1c-0.1,1.3,0.1,2.7-1.1,3.7
		c-6.9,5.8-6.9,14.1-7.9,22c-0.1,1.1,0.1,3.7,1.1,3.4C797.4,780.7,795.3,786.4,797.7,787.7z M871.8,732c-0.1-0.8-0.8-3.1-2.2-3.1
		c-2.2,0-2.4,2.4-2.2,4.2c0.2,1.5-0.1,3.9,1.9,4C871.6,737.1,871.7,734.8,871.8,732z M783.7,737.7c3.1-6.9,3.4-8.2,2.5-11.7
		C783.2,729.4,781.3,732.8,783.7,737.7z"/>
	<path class="st0" d="M95.7,627.7c0.7,3.4,2.6,6,5.3,8.2c1.5,1.2,2.4,3,1.1,4.8c-1.1,1.5-1.8,4.5-5.2,2.2c2.6,2.2,3.2,5.4,6.9,6.6
		c2.6,0.9,3.4,5.1,3.1,8.3c-0.3,3.5-3.3,3.4-6.1,3.5c-5.4,0.2-10.6-0.8-15.9-1c-4.7-0.2-6.7-3.2-7.3-6.8c-1.7-10-6.2-17.8-15.3-22.7
		c-1.1-0.6-3.3-1.1-2-3.2c1.1-1.7,2.3,0.2,3.4,0.5c1.9,0.4,4,3.6,5.4,1.6c1.5-2.2,2.8-5.6,1.4-8.5c-2.4-4.8-2.8-9.9-3.5-15
		c-0.4-3-1-5.9-4.3-7.3c-2.7-1.2-1.5-4.1-3.3-6.8c5.2,1.6,7.7,4.8,10.6,8.3c3.3-6.1,6.4-11.8,9.5-17.4c0.5-0.9,0.9-1.7,0.3-2.8
		c-5.1-8.7,0.4-14.5,5.8-20c1.6-1.7,2.6-3.2,2.1-5c-0.6-2.1-2.6-0.4-3.9-0.5c-5.4-0.6-6.2-2.1-4.3-6.7c1.4-3.4-2.1-2.5-4.1-3.7
		c0.3,7.6-0.9,14.1-9.6,17.3c2.4,0.7,3.7,1.2,5,1.5c2.1,0.5,2.5,1.6,1.8,3.6c-1.4,3.8-3.5,7.1-6.1,10.3
		c-6.2,7.7-13.6,14.3-21.7,19.9c-6.3,4.4-7.6,10.9-8.9,17.6c-0.4,2-0.3,4-2.1,5.2c-3.1,2.1-1,5.2,0.3,5.5c3,0.7,2.8,2.9,3.5,4.7
		c1.4,3.5,1.9,7.3,5.4,9.8c2.3,1.7,2,4.9,1.3,6.9c-0.8,2.2-3.6,2.3-6.4,1.8c2.6,4,5.8,7.3,7.6,11.6c2.1,5.1,0.1,9.1-5.3,9.3
		c-6.1,0.2-12.2,1.4-18.3-0.5c-2.5-0.8-3.4-1.9-4-4.2c-0.9-3.9-1.3-7.8-2.2-11.7c-1.9-8.2-5.2-15.2-12.7-19.7
		c-1.1-0.7-3.7-1.3-2.3-3.6c1.4-2.3,2.9-0.1,4.2,0.5c1.9,0.9,3.8,2.1,5.9,3.4c2.8-7,0.9-13.7,0.3-20.6c-0.5-5.8-3.6-10.8-3.5-16.6
		c0-0.4,0.2-0.9,0.3-1.7c3.1,2.1,6,3.9,7.8,7.4c1.2-7.1,8.5-9.6,10.3-16c-7.2-2.8-15.8,1.1-22.7-4.7c5.5-0.9,11-1.9,16.5-2.6
		c2.6-0.3,4.2-1.2,4.9-4c0.7-2.7,1.7-5.4,3.7-7.6c2.3-2.5,2.8-5.1,1.4-8.2c-1-2-0.6-4.1,1.1-5.4c2.4-2,2.2,2.4,4.5,1.8
		c1.9-5.6,2-11-0.9-16.8c-2.8-5.6-4.1-11.9-6.5-17.7c-0.6-1.6-1-3.1-2-4.7c-0.5-0.8-4.9-4.1,1-4.4c1.8-0.1,2.5-8,0.7-8.7
		c-7-2.4-5.6-8.9-7.9-14.6c4.8,0.7,8.8,1.2,12.9,1.8c0.8,0.1,1.7,0.5,2.2,1.1c1.5,1.7,2,5.4,4.1,5.2c3.1-0.3,6-2.4,10.2-4.2
		c-13.8-4.7-26.4-9.1-39.1-13.5c-1.3-0.5-3.5-0.3-3.4-2.2c0.1-1.7-0.3-4.9,3.5-3.1c0.8,0.4,2,1.4,3.3,0.1c-1.6-3.1-9.6-2-5.6-8.8
		c1.3-0.5,2.6,0.9,4.1,1.3c2.9,0.9,4.7,2.7,8.2-1c3-3,9.5-3.6,14.7-1.7c10.2,3.7,20.4,7.3,30.4,11.2c4.1,1.6,7.9,2.1,12,0.5
		c2.9-1.2,5.7-0.8,8.6,0.4c9.2,3.9,18.9,6.6,27.4,11.9c3.5,2.1,6.8,0.2,10.2,0c1.9-0.1,1.1-1.6,0.7-2.6c-1.1-3-2-6-2.3-9.2
		c-0.1-2-1.6-2.8-3.1-3.6c-4-2.3-8.2-4.5-12-7.2c-1.9-1.3-6.3-1.1-4.2-5.7c0.1-0.1-2-1.4-3.2-2c-8.1-3.8-16.1-7.6-25.2-11.9
		c5.1-1,8.7-0.9,12.5,0.7c13.4,5.4,27,10.4,40.4,15.9c3.3,1.4,6.3,1.7,9.4-0.2c4.2-2.6,8.4-2.7,12.5,0.1c5.3,3.7,10.7,4,16.2,0.5
		c6.2-4,12.6-3.7,19.4-1.3c7.5,2.7,15.1-0.1,22.7-0.5c1.6-0.1,1.7-1.8,2.2-3c2.1-5.2,4.3-10.4,6.8-16.5c2.8,6.5,5.3,12.1,8.3,18.8
		c1.9-4.6,3.3-8.3,5.1-12.8c0.5,1.7,0.9,2.7,1,3.6c0.5,9.2,4.3,16.5,12.1,21.6c0.8,0.5,1.7,1.3,2,2.2c3.5,11.9,13.4,19.2,20.3,28.7
		c0.5,0.6,0.9,1.3,1.5,2.2c-9.1,4.3-18,8.5-26.8,12.8c-1.7,0.8-3.1,0.7-4.7-0.2c-1.1-0.7-2.4-1.2-3.6-1.8c-7.5-3.7-10-2.6-13.1,5.1
		c-1.1,2.7-1.3,4.6,0.7,6.9c4.4,5.2,3.4,12,4.4,18.1c1.1,6.7,1.9,13.4,2.9,20.8c-5.9-2.7-11.2-5-16.4-7.6c-2.9-1.5-4.7-0.5-7,1.5
		c-5.4,4.6-6.3,10.9-7.6,17.2c-0.6,3.1,0.3,4,3.4,3c3-0.9,6-1.5,10.1-2.5c-3.8,4.3-6.7,7.9-10,11.1c-2.2,2.2-2.8,4-0.7,6.7
		c1.8,2.3,3,5,4.4,7.6c-0.5,0.2-0.7,0.3-0.8,0.3c-3.2-0.2-6.9-3.7-9.1-1.5c-1.6,1.5-0.4,6-0.2,9.1c0.7,11.1,5.6,20.1,13.2,28
		c2.7,2.8,6.8,4.7,6.6,9.6c-0.1,3.2-1.2,4-4.3,3.2c-2.2-0.6-4.3-1.9-7.7-1.2c3.6,2.2,3.7,7,9.1,6.8c3.9-0.1,4.9,4.1,4.6,7.1
		c-0.2,2.5-0.4,5.9-4.8,6.3c-6.6,0.7-13-0.5-19.4-0.6c-1.3,0-2.3-0.4-2.7-1.7c-2.7-7.9-9.5-13.3-12-21.5c-2-6.6-5.2-13.3-13-15.6
		c-1.2-0.3-2.7-1.1-1.6-2.9c0.9-1.6,2-0.1,3,0c2.2,0.2,4.4,4.8,6.8,0c2-4,0.6-7.3-2.7-9.3c-2.7-1.6-3.4-3.9-4-7
		c3.5,0.4,5.8,2.9,9.3,4.1c-0.6-7.1-1-14-1.7-20.8c-0.3-2.9-2.9-4.4-4.7-6.2c-1.9-2-3.3-4.1-3-7c0.4-3.5,0.2-6.9-0.7-10.5
		c-1.2-4.7,3.7-7.3,4.7-11.4c0.5-1.8,3-2.9,2.1-5.3c-0.4-1-1.4-0.4-2.2-0.3c-3.2,0.6-1.9,3.4-2.7,5.2c-0.1,0.3-0.2,0.6-0.5,1.5
		c-5.2-2.6-10.2-8.2-16.3-4.1c-4.8,3.2-10.7,6.7-7.5,14.7c2.5,0.4,5.9,0,9.1,1.6c-2.2,6.9-6.7,11.9-12.7,15.4
		c-2.3,1.4-3.2,2.9-3.3,5.6c-0.1,4.2-0.6,8.3-0.8,12.5c-0.3,6.7-1,13.1,2.7,19.7c3.4,6.1,4.3,13.6,6.7,20.3c1.2,3.3,2.8,5.8-3,5.6
		c-1.7-0.1-3.5-0.1-5.2-0.4c-0.4-0.1-1-0.4-1.2-0.2c-0.6,0.5-0.2,1,0.3,1.4c2.8,3.9,5.4,7.8,8.3,11.6c2.2,3,2.9,5.8,1.5,9.6
		c-1.4,4-4.4,3-7.2,3.6c-6.6,1.2-12.8-1.5-19.2-1.6c-3.1-0.1-7.3-8.2-6.5-12.7c0.9-5.2-0.1-9.8-2.3-14.4c-1.8-3.8-3.2-7.5-2.7-12.3
		c0.5-4.7-4-8-7.4-11.1c-0.3-1.2-2.5-2.4-0.3-3.7c1.7-1.1,2.3,0.6,3.2,1.4c1.9,1.6,3.1,3.9,5,4.7c6.8-5.6,0.8-12.5,2.1-19.5
		c2.8,3.7,3.2,2.6,3.8-0.6c2-10-2.6-17.6-8.7-25.2c-1.8,2.8-4.5,4.7-4.5,8.3c0,1.3,0.1,2.7-1.1,3.7c-6.9,5.8-6.9,14.1-7.9,22
		c-0.1,1.1,0.1,3.7,1.1,3.4C95.4,620.7,93.3,626.4,95.7,627.7z M165.3,572.7c0.6,1.5-0.1,4,2,4.4c1.9,0.3,2.3-1.8,2.5-3.5
		c0.2-2.1-0.3-4.3-2.5-4.6C165.8,568.8,165.5,571.1,165.3,572.7z M85,565.2c-3.7,4.1-5.6,7.5-3.1,12.9
		C83.3,573.6,85.3,570.3,85,565.2z"/>
	<path class="st0" d="M282.7,415c2.8,3.9,5.4,7.8,8.3,11.6c2.2,3,2.9,5.8,1.5,9.6c-1.4,4-4.4,3-7.2,3.6c-6.6,1.2-12.8-1.5-19.2-1.6
		c-3.1-0.1-7.3-8.2-6.5-12.7c0.9-5.2-0.1-9.8-2.3-14.4c-1.8-3.8-3.2-7.5-2.7-12.3c0.5-4.7-4-8-7.4-11.1c-0.3-1.2-2.5-2.4-0.3-3.7
		c1.7-1.1,2.3,0.6,3.2,1.4c1.9,1.6,3.1,3.9,5,4.7c6.8-5.6,0.8-12.5,2.1-19.5c2.8,3.7,3.2,2.6,3.8-0.6c2-10-2.6-17.6-8.7-25.2
		c-1.8,2.8-4.5,4.7-4.5,8.3c0,1.3,0.1,2.7-1.1,3.7c-6.9,5.8-6.9,14.1-7.9,22c-0.1,1.1,0.1,3.7,1.1,3.4c5.5-1.4,3.4,4.4,5.8,5.7
		c0.7,3.4,2.6,6,5.3,8.2c1.5,1.2,2.4,3,1.1,4.8c-1.1,1.5-1.8,4.5-5.2,2.2c2.6,2.2,3.2,5.4,6.9,6.6c2.6,0.9,3.4,5.1,3.1,8.3
		c-0.3,3.5-3.3,3.4-6.1,3.5c-5.4,0.2-10.6-0.8-15.9-1c-4.7-0.2-6.7-3.2-7.3-6.8c-1.7-10-6.2-17.8-15.3-22.7c-1.1-0.6-3.3-1.1-2-3.2
		c1.1-1.7,2.3,0.2,3.4,0.5c1.9,0.4,4,3.6,5.4,1.6c1.5-2.2,2.8-5.6,1.4-8.5c-2.4-4.8-2.8-9.9-3.5-15c-0.4-3-1-5.9-4.3-7.3
		c-2.7-1.2-1.5-4.1-3.2-6.6c5.1,1.2,7.4,4.8,10.5,7.9c3.2-5.9,6.3-11.6,9.4-17.2c0.5-0.9,0.9-1.7,0.3-2.8c-5.1-8.7,0.4-14.5,5.8-20
		c1.6-1.7,2.6-3.2,2.1-5c-0.6-2.1-2.6-0.4-3.9-0.5c-5.4-0.6-6.5-2.2-4.2-6.6c0.9-1.9,0.5-2.2-4.2-3.3c0.3,7.1-0.9,13.6-9.6,16.8
		c2.4,0.7,3.7,1.2,5,1.5c2.1,0.5,2.5,1.6,1.8,3.6c-1.4,3.8-3.5,7.1-6.1,10.3c-6.2,7.7-13.6,14.3-21.7,19.9
		c-6.3,4.4-7.6,10.9-8.9,17.6c-0.4,2-0.2,4-2.1,5.2c-3.1,2.1-1,5.2,0.3,5.5c3,0.7,2.8,2.9,3.5,4.7c1.4,3.5,1.9,7.3,5.4,9.8
		c2.3,1.7,2,4.8,1.3,7c-0.8,2.4-3.8,1.9-7.2,1.5c3.4,4.3,6.7,7.6,8.4,11.9c2.1,5.1,0.1,9.1-5.3,9.3c-6.1,0.2-12.2,1.4-18.3-0.5
		c-2.5-0.8-3.4-1.9-4-4.2c-0.9-3.9-1.3-7.8-2.2-11.7c-1.9-8.2-5.2-15.2-12.7-19.7c-1.1-0.7-3.7-1.3-2.3-3.6c1.4-2.3,2.9-0.1,4.2,0.5
		c1.9,0.9,3.8,2.1,5.9,3.4c2.8-7,0.9-13.7,0.3-20.6c-0.5-5.8-3.6-10.8-3.5-16.6c0-0.4,0.2-0.9,0.3-1.7c3.1,2.1,6,3.9,7.8,7.5
		c1.1-7.1,8.5-9.6,10.3-16.1c-7.3-2.8-15.8,1.1-22.7-4.7c5.5-0.9,11-1.9,16.5-2.6c2.6-0.3,4.2-1.2,4.9-4c0.7-2.7,1.7-5.4,3.7-7.6
		c2.3-2.5,2.8-5.1,1.4-8.2c-1-2-0.6-4.1,1.1-5.4c2.4-2,2.2,2.4,4.5,1.8c1.9-5.6,2-11-0.9-16.8c-2.8-5.6-4.1-11.9-6.5-17.7
		c-0.6-1.6-1-3.1-2-4.7c-0.5-0.8-4.9-4.1,1-4.4c1.8-0.1,2.5-8.1,0.7-8.7c-7-2.4-5.6-8.9-7.9-14.6c4.8,0.7,8.8,1.2,12.9,1.8
		c0.8,0.1,1.7,0.5,2.2,1.1c1.5,1.7,2,5.4,4.1,5.2c3.1-0.3,6-2.4,10.2-4.2c-13.8-4.7-26.4-9.1-39.1-13.5c-1.3-0.5-3.5-0.3-3.4-2.2
		c0.1-1.7-0.3-4.9,3.5-3.1c0.8,0.4,2,1.4,3.4,0.1c-2-2.9-9.3-2.2-5.8-8.7c1.5-0.6,2.8,0.8,4.2,1.2c2.9,0.9,4.7,2.7,8.2-1
		c3-3,9.5-3.6,14.7-1.7c10.2,3.7,20.4,7.3,30.4,11.2c4.1,1.6,7.9,2.1,12,0.5c2.9-1.2,5.7-0.8,8.6,0.4c9.2,3.9,18.9,6.6,27.4,11.9
		c3.5,2.1,6.8,0.2,10.2,0c1.9-0.1,1.1-1.6,0.7-2.6c-1.1-3-2-6-2.3-9.2c-0.1-2-1.6-2.8-3.1-3.6c-4-2.3-8.2-4.5-12-7.2
		c-1.9-1.3-6.3-1.1-4.2-5.7c0.1-0.1-2-1.4-3.2-2c-8.1-3.8-16.1-7.6-25.2-11.9c5.1-1,8.7-0.9,12.5,0.7c13.4,5.4,27,10.4,40.4,15.9
		c3.3,1.4,6.3,1.7,9.4-0.2c4.2-2.6,8.4-2.7,12.5,0.1c5.3,3.7,10.7,4,16.2,0.5c6.2-4,12.6-3.7,19.4-1.3c7.5,2.7,15.1-0.1,22.7-0.5
		c1.6-0.1,1.7-1.8,2.2-3c2.1-5.2,4.3-10.4,6.8-16.5c2.9,6.5,5.3,12.1,8.3,18.8c1.9-4.6,3.3-8.3,5.1-12.8c0.5,1.7,0.9,2.7,1,3.6
		c0.5,9.2,4.3,16.5,12.1,21.6c0.8,0.5,1.7,1.3,2,2.2c3.5,11.9,13.4,19.2,20.3,28.7c0.5,0.6,0.9,1.3,1.5,2.2
		c-9.1,4.3-18,8.5-26.8,12.8c-1.7,0.8-3.1,0.7-4.7-0.2c-1.1-0.7-2.4-1.2-3.6-1.8c-7.5-3.7-10-2.6-13.1,5.1c-1.1,2.7-1.3,4.6,0.7,6.9
		c4.4,5.2,3.4,12,4.4,18.1c1.1,6.7,1.9,13.4,2.9,20.8c-5.9-2.7-11.2-5-16.4-7.6c-2.9-1.5-4.7-0.5-7,1.5c-5.4,4.6-6.3,10.9-7.6,17.2
		c-0.6,3.1,0.3,4,3.4,3c3-0.9,6-1.5,10.1-2.5c-3.8,4.3-6.7,7.9-10,11.1c-2.2,2.2-2.8,4-0.7,6.7c1.8,2.3,3,5,4.4,7.6
		c-0.5,0.2-0.7,0.3-0.8,0.3c-3.2-0.2-6.9-3.7-9.1-1.5c-1.6,1.5-0.4,6-0.2,9.1c0.7,11.1,5.6,20.1,13.2,28c2.7,2.8,6.8,4.7,6.6,9.6
		c-0.1,3.2-1.2,4-4.3,3.2c-2.2-0.6-4.3-1.9-7.7-1.2c3.6,2.2,3.7,7,9.1,6.8c3.9-0.1,4.9,4.1,4.6,7.1c-0.2,2.5-0.4,5.9-4.8,6.3
		c-6.6,0.7-13-0.5-19.4-0.6c-1.3,0-2.3-0.4-2.7-1.7c-2.7-7.9-9.5-13.3-12-21.5c-2-6.6-5.2-13.3-13-15.6c-1.2-0.3-2.7-1.1-1.6-2.9
		c0.9-1.6,2-0.1,3,0c2.2,0.2,4.4,4.8,6.8,0c2-4,0.6-7.3-2.7-9.3c-2.7-1.6-3.3-3.9-4-7c3.5,0.4,5.9,2.9,9.3,4.1
		c-0.6-7.1-1-14-1.7-20.8c-0.3-2.9-2.9-4.4-4.7-6.2c-1.9-2-3.3-4.1-3-7c0.4-3.5,0.2-6.9-0.7-10.5c-1.2-4.7,3.7-7.3,4.7-11.4
		c0.5-1.8,3-2.9,2.1-5.3c-0.4-1-1.4-0.4-2.2-0.3c-2.9,0.4-2,3-2.6,4.7c-0.2,0.5-0.2,0.9-0.5,2c-5.3-2.7-10.2-8.2-16.4-4.2
		c-5,3.2-10.3,7-7.6,14.7c2.7,0.3,6,0.1,9.3,1.5c-2.2,7-6.7,12-12.8,15.5c-2.3,1.4-3.2,2.9-3.3,5.6c-0.1,4.2-0.6,8.3-0.8,12.5
		c-0.3,6.7-1,13.1,2.7,19.7c3.4,6.1,4.3,13.6,6.7,20.3c1.2,3.3,2.8,5.8-3,5.6c-1.7,0-3.5-0.1-5.2-0.4c-0.4-0.1-1-0.4-1.2-0.2
		C281.9,414.1,282.3,414.6,282.7,415z M234.5,326.3c-2.9,3.1-5.3,6.3-2.6,11.6C233.4,333.7,235.2,330.3,234.5,326.3z M315.3,332.4
		c0.5,1.6-0.1,4.3,2.2,4.7c1.4,0.3,2-1.7,2.2-3.3c0.2-2.2-0.3-4.4-2.3-4.9C315.9,328.6,315.7,330.9,315.3,332.4z"/>
	<path class="st0" d="M550.7,614c2.8,3.9,5.4,7.8,8.3,11.6c2.2,3,2.9,5.8,1.5,9.6c-1.4,4-4.4,3-7.2,3.6c-6.6,1.2-12.8-1.5-19.2-1.6
		c-3.1-0.1-7.3-8.2-6.5-12.7c0.9-5.2-0.1-9.8-2.3-14.4c-1.8-3.8-3.2-7.5-2.7-12.3c0.5-4.7-4-8-7.4-11.1c-0.3-1.2-2.5-2.4-0.3-3.7
		c1.7-1.1,2.3,0.6,3.2,1.4c1.9,1.6,3.1,3.9,5.1,4.8c6.4-5.7,0.7-12.6,1.8-19c3.5,2.2,3.2,2.2,3.9-1.1c2.1-10-2.5-17.6-8.5-25
		c-2.2,2.5-4.6,4.6-4.7,8.1c-0.1,1.3,0.1,2.7-1.1,3.7c-6.9,5.8-6.9,14.1-7.9,22c-0.1,1.1,0.1,3.7,1.1,3.4c5.5-1.4,3.4,4.4,5.8,5.7
		c0.7,3.4,2.6,6,5.3,8.2c1.5,1.2,2.3,2.9,1.2,4.8c-1.1,1.8-2.3,3.6-5.1,2.4c2.5,1.9,3.1,5.1,6.7,6.4c2.6,0.9,3.4,5.1,3.1,8.3
		c-0.3,3.5-3.3,3.4-6.1,3.5c-5.4,0.2-10.6-0.7-15.9-1c-4.7-0.2-6.7-3.2-7.3-6.8c-1.7-10-6.2-17.8-15.3-22.7c-1.1-0.6-3.3-1.1-2-3.2
		c1.1-1.7,2.3,0.2,3.4,0.5c1.9,0.4,4,3.6,5.4,1.6c1.5-2.2,2.8-5.6,1.4-8.5c-2.4-4.8-2.8-9.9-3.5-15c-0.4-3-1-5.9-4.3-7.3
		c-2.6-1.2-1.7-4-2.8-6.5c4.8,1.1,7,4.7,10.2,7.8c3.2-5.9,6.3-11.6,9.4-17.2c0.5-0.9,0.9-1.7,0.3-2.8c-5.1-8.7,0.4-14.5,5.8-20
		c1.6-1.7,2.6-3.2,2.1-5c-0.6-2.1-2.6-0.4-3.9-0.5c-5.4-0.6-6.5-2.2-4.2-6.6c0.9-1.9,0.5-2.2-4.2-3.3c0.3,7.1-0.9,13.6-9.6,16.8
		c2.4,0.7,3.7,1.2,5,1.5c2.1,0.5,2.5,1.6,1.8,3.6c-1.4,3.8-3.5,7.1-6.1,10.3c-6.2,7.7-13.6,14.3-21.7,19.9
		c-6.3,4.4-7.6,10.9-8.9,17.6c-0.4,2-0.2,4-2.1,5.2c-3.1,2.1-1,5.2,0.3,5.5c3,0.7,2.8,2.9,3.5,4.7c1.4,3.5,1.9,7.3,5.4,9.8
		c2.3,1.7,2,4.9,1.3,6.9c-0.8,2.2-3.6,2.3-6.4,1.8c2.6,4,5.8,7.3,7.6,11.6c2.1,5.1,0.1,9.1-5.3,9.3c-6.1,0.2-12.2,1.4-18.3-0.5
		c-2.5-0.8-3.4-1.9-4-4.2c-0.9-3.9-1.3-7.8-2.2-11.7c-1.9-8.2-5.2-15.2-12.7-19.7c-1.1-0.7-3.7-1.3-2.3-3.6c1.4-2.3,2.9-0.1,4.2,0.5
		c1.9,0.9,3.8,2.1,5.9,3.4c2.8-7,0.9-13.7,0.3-20.6c-0.5-5.8-3.6-10.8-3.5-16.6c0-0.4,0.2-0.9,0.3-1.7c3.2,1.9,5.7,4.1,8.1,8.5
		c0.8-8.2,8.2-10.7,9.9-17.2c-7.3-2.5-15.7,0.7-22.8-3.1c0-0.5,0.1-1.1,0.1-1.6c5.5-0.9,11-1.9,16.5-2.6c2.6-0.3,4.2-1.2,4.9-4
		c0.7-2.7,1.7-5.4,3.7-7.6c2.3-2.5,2.8-5.1,1.4-8.2c-1-2-0.6-4.1,1.1-5.4c2.4-2,2.2,2.4,4.5,1.8c1.9-5.6,2-11-0.9-16.8
		c-2.8-5.6-4.1-11.9-6.5-17.7c-0.6-1.6-1-3.1-2-4.7c-0.5-0.8-4.9-4.1,1-4.4c1.8-0.1,2.5-8,0.7-8.7c-7-2.4-5.6-8.9-7.9-14.6
		c4.8,0.7,8.8,1.2,12.9,1.8c0.8,0.1,1.7,0.5,2.2,1.1c1.3,1.7,2.4,3.5,3.7,5.3c0.2,0.2,1,0.1,1.4-0.1c2.7-1.2,5.4-2.5,9.1-4.3
		c-13.7-4.7-26.4-9.1-39-13.4c-1.3-0.5-3.5-0.3-3.4-2.2c0.1-1.7-0.3-4.9,3.5-3.1c0.8,0.4,2,1.4,3.4,0.1c-2-2.9-9.3-2.2-5.8-8.7
		c1.5-0.6,2.8,0.8,4.2,1.2c2.9,0.9,4.7,2.7,8.2-1c3-3,9.5-3.6,14.7-1.7c10.2,3.7,20.4,7.3,30.4,11.2c4.1,1.6,7.9,2.1,12,0.5
		c2.9-1.2,5.7-0.8,8.6,0.4c9.2,3.9,18.9,6.6,27.4,11.9c3.5,2.1,6.8,0.2,10.2,0c1.9-0.1,1.1-1.6,0.7-2.6c-1.1-3-2-6-2.3-9.2
		c-0.1-2-1.6-2.8-3.1-3.6c-4-2.3-8.2-4.5-12-7.2c-1.9-1.3-6.3-1.1-4.2-5.7c0.1-0.1-2-1.4-3.2-2c-8.1-3.8-16.1-7.6-25.2-11.9
		c5.1-1,8.7-0.9,12.5,0.7c13.4,5.4,27,10.4,40.4,15.9c3.3,1.4,6.3,1.7,9.4-0.2c4.2-2.6,8.4-2.7,12.5,0.1c5.3,3.7,10.7,4,16.2,0.5
		c6.2-4,12.6-3.7,19.4-1.3c7.5,2.7,15.1-0.1,22.7-0.5c1.6-0.1,1.7-1.8,2.2-3c2.1-5.2,4.3-10.4,6.8-16.5c2.9,6.5,5.3,12.1,8.3,18.8
		c1.9-4.6,3.3-8.3,5.1-12.8c0.5,1.7,0.9,2.7,1,3.6c0.5,9.2,4.3,16.5,12.1,21.6c0.8,0.5,1.7,1.3,2,2.2c3.5,11.9,13.4,19.2,20.3,28.7
		c0.5,0.6,0.9,1.3,1.5,2.2c-9.1,4.3-18,8.5-26.8,12.8c-1.7,0.8-3.1,0.7-4.7-0.2c-1.1-0.7-2.4-1.2-3.6-1.8c-7.5-3.7-10-2.6-13.1,5.1
		c-1.1,2.7-1.3,4.6,0.7,6.9c4.4,5.2,3.4,12,4.4,18.1c1.1,6.7,1.9,13.4,2.9,20.8c-5.9-2.7-11.2-5-16.4-7.6c-2.9-1.5-4.7-0.5-7,1.5
		c-5.4,4.6-6.3,10.9-7.6,17.2c-0.6,3.1,0.3,4,3.4,3c3-0.9,6-1.5,10.1-2.5c-3.8,4.3-6.7,7.9-10,11.1c-2.2,2.2-2.8,4-0.7,6.7
		c1.8,2.3,3,5,4.4,7.6c-0.5,0.2-0.7,0.3-0.8,0.3c-3.2-0.2-6.9-3.7-9.1-1.5c-1.6,1.5-0.4,6-0.2,9.1c0.7,11.1,5.6,20.1,13.2,28
		c2.7,2.8,6.8,4.7,6.6,9.6c-0.1,3.2-1.2,4.1-4.3,3.2c-2.2-0.7-4.4-1.1-6.8-1.2c2.8,2.3,2.9,7.1,8.3,6.9c3.9-0.1,4.9,4.1,4.6,7.1
		c-0.2,2.5-0.4,5.9-4.8,6.3c-6.6,0.7-13-0.5-19.4-0.6c-1.3,0-2.3-0.4-2.7-1.7c-2.7-7.9-9.5-13.3-12-21.5c-2-6.6-5.2-13.3-13-15.6
		c-1.2-0.3-2.7-1.1-1.6-2.9c0.9-1.6,2-0.1,3,0c2.2,0.2,4.4,4.8,6.8,0c2-4,0.6-7.3-2.7-9.3c-2.7-1.6-3.4-3.9-4-7
		c3.5,0.4,5.8,2.9,9.3,4.1c-0.6-7.1-1-14-1.7-20.8c-0.3-2.9-2.9-4.4-4.7-6.2c-1.9-2-3.3-4.1-3-7c0.4-3.5,0.2-6.9-0.7-10.5
		c-1.2-4.7,3.7-7.3,4.7-11.4c0.5-1.8,3-2.9,2.1-5.3c-0.4-1-1.4-0.4-2.2-0.3c-3.2,0.6-1.9,3.4-2.7,5.2c-0.1,0.3-0.2,0.6-0.5,1.5
		c-5.2-2.6-10.1-8.2-16.3-4.2c-5,3.2-10.3,7-7.6,14.7c2.7,0.3,6,0.1,9.3,1.5c-2.2,7-6.7,12-12.8,15.5c-2.3,1.4-3.2,2.9-3.3,5.6
		c-0.1,4.2-0.6,8.3-0.8,12.5c-0.3,6.7-1,13.1,2.7,19.7c3.4,6.1,4.3,13.6,6.7,20.3c1.2,3.3,2.8,5.8-3,5.6c-1.7-0.1-3.5-0.1-5.2-0.4
		c-0.4-0.1-1-0.4-1.2-0.2C549.9,613.1,550.3,613.6,550.7,614z M583.3,532.4c1.3,0.8-0.4,3.9,2.4,3.7c1.9-0.1,2.1-2.3,2.1-3.9
		c0-1.9-0.5-4.1-2.4-4.1C583.5,528,583.5,530.3,583.3,532.4z M502.7,524.2c-3.3,4.1-5.5,7.4-2.6,13.1
		C501,532.6,503.5,529.4,502.7,524.2z"/>
	<path class="st0" d="M912.7,494c2.8,3.9,5.4,7.8,8.3,11.6c2.2,3,2.9,5.8,1.5,9.6c-1.4,4-4.4,3-7.2,3.6c-6.6,1.2-12.8-1.5-19.2-1.6
		c-3.1-0.1-7.3-8.2-6.5-12.7c0.9-5.2-0.1-9.8-2.3-14.4c-1.8-3.8-3.2-7.5-2.7-12.3c0.5-4.7-4-8-7.4-11.1c-0.3-1.2-2.5-2.4-0.3-3.7
		c1.7-1.1,2.3,0.6,3.2,1.4c1.9,1.6,3.1,3.9,5,4.7c6.8-5.6,0.8-12.5,2-19c3.5,2.2,3.2,2.1,3.9-1.1c2.1-10-2.5-17.6-8.5-25
		c-2.2,2.5-4.6,4.6-4.7,8.1c-0.1,1.3,0.1,2.7-1.1,3.7c-6.9,5.8-6.9,14.1-7.9,22c-0.1,1.1,0.1,3.7,1.1,3.4c5.5-1.4,3.4,4.4,5.8,5.7
		c0.7,3.4,2.6,6,5.3,8.2c1.5,1.2,2.4,3,1.1,4.8c-1.1,1.5-1.8,4.5-5.2,2.2c2.6,2.2,3.2,5.4,6.9,6.6c2.6,0.9,3.4,5.1,3.1,8.3
		c-0.3,3.5-3.3,3.4-6.1,3.5c-5.4,0.2-10.6-0.7-15.9-1c-4.7-0.2-6.7-3.2-7.3-6.8c-1.7-10-6.2-17.8-15.3-22.7c-1.1-0.6-3.3-1.1-2-3.2
		c1.1-1.7,2.3,0.2,3.4,0.5c1.9,0.4,4,3.6,5.4,1.6c1.5-2.2,2.8-5.6,1.4-8.5c-2.4-4.8-2.8-9.9-3.5-15c-0.4-3-1-5.9-4.3-7.3
		c-2.6-1.2-1.7-4-2.9-6.7c4.7,1.5,7.2,4.7,10.2,8.2c3.3-6.1,6.4-11.8,9.5-17.4c0.5-0.9,0.9-1.7,0.3-2.8c-5.1-8.7,0.4-14.5,5.8-20
		c1.6-1.7,2.6-3.2,2.1-5c-0.6-2.1-2.6-0.4-3.9-0.5c-5.4-0.6-6.2-2.1-4.3-6.7c1.4-3.4-2.1-2.5-4.1-3.7c0.3,7.6-0.9,14.1-9.6,17.3
		c2.4,0.7,3.7,1.2,5,1.5c2.1,0.5,2.5,1.6,1.8,3.6c-1.4,3.8-3.5,7.1-6.1,10.3c-6.2,7.7-13.6,14.3-21.7,19.9
		c-6.3,4.4-7.6,10.9-8.9,17.6c-0.4,2-0.2,4-2.1,5.2c-3.1,2.1-1,5.2,0.3,5.5c3,0.7,2.8,2.9,3.5,4.7c1.4,3.5,1.9,7.3,5.4,9.8
		c2.3,1.7,2,4.9,1.3,6.9c-0.8,2.2-3.6,2.3-6.4,1.8c2.6,4,5.8,7.3,7.6,11.6c2.1,5.1,0.1,9.1-5.3,9.3c-6.1,0.2-12.2,1.4-18.3-0.5
		c-2.5-0.8-3.4-1.9-4-4.2c-0.9-3.9-1.3-7.8-2.2-11.7c-1.9-8.2-5.2-15.2-12.7-19.7c-1.1-0.7-3.7-1.3-2.3-3.6c1.4-2.3,2.9-0.1,4.2,0.5
		c1.9,0.9,3.8,2.1,5.9,3.4c2.8-7,0.9-13.7,0.3-20.6c-0.5-5.8-3.6-10.8-3.5-16.6c0-0.4,0.2-0.9,0.3-1.7c3.1,2.1,6,3.9,7.8,7.5
		c1.1-7.1,8.5-9.6,10.3-16.1c-7.3-2.8-15.8,1.1-22.7-4.7c5.5-0.9,11-1.9,16.5-2.6c2.6-0.3,4.2-1.2,4.9-4c0.7-2.7,1.7-5.4,3.7-7.6
		c2.3-2.5,2.8-5.1,1.4-8.2c-1-2-0.6-4.1,1.1-5.4c2.4-2,2.2,2.4,4.5,1.8c1.9-5.6,2-11-0.9-16.8c-2.8-5.6-4.1-11.9-6.5-17.7
		c-0.6-1.6-1-3.1-2-4.7c-0.5-0.8-4.9-4.1,1-4.4c1.8-0.1,2.5-8,0.7-8.7c-7-2.4-5.6-8.9-7.9-14.6c4.8,0.7,8.8,1.2,12.9,1.8
		c0.8,0.1,1.7,0.5,2.2,1.1c1.5,1.7,2,5.4,4.1,5.2c3.1-0.3,6-2.4,10.2-4.2c-13.8-4.7-26.4-9.1-39.1-13.5c-1.3-0.5-3.5-0.3-3.4-2.2
		c0.1-1.7-0.3-5,3.5-3.1c0.9,0.5,2,0.5,4.1,1c-2.6-3.8-9.9-3.1-6.5-9.6c1.5-0.6,2.8,0.8,4.2,1.2c2.9,0.9,4.7,2.7,8.2-1
		c3-3,9.5-3.6,14.7-1.7c10.2,3.7,20.4,7.3,30.4,11.2c4.1,1.6,7.9,2.1,12,0.5c2.9-1.2,5.7-0.8,8.6,0.4c9.2,3.9,18.9,6.6,27.4,11.9
		c3.5,2.1,6.8,0.2,10.2,0c1.9-0.1,1.1-1.6,0.7-2.6c-1.1-3-2-6-2.3-9.2c-0.1-2-1.6-2.8-3.1-3.6c-4-2.3-8.2-4.5-12-7.2
		c-1.9-1.3-6.3-1.1-4.2-5.7c0.1-0.1-2-1.4-3.2-2c-8.1-3.8-16.1-7.6-25.2-11.9c5.1-1,8.7-0.9,12.5,0.7c13.4,5.4,27,10.4,40.4,15.9
		c3.3,1.4,6.3,1.7,9.4-0.2c4.2-2.6,8.4-2.7,12.5,0.1c5.3,3.7,10.7,4,16.2,0.5c6.2-4,12.6-3.7,19.4-1.3c7.5,2.7,15.1-0.1,22.7-0.5
		c1.6-0.1,1.7-1.8,2.2-3c2.1-5.2,4.3-10.4,6.8-16.5c2.8,6.5,5.3,12.1,8.3,18.8c1.9-4.6,3.3-8.3,5.1-12.8c0.5,1.7,0.9,2.7,1,3.6
		c0.5,9.2,4.3,16.5,12.1,21.6c0.8,0.5,1.7,1.3,2,2.2c3.5,11.9,13.4,19.2,20.3,28.7c0.5,0.6,0.9,1.3,1.5,2.2
		c-9.1,4.3-18,8.5-26.8,12.8c-1.7,0.8-3.1,0.7-4.7-0.2c-1.1-0.7-2.4-1.2-3.6-1.8c-7.5-3.7-10-2.6-13.1,5.1c-1.1,2.7-1.3,4.6,0.7,6.9
		c4.4,5.2,3.4,12,4.4,18.1c1.1,6.7,1.9,13.4,2.9,20.8c-5.9-2.7-11.2-5-16.4-7.6c-2.9-1.5-4.7-0.5-7,1.5c-5.4,4.6-6.3,10.9-7.6,17.2
		c-0.6,3.1,0.3,4,3.4,3c3-0.9,6-1.5,10.1-2.5c-3.8,4.3-6.7,7.9-10,11.1c-2.2,2.2-2.8,4-0.7,6.7c1.8,2.3,3,5,4.4,7.6
		c-0.5,0.2-0.7,0.3-0.8,0.3c-3.2-0.2-6.9-3.7-9.1-1.5c-1.6,1.5-0.4,6-0.2,9.1c0.7,11.1,5.6,20.1,13.2,28c2.7,2.8,6.8,4.7,6.6,9.6
		c-0.1,3.2-1.2,4-4.3,3.2c-2.2-0.6-4.3-1.9-7.7-1.2c3.6,2.2,3.7,7,9.1,6.8c3.9-0.1,4.9,4.1,4.6,7.1c-0.2,2.5-0.4,5.9-4.8,6.3
		c-6.6,0.7-13-0.5-19.4-0.6c-1.3,0-2.3-0.4-2.7-1.7c-2.7-7.9-9.5-13.3-12-21.5c-2-6.6-5.2-13.3-13-15.6c-1.2-0.3-2.7-1.1-1.6-2.9
		c0.9-1.6,2-0.1,3,0c2.2,0.2,4.4,4.8,6.8,0c2-4,0.6-7.3-2.7-9.3c-2.7-1.6-3.4-3.9-4-7c3.5,0.4,5.8,2.9,9.3,4.1
		c-0.6-7.1-1-14-1.7-20.8c-0.3-2.9-2.9-4.4-4.7-6.2c-1.9-2-3.3-4.1-3-7c0.4-3.5,0.2-6.9-0.7-10.5c-1.2-4.7,3.7-7.3,4.7-11.4
		c0.5-1.8,3-2.9,2.1-5.3c-0.4-1-1.4-0.4-2.2-0.3c-3.2,0.6-1.9,3.4-2.7,5.2c-0.1,0.3-0.2,0.6-0.5,1.5c-5.2-2.6-10.1-8.2-16.3-4.2
		c-5,3.2-10.3,7-7.6,14.7c2.7,0.3,6,0.1,9.3,1.5c-2.2,7-6.7,12-12.8,15.5c-2.3,1.4-3.2,2.9-3.3,5.6c-0.1,4.2-0.6,8.3-0.8,12.5
		c-0.3,6.7-1,13.1,2.7,19.7c3.4,6.1,4.3,13.6,6.7,20.3c1.2,3.3,2.8,5.8-3,5.6c-1.7-0.1-3.5-0.1-5.2-0.4c-0.4-0.1-1-0.4-1.2-0.2
		C911.9,493.1,912.3,493.6,912.7,494z M865,404.3c-3.8,4-5.6,7.4-3,13.2C863.1,412.7,865.2,409.4,865,404.3z M945.3,411.8
		c0.7,1.4-0.1,4.1,2.1,4.3c1.9,0.2,2.2-2,2.3-3.7c0.2-2-0.6-4.2-2.2-4.5C945.7,407.7,945.6,410.1,945.3,411.8z"/>
</g>
</svg>
