<?xml version="1.0" encoding="utf-8"?>
<!-- Generator: Adobe Illustrator 21.1.0, SVG Export Plug-In . SVG Version: 6.00 Build 0)  -->
<svg version="1.1" id="log-1_xA0_Image_1_" xmlns="http://www.w3.org/2000/svg" xmlns:xlink="http://www.w3.org/1999/xlink" x="0px"
	 y="0px" viewBox="0 0 1244 1773" style="enable-background:new 0 0 1244 1773;" xml:space="preserve">
<style type="text/css">
	.st0{fill:#211750;}
	.st1{fill:#05CD7A;}
</style>
<g>
	<path class="st0" d="M1244,887c0,290,0,580,0,869.9c0,8.1-8,16-16.2,16c-404,0-807.9,0-1211.9,0C8,1773,0,1765,0,1757.2
		C0,1176.7,0,596.2,0,15.8C0,8,8.1,0,16,0c404,0,807.9,0,1211.9,0c8.2,0,16.1,7.9,16.1,16.1C1244,306.4,1244,596.7,1244,887z
		 M40,886c0,280.2,0,560.3,0,840.5c0,7.4-0.9,6.5,6.2,6.5c383.8,0,767.7,0,1151.5,0c7.2,0,6.2,0.9,6.2-6.5c0-560,0-1120,0-1680
		c0-7.5,1-6.5-6.7-6.5c-383.5,0-767,0-1150.5,0c-7.8,0-6.7-1.1-6.7,7C40,326.7,40,606.3,40,886z"/>
	<path class="st1" d="M40,886c0-279.7,0-559.3,0-839c0-8.1-1.1-7,6.7-7c383.5,0,767,0,1150.5,0c7.7,0,6.7-1,6.7,6.5
		c0,560,0,1120,0,1680c0,7.4,0.9,6.5-6.2,6.5c-383.8,0-767.7,0-1151.5,0c-7.1,0-6.2,0.9-6.2-6.5C40,1446.3,40,1166.2,40,886z
		 M367.2,461C367.2,461,367.2,461,367.2,461c0-11,0.2-22-0.1-33c-0.3-12.8-10.7-23.8-23.4-25.1c-11.5-1.2-23-0.9-34.4-0.4
		c-16.9,0.8-27.8,11.6-28,27.2c-0.3,21-0.3,42,0,63c0.3,15.8,12.3,27.2,27.9,27.3c10.3,0.1,20.7,0.1,31,0c15.2-0.2,26.8-11.8,27-27
		C367.3,482.3,367.2,471.7,367.2,461z M569.2,461.6C569.2,461.6,569.2,461.6,569.2,461.6c0-11.2,0.2-22.3-0.1-33.5
		c-0.3-12.8-10.7-23.9-23.4-25.2c-11.5-1.2-23-0.9-34.4-0.4c-16.9,0.8-27.8,11.5-28.1,27.1c-0.3,21-0.3,42,0,63
		c0.2,16,12.3,27.3,28.4,27.4c10.2,0.1,20.3,0.1,30.5,0c15.3-0.2,26.9-11.8,27.1-26.9C569.3,482.5,569.2,472,569.2,461.6z
		 M367.2,1267.7C367.2,1267.7,367.2,1267.7,367.2,1267.7c0-10.5,0-21,0-31.5c0-0.5,0-1,0-1.5c-0.4-13.4-10.5-24.5-23.8-25.8
		c-11.5-1.2-23-1-34.4-0.3c-16.7,1-27.4,11.6-27.7,27c-0.3,21-0.3,42,0,63c0.2,16,12.3,27.4,28.3,27.5c10.3,0.1,20.7,0.2,31,0
		c14.9-0.3,26.5-11.9,26.7-26.8C367.3,1288.7,367.2,1278.2,367.2,1267.7z M770.2,461C770.2,461,770.2,461,770.2,461
		c0-11,0.2-22-0.1-33c-0.3-12.8-10.7-23.8-23.4-25.2c-11.5-1.2-23-0.9-34.4-0.4c-16.9,0.8-27.8,11.5-28,27.2c-0.3,21-0.3,42,0,63
		c0.3,15.8,12.3,27.2,27.9,27.3c10.3,0.1,20.7,0.1,31,0c15.2-0.2,26.8-11.8,27-27C770.3,482.3,770.2,471.7,770.2,461z M972.2,461.3
		C972.2,461.3,972.2,461.3,972.2,461.3c0-11,0.1-22-0.1-33c-0.3-13.1-10.6-24.1-23.7-25.5c-11.5-1.2-23-1-34.4-0.3
		c-16.9,0.9-27.6,11.7-27.8,27.4c-0.3,20.8-0.3,41.6,0,62.5c0.2,16,12.2,27.5,28.2,27.6c10.2,0.1,20.3,0.1,30.5,0
		c15.5-0.2,27.1-11.7,27.3-27.2C972.3,482.3,972.2,471.8,972.2,461.3z M1073.2,1066.5C1073.2,1066.5,1073.2,1066.5,1073.2,1066.5
		c0-11.2,0.2-22.3-0.1-33.5c-0.3-12.7-10.8-23.8-23.5-25.1c-11.5-1.2-23-1-34.4-0.4c-16.9,0.9-27.8,11.6-28,27.2
		c-0.3,21-0.3,42,0,63c0.3,15.8,12.3,27.2,28,27.3c10.3,0.1,20.7,0.1,31,0c15.2-0.2,26.8-11.8,27-27
		C1073.3,1087.5,1073.2,1077,1073.2,1066.5z M871.2,1066.5C871.2,1066.5,871.2,1066.5,871.2,1066.5c0-11.2,0.2-22.3-0.1-33.5
		c-0.3-12.8-10.7-23.9-23.4-25.2c-11.5-1.2-23-0.9-34.4-0.4c-16.9,0.8-27.8,11.5-28.1,27.2c-0.3,21-0.3,42,0,63
		c0.2,16,12.3,27.3,28.4,27.4c10.2,0.1,20.3,0.1,30.5,0c15.3-0.2,26.8-11.8,27.1-26.9C871.3,1087.5,871.2,1077,871.2,1066.5z
		 M468.2,1066.7C468.2,1066.7,468.2,1066.7,468.2,1066.7c0-10.5,0-21,0-31.5c0-0.5,0-1,0-1.5c-0.4-13.4-10.5-24.5-23.8-25.8
		c-11.5-1.2-23-1-34.4-0.3c-16.7,1-27.4,11.5-27.7,27c-0.3,21-0.3,42,0,63c0.2,16,12.3,27.4,28.3,27.5c10.3,0.1,20.7,0.2,31,0
		c14.9-0.3,26.5-11.9,26.7-26.8C468.3,1087.7,468.2,1077.2,468.2,1066.7z M266.2,1066.5c0-10.7,0-21.3,0-32c0-0.5,0-1,0-1.5
		c-0.5-12.7-10.8-23.8-23.5-25.1c-11.5-1.2-23-1-34.4-0.4c-16.9,0.9-27.8,11.6-28,27.2c-0.3,21-0.3,42,0,63
		c0.3,15.8,12.3,27.2,27.9,27.3c10.3,0.1,20.7,0.1,31,0c15.2-0.2,26.8-11.8,27-27C266.3,1087.5,266.2,1077,266.2,1066.5z
		 M266.2,663.5C266.2,663.5,266.2,663.5,266.2,663.5c0-11.2,0.2-22.3-0.1-33.5c-0.3-12.7-10.8-23.8-23.5-25.1
		c-11.5-1.2-23-1-34.4-0.4c-16.9,0.9-27.8,11.6-28,27.2c-0.3,21-0.3,42,0,63c0.3,15.8,12.3,27.2,28,27.3c10.3,0.1,20.7,0.1,31,0
		c15.2-0.2,26.8-11.8,27-27C266.3,684.4,266.2,674,266.2,663.5z M468.2,663.7c0-11,0.1-22,0-33c-0.2-13.4-10.5-24.5-23.8-25.8
		c-11.5-1.2-23-1-34.4-0.3c-16.7,1-27.4,11.5-27.7,27c-0.3,21-0.3,42,0,63c0.2,16,12.3,27.4,28.3,27.5c10.3,0.1,20.7,0.2,31,0
		c15-0.3,26.5-11.9,26.7-26.8C468.3,684.7,468.2,674.2,468.2,663.7z M569.2,663.7C569.2,663.7,569.2,663.7,569.2,663.7
		c0-10.5,0-21,0-31.5c0-0.5,0-1,0-1.5c-0.4-13.4-10.5-24.5-23.8-25.8c-11.5-1.2-23-1-34.4-0.3c-16.9,1-27.5,11.8-27.7,27.5
		c-0.2,20.8-0.3,41.6,0,62.5c0.2,16,12.3,27.4,28.3,27.5c10.3,0.1,20.7,0.2,31,0c15-0.3,26.5-11.9,26.7-26.8
		C569.3,684.7,569.2,674.2,569.2,663.7z M669.2,663.7c0-11,0.2-22,0-33c-0.2-13.4-10.5-24.5-23.8-25.8c-11.5-1.2-23-1-34.4-0.3
		c-16.7,1-27.4,11.6-27.7,27c-0.3,21-0.3,42,0,63c0.2,16,12.3,27.4,28.3,27.5c10.3,0.1,20.7,0.2,31,0c14.9-0.3,26.4-11.9,26.7-26.8
		C669.3,684.6,669.2,674.1,669.2,663.7z M972.2,864.4C972.2,864.4,972.2,864.4,972.2,864.4c0-11,0.1-22-0.1-33
		c-0.2-13.1-10.6-24.2-23.6-25.6c-11.5-1.2-23-1-34.4-0.4c-16.7,0.9-27.6,11.4-27.9,26.8c-0.4,21.1-0.4,42.3,0,63.5
		c0.3,15.8,12.3,27.1,28,27.2c10,0.1,20,0.1,30,0c16.2-0.1,27.8-11.6,27.9-27.6C972.3,885.1,972.2,874.7,972.2,864.4z M871.2,663.4
		C871.2,663.4,871.2,663.4,871.2,663.4c0-11,0.1-22-0.1-33c-0.2-13.1-10.6-24.2-23.5-25.6c-11.5-1.2-23-1-34.4-0.4
		c-16.9,0.9-27.7,11.6-27.9,27.3c-0.3,21-0.3,42,0,63c0.3,15.8,12.3,27.1,28,27.3c10.3,0.1,20.7,0.1,31,0
		c15.2-0.2,26.7-11.8,27-27.1C871.3,684.4,871.2,673.9,871.2,663.4z M1073.2,663.4C1073.2,663.4,1073.2,663.4,1073.2,663.4
		c0-11,0.1-22-0.1-33c-0.3-13.1-10.6-24.2-23.6-25.5c-11.5-1.2-23-1-34.4-0.4c-16.7,0.9-27.6,11.4-27.8,26.8
		c-0.4,21.1-0.4,42.3,0,63.5c0.3,15.8,12.3,27.1,28.1,27.2c10.2,0.1,20.3,0.1,30.5,0c15.5-0.2,27.2-11.7,27.4-27.1
		C1073.3,684.4,1073.2,673.9,1073.2,663.4z M770.2,864.3C770.2,864.3,770.2,864.3,770.2,864.3c0-11,0.1-22-0.1-33
		c-0.3-13.1-10.6-24.1-23.6-25.5c-11.5-1.2-23-1-34.4-0.3c-16.7,0.9-27.5,11.4-27.8,26.9c-0.4,21.1-0.4,42.3,0,63.5
		c0.3,15.8,12.4,27,28.1,27.2c10.2,0.1,20.3,0.1,30.5,0c15.5-0.2,27.1-11.7,27.3-27.2C770.3,885.3,770.2,874.8,770.2,864.3z
		 M569.2,864.6c0-11,0.2-22,0-33c-0.2-13.4-10.5-24.5-23.8-25.8c-11.5-1.2-23-1-34.4-0.3c-16.7,1-27.4,11.6-27.7,27
		c-0.3,21-0.3,42,0,63c0.2,16,12.3,27.4,28.3,27.5c10.3,0.1,20.7,0.2,31,0c14.9-0.3,26.4-11.9,26.7-26.8
		C569.3,885.6,569.2,875.1,569.2,864.6z M367.2,864.5C367.2,864.5,367.2,864.5,367.2,864.5c0-11.2,0.2-22.3-0.1-33.5
		c-0.3-12.7-10.8-23.8-23.5-25.1c-11.5-1.2-23-1-34.4-0.4c-16.9,0.9-27.8,11.6-28,27.2c-0.3,21-0.3,42,0,63
		c0.3,15.8,12.3,27.2,28,27.3c10.3,0.1,20.7,0.1,31,0c15.2-0.2,26.8-11.8,27-27C367.3,885.5,367.2,875,367.2,864.5z M1073.2,259.7
		c0-11,0.2-22,0-33c-0.2-13.4-10.5-24.5-23.8-25.8c-11.5-1.2-23-1-34.4-0.3c-16.7,1-27.4,11.5-27.7,27c-0.3,21-0.3,42,0,63
		c0.2,16,12.3,27.4,28.3,27.5c10.3,0.1,20.7,0.2,31,0c14.9-0.3,26.5-11.9,26.7-26.8C1073.3,280.6,1073.2,270.2,1073.2,259.7z
		 M669.2,1469.5C669.2,1469.5,669.2,1469.5,669.2,1469.5c0-11.2,0.2-22.3-0.1-33.5c-0.3-12.7-10.8-23.8-23.5-25.1
		c-11.5-1.2-23-1-34.4-0.4c-16.9,0.9-27.8,11.6-28,27.2c-0.3,21-0.3,42,0,63c0.3,15.8,12.3,27.2,28,27.3c10.3,0.1,20.7,0.1,31,0
		c15.2-0.2,26.8-11.8,27-27C669.3,1490.5,669.2,1480,669.2,1469.5z M871.2,259.6C871.2,259.6,871.2,259.6,871.2,259.6
		c0-11,0.1-22-0.1-33c-0.2-13.4-10.5-24.4-23.8-25.8c-11.5-1.2-23-1-34.4-0.3c-16.7,1-27.4,11.6-27.6,27c-0.3,21-0.3,42,0,63
		c0.2,16,12.3,27.4,28.3,27.5c10,0.1,20,0.1,30,0c15.9-0.1,27.5-11.6,27.7-27.4C871.3,280.3,871.2,270,871.2,259.6z M468.2,1469.4
		C468.2,1469.4,468.2,1469.4,468.2,1469.4c0-11,0.1-22-0.1-33c-0.3-13.1-10.6-24.2-23.6-25.5c-11.5-1.2-23-1-34.4-0.4
		c-16.7,0.9-27.6,11.4-27.9,26.8c-0.4,21.1-0.4,42.3,0,63.5c0.3,15.8,12.3,27.1,28,27.2c10.2,0.1,20.3,0.1,30.5,0
		c15.6-0.2,27.2-11.7,27.4-27.1C468.3,1490.4,468.2,1479.9,468.2,1469.4z M871.2,1469.4C871.2,1469.4,871.2,1469.4,871.2,1469.4
		c0-11,0.1-22-0.1-33c-0.2-13.1-10.6-24.2-23.5-25.6c-11.5-1.2-23-1-34.4-0.4c-16.9,0.9-27.7,11.6-28,27.2c-0.3,21-0.3,42,0,63
		c0.3,15.8,12.3,27.2,28,27.3c10.3,0.1,20.7,0.1,31,0c15.2-0.2,26.8-11.8,27-27C871.3,1490.4,871.2,1479.9,871.2,1469.4z
		 M669.2,259.5C669.2,259.5,669.2,259.5,669.2,259.5c0-11.2,0.2-22.3-0.1-33.5c-0.3-12.7-10.8-23.8-23.5-25.1
		c-11.5-1.2-23-1-34.4-0.4c-16.9,0.9-27.8,11.6-28,27.2c-0.3,21-0.3,42,0,63c0.3,15.8,12.3,27.2,28,27.3c10.3,0.1,20.7,0.1,31,0
		c15.2-0.2,26.8-11.8,27-27C669.3,280.5,669.2,270,669.2,259.5z M972.2,1469.5c0-10.7,0-21.3,0-32c0-0.5,0-1,0-1.5
		c-0.5-12.8-10.8-23.8-23.5-25.2c-11.5-1.2-23-0.9-34.4-0.4c-16.9,0.8-27.8,11.5-28,27.2c-0.3,21-0.3,42,0,63
		c0.2,15.8,12.3,27.2,27.9,27.4c10.3,0.1,20.7,0.1,31,0c15.2-0.2,26.8-11.8,27-27C972.3,1490.5,972.2,1480,972.2,1469.5z
		 M468.2,259.4c0-10.5,0-21,0-31.5c0-0.5,0-1,0-1.5c-0.4-13.1-10.6-24.2-23.6-25.6c-11.5-1.2-23-1-34.4-0.4
		c-16.7,0.9-27.6,11.4-27.9,26.8c-0.4,21.1-0.4,42.3,0,63.5c0.3,15.8,12.3,27.1,28,27.3c10,0.1,20,0.1,30,0
		c16.4-0.1,27.8-11.6,28-28.1C468.3,279.7,468.2,269.6,468.2,259.4z M266.2,1469.5C266.2,1469.5,266.2,1469.5,266.2,1469.5
		c0-11.2,0.2-22.3-0.1-33.5c-0.3-12.8-10.7-23.9-23.4-25.2c-11.5-1.2-23-0.9-34.4-0.4c-16.9,0.8-27.8,11.5-28.1,27.1
		c-0.3,21-0.3,42,0,63c0.2,16,12.3,27.3,28.4,27.4c10.2,0.1,20.3,0.1,30.5,0c15.3-0.2,26.9-11.8,27.1-26.9
		C266.3,1490.5,266.2,1480,266.2,1469.5z M972.2,1267.6C972.2,1267.6,972.2,1267.6,972.2,1267.6c0-11,0.1-22-0.1-33
		c-0.2-13.4-10.5-24.4-23.9-25.8c-11.5-1.2-23-1-34.4-0.3c-16.7,1-27.4,11.6-27.6,27c-0.3,21-0.3,42,0,63
		c0.2,16,12.3,27.4,28.3,27.5c10,0.1,20,0.1,30,0c15.8-0.1,27.5-11.6,27.6-27.4C972.3,1288.3,972.2,1277.9,972.2,1267.6z
		 M266.2,259.3c0-10.5,0-21,0-31.5c0-0.5,0-1,0-1.5c-0.5-13.1-10.7-24.1-23.7-25.5c-11.5-1.2-23-1-34.4-0.3
		c-16.9,0.9-27.6,11.7-27.8,27.4c-0.3,20.8-0.3,41.6,0,62.5c0.2,16,12.2,27.5,28.2,27.6c10.2,0.1,20.3,0.1,30.5,0
		c15.5-0.2,27.1-11.7,27.3-27.2C266.3,280.3,266.2,269.8,266.2,259.3z M669.2,1267.4c0-10.5,0-21,0-31.5c0-0.5,0-1,0-1.5
		c-0.4-13.1-10.6-24.2-23.6-25.6c-11.5-1.2-23-1-34.4-0.4c-17.5,0.9-27.9,12-28,28.8c-0.1,20.2-0.1,40.3,0,60.5
		c0.1,16.5,12.1,28.2,28.6,28.3c10.2,0,20.3,0.1,30.5,0c15.2-0.2,26.7-11.8,27-27.1C669.3,1288.4,669.2,1277.9,669.2,1267.4z
		 M569.2,1267.7c0-11,0.1-22,0-33c-0.2-13.4-10.5-24.5-23.8-25.8c-11.5-1.2-23-1-34.4-0.3c-16.7,1-27.4,11.5-27.7,27
		c-0.3,21-0.3,42,0,63c0.2,16,12.3,27.4,28.3,27.5c10.3,0.1,20.7,0.2,31,0c14.9-0.3,26.5-11.9,26.7-26.8
		C569.3,1288.7,569.2,1278.2,569.2,1267.7z M638.1,863.3c0-9.8,0-19.6,0-29.5c0-0.3,0-0.7,0-1c-0.2-14.3-10.1-25.3-24.3-27.1
		c-6.5-0.8-13-0.2-19.5-0.5c-2.3-0.1-3.3,0.6-3.3,3.1c0.1,5.8,0.1,11.7,0,17.5c0,2.4,0.9,3.2,3.2,3.1c4.8-0.1,9.7,0.1,14.5-0.1
		c4.3-0.2,6.1,1.7,6.1,5.9c0,20.3-0.1,40.6,0,60.9c0,3-1,4.2-4,4.1c-5.5-0.2-11,0-16.5-0.1c-2.2,0-3.4,0.5-3.4,3.1
		c0.1,5.8,0.1,11.7,0,17.5c0,2.3,1,2.8,3,2.8c21.5,0,43,0,64.4,0c2.3,0,3.3-0.6,3.3-3.1c-0.1-5.7-0.1-11.3,0-17
		c0.1-2.8-1.4-3.3-3.7-3.2c-5.2,0.1-10.3-0.1-15.5,0.1c-3.4,0.1-4.6-1-4.6-4.5C638.2,884.6,638.1,873.9,638.1,863.3z M1042.1,1468.4
		C1042.1,1468.4,1042.1,1468.4,1042.1,1468.4c0-10.7,0.1-21.3-0.1-32c-0.2-12.4-10.2-23.6-22.1-25.5c-7.3-1.1-14.6-0.5-21.9-0.7
		c-2.1,0-3,0.8-2.9,2.9c0.1,5.8,0.1,11.7,0,17.5c-0.1,2.8,1.2,3.4,3.6,3.3c4.7-0.1,9.3,0.1,14-0.1c4.6-0.2,6.3,1.8,6.3,6.2
		c-0.1,20.1-0.1,40.3,0,60.4c0,3.4-1.2,4.3-4.4,4.2c-5.3-0.2-10.7,0-16-0.1c-2.5-0.1-3.6,0.7-3.5,3.4c0.1,5.5,0.1,11,0,16.5
		c-0.1,2.6,0.8,3.5,3.4,3.5c21.3-0.1,42.6-0.1,63.9,0c2.6,0,3.5-0.9,3.5-3.5c-0.1-5.3-0.2-10.7,0-16c0.1-3.1-1.1-4-4.1-3.9
		c-5.2,0.2-10.3-0.1-15.5,0.1c-3.3,0.1-4.3-1.1-4.2-4.4C1042.2,1489.8,1042.1,1479.1,1042.1,1468.4z M840.1,863.2
		c0-9.8,0-19.6,0-29.5c0-0.3,0-0.7,0-1c-0.2-14.3-10.2-25.2-24.4-27c-6.5-0.8-13-0.2-19.4-0.5c-2.8-0.1-3.3,1.3-3.2,3.7
		c0.1,5.5,0.2,11,0,16.5c-0.1,3,1.1,3.7,3.8,3.6c4.7-0.2,9.3,0.1,14-0.1c4.3-0.2,6.1,1.7,6.1,5.9c0,20.3-0.1,40.6,0,60.9
		c0,3.1-1.1,4.1-4.1,4c-5.3-0.2-10.7,0.1-16-0.1c-2.7-0.1-3.9,0.6-3.8,3.6c0.2,5.5,0.1,11,0,16.5c0,2.3,0.6,3.3,3.1,3.3
		c21.5-0.1,43-0.1,64.4,0c2.8,0,3.3-1.3,3.2-3.7c-0.1-5.3-0.1-10.7,0-16c0.1-2.9-1-3.8-3.8-3.7c-5.2,0.2-10.3-0.1-15.5,0.1
		c-3.5,0.2-4.6-1.1-4.5-4.6C840.2,884.6,840.1,873.9,840.1,863.2z M437.1,863.4c0-10.2,0.1-20.3,0-30.5
		c-0.1-14.3-10.1-25.4-24.2-27.1c-6.5-0.8-13-0.2-19.4-0.5c-2.7-0.1-3.4,1-3.4,3.5c0.1,5.5,0.2,11,0,16.5c-0.1,2.8,0.8,3.9,3.7,3.7
		c4.7-0.2,9.3,0.1,14-0.1c4.6-0.2,6.2,1.9,6.2,6.3c-0.1,20.1-0.1,40.3,0,60.4c0,3.5-1.4,4.3-4.5,4.2c-5.3-0.2-10.7,0.1-16-0.1
		c-2.6-0.1-3.5,0.9-3.5,3.5c0.1,5.5,0.2,11,0,16.5c-0.1,2.7,0.9,3.4,3.5,3.4c21.3-0.1,42.6-0.1,63.9,0c2.7,0,3.5-1,3.4-3.5
		c-0.1-5.3-0.2-10.7,0-16c0.1-3.2-1.3-4-4.2-3.9c-4.5,0.2-9-0.3-13.5,0.1c-4.7,0.4-6.4-1-6.2-6C437.3,883.7,437.1,873.5,437.1,863.4
		z M235.1,863.1C235.1,863.1,235.1,863.1,235.1,863.1c0-10.3,0.1-20.6,0-31c-0.2-13.6-10.4-24.6-24-26.3c-6.6-0.8-13.3-0.2-19.9-0.5
		c-2.5-0.1-3.1,1-3.1,3.3c0.1,5.7,0.1,11.3,0,17c-0.1,2.6,0.8,3.5,3.5,3.4c4.7-0.2,9.3,0.2,14-0.1c4.9-0.3,6.5,2,6.4,6.6
		c-0.1,20-0.1,40,0,59.9c0,3.2-0.9,4.5-4.3,4.4c-5.2-0.2-10.3,0.1-15.5-0.1c-3.4-0.2-4.3,1.1-4.2,4.3c0.2,5.2,0.2,10.3,0,15.5
		c-0.1,2.9,1.1,3.6,3.8,3.6c21.1-0.1,42.3-0.1,63.4,0c2.4,0,3.7-0.6,3.6-3.3c-0.2-5.5-0.2-11,0-16.5c0.1-3-1.3-3.6-3.9-3.6
		c-5,0.1-10-0.1-15,0.1c-3.6,0.2-5-0.9-4.9-4.7C235.2,884.4,235.1,873.7,235.1,863.1z M739.1,1468.5c0-10.3,0.1-20.6,0-31
		c-0.2-14-10.3-25-24.1-26.7c-6.5-0.8-13-0.2-19.4-0.5c-2.6-0.1-3.6,0.8-3.5,3.4c0.2,5.5,0.2,11,0,16.5c-0.1,3.2,1.1,4,4.1,3.8
		c4.7-0.2,9.3,0.1,14-0.1c4.1-0.1,5.8,1.8,5.8,5.7c0,20.5,0,41,0,61.4c0,2.9-1.1,3.8-3.8,3.7c-5.5-0.1-11,0-16.5-0.1
		c-2.5-0.1-3.6,0.7-3.6,3.4c0.1,5.5,0.1,11,0,16.5c-0.1,2.5,0.7,3.5,3.4,3.5c21.3-0.1,42.6-0.1,63.9,0c2.6,0,3.6-0.8,3.5-3.4
		c-0.1-5.5-0.1-11,0-16.5c0.1-2.6-1-3.5-3.5-3.5c-5.3,0.1-10.7-0.1-16,0.1c-3.2,0.1-4.3-1-4.3-4.3
		C739.2,1489.8,739.1,1479.1,739.1,1468.5z M1042.1,863C1042.1,863,1042.1,863,1042.1,863c0-10.5,0.1-21-0.1-31.5
		c-0.3-13-10.6-24.1-23.5-25.7c-6.6-0.9-13.3-0.3-19.9-0.6c-2.5-0.1-3.6,0.7-3.5,3.4c0.2,5.7,0.2,11.3,0,17c-0.1,2.7,1,3.5,3.5,3.4
		c4.8-0.1,9.7,0.1,14.5-0.1c4.1-0.1,5.9,1.7,5.9,5.6c0,20.5,0,41,0,61.4c0,2.8-1,3.9-3.8,3.8c-5.5-0.1-11,0-16.5-0.1
		c-2.4,0-3.7,0.6-3.6,3.3c0.2,5.7,0.1,11.3,0,17c-0.1,2.5,1.1,3,3.3,3c21.3-0.1,42.6-0.1,63.9,0c2.5,0,3.6-0.7,3.5-3.4
		c-0.2-5.5-0.1-11,0-16.5c0.1-2.6-0.9-3.6-3.5-3.5c-5.3,0.1-10.7-0.1-16,0.1c-3.2,0.1-4.4-1-4.3-4.3
		C1042.2,884.7,1042.1,873.9,1042.1,863z M538.1,1468.3c0-10.2,0.1-20.3,0-30.5c-0.1-14.3-10.1-25.3-24.3-27.1
		c-6.5-0.8-13-0.2-19.5-0.5c-2.2-0.1-3.4,0.6-3.3,3.1c0.1,5.8,0.1,11.7,0,17.5c0,2.4,0.9,3.2,3.2,3.2c4.7-0.1,9.3,0.2,14-0.1
		c4.7-0.3,6.7,1.6,6.7,6.3c-0.1,20.1-0.1,40.3,0,60.4c0,3-0.9,4.2-4,4.1c-5.3-0.2-10.7,0.1-16-0.1c-3.1-0.1-4,1.1-3.9,4.1
		c0.2,5.2,0.2,10.3,0,15.5c-0.2,3.2,1.1,3.9,4.1,3.8c21-0.1,42-0.1,62.9,0c2.7,0,3.9-0.6,3.8-3.6c-0.2-5.3-0.2-10.7,0-16
		c0.1-2.8-0.8-3.9-3.7-3.8c-5,0.2-10-0.2-15,0.1c-3.8,0.2-5.2-0.9-5.1-5C538.3,1489.3,538.1,1478.8,538.1,1468.3z M336.1,1065
		C336.1,1065,336.1,1065,336.1,1065c0-10.5,0.1-21-0.1-31.5c-0.3-13-10.6-24.1-23.5-25.7c-6.6-0.9-13.3-0.3-19.9-0.6
		c-2.5-0.1-3.6,0.6-3.5,3.4c0.2,5.7,0.2,11.3,0,17c-0.1,2.7,1,3.5,3.5,3.4c4.8-0.1,9.7,0.1,14.5-0.1c4.1-0.1,5.9,1.7,5.9,5.6
		c0,20.5,0,41,0,61.4c0,2.8-1,3.9-3.8,3.8c-5.5-0.1-11,0-16.5-0.1c-2.4,0-3.7,0.5-3.6,3.3c0.2,5.7,0.1,11.3,0,17
		c-0.1,2.5,1.1,3,3.3,3c21.3-0.1,42.6-0.1,63.9,0c2.5,0,3.6-0.7,3.5-3.4c-0.2-5.5-0.1-11,0-16.5c0.1-2.6-0.9-3.6-3.5-3.5
		c-5.3,0.1-10.7-0.1-16,0.1c-3.2,0.1-4.4-0.9-4.3-4.3C336.2,1086.7,336.1,1075.9,336.1,1065z M538.1,1065c0-10.2,0.1-20.3,0-30.5
		c-0.2-14-10.3-25-24.1-26.7c-6.5-0.8-13-0.2-19.4-0.5c-2.6-0.1-3.6,0.8-3.5,3.4c0.2,5.5,0.2,11,0,16.5c-0.1,3.2,1.1,4,4.1,3.8
		c4.7-0.2,9.3,0.1,14-0.1c4.1-0.1,5.8,1.8,5.8,5.7c0,20.5,0,41,0,61.4c0,2.9-1.1,3.8-3.8,3.8c-5.5-0.1-11,0-16.5-0.1
		c-2.5-0.1-3.6,0.7-3.6,3.4c0.1,5.5,0.1,11,0,16.5c-0.1,2.5,0.7,3.5,3.4,3.5c21.3-0.1,42.6-0.1,63.9,0c2.6,0,3.6-0.8,3.5-3.4
		c-0.1-5.5-0.1-11,0-16.5c0.1-2.6-1-3.5-3.5-3.5c-5.3,0.1-10.7-0.1-16,0.1c-3.2,0.1-4.3-1-4.3-4.3
		C538.2,1086.6,538.1,1075.8,538.1,1065z M638.1,1065.4C638.1,1065.4,638.1,1065.4,638.1,1065.4c0-10.5,0.1-21-0.1-31.5
		c-0.2-13.4-10.5-24.4-23.6-26.1c-6.6-0.9-13.3-0.3-19.9-0.6c-2.6-0.1-3.5,0.9-3.4,3.5c0.1,5.5,0.2,11,0,16.5
		c-0.1,3.3,1.3,3.9,4.1,3.8c4.5-0.2,9,0.1,13.5-0.1c4.6-0.2,6.3,1.9,6.3,6.2c-0.1,20.1-0.1,40.3,0,60.4c0,3.4-1.3,4.3-4.4,4.2
		c-5.3-0.2-10.7,0-16-0.1c-2.5-0.1-3.6,0.8-3.5,3.4c0.1,5.5,0.2,11,0,16.5c-0.1,2.6,0.8,3.4,3.4,3.4c21.3-0.1,42.6-0.1,63.9,0
		c2.6,0,3.5-0.9,3.4-3.5c-0.1-5.3-0.2-10.7,0-16c0.1-3.2-1.2-4-4.1-3.9c-5,0.2-10-0.2-15,0.1c-3.8,0.2-4.8-1.3-4.7-4.9
		C638.2,1086.4,638.1,1075.9,638.1,1065.4z M739.1,1065C739.1,1065,739.1,1065,739.1,1065c0-10.5,0.1-21-0.1-31.5
		c-0.3-13-10.6-24.1-23.5-25.7c-6.6-0.9-13.3-0.3-19.9-0.6c-2.5-0.1-3.6,0.7-3.5,3.4c0.2,5.7,0.2,11.3,0,17c-0.1,2.7,1,3.4,3.5,3.4
		c4.8-0.1,9.7,0.1,14.5-0.1c4.1-0.1,5.8,1.7,5.8,5.6c0,20.5,0,41,0,61.4c0,2.8-1.1,3.8-3.8,3.8c-5.5-0.1-11,0-16.5-0.1
		c-2.4,0-3.7,0.6-3.6,3.3c0.2,5.7,0.1,11.3,0,17c-0.1,2.5,1.1,3,3.3,3c21.3-0.1,42.6-0.1,63.9,0c2.5,0,3.6-0.7,3.5-3.4
		c-0.1-5.5-0.1-11,0-16.5c0.1-2.6-0.9-3.5-3.5-3.5c-5.3,0.1-10.7-0.1-16,0.1c-3.2,0.1-4.4-1-4.3-4.3
		C739.2,1086.7,739.1,1075.8,739.1,1065z M336.1,1468.3c0-9.8,0-19.6,0-29.5c0-0.3,0-0.7,0-1c-0.2-14.3-10.1-25.3-24.3-27.1
		c-6.5-0.8-13-0.2-19.5-0.5c-2.2-0.1-3.4,0.5-3.3,3c0.1,5.8,0.1,11.7,0,17.5c0,2.4,0.8,3.2,3.2,3.2c4.8-0.1,9.7,0.1,14.5-0.1
		c4.6-0.2,6.2,2,6.2,6.3c-0.1,20.1-0.1,40.3,0,60.4c0,3-0.9,4.2-4,4.1c-5.3-0.2-10.7,0.1-16-0.1c-3.1-0.1-4,1-3.9,4
		c0.2,5.2,0.2,10.3,0,15.5c-0.2,3.2,1.1,3.9,4,3.9c21-0.1,42-0.1,62.9,0c2.7,0,4-0.6,3.9-3.6c-0.2-5.3-0.2-10.7,0-16
		c0.1-3.3-1.4-3.9-4.2-3.8c-4.8,0.2-9.7-0.2-14.5,0.1c-3.8,0.2-5.3-0.9-5.2-5C336.3,1489.3,336.1,1478.8,336.1,1468.3z
		 M941.1,1065.4C941.1,1065.4,941,1065.4,941.1,1065.4c0-10.7,0.1-21.3-0.1-32c-0.2-12.1-9.8-23.3-21.6-25.4
		c-7.4-1.3-14.9-0.6-22.4-0.8c-2.1,0-2.9,0.8-2.9,2.9c0.1,5.8,0.1,11.7,0,17.5c-0.1,2.8,1.2,3.3,3.6,3.3c4.7-0.1,9.3,0.1,14-0.1
		c4.6-0.2,6.3,1.9,6.3,6.2c-0.1,20.1-0.1,40.3,0,60.4c0,3.4-1.3,4.3-4.4,4.2c-5.3-0.2-10.7,0-16-0.1c-2.5-0.1-3.6,0.8-3.5,3.4
		c0.1,5.5,0.1,11,0,16.5c-0.1,2.6,0.8,3.5,3.4,3.4c21.3-0.1,42.6-0.1,63.9,0c2.6,0,3.5-0.9,3.4-3.5c-0.1-5.3-0.2-10.7,0-16
		c0.1-3.2-1.2-4-4.1-3.9c-5.2,0.2-10.3-0.1-15.5,0.1c-3.3,0.1-4.3-1.1-4.2-4.4C941.2,1086.7,941.1,1076.1,941.1,1065.4z
		 M1042.1,1266.4C1042.1,1266.4,1042.1,1266.4,1042.1,1266.4c0-10.5,0.1-21-0.1-31.5c-0.2-13.3-10.5-24.4-23.7-26.1
		c-6.6-0.9-13.3-0.3-19.9-0.6c-2.6-0.1-3.5,0.9-3.4,3.5c0.1,5.5,0.2,11,0,16.5c-0.1,2.7,0.7,3.9,3.6,3.8c4.7-0.2,9.3,0.1,14-0.1
		c4.6-0.2,6.3,1.9,6.3,6.2c-0.1,20.1-0.1,40.3,0,60.4c0,3.4-1.3,4.3-4.4,4.2c-5.3-0.2-10.7,0-16-0.1c-2.6-0.1-3.6,0.8-3.5,3.4
		c0.1,5.5,0.2,11,0,16.5c-0.1,2.6,0.9,3.4,3.4,3.4c21.3-0.1,42.6-0.1,63.9,0c2.6,0,3.5-0.9,3.4-3.5c-0.1-5.3-0.2-10.7,0-16
		c0.1-3.2-1.2-4-4.1-3.9c-4.8,0.2-9.7-0.2-14.5,0.1c-4.3,0.3-5.3-1.4-5.2-5.4C1042.2,1287.1,1042.1,1276.7,1042.1,1266.4z
		 M235.1,1266.5C235.1,1266.5,235.1,1266.5,235.1,1266.5c0-10.7,0.1-21.3-0.1-32c-0.3-13-10.6-24.1-23.5-25.7
		c-6.6-0.9-13.3-0.3-19.9-0.6c-2.5-0.1-3.6,0.7-3.5,3.4c0.2,5.7,0.2,11.3,0,17c-0.1,2.7,1,3.4,3.5,3.4c4.8-0.1,9.7,0.1,14.5-0.1
		c4.1-0.1,5.8,1.7,5.8,5.6c0,20.5,0,41,0,61.4c0,2.8-1,3.8-3.8,3.8c-5.5-0.1-11,0-16.5-0.1c-2.4,0-3.7,0.6-3.6,3.3
		c0.2,5.7,0.1,11.3,0,17c-0.1,2.5,1.1,3,3.3,3c21.3-0.1,42.6-0.1,63.9,0c2.5,0,3.6-0.7,3.5-3.4c-0.1-5.5-0.1-11,0-16.5
		c0.1-2.6-0.9-3.5-3.5-3.5c-5.3,0.1-10.7-0.1-16,0.1c-3.2,0.1-4.4-1-4.3-4.3C235.2,1287.8,235.1,1277.2,235.1,1266.5z M840.1,1266.4
		c0-9.8,0-19.6,0-29.5c0-0.3,0-0.7,0-1c-0.2-14.3-10.1-25.4-24.2-27.1c-6.5-0.8-13-0.2-19.4-0.5c-2.7-0.1-3.4,1-3.4,3.5
		c0.1,5.5,0.2,11,0,16.5c-0.1,2.8,0.8,3.9,3.7,3.7c4.7-0.2,9.3,0.1,14-0.1c4.6-0.2,6.2,2,6.2,6.3c-0.1,20.1-0.1,40.3,0,60.4
		c0,3.5-1.4,4.2-4.5,4.1c-5.3-0.2-10.7,0.1-16-0.1c-2.6-0.1-3.5,0.9-3.4,3.5c0.1,5.5,0.2,11,0,16.5c-0.1,2.7,0.9,3.4,3.5,3.4
		c21.3-0.1,42.6-0.1,63.9,0c2.7,0,3.4-1,3.4-3.5c-0.1-5.3-0.2-10.7,0-16c0.1-3.2-1.3-4-4.2-3.9c-4.7,0.2-9.3-0.2-14,0.1
		c-4.2,0.3-5.9-0.9-5.7-5.5C840.3,1287,840.1,1276.7,840.1,1266.4z M739.1,1266.2c0-9.8,0-19.6,0-29.5c0-0.3,0-0.7,0-1
		c-0.2-14.3-10.2-25.2-24.4-27c-6.5-0.8-13-0.2-19.5-0.5c-2.3-0.1-3.3,0.7-3.2,3.2c0.1,5.7,0.2,11.3,0,17c-0.1,3,1.1,3.7,3.8,3.6
		c4.7-0.2,9.3,0.1,14-0.1c4.3-0.2,6.1,1.8,6.1,5.9c0,20.3-0.1,40.6,0,60.9c0,3.1-1.1,4.1-4.1,4c-5.5-0.1-11,0-16.5-0.1
		c-2.3,0-3.3,0.6-3.3,3.1c0.1,5.7,0.1,11.3,0,17c0,2.3,0.7,3.2,3.1,3.2c21.5-0.1,43-0.1,64.4,0c2.4,0,3.3-0.8,3.2-3.2
		c-0.1-5.5-0.1-11,0-16.5c0.1-2.9-1-3.8-3.8-3.7c-5.2,0.2-10.3-0.1-15.5,0.1c-3.5,0.2-4.6-1.1-4.5-4.6
		C739.2,1287.5,739.1,1276.9,739.1,1266.2z M437.1,1266C437.1,1266,437.1,1266,437.1,1266c0-10.5,0.1-21-0.1-31.5
		c-0.3-13-10.6-24.1-23.5-25.7c-6.6-0.9-13.3-0.3-19.9-0.6c-2.5-0.1-3.6,0.6-3.5,3.4c0.2,5.7,0.2,11.3,0,17c-0.1,2.7,1,3.5,3.5,3.4
		c4.8-0.1,9.7,0.1,14.5-0.1c4.1-0.1,5.9,1.7,5.9,5.6c0,20.5,0,41,0,61.4c0,2.8-1,3.9-3.8,3.8c-5.5-0.1-11,0-16.5-0.1
		c-2.4,0-3.7,0.5-3.6,3.3c0.2,5.7,0.1,11.3,0,17c-0.1,2.5,1.1,3,3.3,3c21.3-0.1,42.6-0.1,63.9,0c2.5,0,3.6-0.7,3.5-3.4
		c-0.2-5.5-0.1-11,0-16.5c0.1-2.6-0.9-3.6-3.5-3.5c-5.3,0.1-10.7-0.1-16,0.1c-3.2,0.1-4.4-0.9-4.3-4.3
		C437.2,1287.7,437.1,1276.9,437.1,1266z M941.1,258.4c0-10.2,0-20.3,0-30.5c0-0.3,0-0.7,0-1c-0.4-13.3-10.5-24.4-23.7-26.1
		c-6.6-0.8-13.3-0.3-19.9-0.6c-2.7-0.1-3.5,1-3.4,3.5c0.1,5.5,0.2,11,0,16.5c-0.1,2.8,0.7,3.9,3.6,3.8c4.7-0.2,9.3,0.1,14-0.1
		c4.6-0.2,6.3,1.9,6.2,6.3c-0.1,20.1-0.1,40.3,0,60.4c0,3.4-1.4,4.3-4.4,4.2c-5.3-0.2-10.7,0.1-16-0.1c-2.6-0.1-3.5,0.9-3.5,3.5
		c0.1,5.5,0.2,11,0,16.5c-0.1,2.7,0.9,3.4,3.5,3.4c21.3-0.1,42.6-0.1,63.9,0c2.7,0,3.5-1,3.4-3.5c-0.1-5.3-0.2-10.7,0-16
		c0.1-3.2-1.2-4-4.1-3.9c-4.5,0.2-9-0.3-13.5,0.1c-4.7,0.4-6.4-1-6.2-6C941.3,278.7,941.1,268.5,941.1,258.4z M739.1,258
		C739.1,258,739.1,258,739.1,258c0-10.5,0.1-21-0.1-31.5c-0.3-13-10.6-24.1-23.5-25.7c-6.6-0.9-13.3-0.3-19.9-0.6
		c-2.5-0.1-3.6,0.7-3.5,3.4c0.2,5.7,0.2,11.3,0,17c-0.1,2.7,1,3.5,3.5,3.4c4.8-0.1,9.7,0.1,14.5-0.1c4.1-0.1,5.9,1.7,5.9,5.6
		c0,20.5,0,41,0,61.4c0,2.8-1,3.9-3.8,3.8c-5.5-0.1-11,0-16.5-0.1c-2.4,0-3.7,0.6-3.6,3.3c0.2,5.7,0.1,11.3,0,17
		c-0.1,2.5,1.1,3,3.3,3c21.3-0.1,42.6-0.1,63.9,0c2.5,0,3.6-0.7,3.5-3.4c-0.2-5.5-0.1-11,0-16.5c0.1-2.6-0.9-3.6-3.5-3.5
		c-5.3,0.1-10.7-0.1-16,0.1c-3.2,0.1-4.4-1-4.3-4.3C739.2,279.7,739.1,268.9,739.1,258z M538.1,258.1
		C538.1,258.1,538.1,258.1,538.1,258.1c0-10.3,0.1-20.6,0-31c-0.2-13.6-10.4-24.6-24-26.3c-6.6-0.8-13.3-0.2-19.9-0.5
		c-2.5-0.1-3.1,1-3.1,3.3c0.1,5.7,0.1,11.3,0,17c-0.1,2.6,0.8,3.5,3.5,3.4c4.7-0.2,9.3,0.2,14-0.1c4.9-0.3,6.5,2,6.4,6.6
		c-0.1,20-0.1,40,0,59.9c0,3.2-0.9,4.5-4.3,4.4c-5.2-0.2-10.3,0.1-15.5-0.1c-3.4-0.2-4.3,1.1-4.2,4.3c0.2,5.2,0.2,10.3,0,15.5
		c-0.1,2.9,1.1,3.6,3.8,3.6c21.1-0.1,42.3-0.1,63.4,0c2.4,0,3.7-0.6,3.6-3.3c-0.2-5.5-0.2-11,0-16.5c0.1-3-1.3-3.6-3.9-3.6
		c-5,0.1-10-0.1-15,0.1c-3.6,0.2-5-0.9-4.9-4.7C538.2,279.4,538.1,268.7,538.1,258.1z M336.1,258.7c0-10.2,0-20.3,0-30.5
		c0-0.3,0-0.7,0-1c-0.3-13.6-10.4-24.7-23.9-26.4c-6.6-0.8-13.3-0.3-19.9-0.5c-2.4-0.1-3.2,0.9-3.2,3.2c0.1,5.7,0.2,11.3,0,17
		c-0.1,3.1,1.3,3.6,3.9,3.5c4.7-0.1,9.3,0.1,14-0.1c4.4-0.2,6,1.9,6,6c0,20.3-0.1,40.6,0,60.9c0,3.2-1.3,4-4.2,3.9
		c-5.3-0.1-10.7,0.1-16-0.1c-2.8-0.1-3.8,0.8-3.8,3.7c0.2,5.5,0.1,11,0,16.5c-0.1,2.4,0.8,3.2,3.2,3.2c21.5-0.1,43-0.1,64.4,0
		c2.4,0,3.2-0.9,3.2-3.2c-0.1-5.3-0.2-10.7,0-16c0.2-3.4-1.2-4.3-4.4-4.2c-4.8,0.2-9.7-0.2-14.5,0.1c-4.1,0.3-5.1-1.4-5-5.2
		C336.2,279.3,336.1,269,336.1,258.7z M235.1,460.2c0-10.2,0.1-20.3,0-30.5c-0.1-14.2-10.2-25.2-24.4-27c-6.5-0.8-13-0.2-19.5-0.5
		c-2.3-0.1-3.3,0.8-3.2,3.2c0.1,5.7,0.2,11.3,0,17c-0.1,3,1.2,3.7,3.8,3.6c4.7-0.2,9.3,0.1,14-0.1c4.3-0.2,6.1,1.8,6.1,5.9
		c0,20.3-0.1,40.6,0,60.9c0,3.1-1.2,4.1-4.1,4c-5.5-0.1-11,0-16.5-0.1c-2.3,0-3.3,0.7-3.3,3.1c0.1,5.7,0.1,11.3,0,17
		c0,2.3,0.7,3.2,3.1,3.2c21.5-0.1,43-0.1,64.4,0c2.4,0,3.3-0.8,3.2-3.2c-0.1-5.5-0.1-11,0-16.5c0.1-2.9-1.1-3.8-3.8-3.7
		c-5.2,0.1-10.3-0.1-15.5,0.1c-3.5,0.2-4.6-1.2-4.5-4.6C235.2,481.5,235.1,470.9,235.1,460.2z M437.1,460.5c0-10.3,0-20.6,0-31
		c0-0.3,0-0.7,0-1c-0.4-13-10.6-24.1-23.6-25.7c-6.6-0.9-13.3-0.3-19.9-0.6c-2.5-0.1-3.6,0.7-3.5,3.4c0.2,5.7,0.2,11.3,0,17
		c-0.1,2.7,1,3.4,3.5,3.4c4.8-0.1,9.7,0.1,14.5-0.1c4.1-0.1,5.8,1.7,5.8,5.6c0,20.5,0,41,0,61.4c0,2.8-1,3.8-3.8,3.8
		c-5.5-0.1-11,0-16.5-0.1c-2.4,0-3.7,0.6-3.6,3.3c0.2,5.7,0.1,11.3,0,17c-0.1,2.5,1.1,3,3.3,3c21.3-0.1,42.6-0.1,63.9,0
		c2.5,0,3.6-0.7,3.5-3.4c-0.1-5.5-0.1-11,0-16.5c0.1-2.6-0.9-3.5-3.5-3.5c-5.3,0.1-10.7-0.1-16,0.1c-3.2,0.1-4.4-1-4.3-4.3
		C437.2,481.8,437.1,471.2,437.1,460.5z M638.1,460.1C638.1,460.1,638.1,460.1,638.1,460.1c0-10.3,0.1-20.6,0-31
		c-0.2-13.6-10.4-24.7-23.9-26.4c-6.5-0.8-13-0.2-19.4-0.5c-2.9-0.1-3.7,1-3.6,3.8c0.2,5.5,0.2,11,0,16.5c-0.1,2.6,0.7,3.6,3.4,3.5
		c4.8-0.2,9.7,0.1,14.5-0.1c4.4-0.2,6,1.9,6,6c0,20.3-0.1,40.6,0,60.9c0,3.2-1.4,4-4.2,3.9c-5.3-0.1-10.7,0.1-16-0.1
		c-2.8-0.1-3.8,0.9-3.7,3.7c0.2,5.3,0.2,10.7,0,16c-0.1,2.9,1,3.7,3.7,3.7c21.1-0.1,42.3-0.1,63.4,0c2.9,0,3.7-1,3.6-3.8
		c-0.2-5.2-0.2-10.3,0-15.5c0.2-3.5-1.3-4.3-4.4-4.1c-4.5,0.2-9-0.2-13.5,0.1c-4.4,0.3-6.2-0.9-6-5.7
		C638.3,480.8,638.1,470.5,638.1,460.1z M840.1,460.1C840.1,460.1,840.1,460.1,840.1,460.1c0-10.5,0.1-21-0.1-31.5
		c-0.2-13.1-10.5-24.2-23.4-25.8c-6.8-0.9-13.6-0.3-20.4-0.6c-2.4-0.1-3.2,0.9-3.1,3.3c0.1,5.7,0.2,11.3,0,17
		c-0.1,3.1,1.3,3.6,3.9,3.5c4.7-0.1,9.3,0.1,14-0.1c4.4-0.2,6,1.9,6,6c0,20.3-0.1,40.6,0,60.9c0,3.2-1.3,4-4.2,3.9
		c-5.3-0.1-10.7,0.1-16-0.1c-2.8-0.1-3.8,0.9-3.7,3.7c0.2,5.3,0.2,10.7,0,16c-0.1,2.9,0.9,3.7,3.7,3.7c21.1-0.1,42.3-0.1,63.4,0
		c2.9,0,3.7-1,3.7-3.8c-0.2-5.2-0.2-10.3,0-15.5c0.2-3.5-1.3-4.3-4.4-4.1c-4.5,0.2-9-0.2-13.5,0.1c-4.4,0.3-6.2-0.8-6-5.7
		C840.3,480.8,840.1,470.5,840.1,460.1z M336.1,662.5c0-10.3,0.1-20.6,0-31c-0.2-14-10.3-25-24.1-26.7c-6.5-0.8-13-0.2-19.4-0.5
		c-2.6-0.1-3.6,0.8-3.5,3.4c0.2,5.5,0.2,11,0,16.5c-0.1,3.2,1.2,4,4.1,3.8c4.7-0.2,9.3,0.1,14-0.1c4.1-0.1,5.8,1.8,5.8,5.7
		c0,20.5,0,41,0,61.4c0,2.9-1.1,3.8-3.8,3.7c-5.5-0.1-11,0-16.5-0.1c-2.5-0.1-3.6,0.7-3.6,3.4c0.1,5.5,0.1,11,0,16.5
		c-0.1,2.5,0.7,3.5,3.4,3.5c21.3-0.1,42.6-0.1,63.9,0c2.6,0,3.6-0.8,3.5-3.4c-0.1-5.5-0.1-11,0-16.5c0.1-2.6-1-3.5-3.5-3.5
		c-5.3,0.1-10.7-0.1-16,0.1c-3.2,0.1-4.3-1-4.3-4.3C336.2,683.8,336.1,673.1,336.1,662.5z M1042.1,460.2c0-10.3,0.1-20.6,0-31
		c-0.2-13.6-10.4-24.7-23.9-26.4c-6.6-0.8-13.3-0.3-19.9-0.5c-2.4-0.1-3.2,0.9-3.1,3.2c0.1,5.7,0.2,11.3,0,17
		c-0.1,3.1,1.3,3.6,3.9,3.5c4.7-0.1,9.3,0.1,14-0.1c4.4-0.2,6,1.9,6,6c0,20.3-0.1,40.6,0,60.9c0,3.2-1.3,4-4.2,3.9
		c-5.3-0.1-10.7,0.1-16-0.1c-2.8-0.1-3.8,0.9-3.7,3.7c0.2,5.5,0.1,11,0,16.5c-0.1,2.4,0.8,3.2,3.2,3.2c21.5-0.1,43-0.1,64.4,0
		c2.4,0,3.2-0.9,3.1-3.2c-0.1-5.5-0.2-11,0-16.5c0.1-3-1.2-3.7-3.9-3.6c-4.7,0.1-9.4-0.3-14,0.1c-5,0.4-6.1-1.5-6-6.2
		C1042.3,480.5,1042.1,470.3,1042.1,460.2z M941.1,662.4C941.1,662.4,941.1,662.4,941.1,662.4c0-10.5,0.1-21-0.1-31.5
		c-0.2-13.3-10.5-24.4-23.7-26.1c-6.6-0.9-13.3-0.3-19.9-0.6c-2.6-0.1-3.5,0.9-3.4,3.5c0.1,5.5,0.2,11,0,16.5
		c-0.1,2.7,0.7,3.9,3.6,3.8c4.7-0.2,9.3,0.1,14-0.1c4.6-0.2,6.3,1.9,6.3,6.2c-0.1,20.1-0.1,40.3,0,60.4c0,3.4-1.3,4.3-4.4,4.2
		c-5.3-0.2-10.7,0-16-0.1c-2.6-0.1-3.6,0.8-3.5,3.4c0.1,5.5,0.2,11,0,16.5c-0.1,2.6,0.9,3.4,3.4,3.4c21.3-0.1,42.6-0.1,63.9,0
		c2.6,0,3.5-0.9,3.4-3.5c-0.1-5.3-0.2-10.7,0-16c0.1-3.2-1.2-4-4.1-3.9c-4.8,0.2-9.7-0.2-14.5,0.1c-4.3,0.3-5.3-1.4-5.2-5.4
		C941.2,683.1,941.1,672.7,941.1,662.4z M739.1,662.5c0-10.3,0.1-20.6,0-31c-0.2-14-10.3-25-24.1-26.7c-6.5-0.8-13-0.2-19.4-0.5
		c-2.6-0.1-3.6,0.8-3.5,3.4c0.2,5.5,0.2,11,0,16.5c-0.1,3.2,1.2,4,4.1,3.8c4.7-0.2,9.3,0.1,14-0.1c4.1-0.1,5.8,1.8,5.8,5.7
		c0,20.5,0,41,0,61.4c0,2.9-1.1,3.8-3.8,3.7c-5.5-0.1-11,0.1-16.5-0.1c-2.5-0.1-3.6,0.7-3.6,3.4c0.1,5.7,0.1,11.3,0,17
		c0,2.1,0.6,3,2.9,3c21.6-0.1,43.3,0,64.9,0c2.1,0,3-0.7,3-2.9c-0.1-5.7-0.1-11.3,0-17c0.1-2.6-1-3.5-3.5-3.4
		c-5.3,0.1-10.7-0.1-16,0.1c-3.2,0.1-4.3-1-4.3-4.3C739.2,683.8,739.1,673.1,739.1,662.5z"/>
	<path class="st0" d="M367.2,461c0,10.7,0.1,21.3,0,32c-0.2,15.2-11.8,26.8-27,27c-10.3,0.2-20.7,0.1-31,0
		c-15.7-0.1-27.7-11.6-27.9-27.3c-0.3-21-0.3-42,0-63c0.2-15.6,11.1-26.4,28-27.2c11.4-0.6,23-0.8,34.4,0.4
		c12.7,1.3,23.2,12.4,23.4,25.1C367.4,439,367.2,450,367.2,461C367.2,461,367.2,461,367.2,461z M344,462.8c0-10.5,0-21.1,0-31.7
		c0-3.9-2.1-5.2-5.7-5.1c-8.3,0.1-16.6,0-24.9,0.1c-2,0-4.2-0.5-5.8,0.4C319.7,438.5,331.8,450.6,344,462.8z M341.2,496.1
		c-12-12.1-24-24.1-36.4-36.6c0,10.4,0.2,20.6-0.1,30.8c-0.1,4.9,2.1,6.5,6.6,6.4c8.7-0.1,17.3,0,26,0
		C338.8,496.7,340.4,497.1,341.2,496.1z"/>
	<path class="st0" d="M569.2,461.6c0,10.5,0.1,21,0,31.5c-0.2,15.2-11.8,26.7-27.1,26.9c-10.2,0.1-20.3,0.1-30.5,0
		c-16.1-0.1-28.1-11.4-28.4-27.4c-0.3-21-0.3-42,0-63c0.2-15.6,11.1-26.3,28.1-27.1c11.4-0.6,23-0.8,34.4,0.4
		c12.7,1.3,23.1,12.4,23.4,25.2C569.4,439.2,569.2,450.4,569.2,461.6C569.2,461.6,569.2,461.6,569.2,461.6z M510.2,426
		c12.1,12.1,24.2,24.2,35.8,35.8c0-9.5,0-20.2,0-30.8c0-2.6-0.9-4.9-3.8-4.9C531.3,425.9,520.4,426,510.2,426z M506.8,459.7
		c0,10.2,0.2,20.4-0.1,30.6c-0.1,4.9,2.1,6.5,6.6,6.4c8.8-0.1,17.6,0,26.5,0c1.3,0,2.7,0.2,3.3-0.5
		C531.1,484.1,519.1,472,506.8,459.7z"/>
	<path class="st0" d="M367.2,1267.7c0,10.5,0.1,21,0,31.5c-0.2,14.9-11.7,26.5-26.7,26.8c-10.3,0.2-20.7,0.1-31,0
		c-16-0.1-28.1-11.5-28.3-27.5c-0.3-21-0.3-42,0-63c0.2-15.4,10.9-26,27.7-27c11.4-0.7,23-0.9,34.4,0.3
		c13.3,1.4,23.5,12.4,23.8,25.8c0,0.5,0,1,0,1.5C367.2,1246.7,367.2,1257.2,367.2,1267.7C367.2,1267.7,367.2,1267.7,367.2,1267.7z
		 M344,1268.9c0-10.4-0.1-20.8,0-31.3c0-4.1-1.8-5.7-5.7-5.6c-9,0.1-17.9,0-26.9,0.1c-1.4,0-3-0.7-3.8,0.5
		C319.7,1244.6,331.7,1256.6,344,1268.9z M341.1,1302.2c-12.1-12.1-24.1-24.1-36.3-36.4c0,10.1,0.2,20.3-0.1,30.5
		c-0.1,4.9,2.1,6.5,6.6,6.4c8.7-0.1,17.3,0,26,0C338.8,1302.7,340.4,1303.1,341.1,1302.2z"/>
	<path class="st0" d="M770.2,461c0,10.7,0.1,21.3,0,32c-0.2,15.2-11.8,26.8-27,27c-10.3,0.2-20.7,0.1-31,0
		c-15.7-0.1-27.7-11.6-27.9-27.3c-0.3-21-0.3-42,0-63c0.2-15.6,11.1-26.3,28-27.2c11.4-0.6,23-0.8,34.4,0.4
		c12.7,1.3,23.2,12.4,23.4,25.2C770.4,439,770.2,450,770.2,461C770.2,461,770.2,461,770.2,461z M747,462.9c0-10.4-0.1-20.8,0-31.3
		c0-4.1-1.8-5.7-5.7-5.6c-9,0.1-17.9,0-26.9,0.1c-1.4,0-3-0.7-3.8,0.5C722.7,438.6,734.7,450.6,747,462.9z M743.5,496.6
		c-12-12-24-24.1-35.7-35.8c0,9.5,0.1,19.9,0,30.4c0,4.2,2.3,5.5,6,5.5c8,0,16,0.1,24,0C740,496.7,742.4,497.4,743.5,496.6z"/>
	<path class="st0" d="M972.2,461.3c0,10.5,0.1,21,0,31.5c-0.2,15.5-11.8,27-27.3,27.2c-10.2,0.1-20.3,0.1-30.5,0
		c-15.9-0.1-28-11.6-28.2-27.6c-0.3-20.8-0.3-41.6,0-62.5c0.2-15.7,10.9-26.5,27.8-27.4c11.4-0.6,23-0.8,34.4,0.3
		c13,1.4,23.4,12.4,23.7,25.5C972.4,439.3,972.2,450.3,972.2,461.3C972.2,461.3,972.2,461.3,972.2,461.3z M949,462.7
		c0-10.3,0-20.9,0-31.6c0-3.9-2-5.2-5.6-5.2c-7.6,0.1-15.3,0-22.9,0.1c-2.7,0-5.5-0.5-7.8,0.3C924.8,438.5,936.8,450.5,949,462.7z
		 M946.2,496.1c-12.1-12.1-24.1-24.2-36.4-36.4c0,10.1,0,20.1,0,30.2c0,5.7,1,6.7,6.6,6.8c8.7,0.1,17.3,0,26,0
		C943.8,496.7,945.4,497.1,946.2,496.1z"/>
	<path class="st0" d="M1073.2,1066.5c0,10.5,0.1,21,0,31.5c-0.2,15.2-11.8,26.8-27,27c-10.3,0.2-20.7,0.1-31,0
		c-15.7-0.1-27.7-11.5-28-27.3c-0.3-21-0.3-42,0-63c0.2-15.7,11.1-26.4,28-27.2c11.4-0.6,23-0.8,34.4,0.4
		c12.7,1.3,23.2,12.4,23.5,25.1C1073.4,1044.1,1073.2,1055.3,1073.2,1066.5C1073.2,1066.5,1073.2,1066.5,1073.2,1066.5z
		 M1013.6,1031c12.4,12.3,24.6,24.4,36.3,36c0-9.7,0-20.3,0-30.9c0-2.9-1-5-4.2-5.1C1035.1,1030.9,1024.3,1031,1013.6,1031z
		 M1046.5,1101.4c-11.9-12.2-23.8-24.3-35.7-36.5c0,10.4,0,21.1,0,31.7c0,4.1,2.5,5.1,5.9,5.1c6.8,0,13.6,0.1,20.5,0
		C1040.6,1101.6,1044.1,1102.4,1046.5,1101.4z"/>
	<path class="st0" d="M871.2,1066.5c0,10.5,0.1,21,0,31.5c-0.2,15.2-11.8,26.7-27.1,26.9c-10.2,0.1-20.3,0.1-30.5,0
		c-16.1-0.1-28.1-11.4-28.4-27.4c-0.3-21-0.3-42,0-63c0.2-15.6,11.1-26.3,28.1-27.2c11.4-0.6,23-0.8,34.4,0.4
		c12.7,1.3,23.1,12.4,23.4,25.2C871.4,1044.2,871.2,1055.4,871.2,1066.5C871.2,1066.5,871.2,1066.5,871.2,1066.5z M848,1067.3
		c0-7.8,0-16.2,0-24.6c0.1-12.6,0.7-11.8-12-11.8c-8.2,0-16.4,0-24.6,0C823.9,1043.3,835.9,1055.3,848,1067.3z M845.4,1101.5
		c-12.4-12.4-24.4-24.5-36.5-36.6c0,10.7,0,21.6,0,32.5c0,2.4,1.5,4,3.7,4C823.4,1101.6,834.4,1101.5,845.4,1101.5z"/>
	<path class="st0" d="M468.2,1066.7c0,10.5,0.1,21,0,31.5c-0.2,14.9-11.7,26.5-26.7,26.8c-10.3,0.2-20.7,0.1-31,0
		c-16-0.1-28-11.5-28.3-27.5c-0.3-21-0.3-42,0-63c0.2-15.4,10.9-26,27.7-27c11.4-0.7,23-0.9,34.4,0.3c13.3,1.4,23.5,12.4,23.8,25.8
		c0,0.5,0,1,0,1.5C468.2,1045.7,468.2,1056.2,468.2,1066.7C468.2,1066.7,468.2,1066.7,468.2,1066.7z M445,1067.7c0-10.4,0-21,0-31.6
		c0-3.9-2-5.2-5.7-5.2c-8,0.1-16,0-23.9,0.1c-2.4,0-4.9-0.5-6.9,0.4C420.7,1043.6,432.8,1055.6,445,1067.7z M405.8,1064
		c0,11.5,0,22.2,0,33c0,3.8,2.6,4.7,5.7,4.7c9.3,0,18.6,0,28,0c1.2,0,2.8,0.4,2.9-1.1C430.3,1088.5,418.4,1076.6,405.8,1064z"/>
	<path class="st0" d="M266.2,1066.5c0,10.5,0.1,21,0,31.5c-0.2,15.2-11.8,26.8-27,27c-10.3,0.2-20.7,0.1-31,0
		c-15.7-0.1-27.7-11.6-27.9-27.3c-0.3-21-0.3-42,0-63c0.2-15.6,11.1-26.4,28-27.2c11.4-0.6,23-0.8,34.4,0.4
		c12.7,1.3,23,12.4,23.5,25.1c0,0.5,0,1,0,1.5C266.2,1045.2,266.2,1055.8,266.2,1066.5z M206.9,1031c12.2,12.2,24.3,24.3,36.1,36.1
		c0-9.9,0-20.7,0-31.5c0-2.7-1.3-4.6-4.1-4.6C228.1,1030.9,217.3,1031,206.9,1031z M239.6,1101.9c-12.1-12.2-24.2-24.3-35.8-35.9
		c0,9.1,0.2,19.2-0.1,29.4c-0.1,4.9,2.1,6.5,6.6,6.5c8.8-0.1,17.6,0,26.5,0C238.1,1101.7,239.5,1102,239.6,1101.9z"/>
	<path class="st0" d="M266.2,663.5c0,10.5,0.1,21,0,31.5c-0.2,15.2-11.8,26.8-27,27c-10.3,0.2-20.7,0.1-31,0
		c-15.7-0.1-27.7-11.5-28-27.3c-0.3-21-0.3-42,0-63c0.2-15.7,11.1-26.4,28-27.2c11.4-0.6,23-0.8,34.4,0.4
		c12.7,1.3,23.2,12.4,23.5,25.1C266.4,641.1,266.2,652.3,266.2,663.5C266.2,663.5,266.2,663.5,266.2,663.5z M206.6,628.1
		c12.4,12.3,24.5,24.3,36.4,36.1c0-10.1,0-21,0-31.9c0-2.3-1.1-4.1-3.4-4.2C228.5,628,217.4,628.1,206.6,628.1z M240.2,698.2
		c-12.1-12.1-24.1-24.2-36.3-36.4c0,10,0,20.1,0,30.2c0,5.7,1,6.7,6.6,6.8c8.7,0.1,17.3,0,26,0C237.8,698.7,239.4,699.1,240.2,698.2
		z"/>
	<path class="st0" d="M468.2,663.7c0,10.5,0.1,21,0,31.5c-0.2,14.9-11.7,26.5-26.7,26.8c-10.3,0.2-20.7,0.1-31,0
		c-16-0.1-28-11.5-28.3-27.5c-0.3-21-0.3-42,0-63c0.2-15.4,10.9-26,27.7-27c11.4-0.7,23-0.9,34.4,0.3c13.3,1.4,23.6,12.4,23.8,25.8
		C468.3,641.7,468.2,652.7,468.2,663.7z M408.9,628.1c12.2,12.2,24.2,24.2,36.1,36.1c0-10,0-20.9,0-31.8c0-2.3-1.1-4.1-3.4-4.2
		C430.5,628,419.5,628.1,408.9,628.1z M405.8,661.5c0,10.4,0.2,20.6-0.1,30.8c-0.1,4.9,2.2,6.4,6.7,6.4c8.7-0.1,17.3,0,26,0
		c1.4,0,3,0.4,3.8-0.6C430.2,686,418.2,673.9,405.8,661.5z"/>
	<path class="st0" d="M569.2,663.7c0,10.5,0.1,21,0,31.5c-0.2,14.9-11.7,26.5-26.7,26.8c-10.3,0.2-20.7,0.1-31,0
		c-16-0.1-28-11.5-28.3-27.5c-0.3-20.8-0.3-41.6,0-62.5c0.2-15.7,10.8-26.5,27.7-27.5c11.4-0.7,23-0.9,34.4,0.3
		c13.3,1.4,23.4,12.4,23.8,25.8c0,0.5,0,1,0,1.5C569.2,642.7,569.2,653.2,569.2,663.7C569.2,663.7,569.2,663.7,569.2,663.7z
		 M546,664.2c0-10.1,0-21,0-31.9c0-2.3-1.2-4.1-3.5-4.1c-11-0.1-22.1-0.1-33-0.1C521.9,640.3,533.9,652.3,546,664.2z M506.8,661.6
		c0,10.1,0,20.2,0,30.3c0,5.7,1,6.8,6.6,6.8c8.7,0.1,17.3,0,26,0c1.4,0,3,0.4,3.8-0.6C531.1,686,519.1,674,506.8,661.6z"/>
	<path class="st0" d="M669.2,663.7c0,10.5,0.1,21,0,31.5c-0.2,14.9-11.7,26.5-26.7,26.8c-10.3,0.2-20.7,0.1-31,0
		c-16-0.1-28.1-11.5-28.3-27.5c-0.3-21-0.3-42,0-63c0.2-15.4,10.9-26,27.7-27c11.4-0.7,23-0.9,34.4,0.3
		c13.3,1.4,23.6,12.4,23.8,25.8C669.3,641.7,669.2,652.7,669.2,663.7z M646,664.4c0-4.7,0.3-10-0.1-15.2c-0.4-6.7,3-15-1.7-19.6
		c-4.5-4.4-12.7-1.1-19.2-1.5c-5.2-0.3-10.4-0.1-15.5-0.1C621.9,640.3,633.9,652.4,646,664.4z M606.8,661.3c0,10.7,0.1,21-0.1,31.2
		c-0.1,4.6,2,6.3,6.3,6.2c9-0.1,18,0,27,0c1.2,0,2.7,0.3,3.3-0.8C631.3,685.8,619.3,673.9,606.8,661.3z"/>
	<path class="st0" d="M972.2,864.4c0,10.3,0.1,20.7,0,31c-0.2,16-11.8,27.5-27.9,27.6c-10,0.1-20,0.1-30,0
		c-15.7-0.1-27.8-11.5-28-27.2c-0.4-21.2-0.4-42.3,0-63.5c0.3-15.4,11.2-25.9,27.9-26.8c11.4-0.6,23-0.8,34.4,0.4
		c13,1.4,23.3,12.4,23.6,25.6C972.4,842.4,972.2,853.4,972.2,864.4C972.2,864.4,972.2,864.4,972.2,864.4z M949,865.4
		c0-4.7,0.3-10-0.1-15.2c-0.4-6.7,3-15-1.7-19.7c-4.5-4.4-12.7-1.1-19.2-1.5c-5.2-0.3-10.4-0.1-15.7-0.1
		C924.8,841.4,936.9,853.4,949,865.4z M909.8,862.5c0,10.5,0.1,20.8-0.1,31c-0.1,4.6,2,6.3,6.3,6.3c9-0.1,18,0,27,0
		c1.3,0,2.7,0.3,3.3-0.8C934.2,886.9,922.3,874.9,909.8,862.5z"/>
	<path class="st0" d="M871.2,663.4c0,10.5,0.1,21,0,31.5c-0.2,15.2-11.7,26.8-27,27.1c-10.3,0.2-20.7,0.1-31,0
		c-15.7-0.1-27.7-11.5-28-27.3c-0.4-21-0.3-42,0-63c0.2-15.7,11-26.4,27.9-27.3c11.4-0.6,23-0.8,34.4,0.4
		c13,1.4,23.3,12.5,23.5,25.6C871.3,641.4,871.2,652.4,871.2,663.4C871.2,663.4,871.2,663.4,871.2,663.4z M848,665
		c0-10.4-0.1-20.7,0.1-31c0.1-4.6-1.9-6.2-6.3-6.1c-9,0.2-17.9,0-26.9,0.1c-1.2,0-2.7-0.6-3.3,0.5C823.7,640.7,835.7,652.7,848,665z
		 M845,698.7c-12.3-12.5-24.2-24.6-36.2-36.8c0,10.6,0,21.4,0,32.2c0,3.5,2.3,4.5,5.3,4.6c4.5,0.1,9,0,13.5,0
		C833.5,698.7,839.5,698.7,845,698.7z"/>
	<path class="st0" d="M1073.2,663.4c0,10.5,0.1,21,0,31.5c-0.2,15.4-11.8,27-27.4,27.1c-10.2,0.1-20.3,0.1-30.5,0
		c-15.7-0.1-27.8-11.4-28.1-27.2c-0.4-21.2-0.4-42.3,0-63.5c0.3-15.4,11.1-25.9,27.8-26.8c11.4-0.6,23-0.8,34.4,0.4
		c13,1.4,23.3,12.4,23.6,25.5C1073.4,641.4,1073.2,652.4,1073.2,663.4C1073.2,663.4,1073.2,663.4,1073.2,663.4z M1050,664.8
		c0-10.4-0.1-20.8,0-31.3c0-4.1-1.8-5.7-5.7-5.6c-8.6,0.1-17.3,0-25.9,0.1c-1.7,0-3.6-0.7-4.8,0.5
		C1025.7,640.6,1037.7,652.6,1050,664.8z M1047.2,698.1c-12-12.1-24-24.1-36.4-36.6c0,10.4,0.2,20.6-0.1,30.8
		c-0.1,4.9,2.1,6.5,6.6,6.4c8.7-0.1,17.3,0,26,0C1044.8,698.7,1046.4,699.1,1047.2,698.1z"/>
	<path class="st0" d="M770.2,864.3c0,10.5,0.1,21,0,31.5c-0.2,15.5-11.8,27-27.3,27.2c-10.2,0.1-20.3,0.1-30.5,0
		c-15.7-0.1-27.8-11.4-28.1-27.2c-0.4-21.1-0.4-42.3,0-63.5c0.3-15.4,11.1-26,27.8-26.9c11.4-0.6,23-0.8,34.4,0.3
		c13,1.4,23.4,12.4,23.6,25.5C770.4,842.3,770.2,853.3,770.2,864.3C770.2,864.3,770.2,864.3,770.2,864.3z M747,865.3
		c0-7.8,0-16.2,0-24.6c0.1-12.6,0.7-11.8-12-11.8c-8.2,0-16.4,0-24.6,0C722.9,841.3,734.9,853.3,747,865.3z M743.5,899.7
		c-12-12-24.1-24.1-35.7-35.8c0,9.4,0.1,19.9,0,30.4c0,4.3,2.3,5.5,6,5.5c8.3,0,16.6,0,25,0C740.7,899.7,742.8,900.3,743.5,899.7z"
		/>
	<path class="st0" d="M569.2,864.6c0,10.5,0.1,21,0,31.5c-0.2,14.9-11.7,26.5-26.7,26.8c-10.3,0.2-20.7,0.1-31,0
		c-16-0.1-28.1-11.5-28.3-27.5c-0.3-21-0.3-42,0-63c0.2-15.4,10.9-26,27.7-27c11.4-0.7,23-0.9,34.4,0.3
		c13.3,1.4,23.6,12.4,23.8,25.8C569.3,842.7,569.2,853.7,569.2,864.6z M546,865.4c0-4.7,0.3-10-0.1-15.2c-0.4-6.7,3-15-1.7-19.7
		c-4.5-4.4-12.7-1.1-19.2-1.5c-5.2-0.3-10.4-0.1-15.6-0.1C521.8,841.4,533.9,853.4,546,865.4z M506.8,862.8c0,10.5,0.1,21,0,31.5
		c0,4.3,2.3,5.5,6,5.5c8.3,0,16.6,0,25,0c1.9,0,4,0.6,5.3-0.5C531.1,887.1,519.1,875.1,506.8,862.8z"/>
	<path class="st0" d="M367.2,864.5c0,10.5,0.1,21,0,31.5c-0.2,15.2-11.8,26.8-27,27c-10.3,0.2-20.7,0.1-31,0
		c-15.7-0.1-27.7-11.6-28-27.3c-0.3-21-0.3-42,0-63c0.2-15.6,11.1-26.4,28-27.2c11.4-0.6,23-0.8,34.4,0.4
		c12.7,1.3,23.2,12.4,23.5,25.1C367.4,842.1,367.2,853.3,367.2,864.5C367.2,864.5,367.2,864.5,367.2,864.5z M344,865.6
		c0-10.4,0-21.2,0-32c0-3.4-1.9-4.7-5.1-4.7c-6.6,0-13.3,0-19.9,0c-3.9,0-7.8,0-11.6,0C319.8,841.4,331.8,853.5,344,865.6z
		 M304.8,862.6c0,10.4,0.1,20.7-0.1,30.9c-0.1,4.6,1.9,6.3,6.3,6.3c9-0.1,18,0,27,0c1.3,0,2.7,0.3,3.3-0.7
		C329.2,886.9,317.3,875,304.8,862.6z"/>
	<path class="st0" d="M1073.2,259.7c0,10.5,0.1,21,0,31.5c-0.2,14.9-11.7,26.5-26.7,26.8c-10.3,0.2-20.7,0.1-31,0
		c-16-0.1-28.1-11.5-28.3-27.5c-0.3-21-0.3-42,0-63c0.2-15.5,10.9-26,27.7-27c11.4-0.7,23-0.9,34.4,0.3
		c13.3,1.4,23.6,12.4,23.8,25.8C1073.3,237.7,1073.2,248.7,1073.2,259.7z M1050,260.4c0-5.1,0.3-10.9-0.1-16.7
		c-0.4-6.2,2.9-13.8-1.6-18.2c-4.2-4.2-11.7-1.1-17.8-1.5c-5.7-0.3-11.4-0.1-17-0.1C1025.9,236.3,1037.9,248.3,1050,260.4z
		 M1010.8,257.7c0,10.3,0.1,20.5-0.1,30.8c-0.1,4.5,1.9,6.4,6.2,6.3c9.2-0.1,18.3,0,27.5,0c1.1,0,2.3,0.1,2.8-0.7
		C1035.2,282,1023.2,270,1010.8,257.7z"/>
	<path class="st0" d="M669.2,1469.5c0,10.5,0.1,21,0,31.5c-0.2,15.2-11.8,26.8-27,27c-10.3,0.2-20.7,0.1-31,0
		c-15.7-0.1-27.7-11.5-28-27.3c-0.3-21-0.3-42,0-63c0.2-15.7,11.1-26.4,28-27.2c11.4-0.6,23-0.8,34.4,0.4
		c12.7,1.3,23.2,12.4,23.5,25.1C669.4,1447.1,669.2,1458.3,669.2,1469.5C669.2,1469.5,669.2,1469.5,669.2,1469.5z M609.1,1434
		c12.6,12.6,24.7,24.7,36.8,36.8c0-10.8,0-21.9,0-32.9c0-2.3-1.4-3.8-3.8-3.9C631.3,1434,620.4,1434,609.1,1434z M606.8,1467.6
		c0,10.4,0.1,20.6-0.1,30.9c-0.1,4.6,1.9,6.3,6.3,6.3c9-0.1,18,0,27,0c1.3,0,2.7,0.3,3.3-0.7C631.2,1491.9,619.2,1480,606.8,1467.6z
		"/>
	<path class="st0" d="M871.2,259.6c0,10.3,0.1,20.7,0,31c-0.2,15.7-11.8,27.2-27.7,27.4c-10,0.1-20,0.1-30,0
		c-16-0.1-28.1-11.5-28.3-27.5c-0.3-21-0.3-42,0-63c0.2-15.4,10.9-26,27.6-27c11.4-0.7,23-0.9,34.4,0.3
		c13.3,1.4,23.6,12.4,23.8,25.8C871.3,237.6,871.2,248.6,871.2,259.6C871.2,259.6,871.2,259.6,871.2,259.6z M811.4,224
		c12.5,12.4,24.6,24.5,36.6,36.4c0-10.2,0-20.9,0-31.7c0-3-1.4-4.7-4.5-4.7C832.8,224,822.2,224,811.4,224z M808.8,257.6
		c0,10.3,0.1,20.6-0.1,30.8c-0.1,4.6,1.9,6.3,6.2,6.3c9.2-0.1,18.3,0,27.5,0c1.1,0,2.3,0.1,2.8-0.7C833.2,282,821.2,270,808.8,257.6
		z"/>
	<path class="st0" d="M468.2,1469.4c0,10.5,0.1,21,0,31.5c-0.2,15.4-11.8,26.9-27.4,27.1c-10.2,0.1-20.3,0.1-30.5,0
		c-15.7-0.1-27.8-11.5-28-27.2c-0.4-21.2-0.4-42.3,0-63.5c0.3-15.4,11.1-25.9,27.9-26.8c11.4-0.6,23-0.8,34.4,0.4
		c13,1.4,23.3,12.4,23.6,25.5C468.4,1447.4,468.2,1458.4,468.2,1469.4C468.2,1469.4,468.2,1469.4,468.2,1469.4z M409.3,1434
		c12,12,24.1,24.1,35.7,35.7c0-9.3,0-19.8,0-30.2c0-2.8-0.6-5.3-3.8-5.4C430.3,1433.9,419.4,1434,409.3,1434z M405.8,1467.4
		c0,10.4,0,20.3,0,30.3c0,6,1,7,6.9,7.1c8.5,0.1,17,0,25.5,0c1.5,0,3.3,0.6,4.2-0.8C430.2,1491.8,418.3,1479.8,405.8,1467.4z"/>
	<path class="st0" d="M871.2,1469.4c0,10.5,0.1,21,0,31.5c-0.2,15.2-11.7,26.8-27,27c-10.3,0.2-20.7,0.1-31,0
		c-15.7-0.1-27.7-11.5-28-27.3c-0.4-21-0.3-42,0-63c0.2-15.7,11-26.4,28-27.2c11.4-0.6,23-0.8,34.4,0.4c13,1.4,23.3,12.5,23.5,25.6
		C871.3,1447.4,871.2,1458.4,871.2,1469.4C871.2,1469.4,871.2,1469.4,871.2,1469.4z M811.6,1434c12.4,12.4,24.4,24.5,36.4,36.5
		c0-10.3,0-21,0-31.8c0-3-1.4-4.7-4.5-4.7C832.8,1434,822.2,1434,811.6,1434z M808.8,1467.6c0,10.4,0.1,20.7-0.1,30.9
		c-0.1,4.6,1.9,6.3,6.3,6.3c9-0.1,18,0,27,0c1.3,0,2.7,0.3,3.3-0.7C833.2,1491.9,821.3,1480,808.8,1467.6z"/>
	<path class="st0" d="M669.2,259.5c0,10.5,0.1,21,0,31.5c-0.2,15.2-11.8,26.8-27,27c-10.3,0.2-20.7,0.1-31,0
		c-15.7-0.1-27.7-11.5-28-27.3c-0.3-21-0.3-42,0-63c0.2-15.6,11.1-26.4,28-27.2c11.4-0.6,23-0.8,34.4,0.4
		c12.7,1.3,23.2,12.4,23.5,25.1C669.4,237.1,669.2,248.3,669.2,259.5C669.2,259.5,669.2,259.5,669.2,259.5z M609.6,224
		c12.4,12.4,24.5,24.4,36.4,36.3c0-10.2,0-21.1,0-32.1c0-2.8-1.7-4.3-4.4-4.3C630.9,224,620.2,224,609.6,224z M643.2,294.1
		c-12-12.1-24.1-24.1-36-36.1c0,0-0.3,0.2-0.3,0.5c0,10,0.1,20-0.2,30c-0.1,4.9,2.2,6.5,6.6,6.4c8.7-0.1,17.3,0,26,0
		C640.8,294.7,642.4,295.1,643.2,294.1z"/>
	<path class="st0" d="M972.2,1469.5c0,10.5,0.1,21,0,31.5c-0.2,15.2-11.8,26.7-27,27c-10.3,0.2-20.7,0.1-31,0
		c-15.7-0.1-27.7-11.6-27.9-27.4c-0.3-21-0.3-42,0-63c0.2-15.6,11.1-26.3,28-27.2c11.4-0.6,23-0.8,34.4,0.4
		c12.7,1.3,23,12.4,23.5,25.2c0,0.5,0,1,0,1.5C972.2,1448.2,972.2,1458.9,972.2,1469.5z M949,1470.4c0-4.7,0.3-10-0.1-15.2
		c-0.4-6.7,3-15-1.7-19.7c-4.5-4.4-12.7-1.1-19.2-1.5c-5.2-0.3-10.4-0.1-15.5-0.1C924.9,1446.3,936.9,1458.3,949,1470.4z
		 M945.5,1504.7c-12-12-24.1-24.1-35.7-35.8c0,9.4,0.1,19.9,0,30.4c0,4.3,2.3,5.5,6,5.5c8.3,0,16.6,0,25,0
		C942.7,1504.7,944.8,1505.3,945.5,1504.7z"/>
	<path class="st0" d="M468.2,259.4c0,10.2,0.1,20.3,0,30.5c-0.1,16.5-11.6,28-28,28.1c-10,0.1-20,0.1-30,0
		c-15.7-0.1-27.7-11.5-28-27.3c-0.4-21.2-0.4-42.3,0-63.5c0.3-15.4,11.2-25.9,27.9-26.8c11.4-0.6,23-0.8,34.4,0.4
		c13,1.4,23.2,12.5,23.6,25.6c0,0.5,0,1,0,1.5C468.2,238.4,468.2,248.9,468.2,259.4z M409.1,224c12.1,12.1,24.2,24.2,35.8,35.9
		c0-9.6,0-20.2,0-30.8c0-2.9-1.1-5-4.2-5C430,223.9,419.3,224,409.1,224z M442.2,294.1c-12.1-12.1-24.1-24.2-36.4-36.4
		c0,10,0,20.1,0,30.2c0,5.7,1,6.7,6.6,6.8c8.7,0.1,17.3,0,26,0C439.8,294.7,441.4,295.1,442.2,294.1z"/>
	<path class="st0" d="M266.2,1469.5c0,10.5,0.1,21,0,31.5c-0.2,15.2-11.8,26.7-27.1,26.9c-10.2,0.1-20.3,0.1-30.5,0
		c-16.1-0.1-28.1-11.4-28.4-27.4c-0.3-21-0.3-42,0-63c0.2-15.6,11.1-26.3,28.1-27.1c11.4-0.6,23-0.8,34.4,0.4
		c12.7,1.3,23.1,12.4,23.4,25.2C266.4,1447.2,266.2,1458.4,266.2,1469.5C266.2,1469.5,266.2,1469.5,266.2,1469.5z M207.1,1434
		c12.2,12.2,24.2,24.3,35.9,36c0-9.7,0-20.3,0-31c0-2.9-1-5-4.2-5C228,1433.9,217.3,1434,207.1,1434z M203.8,1467.9
		c0,10.3,0.1,20.8,0,31.3c0,4.2,2.3,5.5,6,5.5c8,0,16,0.1,24,0c2.3,0,4.7,0.7,6.3-0.5C228,1492.2,216,1480.2,203.8,1467.9z"/>
	<path class="st0" d="M972.2,1267.6c0,10.3,0.1,20.7,0,31c-0.2,15.7-11.8,27.2-27.6,27.4c-10,0.1-20,0.1-30,0
		c-16-0.1-28.1-11.5-28.3-27.5c-0.3-21-0.3-42,0-63c0.2-15.5,10.9-26,27.6-27c11.4-0.7,23-0.9,34.4,0.3
		c13.4,1.4,23.6,12.4,23.9,25.8C972.3,1245.6,972.2,1256.6,972.2,1267.6C972.2,1267.6,972.2,1267.6,972.2,1267.6z M949,1268.2
		c0-10.1,0-21,0-31.9c0-2.3-1.1-4.1-3.4-4.2c-11-0.1-22.1-0.1-32.7-0.1C924.9,1244.2,937,1256.2,949,1268.2z M909.8,1265.9
		c0,10.4,0.1,20.9,0,31.4c0,4.3,2.3,5.5,6,5.5c8.3,0,16.6,0,25,0c1.9,0,4,0.6,5.3-0.5C934.1,1290.2,922.1,1278.1,909.8,1265.9z"/>
	<path class="st0" d="M266.2,259.3c0,10.5,0.1,21,0,31.5c-0.2,15.5-11.8,27-27.3,27.2c-10.2,0.1-20.3,0.1-30.5,0
		c-15.9-0.1-28-11.6-28.2-27.6c-0.3-20.8-0.3-41.6,0-62.5c0.2-15.7,10.9-26.5,27.8-27.4c11.4-0.6,23-0.8,34.4,0.3
		c13,1.4,23.3,12.4,23.7,25.5c0,0.5,0,1,0,1.5C266.2,238.3,266.2,248.8,266.2,259.3z M206.4,224c12.5,12.4,24.6,24.5,36.6,36.4
		c0-10.2,0-20.9,0-31.7c0-3-1.5-4.7-4.5-4.7C227.8,224,217.2,224,206.4,224z M240.1,294.2c-12.1-12.1-24.1-24.1-36.3-36.3
		c0,10,0.2,20.2-0.1,30.5c-0.1,4.9,2.2,6.5,6.7,6.4c8.7-0.1,17.3,0,26,0C237.8,294.7,239.4,295.1,240.1,294.2z"/>
	<path class="st0" d="M669.2,1267.4c0,10.5,0.1,21,0,31.5c-0.2,15.2-11.7,26.8-27,27.1c-10.2,0.2-20.3,0.1-30.5,0
		c-16.5-0.1-28.4-11.7-28.6-28.3c-0.2-20.2-0.1-40.3,0-60.5c0.1-16.7,10.5-27.8,28-28.8c11.4-0.6,23-0.8,34.4,0.4
		c13,1.4,23.1,12.5,23.6,25.6c0,0.5,0,1,0,1.5C669.2,1246.4,669.2,1256.9,669.2,1267.4z M645.9,1268.8c0-10.8,0.1-21.8-0.1-32.9
		c-0.1-3.5-2.8-4-5.7-4c-9.3,0-18.6,0-27.9,0c-1,0-2.4-0.5-2.7,0.4C621.8,1244.6,633.8,1256.7,645.9,1268.8z M606.8,1265.6
		c0,10.4,0.1,20.7-0.1,30.9c-0.1,4.6,1.9,6.3,6.3,6.3c9-0.1,18,0,27,0c1.3,0,2.7,0.3,3.3-0.7C631.2,1289.9,619.2,1278,606.8,1265.6z
		"/>
	<path class="st0" d="M569.2,1267.7c0,10.5,0.1,21,0,31.5c-0.2,14.9-11.7,26.5-26.7,26.8c-10.3,0.2-20.7,0.1-31,0
		c-16-0.1-28-11.5-28.3-27.5c-0.3-21-0.3-42,0-63c0.2-15.4,10.9-26,27.7-27c11.4-0.7,23-0.9,34.4,0.3c13.3,1.4,23.6,12.4,23.8,25.8
		C569.3,1245.7,569.2,1256.7,569.2,1267.7z M510.1,1232c12.1,12.2,24.2,24.3,35.9,36c0-9.7,0-20.3,0-31c0-2.9-1.1-5-4.2-5
		C531,1231.9,520.3,1232,510.1,1232z M543.5,1302.7c-12.6-12.6-24.5-24.7-36.4-36.6c0.1-0.1-0.2,0.1-0.2,0.4
		c0,8.2-0.1,16.3-0.1,24.5c0,11.7,0,11.7,11.7,11.7C526.8,1302.7,535,1302.7,543.5,1302.7z"/>
	<path class="st0" d="M638.1,863.3c0,10.7,0.1,21.3-0.1,32c-0.1,3.5,1.1,4.7,4.6,4.5c5.2-0.2,10.3,0,15.5-0.1c2.4,0,3.8,0.4,3.7,3.2
		c-0.1,5.7-0.1,11.3,0,17c0.1,2.5-1,3.1-3.3,3.1c-21.5-0.1-43,0-64.4,0c-2,0-3.1-0.5-3-2.8c0.1-5.8,0.1-11.7,0-17.5
		c-0.1-2.5,1.2-3.1,3.4-3.1c5.5,0.1,11-0.1,16.5,0.1c3,0.1,4.1-1,4-4.1c-0.1-20.3-0.1-40.6,0-60.9c0-4.2-1.8-6-6.1-5.9
		c-4.8,0.2-9.7,0-14.5,0.1c-2.3,0.1-3.3-0.7-3.2-3.1c0.1-5.8,0.1-11.7,0-17.5c-0.1-2.5,1-3.2,3.3-3.1c6.5,0.3,13-0.3,19.5,0.5
		c14.2,1.8,24.1,12.8,24.3,27.1c0,0.3,0,0.7,0,1C638.1,843.6,638.1,853.5,638.1,863.3z"/>
	<path class="st0" d="M1042.1,1468.4c0,10.7,0.1,21.3-0.1,32c-0.1,3.3,1,4.5,4.2,4.4c5.2-0.2,10.3,0.1,15.5-0.1
		c3-0.1,4.2,0.8,4.1,3.9c-0.2,5.3-0.2,10.7,0,16c0.1,2.6-0.9,3.5-3.5,3.5c-21.3-0.1-42.6-0.1-63.9,0c-2.6,0-3.5-0.9-3.4-3.5
		c0.2-5.5,0.1-11,0-16.5c-0.1-2.7,1-3.5,3.5-3.4c5.3,0.1,10.7-0.1,16,0.1c3.2,0.1,4.4-0.8,4.4-4.2c-0.1-20.1-0.1-40.3,0-60.4
		c0-4.4-1.7-6.4-6.3-6.2c-4.7,0.2-9.3,0-14,0.1c-2.4,0.1-3.7-0.5-3.6-3.3c0.2-5.8,0.1-11.7,0-17.5c0-2.1,0.8-3,2.9-2.9
		c7.3,0.2,14.7-0.4,21.9,0.7c12,1.9,21.9,13.1,22.1,25.5C1042.2,1447.1,1042,1457.8,1042.1,1468.4
		C1042.1,1468.4,1042.1,1468.4,1042.1,1468.4z"/>
	<path class="st0" d="M840.1,863.2c0,10.7,0.1,21.3-0.1,32c-0.1,3.5,1,4.7,4.5,4.6c5.2-0.2,10.3,0.1,15.5-0.1
		c2.8-0.1,3.9,0.9,3.8,3.7c-0.2,5.3-0.1,10.7,0,16c0,2.4-0.4,3.7-3.2,3.7c-21.5-0.1-43-0.1-64.4,0c-2.5,0-3.1-1-3.1-3.3
		c0.1-5.5,0.2-11,0-16.5c-0.1-3,1.2-3.7,3.8-3.6c5.3,0.1,10.7-0.1,16,0.1c3,0.1,4.1-0.9,4.1-4c-0.1-20.3-0.1-40.6,0-60.9
		c0-4.2-1.8-6.1-6.1-5.9c-4.7,0.2-9.3-0.1-14,0.1c-2.7,0.1-3.9-0.7-3.8-3.6c0.2-5.5,0.1-11,0-16.5c0-2.4,0.4-3.8,3.2-3.7
		c6.5,0.3,13-0.3,19.4,0.5c14.2,1.8,24.2,12.7,24.4,27c0,0.3,0,0.7,0,1C840.1,843.6,840.1,853.4,840.1,863.2z"/>
	<path class="st0" d="M437.1,863.4c0,10.2,0.3,20.3-0.1,30.5c-0.2,5,1.5,6.4,6.2,6c4.5-0.4,9,0,13.5-0.1c2.9-0.1,4.3,0.6,4.2,3.9
		c-0.2,5.3-0.1,10.7,0,16c0.1,2.5-0.7,3.5-3.4,3.5c-21.3-0.1-42.6-0.1-63.9,0c-2.6,0-3.6-0.7-3.5-3.4c0.2-5.5,0.1-11,0-16.5
		c-0.1-2.6,0.9-3.5,3.5-3.5c5.3,0.1,10.7-0.1,16,0.1c3.1,0.1,4.5-0.7,4.5-4.2c-0.1-20.1-0.1-40.3,0-60.4c0-4.3-1.6-6.5-6.2-6.3
		c-4.7,0.2-9.3-0.1-14,0.1c-2.9,0.1-3.7-1-3.7-3.7c0.2-5.5,0.1-11,0-16.5c-0.1-2.5,0.7-3.6,3.4-3.5c6.5,0.3,13-0.3,19.4,0.5
		c14.1,1.8,24.1,12.8,24.2,27.1C437.1,843.1,437.1,853.2,437.1,863.4z"/>
	<path class="st0" d="M235.1,863.1c0,10.7,0.2,21.3-0.1,32c-0.1,3.9,1.3,4.9,4.9,4.7c5-0.2,10,0,15-0.1c2.6-0.1,4,0.5,3.9,3.6
		c-0.2,5.5-0.2,11,0,16.5c0.1,2.7-1.1,3.3-3.6,3.3c-21.1-0.1-42.3-0.1-63.4,0c-2.7,0-3.9-0.7-3.8-3.6c0.2-5.2,0.2-10.3,0-15.5
		c-0.1-3.2,0.8-4.5,4.2-4.3c5.1,0.3,10.3-0.1,15.5,0.1c3.3,0.1,4.3-1.1,4.3-4.4c-0.1-20-0.1-40,0-59.9c0-4.5-1.6-6.8-6.4-6.6
		c-4.6,0.3-9.3-0.1-14,0.1c-2.6,0.1-3.5-0.8-3.5-3.4c0.2-5.7,0.1-11.3,0-17c0-2.3,0.6-3.4,3.1-3.3c6.6,0.3,13.3-0.3,19.9,0.5
		c13.6,1.7,23.8,12.7,24,26.3C235.2,842.4,235.1,852.8,235.1,863.1C235.1,863.1,235.1,863.1,235.1,863.1z"/>
	<path class="st0" d="M739.1,1468.5c0,10.7,0.1,21.3-0.1,32c-0.1,3.3,1.1,4.4,4.3,4.3c5.3-0.2,10.7,0,16-0.1
		c2.6-0.1,3.6,0.8,3.5,3.5c-0.1,5.5-0.1,11,0,16.5c0.1,2.6-0.9,3.4-3.5,3.4c-21.3-0.1-42.6-0.1-63.9,0c-2.7,0-3.4-1-3.4-3.5
		c0.1-5.5,0.1-11,0-16.5c-0.1-2.7,1.1-3.4,3.6-3.4c5.5,0.1,11,0,16.5,0.1c2.7,0.1,3.8-0.9,3.8-3.7c-0.1-20.5,0-41,0-61.4
		c0-3.9-1.7-5.8-5.8-5.7c-4.7,0.2-9.3-0.1-14,0.1c-2.9,0.1-4.2-0.6-4.1-3.8c0.2-5.5,0.2-11,0-16.5c-0.1-2.6,0.9-3.5,3.5-3.4
		c6.5,0.3,13-0.3,19.4,0.5c13.8,1.7,23.9,12.8,24.1,26.7C739.2,1447.8,739.1,1458.2,739.1,1468.5z"/>
	<path class="st0" d="M1042.1,863c0,10.8,0.1,21.6-0.1,32.5c-0.1,3.3,1.1,4.4,4.3,4.3c5.3-0.2,10.7,0,16-0.1
		c2.6-0.1,3.5,0.9,3.5,3.5c-0.1,5.5-0.1,11,0,16.5c0.1,2.7-1,3.4-3.5,3.4c-21.3-0.1-42.6-0.1-63.9,0c-2.2,0-3.4-0.5-3.3-3
		c0.1-5.7,0.1-11.3,0-17c-0.1-2.8,1.2-3.4,3.6-3.3c5.5,0.1,11-0.1,16.5,0.1c2.8,0.1,3.8-1,3.8-3.8c-0.1-20.5,0-41,0-61.4
		c0-3.9-1.8-5.8-5.9-5.6c-4.8,0.2-9.7-0.1-14.5,0.1c-2.5,0.1-3.6-0.7-3.5-3.4c0.2-5.7,0.2-11.3,0-17c-0.1-2.7,1-3.5,3.5-3.4
		c6.6,0.3,13.3-0.3,19.9,0.6c12.9,1.7,23.3,12.7,23.5,25.7C1042.2,842,1042,852.5,1042.1,863C1042.1,863,1042.1,863,1042.1,863z"/>
	<path class="st0" d="M538.1,1468.3c0,10.5,0.2,21-0.1,31.5c-0.1,4.1,1.3,5.2,5.1,5c5-0.3,10,0.1,15-0.1c2.9-0.1,3.8,1,3.7,3.8
		c-0.1,5.3-0.2,10.7,0,16c0.1,3-1.2,3.6-3.8,3.6c-21-0.1-42-0.1-62.9,0c-2.9,0-4.2-0.6-4.1-3.8c0.2-5.2,0.2-10.3,0-15.5
		c-0.1-3,0.8-4.2,3.9-4.1c5.3,0.2,10.7-0.1,16,0.1c3.1,0.1,4-1.1,4-4.1c-0.1-20.1-0.1-40.3,0-60.4c0-4.7-2-6.6-6.7-6.3
		c-4.6,0.3-9.3,0-14,0.1c-2.3,0.1-3.3-0.8-3.2-3.2c0.1-5.8,0.1-11.7,0-17.5c-0.1-2.5,1.1-3.2,3.3-3.1c6.5,0.3,13-0.3,19.5,0.5
		c14.2,1.8,24.1,12.8,24.3,27.1C538.1,1448,538.1,1458.2,538.1,1468.3z"/>
	<path class="st0" d="M336.1,1065c0,10.8,0.1,21.6-0.1,32.5c-0.1,3.3,1.1,4.4,4.3,4.3c5.3-0.2,10.7,0,16-0.1
		c2.6-0.1,3.5,0.9,3.5,3.5c-0.1,5.5-0.1,11,0,16.5c0.1,2.7-1.1,3.4-3.5,3.4c-21.3-0.1-42.6-0.1-63.9,0c-2.2,0-3.4-0.5-3.3-3
		c0.1-5.7,0.1-11.3,0-17c-0.1-2.8,1.2-3.4,3.6-3.3c5.5,0.1,11-0.1,16.5,0.1c2.8,0.1,3.8-1,3.8-3.8c-0.1-20.5,0-41,0-61.4
		c0-3.9-1.8-5.7-5.9-5.6c-4.8,0.2-9.7-0.1-14.5,0.1c-2.5,0.1-3.6-0.7-3.5-3.4c0.2-5.7,0.2-11.3,0-17c-0.1-2.7,1-3.5,3.5-3.4
		c6.6,0.3,13.3-0.3,19.9,0.6c12.9,1.7,23.2,12.7,23.5,25.7C336.2,1044.1,336,1054.5,336.1,1065C336.1,1065,336.1,1065,336.1,1065z"
		/>
	<path class="st0" d="M538.1,1065c0,10.8,0.1,21.6-0.1,32.5c-0.1,3.3,1.1,4.4,4.3,4.3c5.3-0.2,10.7,0,16-0.1
		c2.6-0.1,3.6,0.8,3.5,3.5c-0.1,5.5-0.1,11,0,16.5c0.1,2.6-0.9,3.4-3.5,3.4c-21.3-0.1-42.6-0.1-63.9,0c-2.7,0-3.4-1-3.4-3.5
		c0.1-5.5,0.1-11,0-16.5c-0.1-2.7,1.1-3.4,3.6-3.4c5.5,0.1,11,0,16.5,0.1c2.7,0.1,3.8-0.9,3.8-3.8c-0.1-20.5,0-41,0-61.4
		c0-3.9-1.7-5.8-5.8-5.7c-4.7,0.2-9.3-0.1-14,0.1c-2.9,0.1-4.2-0.6-4.1-3.8c0.2-5.5,0.2-11,0-16.5c-0.1-2.7,0.9-3.5,3.5-3.4
		c6.5,0.3,13-0.3,19.4,0.5c13.8,1.7,23.9,12.8,24.1,26.7C538.2,1044.7,538.1,1054.8,538.1,1065z"/>
	<path class="st0" d="M638.1,1065.4c0,10.5,0.1,21-0.1,31.5c-0.1,3.6,0.9,5.1,4.7,4.9c5-0.3,10,0.1,15-0.1c2.9-0.1,4.2,0.7,4.1,3.9
		c-0.2,5.3-0.2,10.7,0,16c0.1,2.6-0.8,3.5-3.4,3.5c-21.3-0.1-42.6-0.1-63.9,0c-2.6,0-3.5-0.8-3.4-3.4c0.2-5.5,0.1-11,0-16.5
		c-0.1-2.6,0.9-3.5,3.5-3.4c5.3,0.1,10.7-0.1,16,0.1c3.1,0.1,4.4-0.8,4.4-4.2c-0.1-20.1-0.1-40.3,0-60.4c0-4.4-1.7-6.5-6.3-6.2
		c-4.5,0.2-9-0.1-13.5,0.1c-2.8,0.1-4.3-0.5-4.1-3.8c0.2-5.5,0.2-11,0-16.5c-0.1-2.6,0.8-3.6,3.4-3.5c6.6,0.3,13.3-0.3,19.9,0.6
		c13.2,1.7,23.4,12.8,23.6,26.1C638.2,1044.4,638.1,1054.9,638.1,1065.4C638.1,1065.4,638.1,1065.4,638.1,1065.4z"/>
	<path class="st0" d="M739.1,1065c0,10.8,0.1,21.6-0.1,32.5c-0.1,3.3,1.1,4.4,4.3,4.3c5.3-0.2,10.7,0,16-0.1
		c2.6-0.1,3.6,0.9,3.5,3.5c-0.1,5.5-0.1,11,0,16.5c0.1,2.7-1,3.4-3.5,3.4c-21.3-0.1-42.6-0.1-63.9,0c-2.2,0-3.4-0.5-3.3-3
		c0.1-5.7,0.1-11.3,0-17c-0.1-2.7,1.1-3.4,3.6-3.3c5.5,0.1,11-0.1,16.5,0.1c2.8,0.1,3.8-0.9,3.8-3.8c-0.1-20.5,0-41,0-61.4
		c0-3.9-1.8-5.8-5.8-5.6c-4.8,0.2-9.7-0.1-14.5,0.1c-2.5,0.1-3.6-0.7-3.5-3.4c0.2-5.7,0.2-11.3,0-17c-0.1-2.7,1-3.5,3.5-3.4
		c6.6,0.3,13.3-0.3,19.9,0.6c12.9,1.7,23.3,12.7,23.5,25.7C739.2,1044,739,1054.5,739.1,1065C739.1,1065,739.1,1065,739.1,1065z"/>
	<path class="st0" d="M336.1,1468.3c0,10.5,0.2,21-0.1,31.5c-0.1,4.1,1.3,5.2,5.2,5c4.8-0.3,9.7,0.1,14.5-0.1
		c2.8-0.1,4.3,0.5,4.2,3.8c-0.2,5.3-0.2,10.7,0,16c0.1,3-1.2,3.6-3.9,3.6c-21-0.1-42-0.1-62.9,0c-2.9,0-4.2-0.7-4-3.9
		c0.2-5.2,0.2-10.3,0-15.5c-0.1-3,0.8-4.2,3.9-4c5.3,0.2,10.7-0.1,16,0.1c3.1,0.1,4-1.1,4-4.1c-0.1-20.1-0.1-40.3,0-60.4
		c0-4.3-1.5-6.5-6.2-6.3c-4.8,0.2-9.7,0-14.5,0.1c-2.4,0.1-3.2-0.8-3.2-3.2c0.1-5.8,0.1-11.7,0-17.5c-0.1-2.5,1.1-3.1,3.3-3
		c6.5,0.2,13-0.3,19.5,0.5c14.1,1.8,24.1,12.8,24.3,27.1c0,0.3,0,0.7,0,1C336.1,1448.7,336.1,1458.5,336.1,1468.3z"/>
	<path class="st0" d="M941.1,1065.4c0,10.7,0.1,21.3-0.1,32c-0.1,3.2,0.9,4.5,4.2,4.4c5.2-0.2,10.3,0.1,15.5-0.1
		c3-0.1,4.2,0.8,4.1,3.9c-0.2,5.3-0.2,10.7,0,16c0.1,2.6-0.8,3.5-3.4,3.5c-21.3-0.1-42.6-0.1-63.9,0c-2.6,0-3.5-0.9-3.4-3.4
		c0.2-5.5,0.1-11,0-16.5c-0.1-2.7,1-3.5,3.5-3.4c5.3,0.1,10.7-0.1,16,0.1c3.1,0.1,4.4-0.8,4.4-4.2c-0.1-20.1-0.1-40.3,0-60.4
		c0-4.4-1.7-6.4-6.3-6.2c-4.7,0.2-9.3,0-14,0.1c-2.4,0.1-3.7-0.5-3.6-3.3c0.2-5.8,0.1-11.7,0-17.5c0-2.1,0.8-3,2.9-2.9
		c7.5,0.2,15-0.5,22.4,0.8c11.8,2.1,21.4,13.3,21.6,25.4C941.2,1044.1,941,1054.8,941.1,1065.4
		C941,1065.4,941.1,1065.4,941.1,1065.4z"/>
	<path class="st0" d="M1042.1,1266.4c0,10.3,0.2,20.7-0.1,31c-0.1,4,0.9,5.7,5.2,5.4c4.8-0.3,9.7,0.1,14.5-0.1
		c2.9-0.1,4.3,0.7,4.1,3.9c-0.2,5.3-0.2,10.7,0,16c0.1,2.6-0.8,3.5-3.4,3.5c-21.3-0.1-42.6-0.1-63.9,0c-2.6,0-3.5-0.8-3.4-3.4
		c0.2-5.5,0.1-11,0-16.5c-0.1-2.6,0.9-3.5,3.5-3.4c5.3,0.1,10.7-0.1,16,0.1c3.1,0.1,4.5-0.8,4.4-4.2c-0.1-20.1-0.1-40.3,0-60.4
		c0-4.3-1.7-6.5-6.3-6.2c-4.7,0.2-9.3-0.1-14,0.1c-2.9,0.1-3.7-1-3.6-3.8c0.2-5.5,0.1-11,0-16.5c-0.1-2.6,0.8-3.6,3.4-3.5
		c6.6,0.3,13.3-0.3,19.9,0.6c13.2,1.7,23.4,12.8,23.7,26.1C1042.2,1245.4,1042.1,1255.9,1042.1,1266.4
		C1042.1,1266.4,1042.1,1266.4,1042.1,1266.4z"/>
	<path class="st0" d="M235.1,1266.5c0,10.7,0.1,21.3-0.1,32c-0.1,3.3,1.1,4.4,4.3,4.3c5.3-0.2,10.7,0,16-0.1
		c2.6-0.1,3.6,0.9,3.5,3.5c-0.1,5.5-0.1,11,0,16.5c0.1,2.7-1,3.4-3.5,3.4c-21.3-0.1-42.6-0.1-63.9,0c-2.2,0-3.4-0.5-3.3-3
		c0.1-5.7,0.1-11.3,0-17c-0.1-2.7,1.2-3.4,3.6-3.3c5.5,0.1,11-0.1,16.5,0.1c2.8,0.1,3.8-0.9,3.8-3.8c-0.1-20.5,0-41,0-61.4
		c0-3.9-1.8-5.8-5.8-5.6c-4.8,0.2-9.7-0.1-14.5,0.1c-2.5,0.1-3.6-0.7-3.5-3.4c0.2-5.7,0.2-11.3,0-17c-0.1-2.7,1-3.5,3.5-3.4
		c6.6,0.3,13.3-0.3,19.9,0.6c12.9,1.7,23.3,12.7,23.5,25.7C235.2,1245.2,235,1255.9,235.1,1266.5
		C235.1,1266.5,235.1,1266.5,235.1,1266.5z"/>
	<path class="st0" d="M840.1,1266.4c0,10.3,0.2,20.7-0.1,31c-0.2,4.6,1.5,5.8,5.7,5.5c4.6-0.3,9.3,0.1,14-0.1
		c2.9-0.1,4.3,0.6,4.2,3.9c-0.2,5.3-0.1,10.7,0,16c0.1,2.5-0.7,3.5-3.4,3.5c-21.3-0.1-42.6-0.1-63.9,0c-2.5,0-3.6-0.7-3.5-3.4
		c0.2-5.5,0.1-11,0-16.5c-0.1-2.6,0.8-3.5,3.4-3.5c5.3,0.1,10.7-0.1,16,0.1c3.1,0.1,4.5-0.7,4.5-4.1c-0.1-20.1-0.1-40.3,0-60.4
		c0-4.3-1.6-6.5-6.2-6.3c-4.7,0.2-9.3-0.1-14,0.1c-2.9,0.1-3.8-0.9-3.7-3.7c0.2-5.5,0.1-11,0-16.5c-0.1-2.5,0.7-3.7,3.4-3.5
		c6.5,0.3,13-0.3,19.4,0.5c14.1,1.8,24,12.8,24.2,27.1c0,0.3,0,0.7,0,1C840.1,1246.7,840.1,1256.5,840.1,1266.4z"/>
	<path class="st0" d="M739.1,1266.2c0,10.7,0.1,21.3-0.1,32c-0.1,3.5,1,4.8,4.5,4.6c5.2-0.2,10.3,0.1,15.5-0.1
		c2.8-0.1,3.9,0.8,3.8,3.7c-0.2,5.5-0.1,11,0,16.5c0,2.4-0.9,3.2-3.2,3.2c-21.5-0.1-43-0.1-64.4,0c-2.4,0-3.2-0.9-3.1-3.2
		c0.1-5.7,0.1-11.3,0-17c-0.1-2.5,1-3.2,3.3-3.1c5.5,0.1,11-0.1,16.5,0.1c3,0.1,4.1-0.9,4.1-4c-0.1-20.3-0.1-40.6,0-60.9
		c0-4.1-1.7-6.1-6.1-5.9c-4.7,0.2-9.3-0.1-14,0.1c-2.7,0.1-3.9-0.6-3.8-3.6c0.2-5.7,0.1-11.3,0-17c-0.1-2.4,0.9-3.3,3.2-3.2
		c6.5,0.3,13-0.3,19.5,0.5c14.2,1.8,24.2,12.7,24.4,27c0,0.3,0,0.7,0,1C739.1,1246.6,739.1,1256.4,739.1,1266.2z"/>
	<path class="st0" d="M437.1,1266c0,10.8,0.1,21.6-0.1,32.5c-0.1,3.3,1.1,4.4,4.3,4.3c5.3-0.2,10.7,0,16-0.1
		c2.6-0.1,3.5,0.9,3.5,3.5c-0.1,5.5-0.1,11,0,16.5c0.1,2.7-1.1,3.4-3.5,3.4c-21.3-0.1-42.6-0.1-63.9,0c-2.2,0-3.4-0.5-3.3-3
		c0.1-5.7,0.1-11.3,0-17c-0.1-2.8,1.2-3.4,3.6-3.3c5.5,0.1,11-0.1,16.5,0.1c2.8,0.1,3.8-1,3.8-3.8c-0.1-20.5,0-41,0-61.4
		c0-3.9-1.8-5.7-5.9-5.6c-4.8,0.2-9.7-0.1-14.5,0.1c-2.5,0.1-3.6-0.7-3.5-3.4c0.2-5.7,0.2-11.3,0-17c-0.1-2.7,1-3.5,3.5-3.4
		c6.6,0.3,13.3-0.3,19.9,0.6c12.9,1.7,23.2,12.7,23.5,25.7C437.2,1245.1,437,1255.5,437.1,1266C437.1,1266,437.1,1266,437.1,1266z"
		/>
	<path class="st0" d="M941.1,258.4c0,10.2,0.3,20.3-0.1,30.5c-0.2,5,1.5,6.4,6.2,6c4.5-0.4,9,0,13.5-0.1c2.9-0.1,4.3,0.7,4.1,3.9
		c-0.2,5.3-0.2,10.7,0,16c0.1,2.5-0.7,3.5-3.4,3.5c-21.3-0.1-42.6-0.1-63.9,0c-2.6,0-3.5-0.8-3.5-3.4c0.2-5.5,0.1-11,0-16.5
		c-0.1-2.6,0.9-3.5,3.5-3.5c5.3,0.1,10.7-0.1,16,0.1c3.1,0.1,4.5-0.7,4.4-4.2c-0.1-20.1-0.1-40.3,0-60.4c0-4.3-1.6-6.5-6.2-6.3
		c-4.7,0.2-9.3-0.1-14,0.1c-2.9,0.1-3.7-1-3.6-3.8c0.2-5.5,0.1-11,0-16.5c-0.1-2.5,0.7-3.6,3.4-3.5c6.6,0.3,13.3-0.3,19.9,0.6
		c13.2,1.7,23.4,12.8,23.7,26.1c0,0.3,0,0.7,0,1C941.1,238.1,941.1,248.2,941.1,258.4z"/>
	<path class="st0" d="M739.1,258c0,10.8,0.1,21.6-0.1,32.5c-0.1,3.3,1.1,4.4,4.3,4.3c5.3-0.2,10.7,0,16-0.1c2.6-0.1,3.5,0.9,3.5,3.5
		c-0.1,5.5-0.1,11,0,16.5c0.1,2.7-1,3.4-3.5,3.4c-21.3-0.1-42.6-0.1-63.9,0c-2.2,0-3.4-0.5-3.3-3c0.1-5.7,0.1-11.3,0-17
		c-0.1-2.8,1.2-3.4,3.6-3.3c5.5,0.1,11-0.1,16.5,0.1c2.8,0.1,3.8-1,3.8-3.8c-0.1-20.5,0-41,0-61.4c0-3.9-1.8-5.8-5.9-5.6
		c-4.8,0.2-9.7-0.1-14.5,0.1c-2.5,0.1-3.6-0.7-3.5-3.4c0.2-5.7,0.2-11.3,0-17c-0.1-2.7,1-3.5,3.5-3.4c6.6,0.3,13.3-0.3,19.9,0.6
		c12.9,1.7,23.3,12.7,23.5,25.7C739.2,237,739,247.5,739.1,258C739.1,258,739.1,258,739.1,258z"/>
	<path class="st0" d="M538.1,258.1c0,10.7,0.2,21.3-0.1,32c-0.1,3.9,1.3,4.9,4.9,4.7c5-0.2,10,0,15-0.1c2.6-0.1,4,0.5,3.9,3.6
		c-0.2,5.5-0.2,11,0,16.5c0.1,2.7-1.1,3.3-3.6,3.3c-21.1-0.1-42.3-0.1-63.4,0c-2.7,0-3.9-0.7-3.8-3.6c0.2-5.2,0.2-10.3,0-15.5
		c-0.1-3.2,0.8-4.5,4.2-4.3c5.1,0.3,10.3-0.1,15.5,0.1c3.3,0.1,4.3-1.1,4.3-4.4c-0.1-20-0.1-40,0-59.9c0-4.5-1.6-6.8-6.4-6.6
		c-4.6,0.3-9.3-0.1-14,0.1c-2.6,0.1-3.5-0.8-3.5-3.4c0.2-5.7,0.1-11.3,0-17c0-2.3,0.6-3.4,3.1-3.3c6.6,0.3,13.3-0.3,19.9,0.5
		c13.6,1.7,23.8,12.7,24,26.3C538.2,237.4,538.1,247.8,538.1,258.1C538.1,258.1,538.1,258.1,538.1,258.1z"/>
	<path class="st0" d="M336.1,258.7c0,10.3,0.2,20.7-0.1,31c-0.1,3.8,0.9,5.4,5,5.2c4.8-0.3,9.7,0.1,14.5-0.1
		c3.1-0.1,4.5,0.7,4.4,4.2c-0.2,5.3-0.1,10.7,0,16c0,2.3-0.7,3.2-3.2,3.2c-21.5-0.1-43-0.1-64.4,0c-2.4,0-3.2-0.8-3.2-3.2
		c0.1-5.5,0.2-11,0-16.5c-0.1-2.9,1-3.8,3.8-3.7c5.3,0.2,10.7-0.1,16,0.1c2.9,0.1,4.2-0.7,4.2-3.9c-0.1-20.3-0.1-40.6,0-60.9
		c0-4.1-1.6-6.2-6-6c-4.7,0.2-9.3-0.1-14,0.1c-2.6,0.1-4-0.4-3.9-3.5c0.2-5.7,0.1-11.3,0-17c0-2.4,0.8-3.3,3.2-3.2
		c6.6,0.3,13.3-0.3,19.9,0.5c13.5,1.7,23.6,12.8,23.9,26.4c0,0.3,0,0.7,0,1C336.1,238.3,336.1,248.5,336.1,258.7z"/>
	<path class="st0" d="M235.1,460.2c0,10.7,0.1,21.3-0.1,32c-0.1,3.5,1,4.8,4.5,4.6c5.2-0.2,10.3,0,15.5-0.1c2.8-0.1,3.9,0.8,3.8,3.7
		c-0.2,5.5-0.1,11,0,16.5c0,2.4-0.8,3.2-3.2,3.2c-21.5-0.1-43-0.1-64.4,0c-2.4,0-3.2-0.9-3.1-3.2c0.1-5.7,0.1-11.3,0-17
		c0-2.4,1-3.2,3.3-3.1c5.5,0.1,11-0.1,16.5,0.1c2.9,0.1,4.1-0.9,4.1-4c-0.1-20.3-0.1-40.6,0-60.9c0-4.1-1.7-6.1-6.1-5.9
		c-4.7,0.2-9.3-0.1-14,0.1c-2.7,0.1-3.9-0.6-3.8-3.6c0.2-5.7,0.1-11.3,0-17c-0.1-2.4,0.9-3.3,3.2-3.2c6.5,0.3,13-0.3,19.5,0.5
		c14.2,1.8,24.2,12.7,24.4,27C235.1,439.9,235.1,450.1,235.1,460.2z"/>
	<path class="st0" d="M437.1,460.5c0,10.7,0.1,21.3-0.1,32c-0.1,3.3,1.1,4.4,4.3,4.3c5.3-0.2,10.7,0,16-0.1c2.6-0.1,3.6,0.9,3.5,3.5
		c-0.1,5.5-0.1,11,0,16.5c0.1,2.7-1,3.4-3.5,3.4c-21.3-0.1-42.6-0.1-63.9,0c-2.2,0-3.4-0.5-3.3-3c0.1-5.7,0.1-11.3,0-17
		c-0.1-2.7,1.2-3.4,3.6-3.3c5.5,0.1,11-0.1,16.5,0.1c2.8,0.1,3.8-0.9,3.8-3.8c-0.1-20.5,0-41,0-61.4c0-3.9-1.8-5.8-5.8-5.6
		c-4.8,0.2-9.7-0.1-14.5,0.1c-2.5,0.1-3.6-0.7-3.5-3.4c0.2-5.7,0.2-11.3,0-17c-0.1-2.7,1-3.5,3.5-3.4c6.6,0.3,13.3-0.3,19.9,0.6
		c12.9,1.7,23.1,12.7,23.6,25.7c0,0.3,0,0.7,0,1C437.1,439.9,437.1,450.2,437.1,460.5z"/>
	<path class="st0" d="M638.1,460.1c0,10.3,0.3,20.7-0.1,31c-0.2,4.8,1.6,6,6,5.7c4.5-0.3,9,0.1,13.5-0.1c3.1-0.1,4.6,0.6,4.4,4.1
		c-0.2,5.1-0.2,10.3,0,15.5c0.1,2.7-0.7,3.8-3.6,3.8c-21.1-0.1-42.3-0.1-63.4,0c-2.8,0-3.8-0.8-3.7-3.7c0.2-5.3,0.2-10.7,0-16
		c-0.1-2.8,0.9-3.8,3.7-3.7c5.3,0.2,10.7,0,16,0.1c2.8,0.1,4.2-0.7,4.2-3.9c-0.1-20.3-0.1-40.6,0-60.9c0-4.1-1.6-6.2-6-6
		c-4.8,0.2-9.7-0.1-14.5,0.1c-2.7,0.1-3.5-0.9-3.4-3.5c0.1-5.5,0.2-11,0-16.5c-0.1-2.8,0.7-3.9,3.6-3.8c6.5,0.3,13-0.3,19.4,0.5
		c13.5,1.7,23.8,12.7,23.9,26.4C638.2,439.5,638.1,449.8,638.1,460.1C638.1,460.1,638.1,460.1,638.1,460.1z"/>
	<path class="st0" d="M840.1,460.1c0,10.3,0.3,20.7-0.1,31c-0.2,4.9,1.6,6,6,5.7c4.5-0.3,9,0.1,13.5-0.1c3.1-0.1,4.6,0.7,4.4,4.1
		c-0.2,5.1-0.2,10.3,0,15.5c0.1,2.8-0.7,3.8-3.7,3.8c-21.1-0.1-42.3-0.1-63.4,0c-2.8,0-3.8-0.8-3.7-3.7c0.2-5.3,0.2-10.7,0-16
		c-0.1-2.8,0.9-3.8,3.7-3.7c5.3,0.2,10.7,0,16,0.1c2.9,0.1,4.2-0.7,4.2-3.9c-0.1-20.3-0.1-40.6,0-60.9c0-4.1-1.6-6.2-6-6
		c-4.7,0.2-9.3-0.1-14,0.1c-2.6,0.1-4-0.4-3.9-3.5c0.2-5.7,0.1-11.3,0-17c0-2.3,0.7-3.3,3.1-3.3c6.8,0.2,13.6-0.3,20.4,0.6
		c12.9,1.7,23.2,12.8,23.4,25.8C840.2,439.2,840,449.7,840.1,460.1C840.1,460.1,840.1,460.1,840.1,460.1z"/>
	<path class="st0" d="M336.1,662.5c0,10.7,0.1,21.3-0.1,32c-0.1,3.3,1,4.4,4.3,4.3c5.3-0.2,10.7,0,16-0.1c2.6-0.1,3.6,0.8,3.5,3.5
		c-0.1,5.5-0.1,11,0,16.5c0.1,2.6-0.9,3.4-3.5,3.4c-21.3-0.1-42.6-0.1-63.9,0c-2.7,0-3.4-1-3.4-3.5c0.1-5.5,0.1-11,0-16.5
		c-0.1-2.7,1.1-3.4,3.6-3.4c5.5,0.1,11,0,16.5,0.1c2.7,0.1,3.9-0.9,3.8-3.7c-0.1-20.5,0-41,0-61.4c0-3.9-1.7-5.8-5.8-5.7
		c-4.7,0.2-9.3-0.1-14,0.1c-2.9,0.1-4.2-0.6-4.1-3.8c0.2-5.5,0.2-11,0-16.5c-0.1-2.6,0.9-3.5,3.5-3.4c6.5,0.3,13-0.3,19.4,0.5
		c13.8,1.7,23.9,12.8,24.1,26.7C336.2,641.8,336.1,652.2,336.1,662.5z"/>
	<path class="st0" d="M1042.1,460.2c0,10.2,0.2,20.3-0.1,30.5c-0.2,4.7,1,6.6,6,6.2c4.6-0.4,9.3,0,14-0.1c2.7-0.1,4,0.7,3.9,3.6
		c-0.2,5.5-0.1,11,0,16.5c0,2.3-0.7,3.2-3.1,3.2c-21.5-0.1-43-0.1-64.4,0c-2.4,0-3.2-0.8-3.2-3.2c0.1-5.5,0.2-11,0-16.5
		c-0.1-2.9,0.9-3.8,3.7-3.7c5.3,0.2,10.7-0.1,16,0.1c2.9,0.1,4.2-0.7,4.2-3.9c-0.1-20.3-0.1-40.6,0-60.9c0-4.1-1.6-6.2-6-6
		c-4.7,0.2-9.3-0.1-14,0.1c-2.6,0.1-4-0.4-3.9-3.5c0.2-5.7,0.1-11.3,0-17c0-2.3,0.7-3.3,3.1-3.2c6.6,0.3,13.3-0.3,19.9,0.5
		c13.5,1.7,23.7,12.8,23.9,26.4C1042.2,439.5,1042.1,449.8,1042.1,460.2z"/>
	<path class="st0" d="M941.1,662.4c0,10.3,0.2,20.7-0.1,31c-0.1,4,0.9,5.7,5.2,5.4c4.8-0.3,9.7,0.1,14.5-0.1
		c2.9-0.1,4.3,0.7,4.1,3.9c-0.2,5.3-0.2,10.7,0,16c0.1,2.6-0.8,3.5-3.4,3.5c-21.3-0.1-42.6-0.1-63.9,0c-2.6,0-3.5-0.8-3.4-3.4
		c0.2-5.5,0.1-11,0-16.5c-0.1-2.6,0.9-3.5,3.5-3.4c5.3,0.1,10.7-0.1,16,0.1c3.1,0.1,4.5-0.8,4.4-4.2c-0.1-20.1-0.1-40.3,0-60.4
		c0-4.3-1.7-6.5-6.3-6.2c-4.7,0.2-9.3-0.1-14,0.1c-2.9,0.1-3.7-1-3.6-3.8c0.2-5.5,0.1-11,0-16.5c-0.1-2.6,0.8-3.6,3.4-3.5
		c6.6,0.3,13.3-0.3,19.9,0.6c13.2,1.7,23.4,12.8,23.7,26.1C941.2,641.4,941.1,651.9,941.1,662.4
		C941.1,662.4,941.1,662.4,941.1,662.4z"/>
	<path class="st0" d="M739.1,662.5c0,10.7,0.1,21.3-0.1,32c-0.1,3.3,1,4.4,4.3,4.3c5.3-0.2,10.7,0,16-0.1c2.5-0.1,3.6,0.8,3.5,3.4
		c-0.1,5.7-0.1,11.3,0,17c0,2.2-0.9,2.9-3,2.9c-21.6,0-43.3,0-64.9,0c-2.2,0-2.9-0.9-2.9-3c0.1-5.7,0.1-11.3,0-17
		c-0.1-2.7,1.1-3.4,3.6-3.4c5.5,0.1,11,0,16.5,0.1c2.7,0.1,3.9-0.9,3.8-3.7c-0.1-20.5,0-41,0-61.4c0-3.9-1.7-5.8-5.8-5.7
		c-4.7,0.2-9.3-0.1-14,0.1c-2.9,0.1-4.2-0.6-4.1-3.8c0.2-5.5,0.2-11,0-16.5c-0.1-2.6,0.9-3.5,3.5-3.4c6.5,0.3,13-0.3,19.4,0.5
		c13.8,1.7,23.9,12.8,24.1,26.7C739.2,641.8,739.1,652.2,739.1,662.5z"/>
	<path class="st1" d="M344,462.8c-12.2-12.2-24.3-24.2-36.4-36.4c1.6-1,3.8-0.4,5.8-0.4c8.3-0.1,16.6,0,24.9-0.1
		c3.6,0,5.7,1.2,5.7,5.1C343.9,441.7,344,452.3,344,462.8z"/>
	<path class="st1" d="M341.2,496.1c-0.8,1-2.4,0.6-3.9,0.6c-8.7,0-17.3-0.1-26,0c-4.5,0.1-6.7-1.5-6.6-6.4
		c0.2-10.2,0.1-20.5,0.1-30.8C317.2,471.9,329.2,484,341.2,496.1z"/>
	<path class="st1" d="M510.2,426c10.2,0,21.1-0.1,32,0.1c2.9,0,3.8,2.3,3.8,4.9c0,10.6,0,21.3,0,30.8
		C534.4,450.2,522.3,438.1,510.2,426z"/>
	<path class="st1" d="M506.8,459.7c12.3,12.3,24.3,24.4,36.3,36.5c-0.6,0.8-2,0.5-3.3,0.5c-8.8,0-17.6-0.1-26.5,0
		c-4.5,0.1-6.7-1.6-6.6-6.4C507,480.1,506.8,469.9,506.8,459.7z"/>
	<path class="st1" d="M344,1268.9c-12.2-12.2-24.3-24.3-36.4-36.4c0.8-1.1,2.5-0.5,3.8-0.5c9-0.1,18,0,26.9-0.1c4,0,5.8,1.6,5.7,5.6
		C343.9,1248,344,1258.5,344,1268.9z"/>
	<path class="st1" d="M341.1,1302.2c-0.8,0.9-2.4,0.5-3.8,0.5c-8.7,0-17.3-0.1-26,0c-4.5,0.1-6.7-1.5-6.6-6.4
		c0.2-10.2,0.1-20.5,0.1-30.5C317.1,1278.1,329.1,1290.1,341.1,1302.2z"/>
	<path class="st1" d="M747,462.9c-12.2-12.2-24.3-24.3-36.4-36.4c0.8-1.2,2.5-0.5,3.8-0.5c9-0.1,18,0,26.9-0.1c4,0,5.8,1.6,5.7,5.6
		C746.9,442,747,452.5,747,462.9z"/>
	<path class="st1" d="M743.5,496.6c-1.2,0.8-3.6,0.1-5.8,0.1c-8,0.1-16,0-24,0c-3.7,0-6-1.3-6-5.5c0.1-10.5,0-20.9,0-30.4
		C719.5,472.5,731.6,484.6,743.5,496.6z"/>
	<path class="st1" d="M949,462.7c-12.2-12.2-24.2-24.2-36.4-36.4c2.3-0.8,5.1-0.3,7.8-0.3c7.6-0.1,15.3,0,22.9-0.1
		c3.6,0,5.7,1.3,5.6,5.2C948.9,441.7,949,452.3,949,462.7z"/>
	<path class="st1" d="M946.2,496.1c-0.7,1-2.3,0.6-3.7,0.6c-8.7,0-17.3,0.1-26,0c-5.6,0-6.6-1.1-6.6-6.8c0-10.1,0-20.2,0-30.2
		C922.1,472,934.1,484,946.2,496.1z"/>
	<path class="st1" d="M1013.6,1031c10.7,0,21.4-0.1,32.2,0c3.2,0,4.2,2.2,4.2,5.1c0,10.6,0,21.2,0,30.9
		C1038.2,1055.3,1026.1,1043.3,1013.6,1031z"/>
	<path class="st1" d="M1046.5,1101.4c-2.4,1-6,0.2-9.4,0.3c-6.8,0.1-13.6,0-20.5,0c-3.4,0-5.9-1-5.9-5.1c0-10.6,0-21.3,0-31.7
		C1022.7,1077.1,1034.6,1089.3,1046.5,1101.4z"/>
	<path class="st1" d="M848,1067.3c-12.1-12-24.1-24-36.6-36.4c8.2,0,16.4,0,24.6,0c12.7-0.1,12.1-0.8,12,11.8
		C848,1051.1,848,1059.6,848,1067.3z"/>
	<path class="st1" d="M845.4,1101.5c-11,0-21.9,0.1-32.9-0.1c-2.2,0-3.6-1.6-3.7-4c0-10.9,0-21.8,0-32.5
		C821,1077.1,833,1089.1,845.4,1101.5z"/>
	<path class="st1" d="M445,1067.7c-12.2-12.1-24.3-24.1-36.5-36.3c2.1-0.9,4.6-0.4,6.9-0.4c8-0.1,16,0,23.9-0.1
		c3.6,0,5.7,1.2,5.7,5.2C444.9,1046.7,445,1057.3,445,1067.7z"/>
	<path class="st1" d="M405.8,1064c12.6,12.6,24.5,24.4,36.6,36.6c-0.1,1.5-1.8,1.1-2.9,1.1c-9.3,0-18.6,0-28,0
		c-3.1,0-5.7-0.9-5.7-4.7C405.8,1086.2,405.8,1075.5,405.8,1064z"/>
	<path class="st1" d="M206.9,1031c10.5,0,21.2,0,32,0c2.8,0,4.1,1.9,4.1,4.6c0,10.8,0,21.6,0,31.5
		C231.2,1055.3,219.1,1043.2,206.9,1031z"/>
	<path class="st1" d="M239.6,1101.9c-0.1,0.1-1.5-0.1-2.8-0.1c-8.8,0-17.6-0.1-26.5,0c-4.5,0.1-6.7-1.6-6.6-6.5
		c0.2-10.1,0.1-20.3,0.1-29.4C215.4,1077.6,227.5,1089.7,239.6,1101.9z"/>
	<path class="st1" d="M206.6,628.1c10.9,0,21.9-0.1,32.9,0.1c2.3,0,3.4,1.9,3.4,4.2c0,10.9,0,21.8,0,31.9
		C231.1,652.4,218.9,640.3,206.6,628.1z"/>
	<path class="st1" d="M240.2,698.2c-0.7,1-2.3,0.5-3.7,0.6c-8.7,0-17.3,0.1-26,0c-5.6,0-6.6-1.1-6.6-6.8c0-10.1,0-20.2,0-30.2
		C216.1,674,228.1,686,240.2,698.2z"/>
	<path class="st1" d="M408.9,628.1c10.6,0,21.6-0.1,32.7,0.1c2.3,0,3.4,1.9,3.4,4.2c0,10.9,0,21.8,0,31.8
		C433.1,652.3,421,640.2,408.9,628.1z"/>
	<path class="st1" d="M405.8,661.5c12.3,12.4,24.4,24.4,36.4,36.5c-0.8,1-2.4,0.6-3.8,0.6c-8.7,0-17.3-0.1-26,0
		c-4.5,0.1-6.8-1.5-6.7-6.4C406,682.1,405.8,671.9,405.8,661.5z"/>
	<path class="st1" d="M546,664.2c-12-11.9-24.1-23.9-36.4-36.1c10.9,0,21.9-0.1,33,0.1c2.3,0,3.4,1.9,3.5,4.1
		C546,643.2,546,654.1,546,664.2z"/>
	<path class="st1" d="M506.8,661.6c12.3,12.3,24.3,24.4,36.4,36.5c-0.8,1-2.4,0.6-3.8,0.6c-8.7,0-17.3,0.1-26,0
		c-5.6,0-6.6-1.1-6.6-6.8C506.8,681.8,506.8,671.8,506.8,661.6z"/>
	<path class="st1" d="M646,664.4c-12.1-12-24.1-24.1-36.5-36.4c5.1,0,10.3-0.2,15.5,0.1c6.5,0.4,14.7-2.9,19.2,1.5
		c4.7,4.6,1.2,13,1.7,19.6C646.3,654.4,646,659.7,646,664.4z"/>
	<path class="st1" d="M606.8,661.3c12.5,12.6,24.5,24.6,36.5,36.6c-0.6,1.1-2,0.8-3.3,0.8c-9,0-18,0-27,0c-4.3,0-6.4-1.6-6.3-6.2
		C606.9,682.3,606.8,672,606.8,661.3z"/>
	<path class="st1" d="M949,865.4c-12.1-12-24.2-24-36.7-36.4c5.3,0,10.5-0.2,15.7,0.1c6.5,0.4,14.7-2.9,19.2,1.5
		c4.7,4.6,1.2,13,1.7,19.7C949.3,855.4,949,860.7,949,865.4z"/>
	<path class="st1" d="M909.8,862.5c12.5,12.5,24.4,24.4,36.5,36.5c-0.6,1.1-2.1,0.8-3.3,0.8c-9,0-18,0-27,0c-4.3,0-6.4-1.7-6.3-6.3
		C909.9,883.2,909.8,873,909.8,862.5z"/>
	<path class="st1" d="M848,665c-12.3-12.3-24.3-24.3-36.5-36.5c0.6-1.1,2.1-0.5,3.3-0.5c9-0.1,18,0.1,26.9-0.1
		c4.4-0.1,6.4,1.5,6.3,6.1C847.9,644.3,848,654.6,848,665z"/>
	<path class="st1" d="M845,698.7c-5.5,0-11.5,0-17.4,0c-4.5,0-9,0.1-13.5,0c-3-0.1-5.3-1.1-5.3-4.6c0-10.8,0-21.6,0-32.2
		C820.8,674.1,832.7,686.2,845,698.7z"/>
	<path class="st1" d="M1050,664.8c-12.2-12.2-24.3-24.3-36.4-36.4c1.2-1.2,3.1-0.5,4.8-0.5c8.6-0.1,17.3,0,25.9-0.1
		c4-0.1,5.8,1.6,5.7,5.6C1049.9,644,1050,654.5,1050,664.8z"/>
	<path class="st1" d="M1047.2,698.1c-0.9,1-2.4,0.6-3.9,0.6c-8.7,0-17.3-0.1-26,0c-4.5,0.1-6.7-1.5-6.6-6.4
		c0.2-10.2,0.1-20.5,0.1-30.8C1023.2,673.9,1035.2,686,1047.2,698.1z"/>
	<path class="st1" d="M747,865.3c-12.1-12-24.1-24-36.6-36.4c8.2,0,16.4,0,24.6,0c12.7-0.1,12.1-0.8,12,11.8
		C747,849.1,747,857.6,747,865.3z"/>
	<path class="st1" d="M743.5,899.7c-0.7,0.6-2.8,0-4.8,0c-8.3,0.1-16.6,0-25,0c-3.7,0-6.1-1.2-6-5.5c0.1-10.5,0-21,0-30.4
		C719.5,875.5,731.5,887.6,743.5,899.7z"/>
	<path class="st1" d="M546,865.4c-12.1-12-24.1-24-36.6-36.4c5.2,0,10.4-0.2,15.6,0.1c6.5,0.4,14.7-2.9,19.2,1.5
		c4.7,4.6,1.2,13,1.7,19.7C546.3,855.4,546,860.7,546,865.4z"/>
	<path class="st1" d="M506.8,862.8c12.3,12.3,24.3,24.3,36.3,36.4c-1.3,1.1-3.4,0.5-5.3,0.5c-8.3,0.1-16.6,0-25,0
		c-3.7,0-6.1-1.2-6-5.5C506.9,883.8,506.8,873.3,506.8,862.8z"/>
	<path class="st1" d="M344,865.6c-12.1-12.1-24.2-24.2-36.6-36.7c3.8,0,7.7,0,11.6,0c6.6,0,13.3,0,19.9,0c3.2,0,5.1,1.3,5.1,4.7
		C344,844.4,344,855.2,344,865.6z"/>
	<path class="st1" d="M304.8,862.6c12.4,12.4,24.4,24.4,36.5,36.4c-0.6,1.1-2.1,0.7-3.3,0.7c-9,0-18,0-27,0c-4.3,0-6.4-1.7-6.3-6.3
		C304.9,883.2,304.8,873,304.8,862.6z"/>
	<path class="st1" d="M1050,260.4c-12.1-12-24.1-24.1-36.5-36.4c5.6,0,11.3-0.2,17,0.1c6,0.3,13.5-2.7,17.8,1.5
		c4.5,4.4,1.2,12,1.6,18.2C1050.3,249.4,1050,255.2,1050,260.4z"/>
	<path class="st1" d="M1010.8,257.7c12.4,12.4,24.4,24.3,36.5,36.4c-0.5,0.8-1.7,0.7-2.8,0.7c-9.2,0-18.3,0-27.5,0
		c-4.4,0-6.3-1.8-6.2-6.3C1010.9,278.2,1010.8,267.9,1010.8,257.7z"/>
	<path class="st1" d="M609.1,1434c11.2,0,22.1,0,33,0c2.3,0,3.7,1.6,3.8,3.9c0.1,11,0,22.1,0,32.9
		C633.8,1458.7,621.8,1446.6,609.1,1434z"/>
	<path class="st1" d="M606.8,1467.6c12.4,12.4,24.4,24.4,36.5,36.4c-0.6,1-2.1,0.7-3.3,0.7c-9,0-18,0-27,0c-4.3,0-6.3-1.7-6.3-6.3
		C606.9,1488.2,606.8,1478,606.8,1467.6z"/>
	<path class="st1" d="M811.4,224c10.8,0,21.5,0,32.1,0c3.1,0,4.5,1.7,4.5,4.7c0,10.8,0,21.5,0,31.7C836,248.5,823.9,236.4,811.4,224
		z"/>
	<path class="st1" d="M808.8,257.6c12.4,12.4,24.4,24.4,36.5,36.4c-0.5,0.8-1.7,0.7-2.8,0.7c-9.2,0-18.3,0-27.5,0
		c-4.4,0-6.3-1.7-6.2-6.3C808.9,278.2,808.8,267.9,808.8,257.6z"/>
	<path class="st1" d="M409.3,1434c10.1,0,21-0.1,31.9,0.1c3.2,0,3.8,2.6,3.8,5.4c0,10.5,0,20.9,0,30.2
		C433.4,1458.1,421.4,1446.1,409.3,1434z"/>
	<path class="st1" d="M405.8,1467.4c12.4,12.5,24.4,24.4,36.5,36.5c-0.8,1.4-2.6,0.8-4.2,0.8c-8.5,0.1-17,0.1-25.5,0
		c-5.9,0-6.9-1-6.9-7.1C405.8,1487.7,405.8,1477.7,405.8,1467.4z"/>
	<path class="st1" d="M811.6,1434c10.7,0,21.3,0,31.9,0c3.1,0,4.5,1.7,4.5,4.7c0,10.8,0,21.5,0,31.8
		C836,1458.5,823.9,1446.4,811.6,1434z"/>
	<path class="st1" d="M808.8,1467.6c12.4,12.4,24.4,24.4,36.5,36.4c-0.6,1.1-2.1,0.7-3.3,0.7c-9,0-18,0-27,0c-4.3,0-6.4-1.7-6.3-6.3
		C808.9,1488.2,808.8,1478,808.8,1467.6z"/>
	<path class="st1" d="M609.6,224c10.7,0,21.3,0,31.9,0c2.8,0,4.4,1.4,4.4,4.3c0.1,10.9,0,21.8,0,32.1C634,248.4,622,236.3,609.6,224
		z"/>
	<path class="st1" d="M643.2,294.1c-0.8,1-2.4,0.6-3.9,0.6c-8.7,0-17.3-0.1-26,0c-4.5,0.1-6.8-1.5-6.6-6.4c0.2-10,0.1-20,0.2-30
		c0-0.2,0.3-0.5,0.3-0.5C619.2,269.9,631.2,282,643.2,294.1z"/>
	<path class="st1" d="M949,1470.4c-12.1-12-24.1-24.1-36.5-36.4c5.1,0,10.3-0.2,15.5,0.1c6.5,0.4,14.7-2.9,19.2,1.5
		c4.7,4.6,1.2,13,1.7,19.7C949.3,1460.4,949,1465.7,949,1470.4z"/>
	<path class="st1" d="M945.5,1504.7c-0.7,0.6-2.8,0-4.8,0c-8.3,0.1-16.6,0-25,0c-3.7,0-6.1-1.2-6-5.5c0.1-10.5,0-21,0-30.4
		C921.5,1480.5,933.5,1492.6,945.5,1504.7z"/>
	<path class="st1" d="M409.1,224c10.1,0,20.8,0,31.6,0c3.1,0,4.3,2.1,4.2,5c0,10.6,0,21.3,0,30.8C433.4,248.2,421.3,236.1,409.1,224
		z"/>
	<path class="st1" d="M442.2,294.1c-0.7,1-2.3,0.6-3.7,0.6c-8.7,0-17.3,0.1-26,0c-5.6,0-6.6-1.1-6.6-6.8c0-10.1,0-20.2,0-30.2
		C418.1,270,430.1,282,442.2,294.1z"/>
	<path class="st1" d="M207.1,1434c10.2,0,21-0.1,31.7,0c3.2,0,4.2,2.1,4.2,5c0,10.6,0,21.3,0,31
		C231.3,1458.3,219.2,1446.2,207.1,1434z"/>
	<path class="st1" d="M203.8,1467.9c12.2,12.2,24.2,24.3,36.2,36.3c-1.6,1.2-4,0.4-6.3,0.5c-8,0.1-16,0-24,0c-3.7,0-6-1.2-6-5.5
		C203.9,1488.8,203.8,1478.3,203.8,1467.9z"/>
	<path class="st1" d="M949,1268.2c-12-12-24-24-36.2-36.2c10.6,0,21.7-0.1,32.7,0.1c2.3,0,3.4,1.9,3.4,4.2
		C949,1247.2,949,1258.1,949,1268.2z"/>
	<path class="st1" d="M909.8,1265.9c12.2,12.3,24.3,24.3,36.3,36.4c-1.3,1.1-3.4,0.5-5.3,0.5c-8.3,0.1-16.6,0-25,0
		c-3.7,0-6-1.2-6-5.5C909.9,1286.8,909.8,1276.3,909.8,1265.9z"/>
	<path class="st1" d="M206.4,224c10.8,0,21.4,0,32,0c3.1,0,4.5,1.7,4.5,4.7c0,10.8,0,21.5,0,31.7C231,248.5,218.9,236.4,206.4,224z"
		/>
	<path class="st1" d="M240.1,294.2c-0.8,0.9-2.4,0.5-3.8,0.5c-8.7,0-17.3-0.1-26,0c-4.5,0.1-6.8-1.5-6.7-6.4
		c0.2-10.2,0.1-20.5,0.1-30.5C216,270.1,228.1,282.1,240.1,294.2z"/>
	<path class="st1" d="M645.9,1268.8c-12.1-12.1-24.2-24.2-36.4-36.4c0.3-0.9,1.7-0.4,2.7-0.4c9.3-0.1,18.6,0,27.9,0
		c2.9,0,5.7,0.4,5.7,4C646,1247,645.9,1258,645.9,1268.8z"/>
	<path class="st1" d="M606.8,1265.6c12.4,12.4,24.4,24.4,36.5,36.4c-0.6,1-2,0.7-3.3,0.7c-9,0-18,0-27,0c-4.3,0-6.4-1.7-6.3-6.3
		C606.9,1286.2,606.8,1276,606.8,1265.6z"/>
	<path class="st1" d="M510.1,1232c10.2,0,20.9,0,31.7,0c3.2,0,4.2,2.1,4.2,5c0,10.6,0,21.3,0,31
		C534.3,1256.3,522.2,1244.2,510.1,1232z"/>
	<path class="st1" d="M543.5,1302.7c-8.5,0-16.7,0-25,0c-11.7,0-11.7,0-11.7-11.7c0-8.2,0-16.3,0.1-24.5c0-0.3,0.3-0.5,0.2-0.4
		C519,1278.1,530.9,1290.1,543.5,1302.7z"/>
</g>
</svg>
