<?xml version="1.0" encoding="utf-8"?>
<!-- Generator: Adobe Illustrator 21.1.0, SVG Export Plug-In . SVG Version: 6.00 Build 0)  -->
<svg version="1.1" id="consulting_xA0_Image_1_" xmlns="http://www.w3.org/2000/svg" xmlns:xlink="http://www.w3.org/1999/xlink"
	 x="0px" y="0px" viewBox="0 0 1182.4 852.5" style="enable-background:new 0 0 1182.4 852.5;" xml:space="preserve">
<style type="text/css">
	.st0{fill:#221651;}
	.st1{fill:#09CD7C;}
</style>
<g>
	<path class="st0" d="M838.8,83.2c8.9,7.8,17,16.6,26.5,23.8c8.3,6.3,13.4,14.8,16.1,24.7c3.2,11.8,9.7,21.5,17.9,30.5
		c8.2,9,15.6,18.7,23.4,28c8.9,10.7,17.7,21.5,26.9,31.9c6,6.7,6.3,6.4-1.8,10.2c-19,9-37.8,18.3-56.9,27.1
		c-12.9,6-26,11.6-38.5,18.4c-1.1,0.6-2.6,0.4-3.9,0.5c-6.8-5.6-15.1-8.5-22.9-12.1c-4-2.4-7.9-5.8-12.5-5.7
		c-8.7,0.1-17.4,1.3-26.4,2.1c5.5,6.3,4.7,11.6-1.9,16.1c-1.3,0.9-3.6,1.7-2.6,3.6c3.1,5.9-0.9,8.7-4.6,11.9c-1.4,1.2-2.8,2.8-1,4.6
		c6,6.5,9.7,14.6,14.8,21.7c2,2.8,2.9,5.8,3.3,9.2c3.7,28.6,7.6,57.1,11.4,85.6c1.5,11,2.9,21.9,4.4,33.4c-1.6-0.6-2.8-0.9-3.8-1.3
		c-19.9-9.2-39.9-18.4-59.8-27.6c-1.9-0.9-3.7-2.1-6.1-1.3c-5.8,1.8-11.2,3.8-14.3,9.8c-1.8,3.5-4.7,6.4-6.9,9.8
		c-1.9,2.9-3.9,5.4-7.8,5.4c-1.7,0-2.6,1.1-3,2.8c-3.5,16.1-7,32.2-10.4,48.3c-1,4.6,2.4,7.4,7,6.2c11-2.7,21.9-5.5,33-8.1
		c2.4-0.6,4.9-1.9,7.6-1.4c0,2.1-1.5,2.8-2.5,3.9c-12.4,13.9-24.6,28-37.3,41.7c-3.5,3.7-4.3,6.6-0.9,10.5c-3.8,0.4-7.6-0.4-11.4-1
		c-29.4-3.9-53.7-17.3-72.7-40c-6.2-7.4-11.5-15.4-14.3-24.9c1.5-4,0.9-8.2,1.5-12.3c1-6.7-4.5-10.3-7.5-15
		c-0.4-0.7-1.5,0.3-2.2,0.7c-2.2-6.5-2.5-13.2-2.9-20c3.8-5.4,7.7-10.8,11.5-16.3c2-2.9,1.6-6.5,0.3-9.1c-1.2-2.5-4.1,0.2-6.2,0.3
		c-1.6,0-3.2,0.7-4.8,1.1c0.1-14.1,4.8-27.1,9.9-39.9c9.9-24.8,24.4-46.8,40.8-67.8c38.3-49,76.6-98,114.9-147
		c7.8-10,15.7-20.1,18.4-32.8c3.2-15.2,3.8-30.7,1.7-46c-1.1-7.9-3.4-15.7-8.8-22c-4.2-4.8-9.2-4.5-12.9,0.7
		c-2.5,3.7-3.5,7.8-3.8,12.2c-0.8,11.1,0,22,4.6,32.3c3.9,8.7,2.6,16.8-1.8,24.8c-2.1,3.8-4.2,7.6-6.7,11.1
		c-15.6,21.8-32.9,42.3-49.3,63.5c-27.7,35.8-55.9,71.1-82.3,107.9c-26.3,36.7-43,76.3-42.4,122.2c-8.6-5.1-17.4-10-25.9-15.5
		c-4.1-2.7-7-1.7-9.7,1.4c-3.1,3.6-6.2,5.6-10.5,2.1c-1.6-1.3-2.9-0.5-3.9,0.4c-9.9,9.1-19.7,18.4-29.6,27.6
		c-1.3,1.2-2.1,1.9-0.6,3.9c4.7,6.1,3.6,12.8,0.8,19.2c-1.5,3.4-0.5,3.8,2.3,3.4c10.7-1.5,20.9,2.2,31.4,2.9
		c2.1,0.2,2.7,0.8,1.9,3.1c-4.3,12.1-10.6,22.9-19.1,32.8c-9.7,11.2-21.4,19.5-34.2,26.4c-3,1.6-2.7,4-2.8,6.3
		c-1.3,18.9-2.7,37.9-3.8,56.8c-1.1,18-2,35.9-2.9,53.9c-0.1,1.1-0.6,2.3,0.8,3.5c1.9-2.5,3.6-4.9,5.5-7.4c1.8-2.3,2.6-1.8,3.3,0.9
		c4.2,15.2,8.5,30.4,12.8,45.7c5,17.7,9.8,35.5,17.9,52.2c1.2,2.6,1,5.3,0.5,7.8c-0.5,3.2-3.9,3.1-5.4,1.9c-4.8-3.7-8.6-1-12.1,1.6
		c-2.8,2.1-5.2,2-8.1,0.7c-4-1.8-8.1-3.2-12.1-4.9c-0.8-0.3-1.4-1-2.1-0.2c-0.7,0.8,0,1.5,0.4,2.2c3.3,7.2,6.7,14.3,13.9,18.8
		c5.5,3.4,6.7,10.2,10.4,15.1c3.4,4.5,4.6,10.9,10.9,13.2c1,0.4,1.5,2.5,2,3.8c1.4,4.6,2.2,9.4,4,13.7c2.2,5.1-1.5,8.7-2.7,12.8
		c-0.6,2.3-2,4.4-2.8,6.7c-1.4,4.6-3.9,7.4-9.7,7.3c-11.4-0.3-22.7,1.9-34.2,2c-7.5,0-14.3-1.3-21-4.4c-1.7-0.8-3.5-1-5.3-1.1
		c-8.5-0.6-16.9-1.1-25.4-0.7c-2.1,0.1-3.6-0.2-4.8-2.5c-3.7-7.2-8.4-14-11.6-21.5c-2.6-6.2-3.9-13.1-5.1-19.8
		c-0.3-1.8,2.3-3.9,2.8-6.4c1.5-7.1-1.3-13.7-1.6-20.6c-0.8-17.4-11.6-31.1-16.6-47c-2.2-7-3-13.6-0.6-20.5
		c1.3-3.7,0.2-6.7-1.2-10.3c-6.1-15.6-19.3-25.6-29.4-37.9c-2.5-3-2.8-4.4,0.6-6.8c5.9-4.1,5.7-4.3,10.9,1
		c6.4,6.6,12.8,13.1,19.2,19.7c2,2.1,3.1,3,4.7-0.5c4.5-10.1,8.3-20.3,10.4-31.2c0.3-1.7,0.7-3.4-0.7-4.6
		c-6.9-6.3-7.3-14.4-6.8-22.9c0.2-3.5,0-6.9,0-11.1c4.1,4.5,7.8,8.6,12.3,13.5c1.8-5.8,1.6-10,2-14.2c1.2-12.3,2.6-24.5,1.7-36.9
		c-0.1-1.7,0-3.3-0.9-4.9c-8.7-15-16.8-30.3-27-44.3c-3.7-5.1-3.8-5-7.6,0.1c-0.7,0.9-1.3,2-2.1,2.8c-8.3,8.6-12.1,18.8-11.4,30.7
		c0.2,2.5-0.9,4.1-3.2,5c-9.2,3.6-13.3,10.6-15.7,20c-3.3,13.4-8.1,26.4-12.2,39.6c-0.2,0.8-0.9,1.7-0.7,2.4
		c2.8,10.1-2.8,21.3,4.8,31c1.7-1.5,3.8-3.3,5.8-5.3c2.1-2.2,3.1-2.1,4.3,1c4.6,11.4,9.8,22.6,14.2,34.1c2.8,7.4,8.8,11.7,14.4,16.2
		c4.8,3.8,5.7,8.6,6.7,13.8c0.3,1.8-0.6,2.8-1.6,4c-1.7,2-3.4,4.1-5.1,6.1c-4.7,5.6-4.6,5.6-10.7,1.9c-1-0.6-2.1-2.6-3.2-1
		c-1,1.3-1.6,3.5,0.3,5c2.7,2.2,5.5,4.3,8.4,6.3c2.3,1.5,3.7,3.3,3.4,6.2c-0.3,3.3,1.1,5.3,4.5,4.8c9.3-1.2,12.9,4.1,14.6,12.1
		c0.6,2.7,1.3,5.4,2.9,7.9c5.5,8.5-0.6,15.6-3.3,23c-0.4,1.1-2.4,0.8-3.7,0.9c-10.3,0.1-20.7-0.1-31,0.5
		c-12.3,0.7-24.3-1.4-36.4-3.3c-4.1-0.7-8.2-1.3-12.4-0.8c-4.1,0.5-7-1.4-8.9-5c-2.8-5.3-5.6-10.7-8.5-15.9
		c-0.9-1.6-0.7-3.2-0.6-4.8c0.6-11.3-6-20.6-8.6-30.9c-0.6-2.2-4.4-3.7-6.3-6.1c-3.8-4.8-6.3-10-6.1-16.2c0.1-2.5-0.9-3.9-2.9-5.2
		c-12.3-7.8-24.2-16.1-36.7-23.6c-4.4-2.7-2.7-4.6-1.2-7.8c1.9-4.1,3.9-3.3,7-1.6c7.1,3.9,14.4,7.5,21.6,11.4c2.9,1.6,4.4,0.8,5-2.2
		c1.8-7.8,3.6-15.6,5.3-23.4c0.5-2.2-0.1-4.2-1-6.2c-2.7-6-5-12.2-8-18.1c-1.6-3.2-0.5-6.2-0.9-9.3c-1.6-11-3.4-21.9-5.4-32.8
		c-1.1-5.7-2.5-10.5-6.4-14.8c-2.8-3.2-6.7-4.1-10.1-5.9c-2.4-1.3-3.2-2.9-3.7-5c-1.5-6.7-2.8-13.4-4.4-21.3
		c10.9,8,22.4,13.2,29.8,23.8c0.9,1.3,2.1,2.5,3.2,3.8c3.4,3.9,4.2,3.8,6.7-0.8c10-18.3,19.9-36.7,30-54.9c2.6-4.7,4.5-8.9,0.3-13.9
		c-5.1-6.1-5.1-13.8-5.3-21.4c-0.4-16.4,9.1-27.8,19.2-38.9c1.5-1.7,3.5-3,3.5-5.7c0-2.3,2.3-2.8,3.9-3.2c6.6-1.7,9.7-5.6,9.1-12.6
		c-0.3-3.2,2.2-7.4-0.2-9.4c-1.8-1.5-5.4,1.8-8.3,2.4c-3,0.7-5.9,0.9-8.8,0c-4.7-1.4-9.4-3-14.1-4.6c-3.3-1.1-4.6-3.1-4.9-6.9
		c-0.5-5.5,1-8.8,6-11.3c3.1-1.5,2.9-6.4,0.1-8.7c-3.6-3-8.2-3.4-12.4-4.9c-1.7-0.6-1.8,0.9-1.8,2.1c0,3-0.1,6,0,9
		c0,5.6,0,10.9-3.3,16c-2,3.1-0.5,7.5-0.7,11.3c-0.1,1.9,0,3.6-2,4.7c-9.2,5.3-16.4,13.5-26.1,18.1c0.7,1.7,1.9,2.8,3.4,2.6
		c6.9-0.9,12.2,3.4,18.4,4.9c1.9,0.5,2.4,1,2.1,2.9c-1.4,9.4-5.6,17.9-10.4,25.8c-5.6,9.2-11.9,18.2-19.2,26.1
		c-12.5,13.6-25.6,26.7-39.9,38.5c-14.7,12.2-29.4,24.2-45.1,35c-1.8,1.2-2.8,3.2-3.7,5.5c-5,11.8-8.8,24-13.8,35.7
		c-2.5,5.7-1.4,11.6-0.8,17.2c0.5,5.5-2.2,8.4-5.9,11.2c-0.9,0.7-1.9,1.3-2.7,2.1c-6,5.7-6,5.7-2.2,12.5c0.5,1,0.8,2.1,1.2,3.2
		c1.1,3.4,2.2,6.3,6.9,3.6c1.8-1,3.4-0.1,4.2,2.5c3.7,11.9,7.8,23.7,11.8,35.5c1.9,5.5,6.9,8.3,10.9,11.7c3.6,3.1,5.5,6.3,5.8,10.8
		c0.3,4.1,0.5,8.3,1.3,12.4c0.7,3.8-0.3,5.9-4,7c-2.6,0.8-5.2,1.8-7.6,2.9c-2.9,1.3-5.4,0.5-7.9-0.9c-1.2-0.7-3.2-2.6-4.2-0.6
		c-0.6,1.3-1.5,3.4-0.1,5.4c2.7,3.8,6.1,7.1,9.7,9.9c7.1,5.6,10.1,13.6,14,21c1.7,3.3,2.8,7.2,5.1,10c4.1,5.3,2,10-0.3,14.7
		c-1.4,2.9-2.8,5.9-3.9,8.9c-1.4,4.2-4.4,5.3-8.1,5.5c-18,1-36,2.4-54,2.6c-6.4,0.1-12.9-2.4-19.2-4.2c-1.6-0.5-3.3-0.6-4.8-0.7
		c-11.1-0.8-9.5-10.1-11.5-16.9c-2.2-7.3-1.8-14.9-2.4-22.3c-0.4-5.6-4.4-10.2-5.1-15.9c-0.9-7-4.2-13.9-1.8-21.2
		c0.5-1.6-0.4-1.4-1.4-1.7c-11.9-2.9-13.3-12.1-11.4-21.5c0.6-3.2-0.2-4.5-2.6-6.3c-12.4-8.9-24.6-18.1-37-27.1
		c-2.5-1.8-2.4-3.3-0.6-5.6c5-6.5,4.8-6.4,11.9-2.2c8.8,5.3,17.8,10.2,27.6,15.8c-1.3-11.1,3.3-20.2,5.8-29.8
		c0.3-1.2-0.4-1.8-0.6-2.7c-2.5-11.1-5.1-22.1-3.3-33.7c0.4-2.8-1.9-5.8-3.8-8.2c-1.8-2.2-2.4-4.6-2.3-7.3c0.4-7-0.9-14.2,2.1-21
		c0.8-1.9-0.3-3.3-2.2-4.3c-6.5-3.7-9.5-9-8.5-16.8c0.6-5.4,0.1-10.9,0.1-17.6c9.2,8.3,20.5,12.9,24.9,24.7c0.5,1.4,0.9,3.4,3.4,2.9
		c2.1-0.4,2.9-2,3.4-3.7c1.4-4.9,2.9-9.8,4-14.7c1.1-4.9,3.9-7.5,8.7-8.4c4-0.8,5.7-4.2,7.6-7.1c4.6-7,9-14.1,13.5-21.1
		c1.2-1.9,1.9-3.2-1.6-3.5c-21.6-1.8-43.2-2.9-64.8-3.2c-9.1-0.1-13.2-4.9-17.8-11.5c14-2.2,27.5-4.2,41-6.5
		c10.3-1.8,20.7-2.9,30.9-5.6c2.8-0.8,3.7-2.3,4.6-4.8c3.8-9.6,5.6-19.9,11.7-28.5c4-5.6,7.8-11.4,11.9-17c1-1.4,1.4-2.2,0.8-4.2
		c-2.2-7-3.5-14.4-5.6-21.4c-0.6-2-0.5-3,0.8-4.2c0.4-0.3,0.7-0.7,0.9-1.2c7.9-11.5,7.9-11.5,16.2-0.4c0.8,1.1,1.2,2.6,2.8,2.3
		c1.5-0.3,1.5-1.9,2.2-3c8.8-14.8,4.2-30.6,3.3-46.1c-0.1-2.6-1.4-4.8-3.1-6.6c-5.6-5.9-9-12.9-10.2-21
		c-2.1-13.7-7.7-26.1-13.9-38.3c-2.9-5.6-5.4-10.9-2.7-17.4c0.9-2.1-1.6-3.4-2.9-4.1c-7.1-3.8-8.9-10.6-9.7-17.5
		c-0.3-2.3-3-5.5-0.9-6.7c2.3-1.4,4.4,2,6.6,3.4c2.2,1.4,4.2,3.2,6.7,4c0.1-0.4,0.5-0.8,0.4-1c-4.5-7.4,0.5-13.2,3.2-19.4
		c2.4-5.4,0.3-11.9-4.9-14.7c-4.2-2.3-8.2-4.7-12.5-6.7c-3-1.4-4.2-3.1-4.9-6.5c-2.5-11.1-5.8-22.1-8.9-33.1c-1.3-4.7-1-5.1,4-4.4
		c13.8,1.9,27.5,4.2,41.4,5.5c5.6,0.5,7.9,3.9,10.3,7.9c2.7,4.5,5.4,9,8,13.6c1.1,2,2.6,3.1,4.8,2.2c10.5-4.7,21-9.6,31.5-14.5
		c0.4-0.2,0.7-0.7,1.5-1.5c-8.6-3.2-16.9-6.5-25.2-9.4c-22.4-7.8-44.9-15.4-67.3-23c-17.9-6.1-35.7-12.1-53.6-18.1
		c-3-1-4.9-2.6-3.2-6.1c0.1-0.1,0.1-0.3,0.1-0.5c1.3-4.2,0.1-11.5,3.1-12.2c4.2-1.1,9.6,2.1,14.4,3.6c0.9,0.3,1.7,1.3,2.6,1.3
		c1.7,0,3.9,2.6,4.7,0.5c0.9-2.4,0.9-6.2-2.6-7.1c-5.9-1.5-11-4.6-16.7-6.4c-3.6-1.1-5.1-2.9-4.7-6.6c0.5-4.7,0.7-9.5,1-14.2
		c0.3-3.3,2.1-1.5,3.4-1c9.5,3.9,19.2,7.5,28.6,11.8c4.7,2.1,7.9,1.1,9.2-3.5c2.2-7.5,6.8-10.2,14.4-10.6c7.3-0.3,14.6-1.7,21.6-3.5
		c9.2-2.4,17.3,0,25.7,3.3c16,6.2,32.2,11.7,48.3,17.6c15.8,5.8,31.7,11.6,47.5,17.4c9.5,3.5,19.1,6.9,28.7,10.4
		c1.9,0.7,3.6,0.1,5.3-0.3c9.2-2.3,18.5-4.2,27.5-7.2c5.6-1.9,10.3-0.3,15.1,1.6c21.8,8.3,43.5,16.8,65.2,25.1
		c12.3,4.7,24.1,10.7,35.2,17.7c9.3,5.9,18.7,6.4,28.7,4.1c4.7-1.1,9.4-1.5,14.1-2.6c2.7-0.6,3.1-1.3,2.1-3.4
		c-5.5-12.2-8-25.2-9.8-38.4c-0.8-6-4.9-9.1-9.6-11.8c-20.2-11.7-40.3-23.4-60.6-35c-4.9-2.8-1.9-5.7-0.1-8.1c2.2-2.9,3-4.1-1.3-6
		c-16.1-7.2-32-15-48-22.6c-15.6-7.4-31.1-14.7-46.7-21.9c-1.3-0.6-3.1-1-2.9-2.6c0.2-1.6,2.1-1.2,3.3-1.3c6-0.7,12-0.9,17.9-1.9
		c6.8-1.2,12.3,2.2,18,4.4c22.1,8.5,44.2,17.3,66.4,25.6c21.8,8.1,43.2,17.1,64.8,25.6c10.7,4.2,21.6,8.2,32.3,12.6
		c1.8,0.7,2.9,0.1,4.1-0.4c9.8-3.6,19.3-8,28.8-12.3c6.9-3,12-1.7,17.9,1c12.7,5.9,25.5,11.6,38.1,17.7c3.7,1.8,6.6,0,9.3-1.2
		c13.3-5.9,27.2-10.2,40.1-16.9c4.9-2.5,10.4-3.8,15.5-5.7c2.2-0.8,4.3,0.3,6.2,0.8c13.9,3.8,27.6,7.9,41.4,12
		c1.8,0.5,3.5,0.8,5.4,0.7c21.4-1.8,42.8-3.6,64.2-5.4c2.6-0.2,4-0.6,5.2-3.8c8.2-21.6,16.9-43,25.4-64.5c0.5-1.2,1.6-0.9,2.2-1.8
		c0.5,0.8,1,1.5,1.4,2.3c8.4,19.8,16.8,39.6,25.3,59.4c0.6,1.3,0.9,2.9,2.7,3.7c6.6-14.6,10.9-30.2,18-44.5c2.1,0.3,1.7,1.8,1.9,2.7
		c1.7,8.5,3.3,17,5,25.5c0.4,1.7,0.1,3.7,1.7,5.1c-0.1,7.6,2.5,14.8,3.6,22.3C834.8,79.6,836,81.9,838.8,83.2z M304.5,443.8
		c-15.1,13.9-19.3,33.4-9.3,44.1c3.3-10.4,6.2-20.6,9.8-30.5C306.6,452.8,305.6,448.7,304.5,443.8z"/>
	<path class="st1" d="M578.5,430.2c-0.6-45.8,16.1-85.5,42.4-122.2c26.4-36.8,54.7-72.1,82.3-107.9c16.4-21.2,33.7-41.7,49.3-63.5
		c2.5-3.5,4.6-7.3,6.7-11.1c4.4-8,5.7-16.1,1.8-24.8c-4.6-10.3-5.4-21.2-4.6-32.3c0.3-4.4,1.3-8.6,3.8-12.2
		c3.6-5.2,8.7-5.6,12.9-0.7c5.5,6.3,7.8,14.1,8.8,22c2.1,15.4,1.5,30.9-1.7,46c-2.7,12.7-10.6,22.8-18.4,32.8
		c-38.3,49-76.6,98-114.9,147c-16.4,20.9-30.9,43-40.8,67.8c-5.1,12.8-9.7,25.8-9.9,39.9c-1.8,7.9-0.9,16-0.8,24
		c0.4,6.7,0.7,13.5,2.9,20c1.2,9.4,3.6,18.3,8.2,26.6c2.8,9.4,8.1,17.5,14.3,24.9c19,22.8,43.3,36.1,72.7,40
		c3.8,0.5,7.5,1.3,11.4,0.9c12.4,2.3,24.7,0.6,36.5-2.4c62.3-15.7,101.8-67,106-128.7c1.9-27.8-1.8-55.2-7.8-82.3
		c-5-22.6-9.7-45.2-14.5-67.8c7.9,3.6,16.1,6.5,22.9,12.1c-0.1,8.3,2.5,16.1,4.3,24c4.7,20,7.9,40.1,10.9,60.4
		c2.1,13.7,3.3,27.3,2.9,41.2c-1,34-9.9,66-29.2,93.8c-22.6,32.6-52.3,56.9-91.8,67c-2.7,0.7-5.6,0.9-8.2,1.8
		c-2.7,0.9-5.5,0.5-8.6,1.2c2.3,3.8,5.9,5.8,9.3,7.6c17.9,9.3,36.9,14,57.1,14.6c23.6,0.6,46.1-3.4,67.3-13.7
		c15.5-7.5,29.9-16.9,43.5-27.5c16.1-12.6,30.9-26.8,45.6-41c15-14.6,30-29.2,45-43.7c18.5-18,36.9-36.2,55.7-53.9
		c12-11.3,23.1-23.5,36.6-33.1c8.2-5.8,17.4-9,27.3-10.2c2.9-0.4,4.8-1.8,6.3-4.1c11.2-18.7,34.5-22.7,50.8-8.7
		c8.8,7.5,11.9,25.6,7,36.3c-5.9,12.9-16,19-29.8,18.9c-14-0.1-23.5-7.8-29.6-19.9c-1.7-3.3-4.8-3.6-10.9-1c-6.4,2.7-11.9,7-17,11.4
		c-26.1,22.9-50.2,47.9-75.2,72c-16.9,16.3-34.1,32.2-50.8,48.7c-17.4,17.2-35.9,33.3-55.2,48.1c-15.2,11.7-32,20.8-50.1,27.7
		c-11,4.2-22.6,5.9-34,8.6c-10.2,2.4-20.5,2.3-30.6,3.2c-7.9,0.7-16.1-0.4-24-1.8c-12.6-2.1-25.1-5.3-36.7-10.8
		c-8.4-4-16-9.2-23.8-14.1c-0.2-0.3-0.4-0.5-0.6-0.8c0,0,0,0,0,0c-2.3-4-6.5-6.1-9.3-9.5c-2.3-2.9-5.2-4.2-8.9-4.8
		c-12-2-23.5-5.8-34.7-10.5c-29.2-12.4-52.1-31.5-66.1-60.6c-4.6-9.6-7.5-19.8-10.4-30C579.8,453.4,578.1,441.9,578.5,430.2z"/>
	<path class="st0" d="M582.3,464.7c2.9,10.2,5.8,20.4,10.4,30c13.9,29,36.9,48.2,66.1,60.6c11.2,4.8,22.7,8.5,34.7,10.5
		c3.7,0.6,6.6,2,8.9,4.8c2.8,3.5,7,5.6,9.3,9.5c-7.1-2.2-14.6-3-21.4-6.5c-2.1-1.1-3.7-1.3-3.5,2.2c1.1,19,1.8,37.9,3.2,56.9
		c0.5,6.2,4.5,11.5,7.2,17c7.4,15.2,15,30.3,22.4,45.4c2.7,5.5,8.4,7.8,12.7,11.3c9.9,7.9,17,18.1,25.5,27.2c1.3,1.5,2.6,3,3.8,4.6
		c1,1.3,1.2,2.4-0.2,3.8c-4.9,4.7-4.7,5.5,1.2,9.2c-2.8,1.8-5.4,3.6-8.2,5.3c-4.5,2.6-8.6-0.1-12.7-1.1c-6.2-1.6-12.2-3.6-18.4-5.1
		c-1.4-0.3-3.9-1.7-4.7,0.9c-0.7,2.1,1,3.6,2.4,5c3.6,3.4,7.2,6.8,10.9,10.1c1.5,1.3,2.6,3.1,2.4,4.6c-0.6,5.3,2.5,5.1,6.1,4.5
		c1-0.2,2-0.2,3-0.1c3.5,0.3,7.4-2,10.5,0.3c5.9,4.4,9.3,10.4,11.7,17.6c3,9-2,15.8-3.9,23.6c-1.4,6-5.1,6.3-9.8,6.5
		c-10.5,0.5-21,2.4-31.3,1.6c-11.2-0.9-22.4-1.9-33.6-2.9c-2.2-0.2-4.4-0.7-6.5-0.4c-7.3,0.9-11-2.8-13.2-9.3
		c-3-8.7-8.4-16.4-11.5-25.2c-0.5-1.4-1.8-2.6-3.5-3.1c-4.6-1.4-7-5.1-9.4-9c-7.6-12.5-12.1-26.2-17-39.9c-0.7-2-1-4.1-3.3-5
		c-7.8-3.2-7.7-10.8-9.8-17.3c-0.4-1.1,0.1-1.8,0.8-2.6c3.8-4,2.1-5.6-2.3-8c-12.3-6.6-24-14.1-36.2-20.9c-5-2.8-3.2-5.6-1.3-9.1
		c2.3-4.3,4.7-2.1,7.4-0.7c6.7,3.5,13.5,6.8,20.2,10.2c2.2,1.1,2.9-0.2,3.7-1.8c2.4-4.8,4.9-9.6,7.1-14.5c0.9-1.9,0.8-3.8-0.3-6
		c-2.1-4.2-3.9-8.6-5-13.1c-0.6-2.5-2-3.5-3.8-4.5c-3.5-2-7.2-3.8-10.7-5.9c-1.9-1.2-3.4-2.5-3.8-5.3c-0.8-5-2.6-9.8-3.8-14.7
		c-0.2-0.8-1.8-1.6-0.4-2.4c0.7-0.4,2.2-0.4,2.8,0c7.8,5.2,16.5,8.6,24.5,13.5c3.5,2.1,4.5,6.4,8.1,10c-1.1-11.5-1.9-22.2-3.2-32.8
		c-0.8-6.5-1.8-12.9-1.9-19.6c-0.1-8.3-1.6-16.6-1.8-24.9c-0.2-10-7.4-15.6-13.2-22.1c-3.5-3.9-7.3-7.6-10.8-11.5
		c-1.9-2-3-4.2-3.1-7.4c-0.1-6.6,0-13.4-1.9-19.8c-0.7-2.3,0.5-3.8,2.2-4.4c3.2-1.3,2.7-3,1.4-5.3c-4-6.8-5.5-14.4-6.5-22.1
		C580.9,466.4,580.7,465.1,582.3,464.7z"/>
	<path class="st1" d="M838.8,83.2c-2.8-1.3-3.9-3.5-4.4-6.6c-1.1-7.4-3.7-14.6-3.6-22.3c3.8-2.5,8-3.8,11.8-1
		c4.9,3.7,3.5,9.5,2.4,14.3C843.7,73,840.9,78,838.8,83.2z"/>
	<path class="st0" d="M711.7,580.3c0.2,0.3,0.4,0.5,0.6,0.8C712.1,580.8,711.9,580.6,711.7,580.3z"/>
</g>
</svg>
