<?xml version="1.0" encoding="utf-8"?>
<!-- Generator: Adobe Illustrator 21.1.0, SVG Export Plug-In . SVG Version: 6.00 Build 0)  -->
<svg version="1.1" id="secure-development_xA0_Image_1_"
	 xmlns="http://www.w3.org/2000/svg" xmlns:xlink="http://www.w3.org/1999/xlink" x="0px" y="0px" viewBox="0 0 816.1 1067.2"
	 style="enable-background:new 0 0 816.1 1067.2;" xml:space="preserve">
<style type="text/css">
	.st0{fill:#211550;}
	.st1{fill:#05CC7A;}
</style>
<g>
	<path class="st0" d="M404.5,0C459,0.2,510,1.4,560.9,5c66,4.7,131.6,12.1,196,27.9c18.7,4.6,37.3,9.9,55.2,17.1
		c2.4,1,4.1,1.9,4.1,5.2c-0.2,58-1.8,116-5.4,173.8c-4.9,78.3-13.2,156.3-26.7,233.6c-17.7,100.7-43.2,199.1-83.9,293.2
		c-28.5,66-63.7,128.1-110.3,183.2c-37.1,43.9-79.4,81.6-130.7,108.4c-14.9,7.8-30.3,14.3-46.6,19c-3.1,0.9-6,0.9-9.1,0
		c-33.1-9.7-62.8-26.2-90.7-46.2c-54-38.9-96.8-88.3-132.9-143.7c-43.1-66.2-74.3-138-98.8-212.9C58.9,595.6,42.8,526,30.9,455.4
		c-10-59.1-17.1-118.6-22-178.4C2.9,203.6,0.4,130,0,56.3c0-3.6,1.2-5.2,4.4-6.5c27.8-10.9,56.7-18,85.9-23.9
		C142,15.6,194.2,9.7,246.7,5.7C300.4,1.7,354.2,0.3,404.5,0z M350,305.8c0.9-21-7.5-35.8-23.4-46.7c-12.4-8.5-26.5-12.3-40.9-15
		c-7.8-1.5-15.8-2.4-23.8-1.9c-1.6,0.1-3.6,0.1-4.5,1.7c-1,2,1,3,2.1,4c6.7,6.5,13.4,12.9,20.1,19.5c6.5,6.4,13.7,12.3,19.4,19.5
		c6,7.6,5.3,13.7-1.1,21c-9.2,10.5-21.4,14.7-34.3,18.1c-9.2,2.4-17,0.9-23.5-6.5c-2.5-2.9-5.5-5.4-8.2-8
		c-7.3-7.1-13.9-14.9-21.9-21.2c-8.1-6.4-10.6-5.3-12.2,5c-4,25.7,9.4,52.9,32.9,66.1c14.9,8.3,31.5,11.3,48,14.6
		c6,1.2,11.4,3.3,14.9,8.9c17.7,28.2,35.4,56.4,53.3,84.5c1.6,2.5,1.4,4-1,5.7c-7.1,5.2-14.1,10.6-21.1,16
		c-45.6,34.7-91.2,69.5-136.8,104.1c-2.4,1.8-3.2,2.9-0.9,5.7c10.2,13,20.1,26.2,30,39.4c2,2.7,3.4,3.2,6.3,1
		c19.5-15.1,39.2-29.9,58.8-44.9c31-23.6,62.1-47.2,93-70.9c3.8-2.9,5.8-2.9,8.1,1.6c2.7,5.3,6.3,10.2,9.5,15.3
		c11,17.5,21.9,35,33.1,52.4c3.7,5.8,4.9,11.2,1.4,17.7c-4.3,8.1-7.4,16.7-9.8,25.6c-4.3,15.8-3.5,31,7.4,43.9
		c10.8,12.8,23.9,23.1,38.6,31.3c2.9,1.6,6.3,3.4,9.3,1c3-2.4,1.8-6.1,1.1-9.4c-0.2-0.8-0.5-1.6-0.8-2.4c-4.3-13.1-8.5-26.3-13-39.4
		c-1.3-3.9-0.8-7.2,2.2-9.4c15.6-11.9,32.2-20.4,53-16.4c7.7,1.5,11.8,5.5,13.8,12.4c2.8,9.4,5.3,18.9,8,28.3
		c1.9,6.7,3.4,13.6,6.5,19.9c2.1,4.2,3.9,4.4,6.8,0.6c6.1-7.9,11.8-16.2,16-25.3c6.3-13.7,8.3-27.6,1.6-41.9
		c-3.8-8.2-9.9-14.6-16.5-20.4c-10.4-9.1-22.9-14.8-35.6-19.8c-14.7-5.8-26.7-14.7-35.3-28.1c-16-25-31.9-50-48.1-74.8
		c-2.1-3.3-1.9-5,1.4-7.4c28.1-21.1,55.9-42.6,84-63.7c4-3,4.9-5.1,1.3-8.8c-1.1-1.2-3.4-2.7-0.6-4.9c11-8.4,21.7-17,35.4-21
		c25.1-7.4,44.8,0.7,56.9,23.9c5,9.5,8,19.7,10.3,30.2c4.6,20.9,4.4,42.3,6.8,63.5c1.1,9.9,2,19.9,5.2,29.4c0.5,1.6,1.1,3.4,3,3.6
		c1.9,0.2,2.3-1.7,2.9-3c16.4-32.3,28.9-65.8,32.4-102.2c1.5-15.5,1.3-31.1-3.6-46c-6.8-20.4-14.9-40.3-25.1-59.3
		c-7.4-13.9-15.6-27.2-27.5-37.8c-5-4.5-10.5-8.2-17.6-8.6c-35.2-1.7-58-34.7-46.9-68.2c0.9-2.6,0.3-4.2-1.2-6.2
		c-9.2-11.7-18.3-23.3-27.2-35.2c-2.1-2.8-3.9-3.3-7.1-2.4c-33,8.8-58,28.2-75.7,57.3c-1.4,2.4-1.5,3.9,0.3,6.1
		c9.6,11.9,19.1,24,28.4,36.1c1.7,2.2,2.9,2.3,5.3,1c7.9-4.4,15.9-3.9,23,1.5c12.9,9.8,23.3,21.8,30.9,36.2
		c6,11.4,7.8,22.9,1.3,34.8c-8,14.7-20,25.6-32.8,35.9c-2,1.6-3.4,1-4.5-0.9c-2.8-5.3-5.6-3.9-9.5-0.8c-26.5,20.5-53.2,40.6-79.8,61
		c-2.3,1.8-3.9,2.6-5.9-0.6c-13.1-20.7-26.4-41.2-39.3-62c-8-12.9-12.1-26.9-9.1-42.4C349.4,319.7,350,312,350,305.8z"/>
	<path class="st1" d="M350,305.8c0,6.2-0.6,13.9-2.1,21.4c-3.1,15.5,1.1,29.5,9.1,42.4c12.9,20.8,26.3,41.3,39.3,62
		c2,3.1,3.6,2.3,5.9,0.6c26.6-20.3,53.3-40.5,79.8-61c3.9-3,6.7-4.4,9.5,0.8c1,1.9,2.5,2.5,4.5,0.9c12.8-10.2,24.8-21.2,32.8-35.9
		c6.5-11.9,4.7-23.4-1.3-34.8c-7.6-14.4-17.9-26.4-30.9-36.2c-7.1-5.4-15.1-5.9-23-1.5c-2.4,1.3-3.6,1.1-5.3-1
		c-9.4-12.1-18.8-24.2-28.4-36.1c-1.8-2.2-1.8-3.7-0.3-6.1c17.7-29.1,42.6-48.5,75.7-57.3c3.1-0.8,5-0.3,7.1,2.4
		c8.9,11.9,18,23.6,27.2,35.2c1.6,2,2.1,3.6,1.2,6.2c-11.1,33.5,11.6,66.5,46.9,68.2c7.1,0.3,12.5,4.1,17.6,8.6
		c11.9,10.6,20.1,23.9,27.5,37.8c10.1,19,18.3,38.9,25.1,59.3c4.9,14.9,5.1,30.5,3.6,46c-3.5,36.4-16,69.9-32.4,102.2
		c-0.7,1.3-1,3.1-2.9,3c-1.9-0.2-2.5-2-3-3.6c-3.2-9.6-4-19.5-5.2-29.4c-2.4-21.1-2.2-42.6-6.8-63.5c-2.3-10.4-5.3-20.6-10.3-30.2
		C598.7,383,579.1,375,554,382.3c-13.7,4-24.4,12.6-35.4,21c-2.8,2.1-0.5,3.7,0.6,4.9c3.6,3.7,2.8,5.8-1.3,8.8
		c-28.1,21.1-56,42.6-84,63.7c-3.3,2.5-3.5,4.1-1.4,7.4c16.1,24.9,32.1,49.9,48.1,74.8c8.6,13.4,20.6,22.3,35.3,28.1
		c12.7,5,25.3,10.6,35.6,19.8c6.6,5.8,12.7,12.2,16.5,20.4c6.7,14.3,4.7,28.2-1.6,41.9c-4.2,9.1-9.9,17.3-16,25.3
		c-2.9,3.8-4.7,3.7-6.8-0.6c-3.1-6.3-4.6-13.2-6.5-19.9c-2.7-9.4-5.3-18.9-8-28.3c-2-6.9-6.1-10.9-13.8-12.4
		c-20.8-4-37.4,4.5-53,16.4c-3,2.3-3.5,5.5-2.2,9.4c4.5,13.1,8.7,26.2,13,39.4c0.3,0.8,0.6,1.6,0.8,2.4c0.8,3.3,1.9,6.9-1.1,9.4
		c-3,2.4-6.5,0.7-9.3-1c-14.7-8.2-27.8-18.6-38.6-31.3c-10.9-12.9-11.7-28.1-7.4-43.9c2.4-8.9,5.5-17.5,9.8-25.6
		c3.5-6.5,2.3-11.9-1.4-17.7c-11.1-17.4-22.1-34.9-33.1-52.4c-3.2-5.1-6.7-10-9.5-15.3c-2.3-4.5-4.3-4.5-8.1-1.6
		c-30.9,23.7-62,47.3-93,70.9c-19.6,14.9-39.3,29.8-58.8,44.9c-2.9,2.2-4.3,1.7-6.3-1c-9.9-13.2-19.8-26.4-30-39.4
		c-2.2-2.8-1.5-3.9,0.9-5.7c45.6-34.7,91.2-69.4,136.8-104.1c7-5.3,14-10.8,21.1-16c2.4-1.8,2.6-3.2,1-5.7
		c-17.8-28.1-35.6-56.3-53.3-84.5c-3.5-5.6-8.9-7.7-14.9-8.9c-16.5-3.3-33.1-6.3-48-14.6c-23.6-13.2-36.9-40.4-32.9-66.1
		c1.6-10.3,4.1-11.4,12.2-5c8,6.3,14.6,14.1,21.9,21.2c2.7,2.7,5.7,5.2,8.2,8c6.4,7.4,14.2,8.9,23.5,6.5
		c12.9-3.4,25.1-7.6,34.3-18.1c6.4-7.3,7.1-13.4,1.1-21c-5.7-7.2-12.8-13.1-19.4-19.5c-6.7-6.5-13.5-12.9-20.1-19.5
		c-1.1-1.1-3.1-2.1-2.1-4c0.8-1.6,2.9-1.6,4.5-1.7c8-0.5,16,0.4,23.8,1.9c14.4,2.8,28.6,6.5,40.9,15
		C342.5,270,350.9,284.8,350,305.8z"/>
</g>
</svg>
