<?xml version="1.0" encoding="utf-8"?>
<!-- Generator: Adobe Illustrator 21.1.0, SVG Export Plug-In . SVG Version: 6.00 Build 0)  -->
<svg version="1.1" id="Layer_1" xmlns="http://www.w3.org/2000/svg" xmlns:xlink="http://www.w3.org/1999/xlink" x="0px" y="0px"
	 viewBox="0 0 496.8 498" style="enable-background:new 0 0 496.8 498;" xml:space="preserve">
<style type="text/css">
	.st0{fill:#04CD7B;}
</style>
<g>
	<path class="st0" d="M248.2,0c0.7,0.4,1.2,0.7,1.7,1.2c0.9,0.8,1.7,1.6,2.5,2.4C333,84.2,413.6,164.8,494.3,245.3
		c3.4,3.4,3.4,5,0,8.4C413.6,334.3,333,414.9,252.4,495.6c-3.3,3.3-4.9,3.1-8.1-0.1C163.9,414.8,83.3,334.2,2.6,253.7
		c-3.4-3.4-3.4-5,0-8.4C83.3,164.8,163.9,84.1,244.5,3.5C245.6,2.4,246.9,1.3,248.2,0z M471.5,249.4c-1.2-1.3-2.3-2.5-3.4-3.7
		C396.2,173.9,324.3,102,252.5,30.1c-3.3-3.3-4.9-3.1-8,0.1c-71.8,72-143.6,143.8-215.6,215.6c-3.4,3.4-2.9,5,0.2,8
		c71.4,72.1,143.2,143.8,215.2,215.3c3.3,3.3,4.9,3.1,8-0.1c60.3-60.5,120.8-120.9,181.2-181.4c11.7-11.7,23.3-23.3,35-35
		C469.5,251.6,470.3,250.6,471.5,249.4z"/>
	<path class="st0" d="M310.3,372.8c-1.5-0.1-2.1-1.2-2.8-2c-18.9-18.8-37.7-37.8-56.7-56.5c-2.6-2.6-1.8-3.7,0.3-5.8
		c18.7-18.6,37.2-37.3,56-55.8c2.5-2.4,2.5-3.7,0-6.1c-18.9-18.6-37.6-37.4-56.2-56.2c-2.4-2.4-3.6-2.7-6.1-0.1
		c-18.6,18.9-37.3,37.6-56.2,56.2c-2.9,2.8-2.2,4.2,0.3,6.6c18.6,18.4,37,37,55.6,55.4c2.9,2.8,2.6,4.2-0.1,6.8
		c-18.6,18.4-37.1,36.9-55.5,55.5c-2.7,2.7-4,2.6-6.6,0c-18.5-18.7-37.1-37.4-55.9-55.9c-2.5-2.5-2.5-3.7,0-6.1
		c18.6-18.4,37-37,55.7-55.3c3.3-3.2,2.8-4.7-0.2-7.7c-18.5-18.2-36.8-36.8-55.3-55c-2.6-2.6-2.8-3.9,0-6.6
		c18.6-18.4,37.1-36.9,55.5-55.5c2.7-2.7,4.1-3,6.9-0.1c18.4,18.6,37,37,55.4,55.7c2.8,2.9,4.2,2.6,6.9-0.1
		c18.4-18.6,37-37,55.4-55.6c2.4-2.5,3.6-3,6.4-0.2c18.5,18.8,37.1,37.4,55.8,55.9c2.8,2.7,2.4,4.1-0.1,6.6
		c-18.7,18.5-37.3,37.2-56,55.7c-2.5,2.4-2.5,3.7,0,6.2c18.6,18.4,37,37,55.6,55.4c2.4,2.4,3.2,3.7,0.3,6.6
		c-18.8,18.5-37.3,37.2-55.9,55.8C311.9,371.2,311,372,310.3,372.8z M345.2,311.5c-0.8-0.9-1.4-1.6-2.1-2.3
		c-10.2-10.2-20.5-20.4-30.7-30.8c-1.9-2-3.1-2.1-5.1-0.1c-10.1,10.3-20.4,20.6-30.7,30.7c-1.8,1.8-2,2.9-0.1,4.7
		c10.3,10.1,20.6,20.4,30.7,30.7c1.9,2,3.1,2.2,5.1,0.1c10.1-10.3,20.4-20.5,30.7-30.8C343.8,313.2,344.4,312.4,345.2,311.5z
		 M292.8,216.3c0.8-0.7,1.6-1.3,2.3-2c3-2.9,5.9-5.9,8.8-8.8c6-6,6-6,12-0.1c3.4,3.4,6.9,9.3,10.4,9.3c4.4,0,7.3-6.5,11.2-9.7
		c2.1-1.8,1.8-3-0.1-4.7c-4-3.8-7.7-7.8-11.7-11.6c-2-1.9-2.3-3-0.1-5c4.4-4.1,8.5-8.5,12.8-12.6c1.4-1.4,2-2.3,0.2-4
		c-3.3-3.1-6.4-6.3-9.5-9.5c-1.5-1.5-2.5-1.7-4,0c-2.9,3.2-6.1,6.2-9.1,9.2c-6.1,6.1-6,6-12,0.2c-3.6-3.4-6.7-9.9-10.8-9.4
		c-3.9,0.4-7.2,6.3-10.8,9.8c-0.1,0.1-0.2,0.3-0.4,0.4c-1.7,1.3-1.7,2.5-0.1,4c2.8,2.6,5.4,5.4,8.2,8.1c6.5,6.5,6.4,6.4-0.1,13.1
		c-3.4,3.5-9.9,6.8-9.3,10.7c0.6,4.2,6.5,7.5,10.1,11.2C291.3,215.2,292,215.7,292.8,216.3z"/>
</g>
</svg>
