<?xml version="1.0" encoding="utf-8"?>
<!-- Generator: Adobe Illustrator 21.1.0, SVG Export Plug-In . SVG Version: 6.00 Build 0)  -->
<svg version="1.1" id="Layer_1" xmlns="http://www.w3.org/2000/svg" xmlns:xlink="http://www.w3.org/1999/xlink" x="0px" y="0px"
	 viewBox="0 0 498.8 499.6" style="enable-background:new 0 0 498.8 499.6;" xml:space="preserve">
<style type="text/css">
	.st0{fill:#05CD7B;}
</style>
<g>
	<path class="st0" d="M248.8,499.6c-19.6-19.7-39.2-39.4-59-58.9c-3.1-3-2.8-4.4,0.1-7.2c18.6-18.3,37.1-36.8,55.4-55.4
		c2.8-2.8,4.3-2.7,7,0.1c18.5,18.7,37.1,37.3,55.8,55.8c2.6,2.6,2.7,3.9,0,6.5c-18.5,18.2-36.8,36.6-55.1,55c-1.2,1.2-3.1,2-3.2,4.1
		C249.5,499.6,249.2,499.6,248.8,499.6z M279.9,437.1c-0.6-0.7-1.1-1.4-1.7-2c-9.1-9.1-18.2-18.1-27.1-27.2c-2-2.1-3.2-1.3-4.8,0.3
		c-8.8,8.9-17.6,17.7-26.5,26.5c-1.8,1.8-1.9,2.8,0,4.7c8.9,8.7,17.8,17.6,26.5,26.5c2,2,3.1,2.1,5.2,0c8.7-8.9,17.6-17.7,26.4-26.5
		C278.5,438.7,279.2,438,279.9,437.1z"/>
	<path class="st0" d="M498.8,249.6c-19.1,19-38.3,38-57.4,57c-5.1,5.1-5.1,5.1-10.2,0c-18-18-36-36.1-54.1-54
		c-2.4-2.4-3.2-3.6-0.3-6.5c19-18.7,37.8-37.5,56.6-56.5c2.3-2.3,3.5-2.3,5.8,0c18.4,18.6,36.9,37.1,55.4,55.5
		c1.2,1.2,2.1,3,4.1,3.4C498.8,248.9,498.8,249.3,498.8,249.6z M467.4,249.2c-0.5-0.6-1-1.1-1.4-1.6c-9.3-9.3-18.6-18.5-27.8-27.9
		c-1.8-1.8-2.7-0.8-4,0.5c-9,9.1-18.1,18.2-27.2,27.1c-1.5,1.5-1.6,2.5-0.1,4c9.2,9.1,18.4,18.3,27.5,27.5c1.6,1.6,2.5,1.4,4-0.1
		c9.1-9.2,18.3-18.4,27.5-27.5C466.4,250.6,466.9,249.9,467.4,249.2z"/>
	<path class="st0" d="M342.3,405.4c-0.8-0.7-1.6-1.4-2.3-2.1c-19.3-19.3-38.6-38.6-58-57.9c-1.9-1.9-1.6-2.9,0.1-4.6
		c19.3-19.1,38.5-38.3,57.6-57.6c1.9-2,3-2.2,5-0.1c19.1,19.3,38.3,38.5,57.6,57.6c2.2,2.1,1.7,3.2-0.2,5
		c-19.3,19.1-38.4,38.4-57.6,57.6C343.8,404,343.1,404.7,342.3,405.4z"/>
	<path class="st0" d="M217,156.4c-0.6,0.6-1.2,1.4-1.9,2.1c-19.2,19.2-38.4,38.3-57.5,57.6c-2.2,2.2-3.2,1.7-5-0.2
		c-19.1-19.2-38.3-38.4-57.6-57.6c-1.8-1.8-1.9-2.8-0.1-4.6c19.4-19.2,38.7-38.5,57.9-57.9c1.8-1.9,2.9-1.8,4.7,0
		c19.1,19.3,38.3,38.4,57.5,57.6C215.8,154.3,216.8,154.9,217,156.4z"/>
	<path class="st0" d="M155.3,405.5c-0.8-0.6-1.6-1.2-2.3-1.9c-19.4-19.4-38.9-38.9-58.4-58.3c-1.8-1.8-1.4-2.8,0.2-4.3
		c19.3-19.1,38.5-38.3,57.6-57.6c1.9-1.9,3-2.3,5.1-0.2c19.1,19.3,38.3,38.5,57.6,57.6c1.9,1.9,1.9,2.9,0,4.8
		c-19.4,19.3-38.6,38.6-58,57.9C156.7,404.2,156,404.8,155.3,405.5z"/>
	<path class="st0" d="M248.7,311.2c-0.6-0.6-1.4-1.2-2.1-1.9c-19.2-19.2-38.4-38.4-57.6-57.6c-1.7-1.7-2.1-2.7-0.1-4.7
		c19.3-19.1,38.5-38.3,57.6-57.6c1.9-1.9,3-2.3,5.1-0.1c19.1,19.3,38.3,38.5,57.6,57.6c1.8,1.8,1.9,2.9,0,4.8
		c-19.4,19.3-38.7,38.6-58,57.9C250.6,310.3,250.1,311.3,248.7,311.2z M249.2,218.3c-0.8,0.7-1.7,1.3-2.3,1.9
		c-9,8.9-17.8,18-26.9,26.8c-2,2-1.5,3.1,0.2,4.7c8.9,8.8,17.8,17.6,26.5,26.5c2,2.1,3.2,1.9,5.1-0.1c8.6-8.8,17.3-17.5,26.1-26.2
		c1.9-1.9,2.4-3,0.2-5.1c-9-8.7-17.7-17.6-26.5-26.4C250.8,219.7,250.1,219.1,249.2,218.3z"/>
	<path class="st0" d="M404.6,155.9c-0.7,0.8-1.3,1.5-2,2.2c-19.3,19.3-38.6,38.6-57.9,57.9c-1.9,1.9-3,1.7-4.7-0.1
		c-19.2-19.4-38.5-38.7-57.9-57.9c-1.8-1.8-1.6-2.7,0-4.3c19.5-19.4,38.9-38.8,58.3-58.2c1.4-1.4,2.2-1.9,3.9-0.2
		c19.5,19.6,39,39.1,58.6,58.6C403.4,154.4,403.9,155.1,404.6,155.9z M342.4,124.7c-0.8,0.7-1.6,1.2-2.2,1.9
		c-8.9,8.9-17.8,18-26.9,26.8c-2.2,2.1-1.7,3.2,0.2,5.1c8.8,8.6,17.5,17.3,26.1,26.1c2.2,2.3,3.4,2.1,5.5,0
		c8.6-8.8,17.3-17.5,26.1-26.1c2-1.9,2.2-3,0.1-5.1c-8.9-8.7-17.7-17.6-26.5-26.4C344.1,126.2,343.4,125.6,342.4,124.7z"/>
	<path class="st0" d="M123.4,249.6c-1,1.1-1.7,2-2.5,2.8c-18.9,19-37.9,37.9-56.8,56.9c-2,2-3.1,2.5-5.4,0.2
		c-18.8-19.1-37.8-38-56.8-56.9c-2.2-2.2-2.7-3.4-0.2-5.9c19.1-18.8,38-37.8,56.9-56.8c2-2,3.1-2.5,5.4-0.2
		c19,19.2,38.1,38.2,57.1,57.3C121.9,247.8,122.6,248.7,123.4,249.6z M91.7,231c-0.7-0.8-1.2-1.5-1.8-2.1c-3-3.1-6.2-6.1-9.1-9.2
		c-1.6-1.8-2.7-1.7-4.3,0c-3.9,4.1-8.2,7.8-11.9,12.1c-2.6,3-4.1,2.5-6.5-0.2c-3.5-4-7.5-7.5-11.2-11.4c-1.4-1.4-2.4-2-4-0.2
		c-3.1,3.3-6.3,6.5-9.5,9.5c-1.6,1.5-1.6,2.6,0,4c2.8,2.6,5.4,5.4,8.2,8.1c6.5,6.5,6.4,6.4,0,13.1c-3.4,3.5-10,6.9-9.5,10.7
		c0.5,4.1,6.5,7.4,10,11.3c1.6,1.8,2.7,1.8,4.4,0c4-4.2,8.4-8.1,12.3-12.5c2.3-2.6,3.6-2.2,5.7,0.1c3.6,3.9,7.6,7.5,11.2,11.4
		c1.7,1.8,2.9,2.3,4.8,0.2c2.8-3.1,5.7-6.1,8.8-8.8c2-1.8,1.8-3-0.1-4.8c-4.1-3.9-8-8.1-12.1-11.9c-2-1.8-1.7-2.9,0.1-4.7
		c4.2-4,8.3-8.2,12.4-12.3C90.2,232.8,90.9,231.9,91.7,231z"/>
	<path class="st0" d="M248.9,0c0.9,0.8,1.7,1.4,2.3,2c19.3,19.3,38.6,38.6,58,57.9c1.7,1.7,1.7,2.6,0,4.3
		c-19.4,19.3-38.7,38.6-57.9,57.9c-1.8,1.8-2.9,1.9-4.8,0c-19.3-19.4-38.6-38.7-57.9-57.9c-1.7-1.7-1.8-2.6,0-4.3
		c19.4-19.2,38.7-38.6,58-57.9C247.2,1.4,247.9,0.8,248.9,0z M235.9,61.5c-2.5,2-4.9,3.7-7,5.8c-3.5,3.5-9.9,6.8-9.6,10.7
		c0.3,3.8,6.3,7.1,9.7,10.9c1.8,2.1,3.1,2.3,5.1,0.1c4-4.3,8.3-8.2,12.3-12.5c2-2.2,3.2-1.9,5.1,0.1c3.9,4.1,8,8,12,12.1
		c1.5,1.6,2.5,1.6,4,0c3-3.2,6-6.3,9.2-9.2c2-1.8,1.7-3-0.1-4.7c-4-3.8-7.7-7.8-11.7-11.6c-2-1.9-2.3-3.1-0.1-5.1
		c4.3-4,8.2-8.3,12.5-12.3c1.8-1.7,2.2-2.9,0.1-4.8c-3.1-2.8-6.1-5.7-8.8-8.8c-1.8-2.1-3-1.7-4.8,0.1c-4,4.2-8.3,8.2-12.3,12.4
		c-2,2.2-3.3,1.9-5.2-0.1c-3.7-4-7.8-7.7-11.6-11.7c-1.7-1.8-2.8-2.2-4.7-0.2c-2.8,3.1-5.8,6-8.8,8.8c-1.9,1.7-2,2.9-0.1,4.7
		c4,3.7,7.8,7.7,11.7,11.6C233.5,58.9,234.3,59.7,235.9,61.5z"/>
</g>
</svg>
