<?xml version="1.0" encoding="utf-8"?>
<!-- Generator: Adobe Illustrator 21.1.0, SVG Export Plug-In . SVG Version: 6.00 Build 0)  -->
<svg version="1.1" id="Layer_1" xmlns="http://www.w3.org/2000/svg" xmlns:xlink="http://www.w3.org/1999/xlink" x="0px" y="0px"
	 viewBox="0 0 500 500" style="enable-background:new 0 0 500 500;" xml:space="preserve">
<style type="text/css">
	.st0{fill:#04CD7B;}
</style>
<g>
	<path class="st0" d="M501,252c-2.2,0.1-2.9,2-4.2,3.2c-18.4,18.3-36.8,36.7-55.1,55.2c-2.5,2.6-3.9,3.3-6.9,0.2
		c-18.6-18.9-37.3-37.6-56.2-56.2c-2.6-2.6-2.8-3.9-0.1-6.6c19-18.7,37.8-37.6,56.6-56.6c2.5-2.6,3.8-2.3,6.2,0.1
		c18.4,18.6,36.9,37.1,55.5,55.5c1.2,1.2,2,3.2,4.2,3.1C501,250.7,501,251.3,501,252z M474,251.1c-0.6-0.7-1.1-1.4-1.6-1.9
		c-10.8-10.8-21.7-21.6-32.5-32.5c-1.8-1.9-2.7-0.8-4,0.4c-10.5,10.5-20.9,21-31.5,31.4c-2.1,2-1.9,3.2,0.1,5.2
		c10.4,10.3,20.8,20.6,31.1,31.1c2,2.1,3.2,1.8,5.1-0.1c10.3-10.4,20.7-20.8,31-31.1C472.6,252.8,473.2,252.1,474,251.1z"/>
	<path class="st0" d="M260.2,157c0,8.8-0.1,17.7-0.1,26.5c0,65.3,0,130.6-0.1,196c0,4,0.9,7,4,9.6c3.2,2.7,6.1,5.7,8.8,8.8
		c2.1,2.5,3.4,1.9,5.4-0.1c22.1-22.2,44.2-44.4,66.5-66.4c2.5-2.5,2-3.7-0.2-5.8c-3.8-3.4-7.3-7.1-11.8-11.6c14.6,0,27.9,0,41.1,0
		c1.7,0,2.3,0.7,2.3,2.4c0,13.2,0,26.5,0,41c-4.9-5-9.1-9-13-13.2c-1.9-2-3-2.2-5.1-0.1c-22.2,22.4-44.4,44.6-66.8,66.8
		c-2.2,2.1-2.3,3.3,0,5.5c6.5,6.2,12.7,12.8,19.2,19c2.4,2.2,2.9,3.5,0.2,6.1c-19,18.7-37.8,37.6-56.6,56.5
		c-2.2,2.2-3.4,2.7-5.9,0.2c-18.8-19.1-37.8-38.1-56.9-56.9c-2.1-2.1-2.4-3.2-0.1-5.4c7-6.7,13.7-13.7,20.6-20.4
		c2-1.9,2.1-3,0.1-5.1c-32.8-32.7-65.6-65.5-98.2-98.3c-2.3-2.3-3.5-2-5.5,0.2c-3.8,4.2-7.8,8.1-12.6,13c0-14.8,0-28.3,0-41.7
		c-2.4-0.6-3,1.1-4,2.1c-8.5,8.4-17.1,16.9-25.4,25.5c-1.9,2-3,2.2-5.1,0.1c-19-19.2-38.1-38.3-57.3-57.3c-2.2-2.2-2.2-3.4,0-5.5
		C22.9,229.2,42,210.2,61,191c2.1-2.1,3.1-1.8,5,0.1c19,19.2,38.1,38.3,57.3,57.2c2.3,2.3,2,3.4-0.1,5.5c-8,7.8-15.9,15.7-23.7,23.7
		c-1.1,1.1-2.7,2-3.2,4.2c13.7,0,27.3,0,42.2,0c-4.5,4.6-8.1,8.4-11.9,12c-1.9,1.8-2.5,2.8-0.3,5.1c32.8,32.7,65.6,65.5,98.2,98.3
		c2.2,2.2,3.4,2.4,5.5,0c3.4-3.8,7.2-7.4,10.9-11c1.9-1.8,1-4.1,1-6.1c0-71.9,0-143.9,0-215.8c0-1.3,0.1-2.7,0-4
		c-0.2-2.4,0.8-3.3,3.2-3.2C250.2,157,255.2,157,260.2,157z M98.9,250.7c-0.3-0.4-0.7-0.9-1.2-1.4c-10.8-10.8-21.7-21.6-32.4-32.5
		c-1.8-1.8-2.7-0.8-3.9,0.4c-10.4,10.5-20.9,21-31.4,31.4c-1.8,1.7-2.2,2.8-0.2,4.7c10.6,10.4,21,20.9,31.4,31.4
		c1.8,1.9,3,1.7,4.7-0.1c10.4-10.5,20.9-21,31.4-31.5C97.9,252.6,98.9,252,98.9,250.7z"/>
	<path class="st0" d="M376,144.6c0,12.7-0.1,25.3,0.1,38c0,2.8-0.7,3.7-3.6,3.7c-12.7-0.1-25.3-0.1-39.5-0.1
		c4.3-4.3,7.6-8.1,11.4-11.4c2.7-2.4,2.4-3.8,0-6.2c-21.8-21.6-43.5-43.3-65-65c-2.5-2.5-3.8-2.6-6.2,0c-6.3,6.7-13,12.9-19.3,19.6
		c-2.1,2.2-3.3,2.3-5.5,0.1C229.3,104.1,210.2,85,191,66c-2.1-2-1.9-3.1,0.1-5c19.2-19,38.2-38.1,57.2-57.3c2.3-2.4,3.5-1.8,5.5,0.2
		c18.9,19,37.8,38,56.9,56.9c2.2,2.2,2.3,3.3,0,5.4c-6.3,6-12.2,12.3-18.5,18.3c-2.2,2.1-2.7,3.4-0.2,5.8
		c22,21.8,43.9,43.7,65.7,65.7c2.3,2.3,3.5,2,5.5-0.2c3.7-4.1,7.7-8.1,11.6-12.1C375.3,144,375.6,144.3,376,144.6z M234.4,32.4
		c-0.9,0.8-1.7,1.5-2.4,2.2c-2.8,2.8-5.5,5.8-8.5,8.4c-2.1,1.8-2.3,3-0.1,5c4.2,3.8,8,8,12.1,11.9c1.7,1.6,1.8,2.7,0,4.4
		c-4.3,4.1-8.4,8.5-12.8,12.6c-1.8,1.7-2.3,2.8-0.2,4.7c3.1,2.8,6,5.7,8.8,8.8c1.7,1.9,2.9,2.1,4.7,0.1c3.7-4,8-7.6,11.5-11.8
		c2.7-3.2,4.5-2.6,6.9,0.2c3,3.4,6.6,6.2,9.4,9.6c2.8,3.4,4.6,3,7.2-0.1c2.8-3.4,8.5-6.4,8.7-9.8c0.2-3.8-5.6-6.7-8.8-10
		c-6.5-6.7-6.5-6.5,0-13.2c3.4-3.6,9.9-6.7,9.4-10.8c-0.4-3.9-6.4-7.1-9.7-10.8c-2-2.3-3.3-1.8-5.1,0.2c-3.6,3.9-7.6,7.4-11.2,11.4
		c-2.4,2.7-4,3.2-6.6,0.2c-3.5-4-7.4-7.6-11.2-11.4C235.9,33.6,235.2,33,234.4,32.4z"/>
	<path class="st0" d="M221.5,156.1c9.2-9.3,18.4-18.6,27.5-28c1.5-1.5,2.6-1.5,4.1,0c9.1,9.4,18.3,18.7,27.5,28
		C260.8,156.1,241.2,156.1,221.5,156.1z"/>
</g>
</svg>
