<?xml version="1.0" encoding="utf-8"?>
<!-- Generator: Adobe Illustrator 21.1.0, SVG Export Plug-In . SVG Version: 6.00 Build 0)  -->
<svg version="1.1" id="Layer_1" xmlns="http://www.w3.org/2000/svg" xmlns:xlink="http://www.w3.org/1999/xlink" x="0px" y="0px"
	 viewBox="0 0 500 498.4" style="enable-background:new 0 0 500 498.4;" xml:space="preserve">
<style type="text/css">
	.st0{fill:#05CD7B;}
	.st1{fill:#07CD7B;}
</style>
<g>
	<path class="st0" d="M0,249c2,0,2.7-1.7,3.8-2.8C84.6,165.4,165.4,84.6,246.2,3.8C247.3,2.7,249,2,249,0c0.3,0,0.7,0,1,0
		c20,19.8,40.1,39.5,60,59.4c2.7,2.7,4,2.2,6.1-0.3c3.5-3.9,7.3-7.5,11.9-12.2c0,14.6,0,27.7,0,40.8c0,2.5-1.4,2.5-3.2,2.5
		c-12.8,0-25.6,0-39.8,0c4.6-4.6,8.2-8.5,12.2-12.1c2.1-1.9,2.1-3,0-5c-14.9-14.5-29.8-29.1-44.5-43.8c-2.4-2.4-3.5-1.7-5.5,0.3
		c-39.7,39.7-79.5,79.4-119.2,119.1c-32.6,32.6-65.2,65.4-97.9,97.9c-3,3-2.8,4.4,0,7.3c34.7,34.8,69.3,69.7,104,104.5
		c2.9,2.9,3.3,4.6,0,7.3c-3.5,2.8-6.5,8.6-9.8,8.6c-3.2,0-6.5-5.5-9.7-8.7C76.6,327.1,38.3,288.5,0,250C0,249.7,0,249.3,0,249z"/>
	<path class="st0" d="M500,251c-2.3,0.2-3.2,2.2-4.5,3.5c-80.4,80.3-160.8,160.7-241.1,241.1c-3.5,3.5-5.3,3.7-8.8,0.1
		c-18.4-18.6-37.2-36.8-55.7-55.3c-2.4-2.4-3.7-2.3-5.8,0.1c-3.5,4-7.3,7.7-10.9,11.6c-0.4-0.1-0.9-0.3-1.3-0.4c0-3.4,0-6.7,0-10.1
		c0-9.3,0-18.7,0-28c0-1.6-0.8-3.9,2.3-3.8c13.1,0.1,26.2,0,40.9,0c-5,4.9-8.9,8.8-12.9,12.6c-1.5,1.4-1.7,2.3-0.1,3.9
		c15.3,14.9,30.5,29.8,45.6,44.9c2.7,2.7,3.7,0.4,5.1-1c19.7-19.6,39.4-39.3,59.1-59c52.5-52.6,105-105.2,157.7-157.6
		c3.1-3.1,3.1-4.6,0-7.7c-34.8-34.8-69.3-69.7-104.1-104.5c-3-3-3.1-4.7,0.1-7.3c2.5-2,4.7-4.3,6.7-6.7c2.3-2.8,3.7-2.4,6.1,0.1
		c22.1,22.4,44.3,44.8,66.5,67.1c18.3,18.4,36.6,36.9,55,55.3C500,250.3,500,250.7,500,251z"/>
	<path class="st1" d="M249,187c2.3,0.3,3.1-1.7,4.3-2.9c18.7-18.6,37.3-37.1,55.8-55.9c2.8-2.9,4.2-2.6,6.8,0.1
		c18.5,18.7,37.1,37.4,55.9,55.8c2.9,2.9,2.5,4.2-0.1,6.8c-18.6,18.4-36.9,37-55.6,55.3c-3.3,3.3-2.7,4.7,0.2,7.6
		c18.6,18.4,37,37,55.6,55.4c2.6,2.5,2.9,3.8,0.1,6.5c-18.9,18.6-37.6,37.3-56.2,56.2c-2.7,2.8-4,2.4-6.5-0.1
		c-18.5-18.7-37.2-37.2-55.7-56c-2.7-2.7-4.1-3-6.9-0.1c-18.6,18.9-37.4,37.5-56.1,56.3c-2.4,2.4-3.6,2.7-6.1,0.1
		c-18.7-19-37.6-37.8-56.5-56.5c-2.4-2.4-2.6-3.6-0.1-6.1c18.9-18.6,37.5-37.4,56.2-56.2c1.2-1.2,3.3-2,2.9-4.3c0.3,0,0.7,0,1,0
		c-0.3,2.3,1.7,3.1,2.9,4.3c18.4,18.5,37,36.9,55.3,55.6c3.2,3.3,4.9,2.8,7.7-0.1c18.5-18.7,37.1-37.3,55.8-55.8
		c2.6-2.5,2.3-3.8-0.1-6.2c-18.9-18.7-37.7-37.6-56.6-56.4c-1.1-1.1-1.9-2.9-4-2.5C249,187.6,249,187.3,249,187z M312.6,348.1
		c0.7-0.6,1.2-1,1.7-1.5c10.8-10.8,21.6-21.7,32.5-32.5c2-1.9,0.5-2.8-0.7-3.9c-10.4-10.4-20.8-20.7-31.1-31.1c-1.9-2-3-2.2-5.1-0.1
		c-10.3,10.5-20.6,20.8-31.1,31.1c-1.8,1.8-2,2.8-0.1,4.7c10.6,10.4,21,20.9,31.5,31.4C311,346.9,311.8,347.5,312.6,348.1z
		 M296,156.5c-0.5,0.3-1,0.5-1.3,0.8c-3.7,3.6-7.3,7.3-11,10.9c-1.5,1.5-0.2,2.3,0.7,3.2c2.7,2.7,5.4,5.4,8.1,8.1
		c6.6,6.6,6.5,6.5,0,13.1c-3.5,3.6-9.9,6.8-9.6,10.7c0.3,3.8,6.3,7.1,9.7,10.8c1.8,2,3.1,2.3,5.1,0.1c2.7-3.1,5.8-5.9,8.8-8.9
		c6-6,5.9-5.9,12,0.1c3.4,3.4,6.9,9.3,10.4,9.3c4.4,0,7.3-6.4,11.2-9.8c1.9-1.7,2.1-2.9,0.1-4.7c-2.6-2.3-5-4.9-7.5-7.4
		c-6.9-6.9-6.8-6.8,0-13.8c3.3-3.4,9.7-6.7,9.2-10.4c-0.5-3.9-6.3-7.2-9.6-10.9c-1.8-2.1-3.1-2.3-5.1-0.1
		c-3.8,4.2-8.1,7.9-11.9,12.1c-2.3,2.6-3.7,2.2-5.8-0.1c-3.6-3.9-7.5-7.6-11.3-11.3C297.5,157.9,296.8,157.2,296,156.5z
		 M170.3,341.6c0.8-0.8,1.6-1.4,2.3-2.1c3-2.9,5.9-5.9,8.8-8.8c6.1-6.1,6-6,12.4,0.1c3.4,3.3,6.5,9.5,10.4,9.2c3.7-0.3,7-6,10.4-9.3
		c0.2-0.2,0.4-0.5,0.7-0.7c2-1.5,1.7-2.7,0-4.4c-4-3.8-7.6-7.9-11.7-11.6c-2.6-2.3-2.2-3.7,0.1-5.8c4.3-4,8.2-8.2,12.4-12.3
		c1.5-1.5,1.7-2.4,0.1-4c-3.3-3.1-6.5-6.3-9.5-9.5c-1.5-1.6-2.6-1.5-4,0.1c-3,3.2-6.1,6.1-9.2,9.2c-6.1,6.1-6,6-12.1,0.1
		c-3.6-3.4-6.7-9.9-10.8-9.5c-3.9,0.4-7.1,6.4-10.8,9.7c-2.3,2-1.8,3.3,0.2,5.1c3.5,3.3,6.7,7,10.3,10.1c3.1,2.7,3.8,4.6,0.2,7.6
		c-4.2,3.5-7.8,7.7-11.8,11.5c-1.5,1.5-1.7,2.4-0.1,4c3.3,3.1,6.4,6.3,9.6,9.5C168.8,340.5,169.5,340.9,170.3,341.6z"/>
	<path class="st0" d="M188,249c-0.3,0-0.7,0-1,0c-3.9-3.8-8-7.5-11.8-11.4c-15.8-15.8-31.6-31.6-47.4-47.3c-1.8-1.8-2.9-2.9-0.4-5.3
		c19.3-19.1,38.5-38.3,57.7-57.5c1.5-1.6,2.5-2.5,4.6-0.4c19.6,19.8,39.3,39.4,58.9,59.1c0.2,0.2,0.3,0.6,0.4,0.9c0,0.3,0,0.6,0,0.9
		c-6.4,6.5-12.7,13.1-19.2,19.6C215.9,221.4,201.9,235.2,188,249z"/>
</g>
</svg>
