<?xml version="1.0" encoding="utf-8"?>
<!-- Generator: Adobe Illustrator 21.1.0, SVG Export Plug-In . SVG Version: 6.00 Build 0)  -->
<svg version="1.1" id="footprint--left_xA0_Image_1_"
	 xmlns="http://www.w3.org/2000/svg" xmlns:xlink="http://www.w3.org/1999/xlink" x="0px" y="0px" viewBox="0 0 86 95.7"
	 style="enable-background:new 0 0 86 95.7;" xml:space="preserve">
<style type="text/css">
	.st0{fill:#FFFFFF;}
</style>
<g>
	<path class="st0" d="M8.4,92.6c-5-11.2-5-11.2,3.5-19C21,65.2,30.2,56.7,39.6,48c14,12,27.7,23.7,41.8,35.8c-3.1,3.9-5.9,7.6-9,11
		c-0.7,0.8-2.6,1.1-3.7,0.8c-2.7-0.8-5.5-1.7-7.8-3.2c-9.6-5.9-19.6-5.7-30.2-3.3C23.5,90.7,16,91.4,8.4,92.6z"/>
	<path class="st0" d="M61.5,46.8c-6.3-0.4-11.8-0.8-16.8-1.2c0-15.1,0-29.6,0-44.6C51.5,1.4,57.4,1.7,64,2.1
		C63.2,17,62.4,31.6,61.5,46.8z"/>
	<path class="st0" d="M86,23.1c-0.9,15.2-1.7,29.7-2.6,44.7c-6.1-0.4-11.6-0.8-16.9-1.1c0-15,0-29.5,0-44.6
		C73.4,22.4,79.3,22.7,86,23.1z"/>
	<path class="st0" d="M19,13.5c0,6.7,0,12.5,0,18.2c0,8-0.1,15.9,0,23.9c0,2.7-0.8,3.8-3.5,4.3c-4.9,0.8-9.7,2-15.5,3.3
		c0.4-6.4,0.8-12.2,1.2-18c0.1-2,0.8-4,0.5-5.9C-0.3,25.8,10,20.8,19,13.5z"/>
	<path class="st0" d="M38.6,42.7c-5,0.3-10.3,0.7-15.7,1c0-14.6,0-28.8,0-43.7c5.3,0.4,10,0.7,15.7,1C38.6,14.8,38.6,28.5,38.6,42.7
		z"/>
</g>
</svg>
