<?xml version="1.0" encoding="utf-8"?>
<!-- Generator: Adobe Illustrator 21.1.0, SVG Export Plug-In . SVG Version: 6.00 Build 0)  -->
<svg version="1.1" id="footprint_xA0_Image_1_" xmlns="http://www.w3.org/2000/svg" xmlns:xlink="http://www.w3.org/1999/xlink"
	 x="0px" y="0px" viewBox="0 0 86.2 95.6" style="enable-background:new 0 0 86.2 95.6;" xml:space="preserve">
<style type="text/css">
	.st0{fill:#FFFFFF;}
</style>
<g>
	<path class="st0" d="M46.4,48.1c11.6,10.7,22.8,21,33.8,31.3c0.8,0.8,1.2,2.6,0.9,3.8c-0.8,3.2-2.1,6.2-3.3,9.6
		c-11.8-1.8-23.3-3.7-34.7-5.2c-2.5-0.3-5.3,0-7.6,0.8c-5.9,2.1-11.6,4.9-17.6,7c-1.4,0.5-3.8-0.1-4.9-1.2c-3-3.1-5.5-6.6-8.5-10.3
		C18.6,72,32.3,60.2,46.4,48.1z"/>
	<path class="st0" d="M24.6,46.9c-0.9-15-1.7-29.6-2.5-44.7C28.4,1.9,34.3,1.5,41,1.1c0.5,14.8,1,29.4,1.5,44.6
		C36.5,46.1,30.8,46.5,24.6,46.9z"/>
	<path class="st0" d="M0,23.2c6.5-0.4,12.3-0.7,18.9-1.1c0.5,14.8,1,29.5,1.5,44.6c-6.1,0.4-11.7,0.8-17.9,1.2
		C1.7,53,0.9,38.5,0,23.2z"/>
	<path class="st0" d="M86.2,63.3C80,62,74.8,61,69.6,59.7c-1-0.2-2.4-1.6-2.4-2.4c-0.2-14.2-0.1-28.4-0.1-43.9
		c5.6,4.8,10.4,8.8,15.1,12.8c0.6,0.5,1.1,1.4,1.2,2.1C84.4,39.7,85.2,51.1,86.2,63.3z"/>
	<path class="st0" d="M63,43.9c-5.4-0.4-10.7-0.8-15.7-1.1c0-13.8,0-27.4,0-41.4C52.7,0.9,57.4,0.5,63,0C63,14.6,63,29,63,43.9z"/>
</g>
</svg>
