<?xml version="1.0" encoding="utf-8"?>
<!-- Generator: Adobe Illustrator 21.1.0, SVG Export Plug-In . SVG Version: 6.00 Build 0)  -->
<svg version="1.1" id="Capa_1" xmlns="http://www.w3.org/2000/svg" xmlns:xlink="http://www.w3.org/1999/xlink" x="0px" y="0px"
	 viewBox="0 0 256 144.1" style="enable-background:new 0 0 256 144.1;" xml:space="preserve">
<style type="text/css">
	.st0{fill:#FFFFFF;}
	.st1{fill:#05CE7C;}
	.st2{fill:#99999A;}
</style>
<g id="XMLID_70_">
	<g id="XMLID_319_">
		<path id="XMLID_354_" class="st0" d="M44.5,61.9h6.7l5.6,13.6l5.6-13.6H69L56.7,89.4L44.5,61.9z"/>
		<polygon id="XMLID_353_" class="st0" points="81.4,82.4 81.4,77.9 90.1,77.9 90.1,72.2 81.4,72.2 81.4,67.5 93.7,67.5 93.7,61.9 
			75.1,61.9 75.1,88.1 93.7,88.1 93.7,82.4 		"/>
		<path id="XMLID_351_" class="st0" d="M32,61.9h6.3v26.2H32V61.9z"/>
		<polygon id="XMLID_350_" class="st0" points="38.3,58 30.5,50.2 38.3,50.2 		"/>
		<path id="XMLID_348_" class="st0" d="M20.5,88.1h-6.3V75.4L0,89.4l0-27.6h6.3v12.7l14.2-14.2V88.1z"/>
		<path id="XMLID_321_" class="st0" d="M101.4,61.9h6.3v20.6H120v5.7h-18.6V61.9z"/>
	</g>
	<g id="XMLID_103_">
		<polygon id="XMLID_317_" class="st1" points="200,24 224,48 224,0 		"/>
		<polygon id="XMLID_316_" class="st1" points="200,56 200,24 184,40 		"/>
		<polygon id="XMLID_312_" class="st1" points="136,88.1 136,120.1 168,120.1 		"/>
		<polygon id="XMLID_309_" class="st1" points="176,80.1 184,72 184,40 136,88.1 184,88.1 		"/>
		<polygon id="XMLID_308_" class="st2" points="256,120 224,88.1 256,88.1 		"/>
		<polygon id="XMLID_307_" class="st0" points="224,120.1 200,96.1 216,96.1 200,80.1 176,80.1 184,88.1 160,88.1 148,100.1 
			168,120.1 192,120.1 192,144.1 224,144.1 224,136.1 208,120.1 		"/>
		<polygon id="XMLID_283_" class="st1" points="192,136.1 208,136.1 192,120.1 		"/>
		<polygon id="XMLID_278_" class="st1" points="192,144.1 208,144.1 192,128 		"/>
	</g>
</g>
</svg>
